G75*
%MOIN*%
%OFA0B0*%
%FSLAX25Y25*%
%IPPOS*%
%LPD*%
%AMOC8*
5,1,8,0,0,1.08239X$1,22.5*
%
%ADD10C,0.00000*%
%ADD11C,0.06000*%
%ADD12R,0.06299X0.07087*%
%ADD13R,0.05906X0.05118*%
%ADD14R,0.05118X0.05906*%
%ADD15C,0.05200*%
%ADD16R,0.05512X0.04331*%
%ADD17R,0.04331X0.05512*%
%ADD18R,0.05000X0.10000*%
%ADD19R,0.05000X0.02200*%
%ADD20R,0.02200X0.05000*%
%ADD21C,0.01600*%
%ADD22C,0.03962*%
%ADD23C,0.02400*%
%ADD24C,0.01969*%
D10*
X0002092Y0002201D02*
X0002092Y0120311D01*
X0080832Y0120311D01*
X0080832Y0139996D01*
X0159572Y0139996D01*
X0159572Y0002201D01*
X0002092Y0002201D01*
X0009179Y0011059D02*
X0009181Y0011128D01*
X0009187Y0011196D01*
X0009197Y0011264D01*
X0009211Y0011331D01*
X0009229Y0011398D01*
X0009250Y0011463D01*
X0009276Y0011527D01*
X0009305Y0011589D01*
X0009337Y0011649D01*
X0009373Y0011708D01*
X0009413Y0011764D01*
X0009455Y0011818D01*
X0009501Y0011869D01*
X0009550Y0011918D01*
X0009601Y0011964D01*
X0009655Y0012006D01*
X0009711Y0012046D01*
X0009769Y0012082D01*
X0009830Y0012114D01*
X0009892Y0012143D01*
X0009956Y0012169D01*
X0010021Y0012190D01*
X0010088Y0012208D01*
X0010155Y0012222D01*
X0010223Y0012232D01*
X0010291Y0012238D01*
X0010360Y0012240D01*
X0010429Y0012238D01*
X0010497Y0012232D01*
X0010565Y0012222D01*
X0010632Y0012208D01*
X0010699Y0012190D01*
X0010764Y0012169D01*
X0010828Y0012143D01*
X0010890Y0012114D01*
X0010950Y0012082D01*
X0011009Y0012046D01*
X0011065Y0012006D01*
X0011119Y0011964D01*
X0011170Y0011918D01*
X0011219Y0011869D01*
X0011265Y0011818D01*
X0011307Y0011764D01*
X0011347Y0011708D01*
X0011383Y0011649D01*
X0011415Y0011589D01*
X0011444Y0011527D01*
X0011470Y0011463D01*
X0011491Y0011398D01*
X0011509Y0011331D01*
X0011523Y0011264D01*
X0011533Y0011196D01*
X0011539Y0011128D01*
X0011541Y0011059D01*
X0011539Y0010990D01*
X0011533Y0010922D01*
X0011523Y0010854D01*
X0011509Y0010787D01*
X0011491Y0010720D01*
X0011470Y0010655D01*
X0011444Y0010591D01*
X0011415Y0010529D01*
X0011383Y0010468D01*
X0011347Y0010410D01*
X0011307Y0010354D01*
X0011265Y0010300D01*
X0011219Y0010249D01*
X0011170Y0010200D01*
X0011119Y0010154D01*
X0011065Y0010112D01*
X0011009Y0010072D01*
X0010951Y0010036D01*
X0010890Y0010004D01*
X0010828Y0009975D01*
X0010764Y0009949D01*
X0010699Y0009928D01*
X0010632Y0009910D01*
X0010565Y0009896D01*
X0010497Y0009886D01*
X0010429Y0009880D01*
X0010360Y0009878D01*
X0010291Y0009880D01*
X0010223Y0009886D01*
X0010155Y0009896D01*
X0010088Y0009910D01*
X0010021Y0009928D01*
X0009956Y0009949D01*
X0009892Y0009975D01*
X0009830Y0010004D01*
X0009769Y0010036D01*
X0009711Y0010072D01*
X0009655Y0010112D01*
X0009601Y0010154D01*
X0009550Y0010200D01*
X0009501Y0010249D01*
X0009455Y0010300D01*
X0009413Y0010354D01*
X0009373Y0010410D01*
X0009337Y0010468D01*
X0009305Y0010529D01*
X0009276Y0010591D01*
X0009250Y0010655D01*
X0009229Y0010720D01*
X0009211Y0010787D01*
X0009197Y0010854D01*
X0009187Y0010922D01*
X0009181Y0010990D01*
X0009179Y0011059D01*
X0149139Y0011059D02*
X0149141Y0011128D01*
X0149147Y0011196D01*
X0149157Y0011264D01*
X0149171Y0011331D01*
X0149189Y0011398D01*
X0149210Y0011463D01*
X0149236Y0011527D01*
X0149265Y0011589D01*
X0149297Y0011649D01*
X0149333Y0011708D01*
X0149373Y0011764D01*
X0149415Y0011818D01*
X0149461Y0011869D01*
X0149510Y0011918D01*
X0149561Y0011964D01*
X0149615Y0012006D01*
X0149671Y0012046D01*
X0149729Y0012082D01*
X0149790Y0012114D01*
X0149852Y0012143D01*
X0149916Y0012169D01*
X0149981Y0012190D01*
X0150048Y0012208D01*
X0150115Y0012222D01*
X0150183Y0012232D01*
X0150251Y0012238D01*
X0150320Y0012240D01*
X0150389Y0012238D01*
X0150457Y0012232D01*
X0150525Y0012222D01*
X0150592Y0012208D01*
X0150659Y0012190D01*
X0150724Y0012169D01*
X0150788Y0012143D01*
X0150850Y0012114D01*
X0150910Y0012082D01*
X0150969Y0012046D01*
X0151025Y0012006D01*
X0151079Y0011964D01*
X0151130Y0011918D01*
X0151179Y0011869D01*
X0151225Y0011818D01*
X0151267Y0011764D01*
X0151307Y0011708D01*
X0151343Y0011649D01*
X0151375Y0011589D01*
X0151404Y0011527D01*
X0151430Y0011463D01*
X0151451Y0011398D01*
X0151469Y0011331D01*
X0151483Y0011264D01*
X0151493Y0011196D01*
X0151499Y0011128D01*
X0151501Y0011059D01*
X0151499Y0010990D01*
X0151493Y0010922D01*
X0151483Y0010854D01*
X0151469Y0010787D01*
X0151451Y0010720D01*
X0151430Y0010655D01*
X0151404Y0010591D01*
X0151375Y0010529D01*
X0151343Y0010468D01*
X0151307Y0010410D01*
X0151267Y0010354D01*
X0151225Y0010300D01*
X0151179Y0010249D01*
X0151130Y0010200D01*
X0151079Y0010154D01*
X0151025Y0010112D01*
X0150969Y0010072D01*
X0150911Y0010036D01*
X0150850Y0010004D01*
X0150788Y0009975D01*
X0150724Y0009949D01*
X0150659Y0009928D01*
X0150592Y0009910D01*
X0150525Y0009896D01*
X0150457Y0009886D01*
X0150389Y0009880D01*
X0150320Y0009878D01*
X0150251Y0009880D01*
X0150183Y0009886D01*
X0150115Y0009896D01*
X0150048Y0009910D01*
X0149981Y0009928D01*
X0149916Y0009949D01*
X0149852Y0009975D01*
X0149790Y0010004D01*
X0149729Y0010036D01*
X0149671Y0010072D01*
X0149615Y0010112D01*
X0149561Y0010154D01*
X0149510Y0010200D01*
X0149461Y0010249D01*
X0149415Y0010300D01*
X0149373Y0010354D01*
X0149333Y0010410D01*
X0149297Y0010468D01*
X0149265Y0010529D01*
X0149236Y0010591D01*
X0149210Y0010655D01*
X0149189Y0010720D01*
X0149171Y0010787D01*
X0149157Y0010854D01*
X0149147Y0010922D01*
X0149141Y0010990D01*
X0149139Y0011059D01*
X0150321Y0131531D02*
X0150323Y0131600D01*
X0150329Y0131668D01*
X0150339Y0131736D01*
X0150353Y0131803D01*
X0150371Y0131870D01*
X0150392Y0131935D01*
X0150418Y0131999D01*
X0150447Y0132061D01*
X0150479Y0132121D01*
X0150515Y0132180D01*
X0150555Y0132236D01*
X0150597Y0132290D01*
X0150643Y0132341D01*
X0150692Y0132390D01*
X0150743Y0132436D01*
X0150797Y0132478D01*
X0150853Y0132518D01*
X0150911Y0132554D01*
X0150972Y0132586D01*
X0151034Y0132615D01*
X0151098Y0132641D01*
X0151163Y0132662D01*
X0151230Y0132680D01*
X0151297Y0132694D01*
X0151365Y0132704D01*
X0151433Y0132710D01*
X0151502Y0132712D01*
X0151571Y0132710D01*
X0151639Y0132704D01*
X0151707Y0132694D01*
X0151774Y0132680D01*
X0151841Y0132662D01*
X0151906Y0132641D01*
X0151970Y0132615D01*
X0152032Y0132586D01*
X0152092Y0132554D01*
X0152151Y0132518D01*
X0152207Y0132478D01*
X0152261Y0132436D01*
X0152312Y0132390D01*
X0152361Y0132341D01*
X0152407Y0132290D01*
X0152449Y0132236D01*
X0152489Y0132180D01*
X0152525Y0132121D01*
X0152557Y0132061D01*
X0152586Y0131999D01*
X0152612Y0131935D01*
X0152633Y0131870D01*
X0152651Y0131803D01*
X0152665Y0131736D01*
X0152675Y0131668D01*
X0152681Y0131600D01*
X0152683Y0131531D01*
X0152681Y0131462D01*
X0152675Y0131394D01*
X0152665Y0131326D01*
X0152651Y0131259D01*
X0152633Y0131192D01*
X0152612Y0131127D01*
X0152586Y0131063D01*
X0152557Y0131001D01*
X0152525Y0130940D01*
X0152489Y0130882D01*
X0152449Y0130826D01*
X0152407Y0130772D01*
X0152361Y0130721D01*
X0152312Y0130672D01*
X0152261Y0130626D01*
X0152207Y0130584D01*
X0152151Y0130544D01*
X0152093Y0130508D01*
X0152032Y0130476D01*
X0151970Y0130447D01*
X0151906Y0130421D01*
X0151841Y0130400D01*
X0151774Y0130382D01*
X0151707Y0130368D01*
X0151639Y0130358D01*
X0151571Y0130352D01*
X0151502Y0130350D01*
X0151433Y0130352D01*
X0151365Y0130358D01*
X0151297Y0130368D01*
X0151230Y0130382D01*
X0151163Y0130400D01*
X0151098Y0130421D01*
X0151034Y0130447D01*
X0150972Y0130476D01*
X0150911Y0130508D01*
X0150853Y0130544D01*
X0150797Y0130584D01*
X0150743Y0130626D01*
X0150692Y0130672D01*
X0150643Y0130721D01*
X0150597Y0130772D01*
X0150555Y0130826D01*
X0150515Y0130882D01*
X0150479Y0130940D01*
X0150447Y0131001D01*
X0150418Y0131063D01*
X0150392Y0131127D01*
X0150371Y0131192D01*
X0150353Y0131259D01*
X0150339Y0131326D01*
X0150329Y0131394D01*
X0150323Y0131462D01*
X0150321Y0131531D01*
D11*
X0148541Y0121846D02*
X0154541Y0121846D01*
X0154541Y0111846D02*
X0148541Y0111846D01*
X0148541Y0101846D02*
X0154541Y0101846D01*
X0154541Y0091846D02*
X0148541Y0091846D01*
X0148541Y0081846D02*
X0154541Y0081846D01*
X0153832Y0062004D02*
X0147832Y0062004D01*
X0147832Y0052004D02*
X0153832Y0052004D01*
X0153832Y0042004D02*
X0147832Y0042004D01*
X0147832Y0032004D02*
X0153832Y0032004D01*
X0153832Y0022004D02*
X0147832Y0022004D01*
X0106265Y0016657D02*
X0106265Y0010657D01*
X0096265Y0010657D02*
X0096265Y0016657D01*
X0012100Y0032437D02*
X0006100Y0032437D01*
X0006100Y0042437D02*
X0012100Y0042437D01*
X0012100Y0052437D02*
X0006100Y0052437D01*
X0006100Y0062437D02*
X0012100Y0062437D01*
X0012100Y0072437D02*
X0006100Y0072437D01*
X0011061Y0095075D02*
X0017061Y0095075D01*
X0017061Y0105075D02*
X0011061Y0105075D01*
X0066147Y0105933D02*
X0066147Y0111933D01*
X0076147Y0111933D02*
X0076147Y0105933D01*
X0086147Y0105933D02*
X0086147Y0111933D01*
X0096147Y0111933D02*
X0096147Y0105933D01*
D12*
X0036856Y0024878D03*
X0025832Y0024878D03*
X0025242Y0012870D03*
X0036265Y0012870D03*
D13*
X0033864Y0097909D03*
X0033864Y0104602D03*
D14*
X0125793Y0082555D03*
X0132486Y0082555D03*
D15*
X0051423Y0033500D03*
X0051423Y0013500D03*
D16*
X0079887Y0082949D03*
X0079887Y0090823D03*
D17*
X0107919Y0091138D03*
X0115793Y0091138D03*
X0125163Y0091335D03*
X0133037Y0091335D03*
X0128037Y0061886D03*
X0120163Y0061886D03*
X0120084Y0047909D03*
X0127958Y0047909D03*
X0128352Y0033736D03*
X0120478Y0033736D03*
X0121147Y0017004D03*
X0129021Y0017004D03*
X0081541Y0013461D03*
X0073667Y0013461D03*
D18*
X0072210Y0083224D03*
X0065242Y0083028D03*
D19*
X0064798Y0059563D03*
X0064798Y0056413D03*
X0064798Y0053264D03*
X0064798Y0050114D03*
X0064798Y0046965D03*
X0064798Y0043815D03*
X0064798Y0040665D03*
X0064798Y0037516D03*
X0098598Y0037516D03*
X0098598Y0040665D03*
X0098598Y0043815D03*
X0098598Y0046965D03*
X0098598Y0050114D03*
X0098598Y0053264D03*
X0098598Y0056413D03*
X0098598Y0059563D03*
D20*
X0092722Y0065439D03*
X0089572Y0065439D03*
X0086423Y0065439D03*
X0083273Y0065439D03*
X0080124Y0065439D03*
X0076974Y0065439D03*
X0073824Y0065439D03*
X0070675Y0065439D03*
X0070675Y0031639D03*
X0073824Y0031639D03*
X0076974Y0031639D03*
X0080124Y0031639D03*
X0083273Y0031639D03*
X0086423Y0031639D03*
X0089572Y0031639D03*
X0092722Y0031639D03*
D21*
X0106334Y0031639D01*
X0115675Y0040980D01*
X0125320Y0040980D01*
X0125714Y0041374D01*
X0126502Y0041374D01*
X0128076Y0042949D01*
X0128076Y0047791D01*
X0127958Y0047909D01*
X0133746Y0047909D01*
X0140281Y0041374D01*
X0150202Y0041374D01*
X0150832Y0042004D01*
X0150832Y0052004D02*
X0140478Y0052004D01*
X0130596Y0061886D01*
X0128037Y0061886D01*
X0127683Y0061531D01*
X0127683Y0056728D01*
X0125124Y0054169D01*
X0114691Y0054169D01*
X0114494Y0053972D01*
X0114494Y0043933D01*
X0108076Y0037516D01*
X0100517Y0037516D01*
X0104533Y0037516D01*
X0106416Y0035116D02*
X0102061Y0035116D01*
X0101761Y0034816D01*
X0095436Y0034816D01*
X0094498Y0035753D01*
X0094498Y0037865D01*
X0086693Y0037865D01*
X0085664Y0038292D01*
X0082740Y0041216D01*
X0082255Y0041015D01*
X0068898Y0041015D01*
X0068898Y0035753D01*
X0067961Y0034816D01*
X0067198Y0034816D01*
X0067198Y0026398D01*
X0066833Y0025516D01*
X0055623Y0014306D01*
X0055623Y0012665D01*
X0054983Y0011121D01*
X0053802Y0009939D01*
X0052258Y0009300D01*
X0050587Y0009300D01*
X0049044Y0009939D01*
X0047883Y0011100D01*
X0041015Y0011100D01*
X0041015Y0008664D01*
X0040078Y0007727D01*
X0032453Y0007727D01*
X0031516Y0008664D01*
X0031516Y0017076D01*
X0032453Y0018013D01*
X0040078Y0018013D01*
X0041015Y0017076D01*
X0041015Y0015900D01*
X0047883Y0015900D01*
X0049044Y0017061D01*
X0050587Y0017700D01*
X0052229Y0017700D01*
X0062398Y0027870D01*
X0062398Y0034816D01*
X0061636Y0034816D01*
X0060698Y0035753D01*
X0060698Y0038265D01*
X0059582Y0038265D01*
X0055623Y0034306D01*
X0055623Y0032665D01*
X0054983Y0031121D01*
X0053823Y0029960D01*
X0053823Y0028810D01*
X0053457Y0027928D01*
X0049205Y0023676D01*
X0049205Y0023676D01*
X0048530Y0023001D01*
X0047648Y0022635D01*
X0041605Y0022635D01*
X0041605Y0020672D01*
X0040668Y0019735D01*
X0033044Y0019735D01*
X0032106Y0020672D01*
X0032106Y0029084D01*
X0033044Y0030021D01*
X0040668Y0030021D01*
X0041605Y0029084D01*
X0041605Y0027435D01*
X0046177Y0027435D01*
X0048862Y0030121D01*
X0047862Y0031121D01*
X0047223Y0032665D01*
X0047223Y0034335D01*
X0047862Y0035879D01*
X0049044Y0037061D01*
X0050587Y0037700D01*
X0052229Y0037700D01*
X0055944Y0041415D01*
X0044700Y0041415D01*
X0043497Y0040211D01*
X0042822Y0039536D01*
X0042486Y0039397D01*
X0034442Y0031353D01*
X0033767Y0030678D01*
X0032884Y0030313D01*
X0016199Y0030313D01*
X0016000Y0029831D01*
X0014706Y0028537D01*
X0013015Y0027837D01*
X0006892Y0027837D01*
X0006892Y0016050D01*
X0006972Y0016130D01*
X0009170Y0017040D01*
X0011550Y0017040D01*
X0013748Y0016130D01*
X0015430Y0014447D01*
X0016341Y0012249D01*
X0016341Y0009869D01*
X0015430Y0007671D01*
X0014760Y0007001D01*
X0093417Y0007001D01*
X0092366Y0008052D01*
X0091665Y0009742D01*
X0091665Y0011061D01*
X0085306Y0011061D01*
X0085306Y0010042D01*
X0084369Y0009105D01*
X0078713Y0009105D01*
X0077776Y0010042D01*
X0077776Y0016879D01*
X0078713Y0017817D01*
X0084369Y0017817D01*
X0085306Y0016879D01*
X0085306Y0015861D01*
X0091665Y0015861D01*
X0091665Y0017572D01*
X0092366Y0019263D01*
X0093660Y0020557D01*
X0094400Y0020864D01*
X0089607Y0020864D01*
X0088725Y0021229D01*
X0088050Y0021904D01*
X0085673Y0024281D01*
X0085673Y0023849D01*
X0085308Y0022967D01*
X0082867Y0020526D01*
X0082192Y0019851D01*
X0081310Y0019486D01*
X0077496Y0019486D01*
X0076343Y0018333D01*
X0076343Y0017817D01*
X0076495Y0017817D01*
X0077432Y0016879D01*
X0077432Y0010042D01*
X0076495Y0009105D01*
X0070839Y0009105D01*
X0069902Y0010042D01*
X0069902Y0016879D01*
X0070839Y0017817D01*
X0071543Y0017817D01*
X0071543Y0019804D01*
X0071908Y0020686D01*
X0072583Y0021361D01*
X0075142Y0023920D01*
X0076024Y0024286D01*
X0079838Y0024286D01*
X0080873Y0025321D01*
X0080873Y0027539D01*
X0068912Y0027539D01*
X0067975Y0028477D01*
X0067975Y0034802D01*
X0068912Y0035739D01*
X0094485Y0035739D01*
X0095422Y0034802D01*
X0095422Y0034039D01*
X0105340Y0034039D01*
X0106416Y0035116D01*
X0105471Y0034171D02*
X0095422Y0034171D01*
X0094498Y0035770D02*
X0068898Y0035770D01*
X0068898Y0037368D02*
X0094498Y0037368D01*
X0098598Y0037516D02*
X0100517Y0037516D01*
X0098598Y0040665D02*
X0098480Y0040783D01*
X0094498Y0043465D02*
X0088409Y0043465D01*
X0085273Y0046602D01*
X0084485Y0047389D01*
X0080056Y0051818D01*
X0079269Y0052606D01*
X0078240Y0053032D01*
X0069098Y0053032D01*
X0069098Y0053264D01*
X0069098Y0054601D01*
X0068976Y0055059D01*
X0068898Y0055192D01*
X0068898Y0061326D01*
X0067961Y0062263D01*
X0061636Y0062263D01*
X0061336Y0061963D01*
X0026300Y0061963D01*
X0025580Y0061665D01*
X0026955Y0063039D01*
X0067975Y0063039D01*
X0067975Y0062277D01*
X0068912Y0061339D01*
X0094485Y0061339D01*
X0095422Y0062277D01*
X0095422Y0068602D01*
X0094485Y0069539D01*
X0090738Y0069539D01*
X0097546Y0076347D01*
X0098221Y0077022D01*
X0098587Y0077904D01*
X0098587Y0101964D01*
X0098753Y0102033D01*
X0100047Y0103327D01*
X0100747Y0105018D01*
X0100747Y0106533D01*
X0105389Y0106533D01*
X0114428Y0097495D01*
X0115103Y0096820D01*
X0115985Y0096454D01*
X0136925Y0096454D01*
X0139244Y0094135D01*
X0136802Y0094135D01*
X0136802Y0094753D01*
X0135865Y0095691D01*
X0130209Y0095691D01*
X0129272Y0094753D01*
X0129272Y0087916D01*
X0129880Y0087308D01*
X0129690Y0087308D01*
X0129232Y0087185D01*
X0129045Y0087077D01*
X0129015Y0087108D01*
X0128120Y0087108D01*
X0128928Y0087916D01*
X0128928Y0094753D01*
X0127991Y0095691D01*
X0122335Y0095691D01*
X0121398Y0094753D01*
X0121398Y0093538D01*
X0119558Y0093538D01*
X0119558Y0094556D01*
X0118621Y0095494D01*
X0112965Y0095494D01*
X0112028Y0094556D01*
X0112028Y0087719D01*
X0112965Y0086782D01*
X0113669Y0086782D01*
X0113669Y0074455D01*
X0102223Y0063009D01*
X0101869Y0062155D01*
X0101761Y0062263D01*
X0095436Y0062263D01*
X0094498Y0061326D01*
X0094498Y0052043D01*
X0094421Y0051909D01*
X0094298Y0051451D01*
X0094298Y0050114D01*
X0094298Y0048777D01*
X0094421Y0048319D01*
X0094498Y0048185D01*
X0094498Y0043465D01*
X0094498Y0043762D02*
X0088113Y0043762D01*
X0086514Y0045361D02*
X0094498Y0045361D01*
X0094498Y0046959D02*
X0084916Y0046959D01*
X0083317Y0048558D02*
X0094357Y0048558D01*
X0094298Y0050114D02*
X0098598Y0050114D01*
X0098598Y0050114D01*
X0094298Y0050114D01*
X0094298Y0050156D02*
X0081719Y0050156D01*
X0080120Y0051755D02*
X0094380Y0051755D01*
X0094498Y0053353D02*
X0069098Y0053353D01*
X0069098Y0053264D02*
X0064799Y0053264D01*
X0064799Y0053264D01*
X0069098Y0053264D01*
X0069004Y0054952D02*
X0094498Y0054952D01*
X0094498Y0056550D02*
X0068898Y0056550D01*
X0068898Y0058149D02*
X0094498Y0058149D01*
X0094498Y0059747D02*
X0068898Y0059747D01*
X0068878Y0061346D02*
X0068906Y0061346D01*
X0067975Y0062944D02*
X0026860Y0062944D01*
X0025961Y0065439D02*
X0023352Y0062831D01*
X0009494Y0062831D01*
X0009100Y0062437D01*
X0006892Y0067037D02*
X0006892Y0067637D01*
X0008900Y0067637D01*
X0008900Y0072237D01*
X0009300Y0072237D01*
X0009300Y0072637D01*
X0016900Y0072637D01*
X0016900Y0072815D01*
X0016782Y0073561D01*
X0016548Y0074280D01*
X0016205Y0074953D01*
X0015761Y0075564D01*
X0015227Y0076098D01*
X0014616Y0076542D01*
X0013943Y0076885D01*
X0013224Y0077119D01*
X0012478Y0077237D01*
X0009300Y0077237D01*
X0009300Y0072637D01*
X0008900Y0072637D01*
X0008900Y0077237D01*
X0006892Y0077237D01*
X0006892Y0092683D01*
X0006955Y0092559D01*
X0007399Y0091948D01*
X0007934Y0091414D01*
X0008545Y0090969D01*
X0009218Y0090626D01*
X0009937Y0090393D01*
X0010683Y0090275D01*
X0013861Y0090275D01*
X0013861Y0094875D01*
X0014261Y0094875D01*
X0014261Y0095275D01*
X0021861Y0095275D01*
X0021861Y0095453D01*
X0021742Y0096199D01*
X0021509Y0096917D01*
X0021166Y0097591D01*
X0020722Y0098202D01*
X0020188Y0098736D01*
X0019576Y0099180D01*
X0018903Y0099523D01*
X0018185Y0099757D01*
X0017438Y0099875D01*
X0014261Y0099875D01*
X0014261Y0095275D01*
X0013861Y0095275D01*
X0013861Y0099875D01*
X0010683Y0099875D01*
X0009937Y0099757D01*
X0009218Y0099523D01*
X0008545Y0099180D01*
X0007934Y0098736D01*
X0007399Y0098202D01*
X0006955Y0097591D01*
X0006892Y0097466D01*
X0006892Y0103118D01*
X0007161Y0102469D01*
X0008455Y0101175D01*
X0010146Y0100475D01*
X0017976Y0100475D01*
X0019666Y0101175D01*
X0020766Y0102275D01*
X0029311Y0102275D01*
X0029311Y0101381D01*
X0029342Y0101350D01*
X0029234Y0101163D01*
X0029111Y0100705D01*
X0029111Y0098389D01*
X0033384Y0098389D01*
X0033384Y0097430D01*
X0029111Y0097430D01*
X0029111Y0095113D01*
X0029234Y0094656D01*
X0029471Y0094245D01*
X0029806Y0093910D01*
X0030216Y0093673D01*
X0030674Y0093550D01*
X0033384Y0093550D01*
X0033384Y0097430D01*
X0034343Y0097430D01*
X0034343Y0093550D01*
X0037054Y0093550D01*
X0037511Y0093673D01*
X0037922Y0093910D01*
X0038257Y0094245D01*
X0038494Y0094656D01*
X0038617Y0095113D01*
X0038617Y0097430D01*
X0034343Y0097430D01*
X0034343Y0098389D01*
X0038617Y0098389D01*
X0038617Y0100705D01*
X0038494Y0101163D01*
X0038386Y0101350D01*
X0038417Y0101381D01*
X0038417Y0101843D01*
X0039347Y0102229D01*
X0043628Y0106509D01*
X0046339Y0103797D01*
X0046339Y0079072D01*
X0046103Y0078836D01*
X0045558Y0077519D01*
X0045558Y0076095D01*
X0046103Y0074779D01*
X0047111Y0073771D01*
X0048427Y0073226D01*
X0049852Y0073226D01*
X0051168Y0073771D01*
X0052175Y0074779D01*
X0052720Y0076095D01*
X0052720Y0077519D01*
X0052175Y0078836D01*
X0051939Y0079072D01*
X0051939Y0105514D01*
X0051536Y0106487D01*
X0061547Y0106487D01*
X0061547Y0105018D01*
X0062248Y0103327D01*
X0063269Y0102306D01*
X0063269Y0099085D01*
X0063695Y0098056D01*
X0064482Y0097268D01*
X0071926Y0089824D01*
X0069047Y0089824D01*
X0068628Y0089404D01*
X0068404Y0089628D01*
X0062079Y0089628D01*
X0061142Y0088690D01*
X0061142Y0077365D01*
X0062079Y0076428D01*
X0062684Y0076428D01*
X0062684Y0074558D01*
X0063050Y0073676D01*
X0063725Y0073001D01*
X0068049Y0068676D01*
X0067975Y0068602D01*
X0067975Y0067839D01*
X0025483Y0067839D01*
X0024601Y0067474D01*
X0022358Y0065231D01*
X0015812Y0065231D01*
X0014706Y0066337D01*
X0013015Y0067037D01*
X0006892Y0067037D01*
X0008900Y0067740D02*
X0009300Y0067740D01*
X0009300Y0067637D02*
X0012478Y0067637D01*
X0013224Y0067755D01*
X0013943Y0067989D01*
X0014616Y0068332D01*
X0015227Y0068776D01*
X0015761Y0069310D01*
X0016205Y0069921D01*
X0016548Y0070594D01*
X0016782Y0071313D01*
X0016900Y0072059D01*
X0016900Y0072237D01*
X0009300Y0072237D01*
X0009300Y0067637D01*
X0009300Y0069338D02*
X0008900Y0069338D01*
X0008900Y0070937D02*
X0009300Y0070937D01*
X0009300Y0072535D02*
X0064190Y0072535D01*
X0062860Y0074134D02*
X0051531Y0074134D01*
X0052570Y0075732D02*
X0062684Y0075732D01*
X0061176Y0077331D02*
X0052720Y0077331D01*
X0052082Y0078929D02*
X0061142Y0078929D01*
X0061142Y0080528D02*
X0051939Y0080528D01*
X0051939Y0082126D02*
X0061142Y0082126D01*
X0061142Y0083725D02*
X0051939Y0083725D01*
X0051939Y0085323D02*
X0061142Y0085323D01*
X0061142Y0086922D02*
X0051939Y0086922D01*
X0051939Y0088520D02*
X0061142Y0088520D01*
X0065242Y0083028D02*
X0065084Y0082870D01*
X0065084Y0075035D01*
X0070399Y0069720D01*
X0073746Y0069720D01*
X0073824Y0069642D01*
X0073824Y0065439D01*
X0070675Y0065439D02*
X0025961Y0065439D01*
X0025243Y0067740D02*
X0013126Y0067740D01*
X0014901Y0066141D02*
X0023268Y0066141D01*
X0026777Y0059563D02*
X0019415Y0052201D01*
X0009336Y0052201D01*
X0009100Y0052437D01*
X0009100Y0042437D02*
X0009376Y0042161D01*
X0019612Y0042161D01*
X0033864Y0056413D01*
X0064798Y0056413D01*
X0064798Y0053264D02*
X0064798Y0053264D01*
X0060498Y0053264D01*
X0060498Y0054013D01*
X0034858Y0054013D01*
X0021646Y0040802D01*
X0020971Y0040127D01*
X0020089Y0039761D01*
X0015930Y0039761D01*
X0014706Y0038537D01*
X0013015Y0037837D01*
X0006892Y0037837D01*
X0006892Y0037037D01*
X0013015Y0037037D01*
X0014706Y0036337D01*
X0015930Y0035113D01*
X0031413Y0035113D01*
X0039906Y0043605D01*
X0040242Y0043745D01*
X0042347Y0045850D01*
X0043229Y0046215D01*
X0060498Y0046215D01*
X0060498Y0046964D01*
X0064798Y0046964D01*
X0064798Y0046965D01*
X0060498Y0046965D01*
X0060498Y0047648D01*
X0051620Y0047648D01*
X0051168Y0047196D01*
X0049852Y0046651D01*
X0048427Y0046651D01*
X0047111Y0047196D01*
X0046103Y0048204D01*
X0045558Y0049520D01*
X0045558Y0050945D01*
X0046103Y0052261D01*
X0047111Y0053268D01*
X0048427Y0053813D01*
X0049852Y0053813D01*
X0051168Y0053268D01*
X0051620Y0052817D01*
X0060498Y0052817D01*
X0060498Y0053264D01*
X0064798Y0053264D01*
X0064680Y0050232D02*
X0064798Y0050114D01*
X0064799Y0046965D02*
X0069098Y0046965D01*
X0069098Y0047432D01*
X0076523Y0047432D01*
X0077340Y0046615D01*
X0069098Y0046615D01*
X0069098Y0046964D01*
X0064799Y0046964D01*
X0064799Y0046965D01*
X0069098Y0046959D02*
X0076996Y0046959D01*
X0083390Y0040565D02*
X0068898Y0040565D01*
X0068898Y0038967D02*
X0084989Y0038967D01*
X0086423Y0031639D02*
X0086423Y0026925D01*
X0090084Y0023264D01*
X0127289Y0023264D01*
X0128864Y0021689D01*
X0128864Y0017161D01*
X0129021Y0017004D01*
X0135006Y0017004D01*
X0139887Y0021886D01*
X0150714Y0021886D01*
X0150832Y0022004D01*
X0151510Y0017040D02*
X0149131Y0017040D01*
X0146932Y0016130D01*
X0145250Y0014447D01*
X0144339Y0012249D01*
X0144339Y0009869D01*
X0145250Y0007671D01*
X0145920Y0007001D01*
X0109397Y0007001D01*
X0109927Y0007530D01*
X0110371Y0008142D01*
X0110714Y0008815D01*
X0110947Y0009533D01*
X0111065Y0010280D01*
X0111065Y0013457D01*
X0106465Y0013457D01*
X0106465Y0013857D01*
X0111065Y0013857D01*
X0111065Y0017035D01*
X0110947Y0017781D01*
X0110714Y0018500D01*
X0110371Y0019173D01*
X0109927Y0019784D01*
X0117382Y0019784D01*
X0117382Y0020423D02*
X0117382Y0013585D01*
X0118319Y0012648D01*
X0123975Y0012648D01*
X0124913Y0013585D01*
X0124913Y0020423D01*
X0124471Y0020864D01*
X0125697Y0020864D01*
X0125256Y0020423D01*
X0125256Y0013585D01*
X0126193Y0012648D01*
X0131849Y0012648D01*
X0132787Y0013585D01*
X0132787Y0014604D01*
X0135483Y0014604D01*
X0136365Y0014969D01*
X0140882Y0019486D01*
X0143896Y0019486D01*
X0143933Y0019398D01*
X0145227Y0018104D01*
X0146917Y0017404D01*
X0154747Y0017404D01*
X0154772Y0017414D01*
X0154772Y0015066D01*
X0153708Y0016130D01*
X0151510Y0017040D01*
X0152603Y0016587D02*
X0154772Y0016587D01*
X0148038Y0016587D02*
X0137983Y0016587D01*
X0136385Y0014989D02*
X0145792Y0014989D01*
X0144812Y0013390D02*
X0132592Y0013390D01*
X0139582Y0018186D02*
X0145145Y0018186D01*
X0144339Y0011792D02*
X0111065Y0011792D01*
X0111065Y0013390D02*
X0117577Y0013390D01*
X0117382Y0014989D02*
X0111065Y0014989D01*
X0111065Y0016587D02*
X0117382Y0016587D01*
X0117382Y0018186D02*
X0110816Y0018186D01*
X0109927Y0019784D02*
X0109392Y0020319D01*
X0108781Y0020763D01*
X0108583Y0020864D01*
X0117823Y0020864D01*
X0117382Y0020423D01*
X0124913Y0019784D02*
X0125256Y0019784D01*
X0125256Y0018186D02*
X0124913Y0018186D01*
X0124913Y0016587D02*
X0125256Y0016587D01*
X0125256Y0014989D02*
X0124913Y0014989D01*
X0124718Y0013390D02*
X0125451Y0013390D01*
X0125320Y0026413D02*
X0128470Y0029563D01*
X0128470Y0033618D01*
X0128352Y0033736D01*
X0135911Y0033736D01*
X0137919Y0031728D01*
X0150557Y0031728D01*
X0150832Y0032004D01*
X0144339Y0010193D02*
X0111052Y0010193D01*
X0110602Y0008595D02*
X0144867Y0008595D01*
X0125320Y0026413D02*
X0091069Y0026413D01*
X0089572Y0027909D01*
X0089572Y0031639D01*
X0083273Y0031639D02*
X0083273Y0024327D01*
X0080832Y0021886D01*
X0076502Y0021886D01*
X0073943Y0019327D01*
X0073943Y0013736D01*
X0073667Y0013461D01*
X0077432Y0013390D02*
X0077776Y0013390D01*
X0077776Y0011792D02*
X0077432Y0011792D01*
X0077432Y0010193D02*
X0077776Y0010193D01*
X0081541Y0013461D02*
X0096069Y0013461D01*
X0096265Y0013657D01*
X0100865Y0013390D02*
X0101465Y0013390D01*
X0101465Y0013457D02*
X0101465Y0010280D01*
X0101584Y0009533D01*
X0101817Y0008815D01*
X0102160Y0008142D01*
X0102604Y0007530D01*
X0103134Y0007001D01*
X0099114Y0007001D01*
X0100165Y0008052D01*
X0100865Y0009742D01*
X0100865Y0017572D01*
X0100165Y0019263D01*
X0098871Y0020557D01*
X0098131Y0020864D01*
X0103948Y0020864D01*
X0103750Y0020763D01*
X0103138Y0020319D01*
X0102604Y0019784D01*
X0099644Y0019784D01*
X0100611Y0018186D02*
X0101715Y0018186D01*
X0101817Y0018500D02*
X0101584Y0017781D01*
X0101465Y0017035D01*
X0101465Y0013857D01*
X0106065Y0013857D01*
X0106065Y0013457D01*
X0101465Y0013457D01*
X0101465Y0014989D02*
X0100865Y0014989D01*
X0100865Y0016587D02*
X0101465Y0016587D01*
X0101817Y0018500D02*
X0102160Y0019173D01*
X0102604Y0019784D01*
X0101465Y0011792D02*
X0100865Y0011792D01*
X0100865Y0010193D02*
X0101479Y0010193D01*
X0101929Y0008595D02*
X0100390Y0008595D01*
X0092141Y0008595D02*
X0040946Y0008595D01*
X0041015Y0010193D02*
X0048790Y0010193D01*
X0051423Y0013500D02*
X0036895Y0013500D01*
X0036265Y0012870D01*
X0036423Y0013028D01*
X0031516Y0013390D02*
X0026017Y0013390D01*
X0026017Y0013645D02*
X0030191Y0013645D01*
X0030191Y0016650D01*
X0030069Y0017108D01*
X0029832Y0017519D01*
X0029497Y0017854D01*
X0029086Y0018091D01*
X0028628Y0018213D01*
X0026017Y0018213D01*
X0026017Y0013645D01*
X0026017Y0012095D01*
X0030191Y0012095D01*
X0030191Y0009090D01*
X0030069Y0008632D01*
X0029832Y0008222D01*
X0029497Y0007886D01*
X0029086Y0007649D01*
X0028628Y0007527D01*
X0026017Y0007527D01*
X0026017Y0012095D01*
X0024467Y0012095D01*
X0024467Y0007527D01*
X0021855Y0007527D01*
X0021397Y0007649D01*
X0020987Y0007886D01*
X0020652Y0008222D01*
X0020415Y0008632D01*
X0020292Y0009090D01*
X0020292Y0012095D01*
X0024467Y0012095D01*
X0024467Y0013645D01*
X0024467Y0018213D01*
X0021855Y0018213D01*
X0021397Y0018091D01*
X0020987Y0017854D01*
X0020652Y0017519D01*
X0020415Y0017108D01*
X0020292Y0016650D01*
X0020292Y0013645D01*
X0024467Y0013645D01*
X0026017Y0013645D01*
X0026017Y0014989D02*
X0024467Y0014989D01*
X0024467Y0016587D02*
X0026017Y0016587D01*
X0026017Y0018186D02*
X0024467Y0018186D01*
X0025057Y0019535D02*
X0022446Y0019535D01*
X0021988Y0019657D01*
X0021577Y0019894D01*
X0021242Y0020229D01*
X0021005Y0020640D01*
X0020883Y0021098D01*
X0020883Y0024103D01*
X0025057Y0024103D01*
X0025057Y0025653D01*
X0020883Y0025653D01*
X0020883Y0028658D01*
X0021005Y0029116D01*
X0021242Y0029526D01*
X0021577Y0029862D01*
X0021988Y0030099D01*
X0022446Y0030221D01*
X0025057Y0030221D01*
X0025057Y0025653D01*
X0026607Y0025653D01*
X0026607Y0030221D01*
X0029219Y0030221D01*
X0029677Y0030099D01*
X0030087Y0029862D01*
X0030422Y0029526D01*
X0030659Y0029116D01*
X0030782Y0028658D01*
X0030782Y0025653D01*
X0026607Y0025653D01*
X0026607Y0024103D01*
X0026607Y0019535D01*
X0029219Y0019535D01*
X0029677Y0019657D01*
X0030087Y0019894D01*
X0030422Y0020229D01*
X0030659Y0020640D01*
X0030782Y0021098D01*
X0030782Y0024103D01*
X0026607Y0024103D01*
X0025057Y0024103D01*
X0025057Y0019535D01*
X0025057Y0019784D02*
X0026607Y0019784D01*
X0028731Y0018186D02*
X0052715Y0018186D01*
X0054313Y0019784D02*
X0040718Y0019784D01*
X0041605Y0021383D02*
X0055912Y0021383D01*
X0057510Y0022981D02*
X0048484Y0022981D01*
X0050109Y0024580D02*
X0059109Y0024580D01*
X0060707Y0026178D02*
X0051708Y0026178D01*
X0053306Y0027777D02*
X0062306Y0027777D01*
X0062398Y0029375D02*
X0053823Y0029375D01*
X0054837Y0030974D02*
X0062398Y0030974D01*
X0062398Y0032573D02*
X0055585Y0032573D01*
X0055623Y0034171D02*
X0062398Y0034171D01*
X0060698Y0035770D02*
X0057086Y0035770D01*
X0058685Y0037368D02*
X0060698Y0037368D01*
X0058588Y0040665D02*
X0051423Y0033500D01*
X0051423Y0029287D01*
X0047171Y0025035D01*
X0037013Y0025035D01*
X0036856Y0024878D01*
X0037328Y0025350D01*
X0041605Y0027777D02*
X0046518Y0027777D01*
X0048117Y0029375D02*
X0041314Y0029375D01*
X0035661Y0032573D02*
X0047261Y0032573D01*
X0048009Y0030974D02*
X0034063Y0030974D01*
X0032398Y0029375D02*
X0030509Y0029375D01*
X0030782Y0027777D02*
X0032106Y0027777D01*
X0032106Y0026178D02*
X0030782Y0026178D01*
X0032106Y0024580D02*
X0026607Y0024580D01*
X0025057Y0024580D02*
X0006892Y0024580D01*
X0006892Y0026178D02*
X0020883Y0026178D01*
X0020883Y0027777D02*
X0006892Y0027777D01*
X0006892Y0022981D02*
X0020883Y0022981D01*
X0020883Y0021383D02*
X0006892Y0021383D01*
X0006892Y0019784D02*
X0021768Y0019784D01*
X0021753Y0018186D02*
X0006892Y0018186D01*
X0006892Y0016587D02*
X0008077Y0016587D01*
X0012643Y0016587D02*
X0020292Y0016587D01*
X0020292Y0014989D02*
X0014889Y0014989D01*
X0015868Y0013390D02*
X0024467Y0013390D01*
X0024467Y0011792D02*
X0026017Y0011792D01*
X0026017Y0010193D02*
X0024467Y0010193D01*
X0024467Y0008595D02*
X0026017Y0008595D01*
X0030047Y0008595D02*
X0031585Y0008595D01*
X0031516Y0010193D02*
X0030191Y0010193D01*
X0030191Y0011792D02*
X0031516Y0011792D01*
X0031516Y0014989D02*
X0030191Y0014989D01*
X0030191Y0016587D02*
X0031516Y0016587D01*
X0032994Y0019784D02*
X0029897Y0019784D01*
X0030782Y0021383D02*
X0032106Y0021383D01*
X0032106Y0022981D02*
X0030782Y0022981D01*
X0026607Y0022981D02*
X0025057Y0022981D01*
X0025057Y0021383D02*
X0026607Y0021383D01*
X0026607Y0026178D02*
X0025057Y0026178D01*
X0025057Y0027777D02*
X0026607Y0027777D01*
X0026607Y0029375D02*
X0025057Y0029375D01*
X0021155Y0029375D02*
X0015544Y0029375D01*
X0009376Y0032713D02*
X0009100Y0032437D01*
X0009376Y0032713D02*
X0032407Y0032713D01*
X0041265Y0041571D01*
X0041462Y0041571D01*
X0043706Y0043815D01*
X0064798Y0043815D01*
X0064798Y0040665D02*
X0058588Y0040665D01*
X0055094Y0040565D02*
X0043851Y0040565D01*
X0042055Y0038967D02*
X0053495Y0038967D01*
X0049786Y0037368D02*
X0040457Y0037368D01*
X0038858Y0035770D02*
X0047817Y0035770D01*
X0047223Y0034171D02*
X0037260Y0034171D01*
X0033668Y0037368D02*
X0006892Y0037368D01*
X0015135Y0038967D02*
X0035267Y0038967D01*
X0036865Y0040565D02*
X0021410Y0040565D01*
X0023008Y0042164D02*
X0038464Y0042164D01*
X0040259Y0043762D02*
X0024607Y0043762D01*
X0026205Y0045361D02*
X0041858Y0045361D01*
X0045957Y0048558D02*
X0029402Y0048558D01*
X0031001Y0050156D02*
X0045558Y0050156D01*
X0045894Y0051755D02*
X0032599Y0051755D01*
X0034198Y0053353D02*
X0047316Y0053353D01*
X0050963Y0053353D02*
X0060498Y0053353D01*
X0060498Y0046959D02*
X0050595Y0046959D01*
X0047684Y0046959D02*
X0027804Y0046959D01*
X0032070Y0035770D02*
X0015273Y0035770D01*
X0041015Y0016587D02*
X0048571Y0016587D01*
X0051423Y0013500D02*
X0064798Y0026876D01*
X0064798Y0037516D01*
X0067198Y0034171D02*
X0067975Y0034171D01*
X0067975Y0032573D02*
X0067198Y0032573D01*
X0067198Y0030974D02*
X0067975Y0030974D01*
X0067975Y0029375D02*
X0067198Y0029375D01*
X0067198Y0027777D02*
X0068674Y0027777D01*
X0067107Y0026178D02*
X0080873Y0026178D01*
X0080132Y0024580D02*
X0065897Y0024580D01*
X0064298Y0022981D02*
X0074203Y0022981D01*
X0072605Y0021383D02*
X0062700Y0021383D01*
X0061101Y0019784D02*
X0071543Y0019784D01*
X0071543Y0018186D02*
X0059503Y0018186D01*
X0057904Y0016587D02*
X0069902Y0016587D01*
X0069902Y0014989D02*
X0056306Y0014989D01*
X0055623Y0013390D02*
X0069902Y0013390D01*
X0069902Y0011792D02*
X0055261Y0011792D01*
X0054056Y0010193D02*
X0069902Y0010193D01*
X0077432Y0014989D02*
X0077776Y0014989D01*
X0077776Y0016587D02*
X0077432Y0016587D01*
X0076343Y0018186D02*
X0091919Y0018186D01*
X0091665Y0016587D02*
X0085306Y0016587D01*
X0082031Y0019784D02*
X0092887Y0019784D01*
X0088571Y0021383D02*
X0083723Y0021383D01*
X0085314Y0022981D02*
X0086972Y0022981D01*
X0085306Y0010193D02*
X0091665Y0010193D01*
X0098598Y0046965D02*
X0105124Y0046965D01*
X0107407Y0049248D01*
X0107407Y0058697D01*
X0125320Y0076610D01*
X0125320Y0082083D01*
X0125793Y0082555D01*
X0127720Y0078002D02*
X0129015Y0078002D01*
X0129045Y0078033D01*
X0129232Y0077925D01*
X0129690Y0077802D01*
X0132006Y0077802D01*
X0132006Y0082076D01*
X0132965Y0082076D01*
X0132965Y0083035D01*
X0136845Y0083035D01*
X0136845Y0085745D01*
X0136722Y0086203D01*
X0136485Y0086613D01*
X0136150Y0086948D01*
X0135950Y0087064D01*
X0136802Y0087916D01*
X0136802Y0088535D01*
X0138662Y0088535D01*
X0138662Y0081171D01*
X0139088Y0080142D01*
X0139482Y0079749D01*
X0139482Y0079749D01*
X0140270Y0078961D01*
X0141299Y0078535D01*
X0144269Y0078535D01*
X0139830Y0074095D01*
X0126200Y0074095D01*
X0126680Y0074576D01*
X0127355Y0075251D01*
X0127720Y0076133D01*
X0127720Y0078002D01*
X0127720Y0077331D02*
X0143066Y0077331D01*
X0141467Y0075732D02*
X0127555Y0075732D01*
X0126238Y0074134D02*
X0139869Y0074134D01*
X0136150Y0078162D02*
X0135740Y0077925D01*
X0135282Y0077802D01*
X0132965Y0077802D01*
X0132965Y0082076D01*
X0136845Y0082076D01*
X0136845Y0079365D01*
X0136722Y0078908D01*
X0136485Y0078497D01*
X0136150Y0078162D01*
X0136728Y0078929D02*
X0140346Y0078929D01*
X0138929Y0080528D02*
X0136845Y0080528D01*
X0138662Y0082126D02*
X0132965Y0082126D01*
X0132965Y0080528D02*
X0132006Y0080528D01*
X0132006Y0078929D02*
X0132965Y0078929D01*
X0136845Y0083725D02*
X0138662Y0083725D01*
X0138662Y0085323D02*
X0136845Y0085323D01*
X0136176Y0086922D02*
X0138662Y0086922D01*
X0138662Y0088520D02*
X0136802Y0088520D01*
X0139927Y0091335D02*
X0141462Y0089799D01*
X0145006Y0091768D02*
X0151462Y0091768D01*
X0151541Y0091846D01*
X0145006Y0091768D02*
X0137919Y0098854D01*
X0116462Y0098854D01*
X0106383Y0108933D01*
X0096147Y0108933D01*
X0096187Y0108894D01*
X0096187Y0078382D01*
X0086423Y0068618D01*
X0086423Y0065439D01*
X0083273Y0065439D02*
X0083273Y0072358D01*
X0086541Y0075626D01*
X0086541Y0108539D01*
X0086147Y0108933D01*
X0086147Y0115193D01*
X0089494Y0118539D01*
X0104257Y0118539D01*
X0119809Y0102988D01*
X0140872Y0102988D01*
X0142053Y0101807D01*
X0151502Y0101807D01*
X0151541Y0101846D01*
X0147626Y0106446D02*
X0145935Y0105746D01*
X0144641Y0104452D01*
X0144540Y0104207D01*
X0143047Y0104207D01*
X0142231Y0105023D01*
X0141349Y0105388D01*
X0120803Y0105388D01*
X0105617Y0120574D01*
X0104735Y0120939D01*
X0089016Y0120939D01*
X0088134Y0120574D01*
X0087459Y0119899D01*
X0084113Y0116552D01*
X0083871Y0115969D01*
X0083542Y0115833D01*
X0082248Y0114539D01*
X0081547Y0112848D01*
X0081547Y0105018D01*
X0082248Y0103327D01*
X0083542Y0102033D01*
X0084141Y0101785D01*
X0084141Y0093753D01*
X0083306Y0094588D01*
X0076469Y0094588D01*
X0075775Y0093895D01*
X0068868Y0100802D01*
X0068868Y0102149D01*
X0070047Y0103327D01*
X0070747Y0105018D01*
X0070747Y0112848D01*
X0070047Y0114539D01*
X0069075Y0115511D01*
X0072937Y0115511D01*
X0072486Y0115060D01*
X0072042Y0114449D01*
X0071699Y0113776D01*
X0071465Y0113057D01*
X0071347Y0112311D01*
X0071347Y0109133D01*
X0075947Y0109133D01*
X0075947Y0108733D01*
X0071347Y0108733D01*
X0071347Y0105555D01*
X0071465Y0104809D01*
X0071699Y0104091D01*
X0072042Y0103417D01*
X0072486Y0102806D01*
X0073020Y0102272D01*
X0073631Y0101828D01*
X0074305Y0101485D01*
X0075023Y0101251D01*
X0075769Y0101133D01*
X0075947Y0101133D01*
X0075947Y0108733D01*
X0076347Y0108733D01*
X0076347Y0101133D01*
X0076525Y0101133D01*
X0077271Y0101251D01*
X0077990Y0101485D01*
X0078663Y0101828D01*
X0079274Y0102272D01*
X0079808Y0102806D01*
X0080253Y0103417D01*
X0080596Y0104091D01*
X0080829Y0104809D01*
X0080947Y0105555D01*
X0080947Y0108733D01*
X0076347Y0108733D01*
X0076347Y0109133D01*
X0080947Y0109133D01*
X0080947Y0112311D01*
X0080829Y0113057D01*
X0080596Y0113776D01*
X0080253Y0114449D01*
X0079808Y0115060D01*
X0079357Y0115511D01*
X0081787Y0115511D01*
X0083551Y0116242D01*
X0084902Y0117592D01*
X0085632Y0119356D01*
X0085632Y0135196D01*
X0146708Y0135196D01*
X0146431Y0134920D01*
X0145520Y0132721D01*
X0145520Y0130342D01*
X0146431Y0128143D01*
X0147960Y0126614D01*
X0147417Y0126528D01*
X0146698Y0126295D01*
X0146025Y0125952D01*
X0145414Y0125508D01*
X0144880Y0124973D01*
X0144436Y0124362D01*
X0144093Y0123689D01*
X0143859Y0122970D01*
X0143741Y0122224D01*
X0143741Y0122046D01*
X0151341Y0122046D01*
X0151341Y0121646D01*
X0151741Y0121646D01*
X0151741Y0117046D01*
X0154772Y0117046D01*
X0154772Y0116446D01*
X0147626Y0116446D01*
X0145935Y0115746D01*
X0144641Y0114452D01*
X0143941Y0112761D01*
X0143941Y0110931D01*
X0144641Y0109241D01*
X0145935Y0107947D01*
X0147626Y0107246D01*
X0154772Y0107246D01*
X0154772Y0106446D01*
X0147626Y0106446D01*
X0146799Y0106104D02*
X0120087Y0106104D01*
X0118488Y0107703D02*
X0146525Y0107703D01*
X0144616Y0109301D02*
X0116890Y0109301D01*
X0115291Y0110900D02*
X0143954Y0110900D01*
X0143941Y0112498D02*
X0113693Y0112498D01*
X0112094Y0114097D02*
X0144494Y0114097D01*
X0145884Y0115695D02*
X0110496Y0115695D01*
X0108897Y0117294D02*
X0147020Y0117294D01*
X0146698Y0117398D02*
X0147417Y0117165D01*
X0148163Y0117046D01*
X0151341Y0117046D01*
X0151341Y0121646D01*
X0143741Y0121646D01*
X0143741Y0121469D01*
X0143859Y0120722D01*
X0144093Y0120004D01*
X0144436Y0119331D01*
X0144880Y0118719D01*
X0145414Y0118185D01*
X0146025Y0117741D01*
X0146698Y0117398D01*
X0144754Y0118892D02*
X0107299Y0118892D01*
X0105700Y0120491D02*
X0143934Y0120491D01*
X0143741Y0122089D02*
X0085632Y0122089D01*
X0085632Y0123688D02*
X0144092Y0123688D01*
X0145192Y0125286D02*
X0085632Y0125286D01*
X0085632Y0126885D02*
X0147690Y0126885D01*
X0146290Y0128483D02*
X0085632Y0128483D01*
X0085632Y0130082D02*
X0145628Y0130082D01*
X0145520Y0131680D02*
X0085632Y0131680D01*
X0085632Y0133279D02*
X0145751Y0133279D01*
X0146414Y0134877D02*
X0085632Y0134877D01*
X0085632Y0120491D02*
X0088051Y0120491D01*
X0086452Y0118892D02*
X0085440Y0118892D01*
X0084854Y0117294D02*
X0084603Y0117294D01*
X0083404Y0115695D02*
X0082231Y0115695D01*
X0082064Y0114097D02*
X0080432Y0114097D01*
X0080918Y0112498D02*
X0081547Y0112498D01*
X0081547Y0110900D02*
X0080947Y0110900D01*
X0080947Y0109301D02*
X0081547Y0109301D01*
X0081547Y0107703D02*
X0080947Y0107703D01*
X0080947Y0106104D02*
X0081547Y0106104D01*
X0081760Y0104506D02*
X0080730Y0104506D01*
X0079882Y0102907D02*
X0082668Y0102907D01*
X0084141Y0101308D02*
X0077447Y0101308D01*
X0076347Y0101308D02*
X0075947Y0101308D01*
X0074847Y0101308D02*
X0068868Y0101308D01*
X0069627Y0102907D02*
X0072413Y0102907D01*
X0071564Y0104506D02*
X0070535Y0104506D01*
X0070747Y0106104D02*
X0071347Y0106104D01*
X0071347Y0107703D02*
X0070747Y0107703D01*
X0070747Y0109301D02*
X0071347Y0109301D01*
X0071347Y0110900D02*
X0070747Y0110900D01*
X0070747Y0112498D02*
X0071377Y0112498D01*
X0071862Y0114097D02*
X0070230Y0114097D01*
X0065793Y0109287D02*
X0066147Y0108933D01*
X0066069Y0108854D01*
X0061547Y0106104D02*
X0051695Y0106104D01*
X0051939Y0104506D02*
X0061760Y0104506D01*
X0062668Y0102907D02*
X0051939Y0102907D01*
X0051939Y0101308D02*
X0063269Y0101308D01*
X0063269Y0099710D02*
X0051939Y0099710D01*
X0051939Y0098111D02*
X0063672Y0098111D01*
X0065237Y0096513D02*
X0051939Y0096513D01*
X0051939Y0094914D02*
X0066836Y0094914D01*
X0068434Y0093316D02*
X0051939Y0093316D01*
X0051939Y0091717D02*
X0070033Y0091717D01*
X0071632Y0090119D02*
X0051939Y0090119D01*
X0046339Y0090119D02*
X0006892Y0090119D01*
X0006892Y0091717D02*
X0007630Y0091717D01*
X0006892Y0088520D02*
X0046339Y0088520D01*
X0046339Y0086922D02*
X0006892Y0086922D01*
X0006892Y0085323D02*
X0046339Y0085323D01*
X0046339Y0083725D02*
X0006892Y0083725D01*
X0006892Y0082126D02*
X0046339Y0082126D01*
X0046339Y0080528D02*
X0006892Y0080528D01*
X0006892Y0078929D02*
X0046197Y0078929D01*
X0045558Y0077331D02*
X0006892Y0077331D01*
X0008900Y0075732D02*
X0009300Y0075732D01*
X0009300Y0074134D02*
X0008900Y0074134D01*
X0015593Y0075732D02*
X0045708Y0075732D01*
X0046748Y0074134D02*
X0016596Y0074134D01*
X0016660Y0070937D02*
X0065789Y0070937D01*
X0067387Y0069338D02*
X0015782Y0069338D01*
X0026777Y0059563D02*
X0064798Y0059563D01*
X0076974Y0065439D02*
X0076974Y0071413D01*
X0072368Y0076020D01*
X0072368Y0083067D01*
X0072210Y0083224D01*
X0079887Y0082949D02*
X0080124Y0082713D01*
X0080124Y0065439D01*
X0092136Y0070937D02*
X0110151Y0070937D01*
X0111749Y0072535D02*
X0093734Y0072535D01*
X0095333Y0074134D02*
X0113348Y0074134D01*
X0113669Y0075732D02*
X0096931Y0075732D01*
X0098349Y0077331D02*
X0113669Y0077331D01*
X0113669Y0078929D02*
X0098587Y0078929D01*
X0098587Y0080528D02*
X0113669Y0080528D01*
X0113669Y0082126D02*
X0098587Y0082126D01*
X0098587Y0083725D02*
X0113669Y0083725D01*
X0113669Y0085323D02*
X0098587Y0085323D01*
X0098587Y0086922D02*
X0104682Y0086922D01*
X0104648Y0086942D02*
X0105059Y0086705D01*
X0105517Y0086582D01*
X0107636Y0086582D01*
X0107636Y0090855D01*
X0103954Y0090855D01*
X0103954Y0088145D01*
X0104076Y0087687D01*
X0104313Y0087277D01*
X0104648Y0086942D01*
X0103954Y0088520D02*
X0098587Y0088520D01*
X0098587Y0090119D02*
X0103954Y0090119D01*
X0103954Y0091420D02*
X0107636Y0091420D01*
X0107636Y0090855D01*
X0108202Y0090855D01*
X0108202Y0091420D01*
X0111884Y0091420D01*
X0111884Y0094131D01*
X0111762Y0094588D01*
X0111525Y0094999D01*
X0111189Y0095334D01*
X0110779Y0095571D01*
X0110321Y0095694D01*
X0108202Y0095694D01*
X0108202Y0091421D01*
X0107636Y0091421D01*
X0107636Y0095694D01*
X0105517Y0095694D01*
X0105059Y0095571D01*
X0104648Y0095334D01*
X0104313Y0094999D01*
X0104076Y0094588D01*
X0103954Y0094131D01*
X0103954Y0091420D01*
X0103954Y0091717D02*
X0098587Y0091717D01*
X0098587Y0093316D02*
X0103954Y0093316D01*
X0104264Y0094914D02*
X0098587Y0094914D01*
X0098587Y0096513D02*
X0115843Y0096513D01*
X0113811Y0098111D02*
X0098587Y0098111D01*
X0098587Y0099710D02*
X0112212Y0099710D01*
X0110614Y0101308D02*
X0098587Y0101308D01*
X0099627Y0102907D02*
X0109015Y0102907D01*
X0107417Y0104506D02*
X0100535Y0104506D01*
X0100747Y0106104D02*
X0105818Y0106104D01*
X0107636Y0094914D02*
X0108202Y0094914D01*
X0108202Y0093316D02*
X0107636Y0093316D01*
X0107636Y0091717D02*
X0108202Y0091717D01*
X0108202Y0090855D02*
X0111884Y0090855D01*
X0111884Y0088145D01*
X0111762Y0087687D01*
X0111525Y0087277D01*
X0111189Y0086942D01*
X0110779Y0086705D01*
X0110321Y0086582D01*
X0108202Y0086582D01*
X0108202Y0090855D01*
X0108202Y0090119D02*
X0107636Y0090119D01*
X0107636Y0088520D02*
X0108202Y0088520D01*
X0108202Y0086922D02*
X0107636Y0086922D01*
X0111155Y0086922D02*
X0112825Y0086922D01*
X0112028Y0088520D02*
X0111884Y0088520D01*
X0111884Y0090119D02*
X0112028Y0090119D01*
X0112028Y0091717D02*
X0111884Y0091717D01*
X0111884Y0093316D02*
X0112028Y0093316D01*
X0112386Y0094914D02*
X0111573Y0094914D01*
X0115793Y0091138D02*
X0124966Y0091138D01*
X0125163Y0091335D01*
X0128928Y0091717D02*
X0129272Y0091717D01*
X0129272Y0090119D02*
X0128928Y0090119D01*
X0128928Y0088520D02*
X0129272Y0088520D01*
X0129272Y0093316D02*
X0128928Y0093316D01*
X0128767Y0094914D02*
X0129433Y0094914D01*
X0136641Y0094914D02*
X0138465Y0094914D01*
X0142748Y0104506D02*
X0144695Y0104506D01*
X0151341Y0117294D02*
X0151741Y0117294D01*
X0151741Y0118892D02*
X0151341Y0118892D01*
X0151341Y0120491D02*
X0151741Y0120491D01*
X0121559Y0094914D02*
X0119200Y0094914D01*
X0115793Y0091138D02*
X0116069Y0090862D01*
X0116069Y0073461D01*
X0104257Y0061650D01*
X0104257Y0056925D01*
X0103746Y0056413D01*
X0098598Y0056413D01*
X0102698Y0054013D02*
X0104223Y0054013D01*
X0105007Y0054338D01*
X0105007Y0050242D01*
X0104130Y0049365D01*
X0102898Y0049365D01*
X0102898Y0050114D01*
X0098599Y0050114D01*
X0098599Y0050114D01*
X0102898Y0050114D01*
X0102898Y0051451D01*
X0102776Y0051909D01*
X0102698Y0052043D01*
X0102698Y0054013D01*
X0102698Y0053353D02*
X0105007Y0053353D01*
X0105007Y0051755D02*
X0102817Y0051755D01*
X0102898Y0050156D02*
X0104921Y0050156D01*
X0114691Y0057909D02*
X0116187Y0057909D01*
X0118806Y0056569D02*
X0119767Y0057530D01*
X0122991Y0057530D01*
X0123928Y0058467D01*
X0123928Y0065304D01*
X0123412Y0065821D01*
X0126087Y0068495D01*
X0141547Y0068495D01*
X0142576Y0068922D01*
X0150901Y0077246D01*
X0154772Y0077246D01*
X0154772Y0066715D01*
X0154210Y0066804D01*
X0151032Y0066804D01*
X0151032Y0062204D01*
X0150632Y0062204D01*
X0150632Y0061804D01*
X0143032Y0061804D01*
X0143032Y0061626D01*
X0143150Y0060880D01*
X0143384Y0060161D01*
X0143727Y0059488D01*
X0144171Y0058877D01*
X0144705Y0058343D01*
X0145317Y0057899D01*
X0145990Y0057556D01*
X0146708Y0057322D01*
X0147455Y0057204D01*
X0150632Y0057204D01*
X0150632Y0061804D01*
X0151032Y0061804D01*
X0151032Y0057204D01*
X0154210Y0057204D01*
X0154772Y0057293D01*
X0154772Y0056593D01*
X0154747Y0056604D01*
X0146917Y0056604D01*
X0145227Y0055904D01*
X0143933Y0054610D01*
X0143847Y0054404D01*
X0141472Y0054404D01*
X0131956Y0063920D01*
X0131802Y0063984D01*
X0131802Y0065304D01*
X0130865Y0066242D01*
X0125209Y0066242D01*
X0124272Y0065304D01*
X0124272Y0058467D01*
X0125150Y0057589D01*
X0124130Y0056569D01*
X0118806Y0056569D01*
X0123610Y0058149D02*
X0124590Y0058149D01*
X0124272Y0059747D02*
X0123928Y0059747D01*
X0123928Y0061346D02*
X0124272Y0061346D01*
X0124272Y0062944D02*
X0123928Y0062944D01*
X0123928Y0064543D02*
X0124272Y0064543D01*
X0123733Y0066141D02*
X0125108Y0066141D01*
X0125331Y0067740D02*
X0154772Y0067740D01*
X0154772Y0069338D02*
X0142993Y0069338D01*
X0144591Y0070937D02*
X0154772Y0070937D01*
X0154772Y0072535D02*
X0146190Y0072535D01*
X0147788Y0074134D02*
X0154772Y0074134D01*
X0154772Y0075732D02*
X0149387Y0075732D01*
X0151029Y0081335D02*
X0151541Y0081846D01*
X0141856Y0081335D02*
X0141462Y0081728D01*
X0146708Y0066686D02*
X0145990Y0066452D01*
X0145317Y0066109D01*
X0144705Y0065665D01*
X0144171Y0065131D01*
X0143727Y0064520D01*
X0143384Y0063846D01*
X0143150Y0063128D01*
X0143032Y0062382D01*
X0143032Y0062204D01*
X0150632Y0062204D01*
X0150632Y0066804D01*
X0147455Y0066804D01*
X0146708Y0066686D01*
X0145379Y0066141D02*
X0130966Y0066141D01*
X0131802Y0064543D02*
X0143744Y0064543D01*
X0143121Y0062944D02*
X0132932Y0062944D01*
X0134530Y0061346D02*
X0143077Y0061346D01*
X0143595Y0059747D02*
X0136129Y0059747D01*
X0137727Y0058149D02*
X0144972Y0058149D01*
X0146788Y0056550D02*
X0139326Y0056550D01*
X0140924Y0054952D02*
X0144275Y0054952D01*
X0150632Y0058149D02*
X0151032Y0058149D01*
X0151032Y0059747D02*
X0150632Y0059747D01*
X0150632Y0061346D02*
X0151032Y0061346D01*
X0151032Y0062944D02*
X0150632Y0062944D01*
X0150632Y0064543D02*
X0151032Y0064543D01*
X0151032Y0066141D02*
X0150632Y0066141D01*
X0108552Y0069338D02*
X0094686Y0069338D01*
X0095422Y0067740D02*
X0106954Y0067740D01*
X0105355Y0066141D02*
X0095422Y0066141D01*
X0095422Y0064543D02*
X0103756Y0064543D01*
X0102196Y0062944D02*
X0095422Y0062944D01*
X0094518Y0061346D02*
X0094491Y0061346D01*
X0079887Y0090823D02*
X0074887Y0090823D01*
X0074756Y0094914D02*
X0084141Y0094914D01*
X0084141Y0096513D02*
X0073157Y0096513D01*
X0071559Y0098111D02*
X0084141Y0098111D01*
X0084141Y0099710D02*
X0069960Y0099710D01*
X0075947Y0102907D02*
X0076347Y0102907D01*
X0076347Y0104506D02*
X0075947Y0104506D01*
X0075947Y0106104D02*
X0076347Y0106104D01*
X0076347Y0107703D02*
X0075947Y0107703D01*
X0046339Y0102907D02*
X0040026Y0102907D01*
X0041624Y0104506D02*
X0045631Y0104506D01*
X0044032Y0106104D02*
X0043223Y0106104D01*
X0042446Y0109287D02*
X0044809Y0109287D01*
X0037761Y0104602D02*
X0033864Y0104602D01*
X0033391Y0105075D01*
X0029318Y0101308D02*
X0019800Y0101308D01*
X0018328Y0099710D02*
X0029111Y0099710D01*
X0029111Y0096513D02*
X0021640Y0096513D01*
X0020787Y0098111D02*
X0033384Y0098111D01*
X0034343Y0098111D02*
X0046339Y0098111D01*
X0046339Y0096513D02*
X0038617Y0096513D01*
X0038563Y0094914D02*
X0046339Y0094914D01*
X0046339Y0093316D02*
X0021536Y0093316D01*
X0021509Y0093232D02*
X0021742Y0093951D01*
X0021861Y0094697D01*
X0021861Y0094875D01*
X0014261Y0094875D01*
X0014261Y0090275D01*
X0017438Y0090275D01*
X0018185Y0090393D01*
X0018903Y0090626D01*
X0019576Y0090969D01*
X0020188Y0091414D01*
X0020722Y0091948D01*
X0021166Y0092559D01*
X0021509Y0093232D01*
X0020491Y0091717D02*
X0046339Y0091717D01*
X0046339Y0099710D02*
X0038617Y0099710D01*
X0038410Y0101308D02*
X0046339Y0101308D01*
X0034343Y0096513D02*
X0033384Y0096513D01*
X0033384Y0094914D02*
X0034343Y0094914D01*
X0029164Y0094914D02*
X0014261Y0094914D01*
X0014261Y0093316D02*
X0013861Y0093316D01*
X0013861Y0091717D02*
X0014261Y0091717D01*
X0014261Y0096513D02*
X0013861Y0096513D01*
X0013861Y0098111D02*
X0014261Y0098111D01*
X0014261Y0099710D02*
X0013861Y0099710D01*
X0009793Y0099710D02*
X0006892Y0099710D01*
X0006892Y0101308D02*
X0008322Y0101308D01*
X0006980Y0102907D02*
X0006892Y0102907D01*
X0006892Y0098111D02*
X0007334Y0098111D01*
X0016341Y0011792D02*
X0020292Y0011792D01*
X0020292Y0010193D02*
X0016341Y0010193D01*
X0015813Y0008595D02*
X0020436Y0008595D01*
D22*
X0063313Y0011453D03*
X0049139Y0050232D03*
X0049139Y0076807D03*
X0105439Y0079169D03*
X0132801Y0075823D03*
D23*
X0124927Y0071295D02*
X0140990Y0071295D01*
X0151541Y0081846D01*
X0151029Y0081335D02*
X0141856Y0081335D01*
X0141462Y0081728D02*
X0141462Y0089799D01*
X0139927Y0091335D02*
X0133037Y0091335D01*
X0124927Y0071295D02*
X0120163Y0066531D01*
X0120163Y0061886D01*
X0116187Y0057909D01*
X0114691Y0057909D02*
X0111738Y0054957D01*
X0111738Y0045508D01*
X0106895Y0040665D01*
X0100517Y0040665D02*
X0087250Y0040665D01*
X0082899Y0045016D01*
X0081698Y0043815D01*
X0064798Y0043815D01*
X0064798Y0050114D02*
X0064917Y0050232D01*
X0077683Y0050232D01*
X0082899Y0045016D01*
X0049139Y0076807D02*
X0049139Y0104957D01*
X0044809Y0109287D01*
X0065793Y0109287D01*
X0066069Y0108854D02*
X0066069Y0099642D01*
X0074887Y0090823D01*
X0042446Y0109287D02*
X0037761Y0104602D01*
X0033391Y0105075D02*
X0014061Y0105075D01*
D24*
X0049139Y0050232D02*
X0064680Y0050232D01*
X0098598Y0040665D02*
X0100517Y0040665D01*
X0106895Y0040665D01*
M02*
