G75*
%MOIN*%
%OFA0B0*%
%FSLAX25Y25*%
%IPPOS*%
%LPD*%
%AMOC8*
5,1,8,0,0,1.08239X$1,22.5*
%
%ADD10C,0.00000*%
%ADD11C,0.00600*%
%ADD12C,0.00500*%
%ADD13C,0.01600*%
%ADD14C,0.01200*%
%ADD15R,0.05512X0.02559*%
%ADD16R,0.02559X0.05512*%
%ADD17C,0.00400*%
D10*
X0002092Y0002201D02*
X0002092Y0120311D01*
X0080832Y0120311D01*
X0080832Y0139996D01*
X0159572Y0139996D01*
X0159572Y0002201D01*
X0002092Y0002201D01*
X0009179Y0011059D02*
X0009181Y0011128D01*
X0009187Y0011196D01*
X0009197Y0011264D01*
X0009211Y0011331D01*
X0009229Y0011398D01*
X0009250Y0011463D01*
X0009276Y0011527D01*
X0009305Y0011589D01*
X0009337Y0011649D01*
X0009373Y0011708D01*
X0009413Y0011764D01*
X0009455Y0011818D01*
X0009501Y0011869D01*
X0009550Y0011918D01*
X0009601Y0011964D01*
X0009655Y0012006D01*
X0009711Y0012046D01*
X0009769Y0012082D01*
X0009830Y0012114D01*
X0009892Y0012143D01*
X0009956Y0012169D01*
X0010021Y0012190D01*
X0010088Y0012208D01*
X0010155Y0012222D01*
X0010223Y0012232D01*
X0010291Y0012238D01*
X0010360Y0012240D01*
X0010429Y0012238D01*
X0010497Y0012232D01*
X0010565Y0012222D01*
X0010632Y0012208D01*
X0010699Y0012190D01*
X0010764Y0012169D01*
X0010828Y0012143D01*
X0010890Y0012114D01*
X0010950Y0012082D01*
X0011009Y0012046D01*
X0011065Y0012006D01*
X0011119Y0011964D01*
X0011170Y0011918D01*
X0011219Y0011869D01*
X0011265Y0011818D01*
X0011307Y0011764D01*
X0011347Y0011708D01*
X0011383Y0011649D01*
X0011415Y0011589D01*
X0011444Y0011527D01*
X0011470Y0011463D01*
X0011491Y0011398D01*
X0011509Y0011331D01*
X0011523Y0011264D01*
X0011533Y0011196D01*
X0011539Y0011128D01*
X0011541Y0011059D01*
X0011539Y0010990D01*
X0011533Y0010922D01*
X0011523Y0010854D01*
X0011509Y0010787D01*
X0011491Y0010720D01*
X0011470Y0010655D01*
X0011444Y0010591D01*
X0011415Y0010529D01*
X0011383Y0010468D01*
X0011347Y0010410D01*
X0011307Y0010354D01*
X0011265Y0010300D01*
X0011219Y0010249D01*
X0011170Y0010200D01*
X0011119Y0010154D01*
X0011065Y0010112D01*
X0011009Y0010072D01*
X0010951Y0010036D01*
X0010890Y0010004D01*
X0010828Y0009975D01*
X0010764Y0009949D01*
X0010699Y0009928D01*
X0010632Y0009910D01*
X0010565Y0009896D01*
X0010497Y0009886D01*
X0010429Y0009880D01*
X0010360Y0009878D01*
X0010291Y0009880D01*
X0010223Y0009886D01*
X0010155Y0009896D01*
X0010088Y0009910D01*
X0010021Y0009928D01*
X0009956Y0009949D01*
X0009892Y0009975D01*
X0009830Y0010004D01*
X0009769Y0010036D01*
X0009711Y0010072D01*
X0009655Y0010112D01*
X0009601Y0010154D01*
X0009550Y0010200D01*
X0009501Y0010249D01*
X0009455Y0010300D01*
X0009413Y0010354D01*
X0009373Y0010410D01*
X0009337Y0010468D01*
X0009305Y0010529D01*
X0009276Y0010591D01*
X0009250Y0010655D01*
X0009229Y0010720D01*
X0009211Y0010787D01*
X0009197Y0010854D01*
X0009187Y0010922D01*
X0009181Y0010990D01*
X0009179Y0011059D01*
X0149139Y0011059D02*
X0149141Y0011128D01*
X0149147Y0011196D01*
X0149157Y0011264D01*
X0149171Y0011331D01*
X0149189Y0011398D01*
X0149210Y0011463D01*
X0149236Y0011527D01*
X0149265Y0011589D01*
X0149297Y0011649D01*
X0149333Y0011708D01*
X0149373Y0011764D01*
X0149415Y0011818D01*
X0149461Y0011869D01*
X0149510Y0011918D01*
X0149561Y0011964D01*
X0149615Y0012006D01*
X0149671Y0012046D01*
X0149729Y0012082D01*
X0149790Y0012114D01*
X0149852Y0012143D01*
X0149916Y0012169D01*
X0149981Y0012190D01*
X0150048Y0012208D01*
X0150115Y0012222D01*
X0150183Y0012232D01*
X0150251Y0012238D01*
X0150320Y0012240D01*
X0150389Y0012238D01*
X0150457Y0012232D01*
X0150525Y0012222D01*
X0150592Y0012208D01*
X0150659Y0012190D01*
X0150724Y0012169D01*
X0150788Y0012143D01*
X0150850Y0012114D01*
X0150910Y0012082D01*
X0150969Y0012046D01*
X0151025Y0012006D01*
X0151079Y0011964D01*
X0151130Y0011918D01*
X0151179Y0011869D01*
X0151225Y0011818D01*
X0151267Y0011764D01*
X0151307Y0011708D01*
X0151343Y0011649D01*
X0151375Y0011589D01*
X0151404Y0011527D01*
X0151430Y0011463D01*
X0151451Y0011398D01*
X0151469Y0011331D01*
X0151483Y0011264D01*
X0151493Y0011196D01*
X0151499Y0011128D01*
X0151501Y0011059D01*
X0151499Y0010990D01*
X0151493Y0010922D01*
X0151483Y0010854D01*
X0151469Y0010787D01*
X0151451Y0010720D01*
X0151430Y0010655D01*
X0151404Y0010591D01*
X0151375Y0010529D01*
X0151343Y0010468D01*
X0151307Y0010410D01*
X0151267Y0010354D01*
X0151225Y0010300D01*
X0151179Y0010249D01*
X0151130Y0010200D01*
X0151079Y0010154D01*
X0151025Y0010112D01*
X0150969Y0010072D01*
X0150911Y0010036D01*
X0150850Y0010004D01*
X0150788Y0009975D01*
X0150724Y0009949D01*
X0150659Y0009928D01*
X0150592Y0009910D01*
X0150525Y0009896D01*
X0150457Y0009886D01*
X0150389Y0009880D01*
X0150320Y0009878D01*
X0150251Y0009880D01*
X0150183Y0009886D01*
X0150115Y0009896D01*
X0150048Y0009910D01*
X0149981Y0009928D01*
X0149916Y0009949D01*
X0149852Y0009975D01*
X0149790Y0010004D01*
X0149729Y0010036D01*
X0149671Y0010072D01*
X0149615Y0010112D01*
X0149561Y0010154D01*
X0149510Y0010200D01*
X0149461Y0010249D01*
X0149415Y0010300D01*
X0149373Y0010354D01*
X0149333Y0010410D01*
X0149297Y0010468D01*
X0149265Y0010529D01*
X0149236Y0010591D01*
X0149210Y0010655D01*
X0149189Y0010720D01*
X0149171Y0010787D01*
X0149157Y0010854D01*
X0149147Y0010922D01*
X0149141Y0010990D01*
X0149139Y0011059D01*
X0150321Y0131531D02*
X0150323Y0131600D01*
X0150329Y0131668D01*
X0150339Y0131736D01*
X0150353Y0131803D01*
X0150371Y0131870D01*
X0150392Y0131935D01*
X0150418Y0131999D01*
X0150447Y0132061D01*
X0150479Y0132121D01*
X0150515Y0132180D01*
X0150555Y0132236D01*
X0150597Y0132290D01*
X0150643Y0132341D01*
X0150692Y0132390D01*
X0150743Y0132436D01*
X0150797Y0132478D01*
X0150853Y0132518D01*
X0150911Y0132554D01*
X0150972Y0132586D01*
X0151034Y0132615D01*
X0151098Y0132641D01*
X0151163Y0132662D01*
X0151230Y0132680D01*
X0151297Y0132694D01*
X0151365Y0132704D01*
X0151433Y0132710D01*
X0151502Y0132712D01*
X0151571Y0132710D01*
X0151639Y0132704D01*
X0151707Y0132694D01*
X0151774Y0132680D01*
X0151841Y0132662D01*
X0151906Y0132641D01*
X0151970Y0132615D01*
X0152032Y0132586D01*
X0152092Y0132554D01*
X0152151Y0132518D01*
X0152207Y0132478D01*
X0152261Y0132436D01*
X0152312Y0132390D01*
X0152361Y0132341D01*
X0152407Y0132290D01*
X0152449Y0132236D01*
X0152489Y0132180D01*
X0152525Y0132121D01*
X0152557Y0132061D01*
X0152586Y0131999D01*
X0152612Y0131935D01*
X0152633Y0131870D01*
X0152651Y0131803D01*
X0152665Y0131736D01*
X0152675Y0131668D01*
X0152681Y0131600D01*
X0152683Y0131531D01*
X0152681Y0131462D01*
X0152675Y0131394D01*
X0152665Y0131326D01*
X0152651Y0131259D01*
X0152633Y0131192D01*
X0152612Y0131127D01*
X0152586Y0131063D01*
X0152557Y0131001D01*
X0152525Y0130940D01*
X0152489Y0130882D01*
X0152449Y0130826D01*
X0152407Y0130772D01*
X0152361Y0130721D01*
X0152312Y0130672D01*
X0152261Y0130626D01*
X0152207Y0130584D01*
X0152151Y0130544D01*
X0152093Y0130508D01*
X0152032Y0130476D01*
X0151970Y0130447D01*
X0151906Y0130421D01*
X0151841Y0130400D01*
X0151774Y0130382D01*
X0151707Y0130368D01*
X0151639Y0130358D01*
X0151571Y0130352D01*
X0151502Y0130350D01*
X0151433Y0130352D01*
X0151365Y0130358D01*
X0151297Y0130368D01*
X0151230Y0130382D01*
X0151163Y0130400D01*
X0151098Y0130421D01*
X0151034Y0130447D01*
X0150972Y0130476D01*
X0150911Y0130508D01*
X0150853Y0130544D01*
X0150797Y0130584D01*
X0150743Y0130626D01*
X0150692Y0130672D01*
X0150643Y0130721D01*
X0150597Y0130772D01*
X0150555Y0130826D01*
X0150515Y0130882D01*
X0150479Y0130940D01*
X0150447Y0131001D01*
X0150418Y0131063D01*
X0150392Y0131127D01*
X0150371Y0131192D01*
X0150353Y0131259D01*
X0150339Y0131326D01*
X0150329Y0131394D01*
X0150323Y0131462D01*
X0150321Y0131531D01*
D11*
X0149041Y0126846D02*
X0154041Y0126846D01*
X0156541Y0124346D01*
X0156541Y0119346D01*
X0154041Y0116846D01*
X0156541Y0114346D01*
X0156541Y0109346D01*
X0154041Y0106846D01*
X0156541Y0104346D01*
X0156541Y0099346D01*
X0154041Y0096846D01*
X0156541Y0094346D01*
X0156541Y0089346D01*
X0154041Y0086846D01*
X0156541Y0084346D01*
X0156541Y0079346D01*
X0154041Y0076846D01*
X0149041Y0076846D01*
X0146541Y0079346D01*
X0146541Y0084346D01*
X0149041Y0086846D01*
X0146541Y0089346D01*
X0146541Y0094346D01*
X0149041Y0096846D01*
X0154041Y0096846D01*
X0149041Y0096846D02*
X0146541Y0099346D01*
X0146541Y0104346D01*
X0149041Y0106846D01*
X0146541Y0109346D01*
X0146541Y0114346D01*
X0149041Y0116846D01*
X0146541Y0119346D01*
X0146541Y0124346D01*
X0149041Y0126846D01*
X0149041Y0116846D02*
X0154041Y0116846D01*
X0154041Y0106846D02*
X0149041Y0106846D01*
X0149041Y0086846D02*
X0154041Y0086846D01*
X0153332Y0067004D02*
X0148332Y0067004D01*
X0145832Y0064504D01*
X0145832Y0059504D01*
X0148332Y0057004D01*
X0153332Y0057004D01*
X0155832Y0059504D01*
X0155832Y0064504D01*
X0153332Y0067004D01*
X0153332Y0057004D02*
X0155832Y0054504D01*
X0155832Y0049504D01*
X0153332Y0047004D01*
X0155832Y0044504D01*
X0155832Y0039504D01*
X0153332Y0037004D01*
X0155832Y0034504D01*
X0155832Y0029504D01*
X0153332Y0027004D01*
X0155832Y0024504D01*
X0155832Y0019504D01*
X0153332Y0017004D01*
X0148332Y0017004D01*
X0145832Y0019504D01*
X0145832Y0024504D01*
X0148332Y0027004D01*
X0145832Y0029504D01*
X0145832Y0034504D01*
X0148332Y0037004D01*
X0153332Y0037004D01*
X0148332Y0037004D02*
X0145832Y0039504D01*
X0145832Y0044504D01*
X0148332Y0047004D01*
X0145832Y0049504D01*
X0145832Y0054504D01*
X0148332Y0057004D01*
X0148332Y0047004D02*
X0153332Y0047004D01*
X0153332Y0027004D02*
X0148332Y0027004D01*
X0111265Y0016157D02*
X0111265Y0011157D01*
X0108765Y0008657D01*
X0103765Y0008657D01*
X0101265Y0011157D01*
X0098765Y0008657D01*
X0093765Y0008657D01*
X0091265Y0011157D01*
X0091265Y0016157D01*
X0093765Y0018657D01*
X0098765Y0018657D01*
X0101265Y0016157D01*
X0103765Y0018657D01*
X0108765Y0018657D01*
X0111265Y0016157D01*
X0101265Y0016157D02*
X0101265Y0011157D01*
X0095498Y0034740D02*
X0067899Y0034740D01*
X0067899Y0060941D01*
X0069297Y0062339D01*
X0095498Y0062339D01*
X0095498Y0034740D01*
X0069484Y0059339D02*
X0069486Y0059414D01*
X0069492Y0059488D01*
X0069502Y0059562D01*
X0069515Y0059635D01*
X0069533Y0059708D01*
X0069554Y0059779D01*
X0069579Y0059850D01*
X0069608Y0059919D01*
X0069641Y0059986D01*
X0069677Y0060051D01*
X0069716Y0060115D01*
X0069758Y0060176D01*
X0069804Y0060235D01*
X0069853Y0060292D01*
X0069905Y0060345D01*
X0069959Y0060396D01*
X0070016Y0060445D01*
X0070076Y0060489D01*
X0070138Y0060531D01*
X0070202Y0060570D01*
X0070268Y0060605D01*
X0070335Y0060636D01*
X0070405Y0060664D01*
X0070475Y0060688D01*
X0070547Y0060709D01*
X0070620Y0060725D01*
X0070693Y0060738D01*
X0070768Y0060747D01*
X0070842Y0060752D01*
X0070917Y0060753D01*
X0070991Y0060750D01*
X0071066Y0060743D01*
X0071139Y0060732D01*
X0071213Y0060718D01*
X0071285Y0060699D01*
X0071356Y0060677D01*
X0071426Y0060651D01*
X0071495Y0060621D01*
X0071561Y0060588D01*
X0071626Y0060551D01*
X0071689Y0060511D01*
X0071750Y0060467D01*
X0071808Y0060421D01*
X0071864Y0060371D01*
X0071917Y0060319D01*
X0071968Y0060264D01*
X0072015Y0060206D01*
X0072059Y0060146D01*
X0072100Y0060083D01*
X0072138Y0060019D01*
X0072172Y0059953D01*
X0072203Y0059884D01*
X0072230Y0059815D01*
X0072253Y0059744D01*
X0072272Y0059672D01*
X0072288Y0059599D01*
X0072300Y0059525D01*
X0072308Y0059451D01*
X0072312Y0059376D01*
X0072312Y0059302D01*
X0072308Y0059227D01*
X0072300Y0059153D01*
X0072288Y0059079D01*
X0072272Y0059006D01*
X0072253Y0058934D01*
X0072230Y0058863D01*
X0072203Y0058794D01*
X0072172Y0058725D01*
X0072138Y0058659D01*
X0072100Y0058595D01*
X0072059Y0058532D01*
X0072015Y0058472D01*
X0071968Y0058414D01*
X0071917Y0058359D01*
X0071864Y0058307D01*
X0071808Y0058257D01*
X0071750Y0058211D01*
X0071689Y0058167D01*
X0071626Y0058127D01*
X0071561Y0058090D01*
X0071495Y0058057D01*
X0071426Y0058027D01*
X0071356Y0058001D01*
X0071285Y0057979D01*
X0071213Y0057960D01*
X0071139Y0057946D01*
X0071066Y0057935D01*
X0070991Y0057928D01*
X0070917Y0057925D01*
X0070842Y0057926D01*
X0070768Y0057931D01*
X0070693Y0057940D01*
X0070620Y0057953D01*
X0070547Y0057969D01*
X0070475Y0057990D01*
X0070405Y0058014D01*
X0070335Y0058042D01*
X0070268Y0058073D01*
X0070202Y0058108D01*
X0070138Y0058147D01*
X0070076Y0058189D01*
X0070016Y0058233D01*
X0069959Y0058282D01*
X0069905Y0058333D01*
X0069853Y0058386D01*
X0069804Y0058443D01*
X0069758Y0058502D01*
X0069716Y0058563D01*
X0069677Y0058627D01*
X0069641Y0058692D01*
X0069608Y0058759D01*
X0069579Y0058828D01*
X0069554Y0058899D01*
X0069533Y0058970D01*
X0069515Y0059043D01*
X0069502Y0059116D01*
X0069492Y0059190D01*
X0069486Y0059264D01*
X0069484Y0059339D01*
X0058423Y0041000D02*
X0044423Y0041000D01*
X0043923Y0040500D01*
X0043923Y0006500D01*
X0044423Y0006000D01*
X0058423Y0006000D01*
X0058923Y0006500D01*
X0058923Y0040500D01*
X0058423Y0041000D01*
X0051423Y0029500D02*
X0051423Y0027200D01*
X0051423Y0019800D02*
X0051423Y0017500D01*
X0014100Y0029937D02*
X0014100Y0034937D01*
X0011600Y0037437D01*
X0014100Y0039937D01*
X0014100Y0044937D01*
X0011600Y0047437D01*
X0006600Y0047437D01*
X0004100Y0044937D01*
X0004100Y0039937D01*
X0006600Y0037437D01*
X0011600Y0037437D01*
X0006600Y0037437D02*
X0004100Y0034937D01*
X0004100Y0029937D01*
X0006600Y0027437D01*
X0011600Y0027437D01*
X0014100Y0029937D01*
X0011600Y0047437D02*
X0014100Y0049937D01*
X0014100Y0054937D01*
X0011600Y0057437D01*
X0014100Y0059937D01*
X0014100Y0064937D01*
X0011600Y0067437D01*
X0014100Y0069937D01*
X0014100Y0074937D01*
X0011600Y0077437D01*
X0006600Y0077437D01*
X0004100Y0074937D01*
X0004100Y0069937D01*
X0006600Y0067437D01*
X0011600Y0067437D01*
X0006600Y0067437D02*
X0004100Y0064937D01*
X0004100Y0059937D01*
X0006600Y0057437D01*
X0011600Y0057437D01*
X0006600Y0057437D02*
X0004100Y0054937D01*
X0004100Y0049937D01*
X0006600Y0047437D01*
X0011561Y0090075D02*
X0009061Y0092575D01*
X0009061Y0097575D01*
X0011561Y0100075D01*
X0009061Y0102575D01*
X0009061Y0107575D01*
X0011561Y0110075D01*
X0016561Y0110075D01*
X0019061Y0107575D01*
X0019061Y0102575D01*
X0016561Y0100075D01*
X0019061Y0097575D01*
X0019061Y0092575D01*
X0016561Y0090075D01*
X0011561Y0090075D01*
X0011561Y0100075D02*
X0016561Y0100075D01*
X0061147Y0106433D02*
X0063647Y0103933D01*
X0068647Y0103933D01*
X0071147Y0106433D01*
X0073647Y0103933D01*
X0078647Y0103933D01*
X0081147Y0106433D01*
X0081147Y0111433D01*
X0078647Y0113933D01*
X0073647Y0113933D01*
X0071147Y0111433D01*
X0071147Y0106433D01*
X0071147Y0111433D02*
X0068647Y0113933D01*
X0063647Y0113933D01*
X0061147Y0111433D01*
X0061147Y0106433D01*
X0081147Y0106433D02*
X0083647Y0103933D01*
X0088647Y0103933D01*
X0091147Y0106433D01*
X0093647Y0103933D01*
X0098647Y0103933D01*
X0101147Y0106433D01*
X0101147Y0111433D01*
X0098647Y0113933D01*
X0093647Y0113933D01*
X0091147Y0111433D01*
X0091147Y0106433D01*
X0091147Y0111433D02*
X0088647Y0113933D01*
X0083647Y0113933D01*
X0081147Y0111433D01*
D12*
X0026011Y0109023D02*
X0024509Y0107522D01*
X0024509Y0108273D02*
X0023759Y0109023D01*
X0022257Y0109023D01*
X0021507Y0108273D01*
X0021507Y0106021D01*
X0026011Y0106021D01*
X0024509Y0106021D02*
X0024509Y0108273D01*
X0026011Y0104419D02*
X0021507Y0104419D01*
X0021507Y0101417D02*
X0026011Y0101417D01*
X0024509Y0102918D01*
X0026011Y0104419D01*
X0023759Y0099816D02*
X0022257Y0099816D01*
X0021507Y0099065D01*
X0021507Y0096813D01*
X0026011Y0096813D01*
X0024509Y0096813D02*
X0024509Y0099065D01*
X0023759Y0099816D01*
D13*
X0043923Y0043500D02*
X0058923Y0043500D01*
X0059021Y0043498D01*
X0059119Y0043492D01*
X0059217Y0043483D01*
X0059314Y0043469D01*
X0059411Y0043452D01*
X0059507Y0043431D01*
X0059602Y0043406D01*
X0059696Y0043378D01*
X0059788Y0043345D01*
X0059880Y0043310D01*
X0059970Y0043270D01*
X0060058Y0043228D01*
X0060145Y0043181D01*
X0060229Y0043132D01*
X0060312Y0043079D01*
X0060392Y0043023D01*
X0060471Y0042963D01*
X0060547Y0042901D01*
X0060620Y0042836D01*
X0060691Y0042768D01*
X0060759Y0042697D01*
X0060824Y0042624D01*
X0060886Y0042548D01*
X0060946Y0042469D01*
X0061002Y0042389D01*
X0061055Y0042306D01*
X0061104Y0042222D01*
X0061151Y0042135D01*
X0061193Y0042047D01*
X0061233Y0041957D01*
X0061268Y0041865D01*
X0061301Y0041773D01*
X0061329Y0041679D01*
X0061354Y0041584D01*
X0061375Y0041488D01*
X0061392Y0041391D01*
X0061406Y0041294D01*
X0061415Y0041196D01*
X0061421Y0041098D01*
X0061423Y0041000D01*
X0061423Y0006000D01*
X0061421Y0005902D01*
X0061415Y0005804D01*
X0061406Y0005706D01*
X0061392Y0005609D01*
X0061375Y0005512D01*
X0061354Y0005416D01*
X0061329Y0005321D01*
X0061301Y0005227D01*
X0061268Y0005135D01*
X0061233Y0005043D01*
X0061193Y0004953D01*
X0061151Y0004865D01*
X0061104Y0004778D01*
X0061055Y0004694D01*
X0061002Y0004611D01*
X0060946Y0004531D01*
X0060886Y0004452D01*
X0060824Y0004376D01*
X0060759Y0004303D01*
X0060691Y0004232D01*
X0060620Y0004164D01*
X0060547Y0004099D01*
X0060471Y0004037D01*
X0060392Y0003977D01*
X0060312Y0003921D01*
X0060229Y0003868D01*
X0060145Y0003819D01*
X0060058Y0003772D01*
X0059970Y0003730D01*
X0059880Y0003690D01*
X0059788Y0003655D01*
X0059696Y0003622D01*
X0059602Y0003594D01*
X0059507Y0003569D01*
X0059411Y0003548D01*
X0059314Y0003531D01*
X0059217Y0003517D01*
X0059119Y0003508D01*
X0059021Y0003502D01*
X0058923Y0003500D01*
X0043923Y0003500D01*
X0043825Y0003502D01*
X0043727Y0003508D01*
X0043629Y0003517D01*
X0043532Y0003531D01*
X0043435Y0003548D01*
X0043339Y0003569D01*
X0043244Y0003594D01*
X0043150Y0003622D01*
X0043058Y0003655D01*
X0042966Y0003690D01*
X0042876Y0003730D01*
X0042788Y0003772D01*
X0042701Y0003819D01*
X0042617Y0003868D01*
X0042534Y0003921D01*
X0042454Y0003977D01*
X0042375Y0004037D01*
X0042299Y0004099D01*
X0042226Y0004164D01*
X0042155Y0004232D01*
X0042087Y0004303D01*
X0042022Y0004376D01*
X0041960Y0004452D01*
X0041900Y0004531D01*
X0041844Y0004611D01*
X0041791Y0004694D01*
X0041742Y0004778D01*
X0041695Y0004865D01*
X0041653Y0004953D01*
X0041613Y0005043D01*
X0041578Y0005135D01*
X0041545Y0005227D01*
X0041517Y0005321D01*
X0041492Y0005416D01*
X0041471Y0005512D01*
X0041454Y0005609D01*
X0041440Y0005706D01*
X0041431Y0005804D01*
X0041425Y0005902D01*
X0041423Y0006000D01*
X0041423Y0041000D01*
X0041425Y0041098D01*
X0041431Y0041196D01*
X0041440Y0041294D01*
X0041454Y0041391D01*
X0041471Y0041488D01*
X0041492Y0041584D01*
X0041517Y0041679D01*
X0041545Y0041773D01*
X0041578Y0041865D01*
X0041613Y0041957D01*
X0041653Y0042047D01*
X0041695Y0042135D01*
X0041742Y0042222D01*
X0041791Y0042306D01*
X0041844Y0042389D01*
X0041900Y0042469D01*
X0041960Y0042548D01*
X0042022Y0042624D01*
X0042087Y0042697D01*
X0042155Y0042768D01*
X0042226Y0042836D01*
X0042299Y0042901D01*
X0042375Y0042963D01*
X0042454Y0043023D01*
X0042534Y0043079D01*
X0042617Y0043132D01*
X0042701Y0043181D01*
X0042788Y0043228D01*
X0042876Y0043270D01*
X0042966Y0043310D01*
X0043058Y0043345D01*
X0043150Y0043378D01*
X0043244Y0043406D01*
X0043339Y0043431D01*
X0043435Y0043452D01*
X0043532Y0043469D01*
X0043629Y0043483D01*
X0043727Y0043492D01*
X0043825Y0043498D01*
X0043923Y0043500D01*
D14*
X0046423Y0027200D02*
X0051423Y0027200D01*
X0056423Y0027200D01*
X0056423Y0024700D02*
X0046423Y0024700D01*
X0046423Y0022200D01*
X0056423Y0022200D01*
X0056423Y0024700D01*
X0056423Y0019800D02*
X0051423Y0019800D01*
X0046423Y0019800D01*
D15*
X0079881Y0083965D03*
X0079881Y0089765D03*
D16*
X0108935Y0091144D03*
X0114735Y0091144D03*
X0126180Y0091341D03*
X0131980Y0091341D03*
X0127020Y0061880D03*
X0121220Y0061880D03*
X0121142Y0047904D03*
X0126942Y0047904D03*
X0127335Y0033730D03*
X0121535Y0033730D03*
X0122205Y0016998D03*
X0128005Y0016998D03*
X0080483Y0013467D03*
X0074683Y0013467D03*
D17*
X0068861Y0073976D02*
X0064257Y0073976D01*
X0064257Y0076278D01*
X0065024Y0077045D01*
X0066559Y0077045D01*
X0067326Y0076278D01*
X0067326Y0073976D01*
X0067326Y0075510D02*
X0068861Y0077045D01*
X0068861Y0078580D02*
X0064257Y0081649D01*
X0061892Y0081452D02*
X0057288Y0078383D01*
X0057288Y0076848D02*
X0057288Y0073779D01*
X0057288Y0075313D02*
X0061892Y0075313D01*
X0061892Y0078383D02*
X0057288Y0081452D01*
X0064257Y0078580D02*
X0068861Y0081649D01*
M02*
