%
M48
M72
T01C0.02362
T02C0.03200
T03C0.04000
%
T01
X10360Y11059
X49139Y50232
X49139Y76807
X105439Y79169
X132801Y75823
X151502Y131531
X63313Y11453
X150320Y11059
T02
X51423Y13500
X51423Y33500
T03
X9100Y32437
X9100Y42437
X9100Y52437
X9100Y62437
X9100Y72437
X14061Y95075
X14061Y105075
X66147Y108933
X76147Y108933
X86147Y108933
X96147Y108933
X151541Y111846
X151541Y101846
X151541Y91846
X151541Y81846
X150832Y62004
X150832Y52004
X150832Y42004
X150832Y32004
X150832Y22004
X106265Y13657
X96265Y13657
X151541Y121846
M30
