G75*
%MOIN*%
%OFA0B0*%
%FSLAX25Y25*%
%IPPOS*%
%LPD*%
%AMOC8*
5,1,8,0,0,1.08239X$1,22.5*
%
%ADD10C,0.03162*%
%ADD11C,0.06800*%
%ADD12C,0.06000*%
%ADD13C,0.04762*%
D10*
X0010360Y0011059D03*
X0150320Y0011059D03*
X0151502Y0131531D03*
D11*
X0148541Y0121846D02*
X0154541Y0121846D01*
X0154541Y0111846D02*
X0148541Y0111846D01*
X0148541Y0101846D02*
X0154541Y0101846D01*
X0154541Y0091846D02*
X0148541Y0091846D01*
X0148541Y0081846D02*
X0154541Y0081846D01*
X0153832Y0062004D02*
X0147832Y0062004D01*
X0147832Y0052004D02*
X0153832Y0052004D01*
X0153832Y0042004D02*
X0147832Y0042004D01*
X0147832Y0032004D02*
X0153832Y0032004D01*
X0153832Y0022004D02*
X0147832Y0022004D01*
X0106265Y0016657D02*
X0106265Y0010657D01*
X0096265Y0010657D02*
X0096265Y0016657D01*
X0012100Y0032437D02*
X0006100Y0032437D01*
X0006100Y0042437D02*
X0012100Y0042437D01*
X0012100Y0052437D02*
X0006100Y0052437D01*
X0006100Y0062437D02*
X0012100Y0062437D01*
X0012100Y0072437D02*
X0006100Y0072437D01*
X0011061Y0095075D02*
X0017061Y0095075D01*
X0017061Y0105075D02*
X0011061Y0105075D01*
X0066147Y0105933D02*
X0066147Y0111933D01*
X0076147Y0111933D02*
X0076147Y0105933D01*
X0086147Y0105933D02*
X0086147Y0111933D01*
X0096147Y0111933D02*
X0096147Y0105933D01*
D12*
X0051423Y0033500D03*
X0051423Y0013500D03*
D13*
X0063313Y0011453D03*
X0049139Y0050232D03*
X0049139Y0076807D03*
X0105439Y0079169D03*
X0132801Y0075823D03*
M02*
