G75*
%MOIN*%
%OFA0B0*%
%FSLAX25Y25*%
%IPPOS*%
%LPD*%
%AMOC8*
5,1,8,0,0,1.08239X$1,22.5*
%
%ADD10C,0.00000*%
%ADD11C,0.00100*%
%ADD12C,0.03162*%
%ADD13C,0.00600*%
%ADD14C,0.06000*%
%ADD15C,0.06800*%
%ADD16R,0.02000X0.02000*%
%ADD17C,0.00200*%
%ADD18C,0.00400*%
%ADD19R,0.06299X0.07087*%
%ADD20R,0.07099X0.07887*%
%ADD21R,0.02953X0.06693*%
%ADD22R,0.01574X0.03150*%
%ADD23R,0.05906X0.05118*%
%ADD24R,0.06706X0.05918*%
%ADD25R,0.05709X0.02953*%
%ADD26R,0.03150X0.00788*%
%ADD27R,0.05118X0.05906*%
%ADD28R,0.05918X0.06706*%
%ADD29R,0.02953X0.05709*%
%ADD30R,0.00788X0.03150*%
%ADD31C,0.00500*%
%ADD32C,0.01600*%
%ADD33C,0.01200*%
%ADD34C,0.05200*%
%ADD35C,0.06000*%
%ADD36R,0.25000X0.45000*%
%ADD37R,0.05512X0.04331*%
%ADD38R,0.06312X0.05131*%
%ADD39R,0.05512X0.02559*%
%ADD40R,0.03938X0.01574*%
%ADD41R,0.04331X0.05512*%
%ADD42R,0.05131X0.06312*%
%ADD43R,0.02559X0.05512*%
%ADD44R,0.01574X0.03938*%
%ADD45R,0.05000X0.10000*%
%ADD46R,0.05800X0.10800*%
%ADD47R,0.05000X0.02200*%
%ADD48R,0.05800X0.03000*%
%ADD49R,0.02200X0.05000*%
%ADD50R,0.03000X0.05800*%
%ADD51R,0.03900X0.01800*%
%ADD52R,0.01800X0.03900*%
%ADD53C,0.03962*%
%ADD54C,0.04762*%
%ADD55C,0.02400*%
%ADD56C,0.01969*%
D10*
X0002092Y0002201D02*
X0159572Y0002201D01*
X0159572Y0139996D01*
X0080832Y0139996D01*
X0002092Y0120311D02*
X0002092Y0002201D01*
X0080832Y0139996D02*
X0080832Y0120311D01*
X0002092Y0120311D01*
X0009179Y0011059D02*
X0009181Y0011128D01*
X0009187Y0011196D01*
X0009197Y0011264D01*
X0009211Y0011331D01*
X0009229Y0011398D01*
X0009250Y0011463D01*
X0009276Y0011527D01*
X0009305Y0011589D01*
X0009337Y0011649D01*
X0009373Y0011708D01*
X0009413Y0011764D01*
X0009455Y0011818D01*
X0009501Y0011869D01*
X0009550Y0011918D01*
X0009601Y0011964D01*
X0009655Y0012006D01*
X0009711Y0012046D01*
X0009769Y0012082D01*
X0009830Y0012114D01*
X0009892Y0012143D01*
X0009956Y0012169D01*
X0010021Y0012190D01*
X0010088Y0012208D01*
X0010155Y0012222D01*
X0010223Y0012232D01*
X0010291Y0012238D01*
X0010360Y0012240D01*
X0010429Y0012238D01*
X0010497Y0012232D01*
X0010565Y0012222D01*
X0010632Y0012208D01*
X0010699Y0012190D01*
X0010764Y0012169D01*
X0010828Y0012143D01*
X0010890Y0012114D01*
X0010950Y0012082D01*
X0011009Y0012046D01*
X0011065Y0012006D01*
X0011119Y0011964D01*
X0011170Y0011918D01*
X0011219Y0011869D01*
X0011265Y0011818D01*
X0011307Y0011764D01*
X0011347Y0011708D01*
X0011383Y0011649D01*
X0011415Y0011589D01*
X0011444Y0011527D01*
X0011470Y0011463D01*
X0011491Y0011398D01*
X0011509Y0011331D01*
X0011523Y0011264D01*
X0011533Y0011196D01*
X0011539Y0011128D01*
X0011541Y0011059D01*
X0011539Y0010990D01*
X0011533Y0010922D01*
X0011523Y0010854D01*
X0011509Y0010787D01*
X0011491Y0010720D01*
X0011470Y0010655D01*
X0011444Y0010591D01*
X0011415Y0010529D01*
X0011383Y0010468D01*
X0011347Y0010410D01*
X0011307Y0010354D01*
X0011265Y0010300D01*
X0011219Y0010249D01*
X0011170Y0010200D01*
X0011119Y0010154D01*
X0011065Y0010112D01*
X0011009Y0010072D01*
X0010951Y0010036D01*
X0010890Y0010004D01*
X0010828Y0009975D01*
X0010764Y0009949D01*
X0010699Y0009928D01*
X0010632Y0009910D01*
X0010565Y0009896D01*
X0010497Y0009886D01*
X0010429Y0009880D01*
X0010360Y0009878D01*
X0010291Y0009880D01*
X0010223Y0009886D01*
X0010155Y0009896D01*
X0010088Y0009910D01*
X0010021Y0009928D01*
X0009956Y0009949D01*
X0009892Y0009975D01*
X0009830Y0010004D01*
X0009769Y0010036D01*
X0009711Y0010072D01*
X0009655Y0010112D01*
X0009601Y0010154D01*
X0009550Y0010200D01*
X0009501Y0010249D01*
X0009455Y0010300D01*
X0009413Y0010354D01*
X0009373Y0010410D01*
X0009337Y0010468D01*
X0009305Y0010529D01*
X0009276Y0010591D01*
X0009250Y0010655D01*
X0009229Y0010720D01*
X0009211Y0010787D01*
X0009197Y0010854D01*
X0009187Y0010922D01*
X0009181Y0010990D01*
X0009179Y0011059D01*
X0149139Y0011059D02*
X0149141Y0011128D01*
X0149147Y0011196D01*
X0149157Y0011264D01*
X0149171Y0011331D01*
X0149189Y0011398D01*
X0149210Y0011463D01*
X0149236Y0011527D01*
X0149265Y0011589D01*
X0149297Y0011649D01*
X0149333Y0011708D01*
X0149373Y0011764D01*
X0149415Y0011818D01*
X0149461Y0011869D01*
X0149510Y0011918D01*
X0149561Y0011964D01*
X0149615Y0012006D01*
X0149671Y0012046D01*
X0149729Y0012082D01*
X0149790Y0012114D01*
X0149852Y0012143D01*
X0149916Y0012169D01*
X0149981Y0012190D01*
X0150048Y0012208D01*
X0150115Y0012222D01*
X0150183Y0012232D01*
X0150251Y0012238D01*
X0150320Y0012240D01*
X0150389Y0012238D01*
X0150457Y0012232D01*
X0150525Y0012222D01*
X0150592Y0012208D01*
X0150659Y0012190D01*
X0150724Y0012169D01*
X0150788Y0012143D01*
X0150850Y0012114D01*
X0150910Y0012082D01*
X0150969Y0012046D01*
X0151025Y0012006D01*
X0151079Y0011964D01*
X0151130Y0011918D01*
X0151179Y0011869D01*
X0151225Y0011818D01*
X0151267Y0011764D01*
X0151307Y0011708D01*
X0151343Y0011649D01*
X0151375Y0011589D01*
X0151404Y0011527D01*
X0151430Y0011463D01*
X0151451Y0011398D01*
X0151469Y0011331D01*
X0151483Y0011264D01*
X0151493Y0011196D01*
X0151499Y0011128D01*
X0151501Y0011059D01*
X0151499Y0010990D01*
X0151493Y0010922D01*
X0151483Y0010854D01*
X0151469Y0010787D01*
X0151451Y0010720D01*
X0151430Y0010655D01*
X0151404Y0010591D01*
X0151375Y0010529D01*
X0151343Y0010468D01*
X0151307Y0010410D01*
X0151267Y0010354D01*
X0151225Y0010300D01*
X0151179Y0010249D01*
X0151130Y0010200D01*
X0151079Y0010154D01*
X0151025Y0010112D01*
X0150969Y0010072D01*
X0150911Y0010036D01*
X0150850Y0010004D01*
X0150788Y0009975D01*
X0150724Y0009949D01*
X0150659Y0009928D01*
X0150592Y0009910D01*
X0150525Y0009896D01*
X0150457Y0009886D01*
X0150389Y0009880D01*
X0150320Y0009878D01*
X0150251Y0009880D01*
X0150183Y0009886D01*
X0150115Y0009896D01*
X0150048Y0009910D01*
X0149981Y0009928D01*
X0149916Y0009949D01*
X0149852Y0009975D01*
X0149790Y0010004D01*
X0149729Y0010036D01*
X0149671Y0010072D01*
X0149615Y0010112D01*
X0149561Y0010154D01*
X0149510Y0010200D01*
X0149461Y0010249D01*
X0149415Y0010300D01*
X0149373Y0010354D01*
X0149333Y0010410D01*
X0149297Y0010468D01*
X0149265Y0010529D01*
X0149236Y0010591D01*
X0149210Y0010655D01*
X0149189Y0010720D01*
X0149171Y0010787D01*
X0149157Y0010854D01*
X0149147Y0010922D01*
X0149141Y0010990D01*
X0149139Y0011059D01*
X0150321Y0131531D02*
X0150323Y0131600D01*
X0150329Y0131668D01*
X0150339Y0131736D01*
X0150353Y0131803D01*
X0150371Y0131870D01*
X0150392Y0131935D01*
X0150418Y0131999D01*
X0150447Y0132061D01*
X0150479Y0132121D01*
X0150515Y0132180D01*
X0150555Y0132236D01*
X0150597Y0132290D01*
X0150643Y0132341D01*
X0150692Y0132390D01*
X0150743Y0132436D01*
X0150797Y0132478D01*
X0150853Y0132518D01*
X0150911Y0132554D01*
X0150972Y0132586D01*
X0151034Y0132615D01*
X0151098Y0132641D01*
X0151163Y0132662D01*
X0151230Y0132680D01*
X0151297Y0132694D01*
X0151365Y0132704D01*
X0151433Y0132710D01*
X0151502Y0132712D01*
X0151571Y0132710D01*
X0151639Y0132704D01*
X0151707Y0132694D01*
X0151774Y0132680D01*
X0151841Y0132662D01*
X0151906Y0132641D01*
X0151970Y0132615D01*
X0152032Y0132586D01*
X0152092Y0132554D01*
X0152151Y0132518D01*
X0152207Y0132478D01*
X0152261Y0132436D01*
X0152312Y0132390D01*
X0152361Y0132341D01*
X0152407Y0132290D01*
X0152449Y0132236D01*
X0152489Y0132180D01*
X0152525Y0132121D01*
X0152557Y0132061D01*
X0152586Y0131999D01*
X0152612Y0131935D01*
X0152633Y0131870D01*
X0152651Y0131803D01*
X0152665Y0131736D01*
X0152675Y0131668D01*
X0152681Y0131600D01*
X0152683Y0131531D01*
X0152681Y0131462D01*
X0152675Y0131394D01*
X0152665Y0131326D01*
X0152651Y0131259D01*
X0152633Y0131192D01*
X0152612Y0131127D01*
X0152586Y0131063D01*
X0152557Y0131001D01*
X0152525Y0130940D01*
X0152489Y0130882D01*
X0152449Y0130826D01*
X0152407Y0130772D01*
X0152361Y0130721D01*
X0152312Y0130672D01*
X0152261Y0130626D01*
X0152207Y0130584D01*
X0152151Y0130544D01*
X0152093Y0130508D01*
X0152032Y0130476D01*
X0151970Y0130447D01*
X0151906Y0130421D01*
X0151841Y0130400D01*
X0151774Y0130382D01*
X0151707Y0130368D01*
X0151639Y0130358D01*
X0151571Y0130352D01*
X0151502Y0130350D01*
X0151433Y0130352D01*
X0151365Y0130358D01*
X0151297Y0130368D01*
X0151230Y0130382D01*
X0151163Y0130400D01*
X0151098Y0130421D01*
X0151034Y0130447D01*
X0150972Y0130476D01*
X0150911Y0130508D01*
X0150853Y0130544D01*
X0150797Y0130584D01*
X0150743Y0130626D01*
X0150692Y0130672D01*
X0150643Y0130721D01*
X0150597Y0130772D01*
X0150555Y0130826D01*
X0150515Y0130882D01*
X0150479Y0130940D01*
X0150447Y0131001D01*
X0150418Y0131063D01*
X0150392Y0131127D01*
X0150371Y0131192D01*
X0150353Y0131259D01*
X0150339Y0131326D01*
X0150329Y0131394D01*
X0150323Y0131462D01*
X0150321Y0131531D01*
X0146832Y0042004D02*
X0154832Y0042004D01*
X0150832Y0038004D02*
X0150832Y0046004D01*
X0033420Y0012870D02*
X0028087Y0012870D01*
X0030754Y0010203D02*
X0030754Y0015537D01*
X0028677Y0024878D02*
X0034011Y0024878D01*
X0031344Y0022211D02*
X0031344Y0027545D01*
X0031197Y0101256D02*
X0036530Y0101256D01*
X0033864Y0098589D02*
X0033864Y0103923D01*
X0126473Y0082555D02*
X0131806Y0082555D01*
X0129139Y0079888D02*
X0129139Y0085222D01*
X0105265Y0013657D02*
X0097265Y0013657D01*
X0101265Y0009657D02*
X0101265Y0017657D01*
X0085147Y0108933D02*
X0077147Y0108933D01*
X0081147Y0104933D02*
X0081147Y0112933D01*
X0018061Y0100075D02*
X0010061Y0100075D01*
X0014061Y0096075D02*
X0014061Y0104075D01*
X0047423Y0023500D02*
X0055423Y0023500D01*
X0051423Y0019500D02*
X0051423Y0027500D01*
X0077221Y0086886D02*
X0082554Y0086886D01*
X0079887Y0084219D02*
X0079887Y0089552D01*
X0121355Y0047909D02*
X0126688Y0047909D01*
X0124021Y0045243D02*
X0124021Y0050576D01*
X0121748Y0033736D02*
X0127082Y0033736D01*
X0124415Y0031070D02*
X0124415Y0036403D01*
X0122418Y0017004D02*
X0127751Y0017004D01*
X0125084Y0014337D02*
X0125084Y0019671D01*
X0126767Y0061886D02*
X0121433Y0061886D01*
X0124100Y0059219D02*
X0124100Y0064552D01*
X0080271Y0013461D02*
X0074937Y0013461D01*
X0077604Y0010794D02*
X0077604Y0016127D01*
X0126433Y0091335D02*
X0131767Y0091335D01*
X0129100Y0088668D02*
X0129100Y0094001D01*
X0114523Y0091138D02*
X0109189Y0091138D01*
X0111856Y0088471D02*
X0111856Y0093804D01*
X0147541Y0101846D02*
X0155541Y0101846D01*
X0151541Y0097846D02*
X0151541Y0105846D01*
X0076210Y0083224D02*
X0068210Y0083224D01*
X0072210Y0079224D02*
X0072210Y0087224D01*
X0013100Y0052437D02*
X0005100Y0052437D01*
X0009100Y0048437D02*
X0009100Y0056437D01*
X0061242Y0083028D02*
X0069242Y0083028D01*
X0065242Y0079028D02*
X0065242Y0087028D01*
X0077698Y0048539D02*
X0085698Y0048539D01*
X0081698Y0044539D02*
X0081698Y0052539D01*
X0111738Y0045508D02*
X0120084Y0047909D01*
X0120478Y0033736D01*
X0121147Y0017004D01*
D11*
X0014360Y0007059D02*
X0006360Y0015059D01*
X0006360Y0007059D02*
X0014360Y0015059D01*
X0146320Y0015059D02*
X0154320Y0007059D01*
X0146320Y0007059D02*
X0154320Y0015059D01*
X0155502Y0127531D02*
X0147502Y0135531D01*
X0147502Y0127531D02*
X0155502Y0135531D01*
X0146932Y0022004D02*
X0146934Y0022128D01*
X0146940Y0022253D01*
X0146950Y0022377D01*
X0146964Y0022500D01*
X0146981Y0022623D01*
X0147003Y0022746D01*
X0147029Y0022868D01*
X0147058Y0022988D01*
X0147092Y0023108D01*
X0147129Y0023227D01*
X0147170Y0023344D01*
X0147214Y0023460D01*
X0147262Y0023575D01*
X0147314Y0023688D01*
X0147370Y0023799D01*
X0147429Y0023909D01*
X0147491Y0024016D01*
X0147557Y0024122D01*
X0147626Y0024225D01*
X0147699Y0024326D01*
X0147775Y0024425D01*
X0147853Y0024521D01*
X0147935Y0024615D01*
X0148020Y0024706D01*
X0148107Y0024795D01*
X0148198Y0024880D01*
X0148291Y0024963D01*
X0148387Y0025042D01*
X0148485Y0025118D01*
X0148585Y0025192D01*
X0148688Y0025262D01*
X0148793Y0025328D01*
X0148900Y0025392D01*
X0149009Y0025452D01*
X0149120Y0025508D01*
X0149232Y0025561D01*
X0149347Y0025610D01*
X0149462Y0025656D01*
X0149580Y0025697D01*
X0149698Y0025736D01*
X0149818Y0025770D01*
X0149938Y0025800D01*
X0150060Y0025827D01*
X0150182Y0025849D01*
X0150305Y0025868D01*
X0150428Y0025883D01*
X0150552Y0025894D01*
X0150677Y0025901D01*
X0150801Y0025904D01*
X0150925Y0025903D01*
X0151050Y0025898D01*
X0151174Y0025889D01*
X0151297Y0025876D01*
X0151421Y0025859D01*
X0151543Y0025839D01*
X0151665Y0025814D01*
X0151786Y0025785D01*
X0151906Y0025753D01*
X0152025Y0025717D01*
X0152143Y0025677D01*
X0152260Y0025633D01*
X0152375Y0025586D01*
X0152488Y0025535D01*
X0152600Y0025480D01*
X0152710Y0025422D01*
X0152818Y0025361D01*
X0152924Y0025296D01*
X0153028Y0025227D01*
X0153129Y0025156D01*
X0153229Y0025081D01*
X0153326Y0025003D01*
X0153420Y0024922D01*
X0153512Y0024838D01*
X0153601Y0024751D01*
X0153687Y0024661D01*
X0153770Y0024569D01*
X0153850Y0024474D01*
X0153928Y0024376D01*
X0154002Y0024276D01*
X0154073Y0024174D01*
X0154140Y0024070D01*
X0154204Y0023963D01*
X0154265Y0023854D01*
X0154322Y0023744D01*
X0154376Y0023632D01*
X0154426Y0023518D01*
X0154473Y0023403D01*
X0154515Y0023286D01*
X0154554Y0023168D01*
X0154590Y0023048D01*
X0154621Y0022928D01*
X0154648Y0022807D01*
X0154672Y0022685D01*
X0154692Y0022562D01*
X0154708Y0022438D01*
X0154720Y0022315D01*
X0154728Y0022191D01*
X0154732Y0022066D01*
X0154732Y0021942D01*
X0154728Y0021817D01*
X0154720Y0021693D01*
X0154708Y0021570D01*
X0154692Y0021446D01*
X0154672Y0021323D01*
X0154648Y0021201D01*
X0154621Y0021080D01*
X0154590Y0020960D01*
X0154554Y0020840D01*
X0154515Y0020722D01*
X0154473Y0020605D01*
X0154426Y0020490D01*
X0154376Y0020376D01*
X0154322Y0020264D01*
X0154265Y0020154D01*
X0154204Y0020045D01*
X0154140Y0019938D01*
X0154073Y0019834D01*
X0154002Y0019732D01*
X0153928Y0019632D01*
X0153850Y0019534D01*
X0153770Y0019439D01*
X0153687Y0019347D01*
X0153601Y0019257D01*
X0153512Y0019170D01*
X0153420Y0019086D01*
X0153326Y0019005D01*
X0153229Y0018927D01*
X0153129Y0018852D01*
X0153028Y0018781D01*
X0152924Y0018712D01*
X0152818Y0018647D01*
X0152710Y0018586D01*
X0152600Y0018528D01*
X0152488Y0018473D01*
X0152375Y0018422D01*
X0152260Y0018375D01*
X0152143Y0018331D01*
X0152025Y0018291D01*
X0151906Y0018255D01*
X0151786Y0018223D01*
X0151665Y0018194D01*
X0151543Y0018169D01*
X0151421Y0018149D01*
X0151297Y0018132D01*
X0151174Y0018119D01*
X0151050Y0018110D01*
X0150925Y0018105D01*
X0150801Y0018104D01*
X0150677Y0018107D01*
X0150552Y0018114D01*
X0150428Y0018125D01*
X0150305Y0018140D01*
X0150182Y0018159D01*
X0150060Y0018181D01*
X0149938Y0018208D01*
X0149818Y0018238D01*
X0149698Y0018272D01*
X0149580Y0018311D01*
X0149462Y0018352D01*
X0149347Y0018398D01*
X0149232Y0018447D01*
X0149120Y0018500D01*
X0149009Y0018556D01*
X0148900Y0018616D01*
X0148793Y0018680D01*
X0148688Y0018746D01*
X0148585Y0018816D01*
X0148485Y0018890D01*
X0148387Y0018966D01*
X0148291Y0019045D01*
X0148198Y0019128D01*
X0148107Y0019213D01*
X0148020Y0019302D01*
X0147935Y0019393D01*
X0147853Y0019487D01*
X0147775Y0019583D01*
X0147699Y0019682D01*
X0147626Y0019783D01*
X0147557Y0019886D01*
X0147491Y0019992D01*
X0147429Y0020099D01*
X0147370Y0020209D01*
X0147314Y0020320D01*
X0147262Y0020433D01*
X0147214Y0020548D01*
X0147170Y0020664D01*
X0147129Y0020781D01*
X0147092Y0020900D01*
X0147058Y0021020D01*
X0147029Y0021140D01*
X0147003Y0021262D01*
X0146981Y0021385D01*
X0146964Y0021508D01*
X0146950Y0021631D01*
X0146940Y0021755D01*
X0146934Y0021880D01*
X0146932Y0022004D01*
X0146832Y0018004D02*
X0154832Y0026004D01*
X0146932Y0032004D02*
X0146934Y0032128D01*
X0146940Y0032253D01*
X0146950Y0032377D01*
X0146964Y0032500D01*
X0146981Y0032623D01*
X0147003Y0032746D01*
X0147029Y0032868D01*
X0147058Y0032988D01*
X0147092Y0033108D01*
X0147129Y0033227D01*
X0147170Y0033344D01*
X0147214Y0033460D01*
X0147262Y0033575D01*
X0147314Y0033688D01*
X0147370Y0033799D01*
X0147429Y0033909D01*
X0147491Y0034016D01*
X0147557Y0034122D01*
X0147626Y0034225D01*
X0147699Y0034326D01*
X0147775Y0034425D01*
X0147853Y0034521D01*
X0147935Y0034615D01*
X0148020Y0034706D01*
X0148107Y0034795D01*
X0148198Y0034880D01*
X0148291Y0034963D01*
X0148387Y0035042D01*
X0148485Y0035118D01*
X0148585Y0035192D01*
X0148688Y0035262D01*
X0148793Y0035328D01*
X0148900Y0035392D01*
X0149009Y0035452D01*
X0149120Y0035508D01*
X0149232Y0035561D01*
X0149347Y0035610D01*
X0149462Y0035656D01*
X0149580Y0035697D01*
X0149698Y0035736D01*
X0149818Y0035770D01*
X0149938Y0035800D01*
X0150060Y0035827D01*
X0150182Y0035849D01*
X0150305Y0035868D01*
X0150428Y0035883D01*
X0150552Y0035894D01*
X0150677Y0035901D01*
X0150801Y0035904D01*
X0150925Y0035903D01*
X0151050Y0035898D01*
X0151174Y0035889D01*
X0151297Y0035876D01*
X0151421Y0035859D01*
X0151543Y0035839D01*
X0151665Y0035814D01*
X0151786Y0035785D01*
X0151906Y0035753D01*
X0152025Y0035717D01*
X0152143Y0035677D01*
X0152260Y0035633D01*
X0152375Y0035586D01*
X0152488Y0035535D01*
X0152600Y0035480D01*
X0152710Y0035422D01*
X0152818Y0035361D01*
X0152924Y0035296D01*
X0153028Y0035227D01*
X0153129Y0035156D01*
X0153229Y0035081D01*
X0153326Y0035003D01*
X0153420Y0034922D01*
X0153512Y0034838D01*
X0153601Y0034751D01*
X0153687Y0034661D01*
X0153770Y0034569D01*
X0153850Y0034474D01*
X0153928Y0034376D01*
X0154002Y0034276D01*
X0154073Y0034174D01*
X0154140Y0034070D01*
X0154204Y0033963D01*
X0154265Y0033854D01*
X0154322Y0033744D01*
X0154376Y0033632D01*
X0154426Y0033518D01*
X0154473Y0033403D01*
X0154515Y0033286D01*
X0154554Y0033168D01*
X0154590Y0033048D01*
X0154621Y0032928D01*
X0154648Y0032807D01*
X0154672Y0032685D01*
X0154692Y0032562D01*
X0154708Y0032438D01*
X0154720Y0032315D01*
X0154728Y0032191D01*
X0154732Y0032066D01*
X0154732Y0031942D01*
X0154728Y0031817D01*
X0154720Y0031693D01*
X0154708Y0031570D01*
X0154692Y0031446D01*
X0154672Y0031323D01*
X0154648Y0031201D01*
X0154621Y0031080D01*
X0154590Y0030960D01*
X0154554Y0030840D01*
X0154515Y0030722D01*
X0154473Y0030605D01*
X0154426Y0030490D01*
X0154376Y0030376D01*
X0154322Y0030264D01*
X0154265Y0030154D01*
X0154204Y0030045D01*
X0154140Y0029938D01*
X0154073Y0029834D01*
X0154002Y0029732D01*
X0153928Y0029632D01*
X0153850Y0029534D01*
X0153770Y0029439D01*
X0153687Y0029347D01*
X0153601Y0029257D01*
X0153512Y0029170D01*
X0153420Y0029086D01*
X0153326Y0029005D01*
X0153229Y0028927D01*
X0153129Y0028852D01*
X0153028Y0028781D01*
X0152924Y0028712D01*
X0152818Y0028647D01*
X0152710Y0028586D01*
X0152600Y0028528D01*
X0152488Y0028473D01*
X0152375Y0028422D01*
X0152260Y0028375D01*
X0152143Y0028331D01*
X0152025Y0028291D01*
X0151906Y0028255D01*
X0151786Y0028223D01*
X0151665Y0028194D01*
X0151543Y0028169D01*
X0151421Y0028149D01*
X0151297Y0028132D01*
X0151174Y0028119D01*
X0151050Y0028110D01*
X0150925Y0028105D01*
X0150801Y0028104D01*
X0150677Y0028107D01*
X0150552Y0028114D01*
X0150428Y0028125D01*
X0150305Y0028140D01*
X0150182Y0028159D01*
X0150060Y0028181D01*
X0149938Y0028208D01*
X0149818Y0028238D01*
X0149698Y0028272D01*
X0149580Y0028311D01*
X0149462Y0028352D01*
X0149347Y0028398D01*
X0149232Y0028447D01*
X0149120Y0028500D01*
X0149009Y0028556D01*
X0148900Y0028616D01*
X0148793Y0028680D01*
X0148688Y0028746D01*
X0148585Y0028816D01*
X0148485Y0028890D01*
X0148387Y0028966D01*
X0148291Y0029045D01*
X0148198Y0029128D01*
X0148107Y0029213D01*
X0148020Y0029302D01*
X0147935Y0029393D01*
X0147853Y0029487D01*
X0147775Y0029583D01*
X0147699Y0029682D01*
X0147626Y0029783D01*
X0147557Y0029886D01*
X0147491Y0029992D01*
X0147429Y0030099D01*
X0147370Y0030209D01*
X0147314Y0030320D01*
X0147262Y0030433D01*
X0147214Y0030548D01*
X0147170Y0030664D01*
X0147129Y0030781D01*
X0147092Y0030900D01*
X0147058Y0031020D01*
X0147029Y0031140D01*
X0147003Y0031262D01*
X0146981Y0031385D01*
X0146964Y0031508D01*
X0146950Y0031631D01*
X0146940Y0031755D01*
X0146934Y0031880D01*
X0146932Y0032004D01*
X0146832Y0028004D02*
X0154832Y0036004D01*
X0146932Y0042004D02*
X0146934Y0042128D01*
X0146940Y0042253D01*
X0146950Y0042377D01*
X0146964Y0042500D01*
X0146981Y0042623D01*
X0147003Y0042746D01*
X0147029Y0042868D01*
X0147058Y0042988D01*
X0147092Y0043108D01*
X0147129Y0043227D01*
X0147170Y0043344D01*
X0147214Y0043460D01*
X0147262Y0043575D01*
X0147314Y0043688D01*
X0147370Y0043799D01*
X0147429Y0043909D01*
X0147491Y0044016D01*
X0147557Y0044122D01*
X0147626Y0044225D01*
X0147699Y0044326D01*
X0147775Y0044425D01*
X0147853Y0044521D01*
X0147935Y0044615D01*
X0148020Y0044706D01*
X0148107Y0044795D01*
X0148198Y0044880D01*
X0148291Y0044963D01*
X0148387Y0045042D01*
X0148485Y0045118D01*
X0148585Y0045192D01*
X0148688Y0045262D01*
X0148793Y0045328D01*
X0148900Y0045392D01*
X0149009Y0045452D01*
X0149120Y0045508D01*
X0149232Y0045561D01*
X0149347Y0045610D01*
X0149462Y0045656D01*
X0149580Y0045697D01*
X0149698Y0045736D01*
X0149818Y0045770D01*
X0149938Y0045800D01*
X0150060Y0045827D01*
X0150182Y0045849D01*
X0150305Y0045868D01*
X0150428Y0045883D01*
X0150552Y0045894D01*
X0150677Y0045901D01*
X0150801Y0045904D01*
X0150925Y0045903D01*
X0151050Y0045898D01*
X0151174Y0045889D01*
X0151297Y0045876D01*
X0151421Y0045859D01*
X0151543Y0045839D01*
X0151665Y0045814D01*
X0151786Y0045785D01*
X0151906Y0045753D01*
X0152025Y0045717D01*
X0152143Y0045677D01*
X0152260Y0045633D01*
X0152375Y0045586D01*
X0152488Y0045535D01*
X0152600Y0045480D01*
X0152710Y0045422D01*
X0152818Y0045361D01*
X0152924Y0045296D01*
X0153028Y0045227D01*
X0153129Y0045156D01*
X0153229Y0045081D01*
X0153326Y0045003D01*
X0153420Y0044922D01*
X0153512Y0044838D01*
X0153601Y0044751D01*
X0153687Y0044661D01*
X0153770Y0044569D01*
X0153850Y0044474D01*
X0153928Y0044376D01*
X0154002Y0044276D01*
X0154073Y0044174D01*
X0154140Y0044070D01*
X0154204Y0043963D01*
X0154265Y0043854D01*
X0154322Y0043744D01*
X0154376Y0043632D01*
X0154426Y0043518D01*
X0154473Y0043403D01*
X0154515Y0043286D01*
X0154554Y0043168D01*
X0154590Y0043048D01*
X0154621Y0042928D01*
X0154648Y0042807D01*
X0154672Y0042685D01*
X0154692Y0042562D01*
X0154708Y0042438D01*
X0154720Y0042315D01*
X0154728Y0042191D01*
X0154732Y0042066D01*
X0154732Y0041942D01*
X0154728Y0041817D01*
X0154720Y0041693D01*
X0154708Y0041570D01*
X0154692Y0041446D01*
X0154672Y0041323D01*
X0154648Y0041201D01*
X0154621Y0041080D01*
X0154590Y0040960D01*
X0154554Y0040840D01*
X0154515Y0040722D01*
X0154473Y0040605D01*
X0154426Y0040490D01*
X0154376Y0040376D01*
X0154322Y0040264D01*
X0154265Y0040154D01*
X0154204Y0040045D01*
X0154140Y0039938D01*
X0154073Y0039834D01*
X0154002Y0039732D01*
X0153928Y0039632D01*
X0153850Y0039534D01*
X0153770Y0039439D01*
X0153687Y0039347D01*
X0153601Y0039257D01*
X0153512Y0039170D01*
X0153420Y0039086D01*
X0153326Y0039005D01*
X0153229Y0038927D01*
X0153129Y0038852D01*
X0153028Y0038781D01*
X0152924Y0038712D01*
X0152818Y0038647D01*
X0152710Y0038586D01*
X0152600Y0038528D01*
X0152488Y0038473D01*
X0152375Y0038422D01*
X0152260Y0038375D01*
X0152143Y0038331D01*
X0152025Y0038291D01*
X0151906Y0038255D01*
X0151786Y0038223D01*
X0151665Y0038194D01*
X0151543Y0038169D01*
X0151421Y0038149D01*
X0151297Y0038132D01*
X0151174Y0038119D01*
X0151050Y0038110D01*
X0150925Y0038105D01*
X0150801Y0038104D01*
X0150677Y0038107D01*
X0150552Y0038114D01*
X0150428Y0038125D01*
X0150305Y0038140D01*
X0150182Y0038159D01*
X0150060Y0038181D01*
X0149938Y0038208D01*
X0149818Y0038238D01*
X0149698Y0038272D01*
X0149580Y0038311D01*
X0149462Y0038352D01*
X0149347Y0038398D01*
X0149232Y0038447D01*
X0149120Y0038500D01*
X0149009Y0038556D01*
X0148900Y0038616D01*
X0148793Y0038680D01*
X0148688Y0038746D01*
X0148585Y0038816D01*
X0148485Y0038890D01*
X0148387Y0038966D01*
X0148291Y0039045D01*
X0148198Y0039128D01*
X0148107Y0039213D01*
X0148020Y0039302D01*
X0147935Y0039393D01*
X0147853Y0039487D01*
X0147775Y0039583D01*
X0147699Y0039682D01*
X0147626Y0039783D01*
X0147557Y0039886D01*
X0147491Y0039992D01*
X0147429Y0040099D01*
X0147370Y0040209D01*
X0147314Y0040320D01*
X0147262Y0040433D01*
X0147214Y0040548D01*
X0147170Y0040664D01*
X0147129Y0040781D01*
X0147092Y0040900D01*
X0147058Y0041020D01*
X0147029Y0041140D01*
X0147003Y0041262D01*
X0146981Y0041385D01*
X0146964Y0041508D01*
X0146950Y0041631D01*
X0146940Y0041755D01*
X0146934Y0041880D01*
X0146932Y0042004D01*
X0146832Y0038004D02*
X0154832Y0046004D01*
X0146932Y0052004D02*
X0146934Y0052128D01*
X0146940Y0052253D01*
X0146950Y0052377D01*
X0146964Y0052500D01*
X0146981Y0052623D01*
X0147003Y0052746D01*
X0147029Y0052868D01*
X0147058Y0052988D01*
X0147092Y0053108D01*
X0147129Y0053227D01*
X0147170Y0053344D01*
X0147214Y0053460D01*
X0147262Y0053575D01*
X0147314Y0053688D01*
X0147370Y0053799D01*
X0147429Y0053909D01*
X0147491Y0054016D01*
X0147557Y0054122D01*
X0147626Y0054225D01*
X0147699Y0054326D01*
X0147775Y0054425D01*
X0147853Y0054521D01*
X0147935Y0054615D01*
X0148020Y0054706D01*
X0148107Y0054795D01*
X0148198Y0054880D01*
X0148291Y0054963D01*
X0148387Y0055042D01*
X0148485Y0055118D01*
X0148585Y0055192D01*
X0148688Y0055262D01*
X0148793Y0055328D01*
X0148900Y0055392D01*
X0149009Y0055452D01*
X0149120Y0055508D01*
X0149232Y0055561D01*
X0149347Y0055610D01*
X0149462Y0055656D01*
X0149580Y0055697D01*
X0149698Y0055736D01*
X0149818Y0055770D01*
X0149938Y0055800D01*
X0150060Y0055827D01*
X0150182Y0055849D01*
X0150305Y0055868D01*
X0150428Y0055883D01*
X0150552Y0055894D01*
X0150677Y0055901D01*
X0150801Y0055904D01*
X0150925Y0055903D01*
X0151050Y0055898D01*
X0151174Y0055889D01*
X0151297Y0055876D01*
X0151421Y0055859D01*
X0151543Y0055839D01*
X0151665Y0055814D01*
X0151786Y0055785D01*
X0151906Y0055753D01*
X0152025Y0055717D01*
X0152143Y0055677D01*
X0152260Y0055633D01*
X0152375Y0055586D01*
X0152488Y0055535D01*
X0152600Y0055480D01*
X0152710Y0055422D01*
X0152818Y0055361D01*
X0152924Y0055296D01*
X0153028Y0055227D01*
X0153129Y0055156D01*
X0153229Y0055081D01*
X0153326Y0055003D01*
X0153420Y0054922D01*
X0153512Y0054838D01*
X0153601Y0054751D01*
X0153687Y0054661D01*
X0153770Y0054569D01*
X0153850Y0054474D01*
X0153928Y0054376D01*
X0154002Y0054276D01*
X0154073Y0054174D01*
X0154140Y0054070D01*
X0154204Y0053963D01*
X0154265Y0053854D01*
X0154322Y0053744D01*
X0154376Y0053632D01*
X0154426Y0053518D01*
X0154473Y0053403D01*
X0154515Y0053286D01*
X0154554Y0053168D01*
X0154590Y0053048D01*
X0154621Y0052928D01*
X0154648Y0052807D01*
X0154672Y0052685D01*
X0154692Y0052562D01*
X0154708Y0052438D01*
X0154720Y0052315D01*
X0154728Y0052191D01*
X0154732Y0052066D01*
X0154732Y0051942D01*
X0154728Y0051817D01*
X0154720Y0051693D01*
X0154708Y0051570D01*
X0154692Y0051446D01*
X0154672Y0051323D01*
X0154648Y0051201D01*
X0154621Y0051080D01*
X0154590Y0050960D01*
X0154554Y0050840D01*
X0154515Y0050722D01*
X0154473Y0050605D01*
X0154426Y0050490D01*
X0154376Y0050376D01*
X0154322Y0050264D01*
X0154265Y0050154D01*
X0154204Y0050045D01*
X0154140Y0049938D01*
X0154073Y0049834D01*
X0154002Y0049732D01*
X0153928Y0049632D01*
X0153850Y0049534D01*
X0153770Y0049439D01*
X0153687Y0049347D01*
X0153601Y0049257D01*
X0153512Y0049170D01*
X0153420Y0049086D01*
X0153326Y0049005D01*
X0153229Y0048927D01*
X0153129Y0048852D01*
X0153028Y0048781D01*
X0152924Y0048712D01*
X0152818Y0048647D01*
X0152710Y0048586D01*
X0152600Y0048528D01*
X0152488Y0048473D01*
X0152375Y0048422D01*
X0152260Y0048375D01*
X0152143Y0048331D01*
X0152025Y0048291D01*
X0151906Y0048255D01*
X0151786Y0048223D01*
X0151665Y0048194D01*
X0151543Y0048169D01*
X0151421Y0048149D01*
X0151297Y0048132D01*
X0151174Y0048119D01*
X0151050Y0048110D01*
X0150925Y0048105D01*
X0150801Y0048104D01*
X0150677Y0048107D01*
X0150552Y0048114D01*
X0150428Y0048125D01*
X0150305Y0048140D01*
X0150182Y0048159D01*
X0150060Y0048181D01*
X0149938Y0048208D01*
X0149818Y0048238D01*
X0149698Y0048272D01*
X0149580Y0048311D01*
X0149462Y0048352D01*
X0149347Y0048398D01*
X0149232Y0048447D01*
X0149120Y0048500D01*
X0149009Y0048556D01*
X0148900Y0048616D01*
X0148793Y0048680D01*
X0148688Y0048746D01*
X0148585Y0048816D01*
X0148485Y0048890D01*
X0148387Y0048966D01*
X0148291Y0049045D01*
X0148198Y0049128D01*
X0148107Y0049213D01*
X0148020Y0049302D01*
X0147935Y0049393D01*
X0147853Y0049487D01*
X0147775Y0049583D01*
X0147699Y0049682D01*
X0147626Y0049783D01*
X0147557Y0049886D01*
X0147491Y0049992D01*
X0147429Y0050099D01*
X0147370Y0050209D01*
X0147314Y0050320D01*
X0147262Y0050433D01*
X0147214Y0050548D01*
X0147170Y0050664D01*
X0147129Y0050781D01*
X0147092Y0050900D01*
X0147058Y0051020D01*
X0147029Y0051140D01*
X0147003Y0051262D01*
X0146981Y0051385D01*
X0146964Y0051508D01*
X0146950Y0051631D01*
X0146940Y0051755D01*
X0146934Y0051880D01*
X0146932Y0052004D01*
X0146832Y0048004D02*
X0154832Y0056004D01*
X0146932Y0062004D02*
X0146934Y0062128D01*
X0146940Y0062253D01*
X0146950Y0062377D01*
X0146964Y0062500D01*
X0146981Y0062623D01*
X0147003Y0062746D01*
X0147029Y0062868D01*
X0147058Y0062988D01*
X0147092Y0063108D01*
X0147129Y0063227D01*
X0147170Y0063344D01*
X0147214Y0063460D01*
X0147262Y0063575D01*
X0147314Y0063688D01*
X0147370Y0063799D01*
X0147429Y0063909D01*
X0147491Y0064016D01*
X0147557Y0064122D01*
X0147626Y0064225D01*
X0147699Y0064326D01*
X0147775Y0064425D01*
X0147853Y0064521D01*
X0147935Y0064615D01*
X0148020Y0064706D01*
X0148107Y0064795D01*
X0148198Y0064880D01*
X0148291Y0064963D01*
X0148387Y0065042D01*
X0148485Y0065118D01*
X0148585Y0065192D01*
X0148688Y0065262D01*
X0148793Y0065328D01*
X0148900Y0065392D01*
X0149009Y0065452D01*
X0149120Y0065508D01*
X0149232Y0065561D01*
X0149347Y0065610D01*
X0149462Y0065656D01*
X0149580Y0065697D01*
X0149698Y0065736D01*
X0149818Y0065770D01*
X0149938Y0065800D01*
X0150060Y0065827D01*
X0150182Y0065849D01*
X0150305Y0065868D01*
X0150428Y0065883D01*
X0150552Y0065894D01*
X0150677Y0065901D01*
X0150801Y0065904D01*
X0150925Y0065903D01*
X0151050Y0065898D01*
X0151174Y0065889D01*
X0151297Y0065876D01*
X0151421Y0065859D01*
X0151543Y0065839D01*
X0151665Y0065814D01*
X0151786Y0065785D01*
X0151906Y0065753D01*
X0152025Y0065717D01*
X0152143Y0065677D01*
X0152260Y0065633D01*
X0152375Y0065586D01*
X0152488Y0065535D01*
X0152600Y0065480D01*
X0152710Y0065422D01*
X0152818Y0065361D01*
X0152924Y0065296D01*
X0153028Y0065227D01*
X0153129Y0065156D01*
X0153229Y0065081D01*
X0153326Y0065003D01*
X0153420Y0064922D01*
X0153512Y0064838D01*
X0153601Y0064751D01*
X0153687Y0064661D01*
X0153770Y0064569D01*
X0153850Y0064474D01*
X0153928Y0064376D01*
X0154002Y0064276D01*
X0154073Y0064174D01*
X0154140Y0064070D01*
X0154204Y0063963D01*
X0154265Y0063854D01*
X0154322Y0063744D01*
X0154376Y0063632D01*
X0154426Y0063518D01*
X0154473Y0063403D01*
X0154515Y0063286D01*
X0154554Y0063168D01*
X0154590Y0063048D01*
X0154621Y0062928D01*
X0154648Y0062807D01*
X0154672Y0062685D01*
X0154692Y0062562D01*
X0154708Y0062438D01*
X0154720Y0062315D01*
X0154728Y0062191D01*
X0154732Y0062066D01*
X0154732Y0061942D01*
X0154728Y0061817D01*
X0154720Y0061693D01*
X0154708Y0061570D01*
X0154692Y0061446D01*
X0154672Y0061323D01*
X0154648Y0061201D01*
X0154621Y0061080D01*
X0154590Y0060960D01*
X0154554Y0060840D01*
X0154515Y0060722D01*
X0154473Y0060605D01*
X0154426Y0060490D01*
X0154376Y0060376D01*
X0154322Y0060264D01*
X0154265Y0060154D01*
X0154204Y0060045D01*
X0154140Y0059938D01*
X0154073Y0059834D01*
X0154002Y0059732D01*
X0153928Y0059632D01*
X0153850Y0059534D01*
X0153770Y0059439D01*
X0153687Y0059347D01*
X0153601Y0059257D01*
X0153512Y0059170D01*
X0153420Y0059086D01*
X0153326Y0059005D01*
X0153229Y0058927D01*
X0153129Y0058852D01*
X0153028Y0058781D01*
X0152924Y0058712D01*
X0152818Y0058647D01*
X0152710Y0058586D01*
X0152600Y0058528D01*
X0152488Y0058473D01*
X0152375Y0058422D01*
X0152260Y0058375D01*
X0152143Y0058331D01*
X0152025Y0058291D01*
X0151906Y0058255D01*
X0151786Y0058223D01*
X0151665Y0058194D01*
X0151543Y0058169D01*
X0151421Y0058149D01*
X0151297Y0058132D01*
X0151174Y0058119D01*
X0151050Y0058110D01*
X0150925Y0058105D01*
X0150801Y0058104D01*
X0150677Y0058107D01*
X0150552Y0058114D01*
X0150428Y0058125D01*
X0150305Y0058140D01*
X0150182Y0058159D01*
X0150060Y0058181D01*
X0149938Y0058208D01*
X0149818Y0058238D01*
X0149698Y0058272D01*
X0149580Y0058311D01*
X0149462Y0058352D01*
X0149347Y0058398D01*
X0149232Y0058447D01*
X0149120Y0058500D01*
X0149009Y0058556D01*
X0148900Y0058616D01*
X0148793Y0058680D01*
X0148688Y0058746D01*
X0148585Y0058816D01*
X0148485Y0058890D01*
X0148387Y0058966D01*
X0148291Y0059045D01*
X0148198Y0059128D01*
X0148107Y0059213D01*
X0148020Y0059302D01*
X0147935Y0059393D01*
X0147853Y0059487D01*
X0147775Y0059583D01*
X0147699Y0059682D01*
X0147626Y0059783D01*
X0147557Y0059886D01*
X0147491Y0059992D01*
X0147429Y0060099D01*
X0147370Y0060209D01*
X0147314Y0060320D01*
X0147262Y0060433D01*
X0147214Y0060548D01*
X0147170Y0060664D01*
X0147129Y0060781D01*
X0147092Y0060900D01*
X0147058Y0061020D01*
X0147029Y0061140D01*
X0147003Y0061262D01*
X0146981Y0061385D01*
X0146964Y0061508D01*
X0146950Y0061631D01*
X0146940Y0061755D01*
X0146934Y0061880D01*
X0146932Y0062004D01*
X0146832Y0058004D02*
X0154832Y0066004D01*
X0092365Y0013657D02*
X0092367Y0013781D01*
X0092373Y0013906D01*
X0092383Y0014030D01*
X0092397Y0014153D01*
X0092414Y0014276D01*
X0092436Y0014399D01*
X0092462Y0014521D01*
X0092491Y0014641D01*
X0092525Y0014761D01*
X0092562Y0014880D01*
X0092603Y0014997D01*
X0092647Y0015113D01*
X0092695Y0015228D01*
X0092747Y0015341D01*
X0092803Y0015452D01*
X0092862Y0015562D01*
X0092924Y0015669D01*
X0092990Y0015775D01*
X0093059Y0015878D01*
X0093132Y0015979D01*
X0093208Y0016078D01*
X0093286Y0016174D01*
X0093368Y0016268D01*
X0093453Y0016359D01*
X0093540Y0016448D01*
X0093631Y0016533D01*
X0093724Y0016616D01*
X0093820Y0016695D01*
X0093918Y0016771D01*
X0094018Y0016845D01*
X0094121Y0016915D01*
X0094226Y0016981D01*
X0094333Y0017045D01*
X0094442Y0017105D01*
X0094553Y0017161D01*
X0094665Y0017214D01*
X0094780Y0017263D01*
X0094895Y0017309D01*
X0095013Y0017350D01*
X0095131Y0017389D01*
X0095251Y0017423D01*
X0095371Y0017453D01*
X0095493Y0017480D01*
X0095615Y0017502D01*
X0095738Y0017521D01*
X0095861Y0017536D01*
X0095985Y0017547D01*
X0096110Y0017554D01*
X0096234Y0017557D01*
X0096358Y0017556D01*
X0096483Y0017551D01*
X0096607Y0017542D01*
X0096730Y0017529D01*
X0096854Y0017512D01*
X0096976Y0017492D01*
X0097098Y0017467D01*
X0097219Y0017438D01*
X0097339Y0017406D01*
X0097458Y0017370D01*
X0097576Y0017330D01*
X0097693Y0017286D01*
X0097808Y0017239D01*
X0097921Y0017188D01*
X0098033Y0017133D01*
X0098143Y0017075D01*
X0098251Y0017014D01*
X0098357Y0016949D01*
X0098461Y0016880D01*
X0098562Y0016809D01*
X0098662Y0016734D01*
X0098759Y0016656D01*
X0098853Y0016575D01*
X0098945Y0016491D01*
X0099034Y0016404D01*
X0099120Y0016314D01*
X0099203Y0016222D01*
X0099283Y0016127D01*
X0099361Y0016029D01*
X0099435Y0015929D01*
X0099506Y0015827D01*
X0099573Y0015723D01*
X0099637Y0015616D01*
X0099698Y0015507D01*
X0099755Y0015397D01*
X0099809Y0015285D01*
X0099859Y0015171D01*
X0099906Y0015056D01*
X0099948Y0014939D01*
X0099987Y0014821D01*
X0100023Y0014701D01*
X0100054Y0014581D01*
X0100081Y0014460D01*
X0100105Y0014338D01*
X0100125Y0014215D01*
X0100141Y0014091D01*
X0100153Y0013968D01*
X0100161Y0013844D01*
X0100165Y0013719D01*
X0100165Y0013595D01*
X0100161Y0013470D01*
X0100153Y0013346D01*
X0100141Y0013223D01*
X0100125Y0013099D01*
X0100105Y0012976D01*
X0100081Y0012854D01*
X0100054Y0012733D01*
X0100023Y0012613D01*
X0099987Y0012493D01*
X0099948Y0012375D01*
X0099906Y0012258D01*
X0099859Y0012143D01*
X0099809Y0012029D01*
X0099755Y0011917D01*
X0099698Y0011807D01*
X0099637Y0011698D01*
X0099573Y0011591D01*
X0099506Y0011487D01*
X0099435Y0011385D01*
X0099361Y0011285D01*
X0099283Y0011187D01*
X0099203Y0011092D01*
X0099120Y0011000D01*
X0099034Y0010910D01*
X0098945Y0010823D01*
X0098853Y0010739D01*
X0098759Y0010658D01*
X0098662Y0010580D01*
X0098562Y0010505D01*
X0098461Y0010434D01*
X0098357Y0010365D01*
X0098251Y0010300D01*
X0098143Y0010239D01*
X0098033Y0010181D01*
X0097921Y0010126D01*
X0097808Y0010075D01*
X0097693Y0010028D01*
X0097576Y0009984D01*
X0097458Y0009944D01*
X0097339Y0009908D01*
X0097219Y0009876D01*
X0097098Y0009847D01*
X0096976Y0009822D01*
X0096854Y0009802D01*
X0096730Y0009785D01*
X0096607Y0009772D01*
X0096483Y0009763D01*
X0096358Y0009758D01*
X0096234Y0009757D01*
X0096110Y0009760D01*
X0095985Y0009767D01*
X0095861Y0009778D01*
X0095738Y0009793D01*
X0095615Y0009812D01*
X0095493Y0009834D01*
X0095371Y0009861D01*
X0095251Y0009891D01*
X0095131Y0009925D01*
X0095013Y0009964D01*
X0094895Y0010005D01*
X0094780Y0010051D01*
X0094665Y0010100D01*
X0094553Y0010153D01*
X0094442Y0010209D01*
X0094333Y0010269D01*
X0094226Y0010333D01*
X0094121Y0010399D01*
X0094018Y0010469D01*
X0093918Y0010543D01*
X0093820Y0010619D01*
X0093724Y0010698D01*
X0093631Y0010781D01*
X0093540Y0010866D01*
X0093453Y0010955D01*
X0093368Y0011046D01*
X0093286Y0011140D01*
X0093208Y0011236D01*
X0093132Y0011335D01*
X0093059Y0011436D01*
X0092990Y0011539D01*
X0092924Y0011645D01*
X0092862Y0011752D01*
X0092803Y0011862D01*
X0092747Y0011973D01*
X0092695Y0012086D01*
X0092647Y0012201D01*
X0092603Y0012317D01*
X0092562Y0012434D01*
X0092525Y0012553D01*
X0092491Y0012673D01*
X0092462Y0012793D01*
X0092436Y0012915D01*
X0092414Y0013038D01*
X0092397Y0013161D01*
X0092383Y0013284D01*
X0092373Y0013408D01*
X0092367Y0013533D01*
X0092365Y0013657D01*
X0092265Y0009657D02*
X0100265Y0017657D01*
X0102365Y0013657D02*
X0102367Y0013781D01*
X0102373Y0013906D01*
X0102383Y0014030D01*
X0102397Y0014153D01*
X0102414Y0014276D01*
X0102436Y0014399D01*
X0102462Y0014521D01*
X0102491Y0014641D01*
X0102525Y0014761D01*
X0102562Y0014880D01*
X0102603Y0014997D01*
X0102647Y0015113D01*
X0102695Y0015228D01*
X0102747Y0015341D01*
X0102803Y0015452D01*
X0102862Y0015562D01*
X0102924Y0015669D01*
X0102990Y0015775D01*
X0103059Y0015878D01*
X0103132Y0015979D01*
X0103208Y0016078D01*
X0103286Y0016174D01*
X0103368Y0016268D01*
X0103453Y0016359D01*
X0103540Y0016448D01*
X0103631Y0016533D01*
X0103724Y0016616D01*
X0103820Y0016695D01*
X0103918Y0016771D01*
X0104018Y0016845D01*
X0104121Y0016915D01*
X0104226Y0016981D01*
X0104333Y0017045D01*
X0104442Y0017105D01*
X0104553Y0017161D01*
X0104665Y0017214D01*
X0104780Y0017263D01*
X0104895Y0017309D01*
X0105013Y0017350D01*
X0105131Y0017389D01*
X0105251Y0017423D01*
X0105371Y0017453D01*
X0105493Y0017480D01*
X0105615Y0017502D01*
X0105738Y0017521D01*
X0105861Y0017536D01*
X0105985Y0017547D01*
X0106110Y0017554D01*
X0106234Y0017557D01*
X0106358Y0017556D01*
X0106483Y0017551D01*
X0106607Y0017542D01*
X0106730Y0017529D01*
X0106854Y0017512D01*
X0106976Y0017492D01*
X0107098Y0017467D01*
X0107219Y0017438D01*
X0107339Y0017406D01*
X0107458Y0017370D01*
X0107576Y0017330D01*
X0107693Y0017286D01*
X0107808Y0017239D01*
X0107921Y0017188D01*
X0108033Y0017133D01*
X0108143Y0017075D01*
X0108251Y0017014D01*
X0108357Y0016949D01*
X0108461Y0016880D01*
X0108562Y0016809D01*
X0108662Y0016734D01*
X0108759Y0016656D01*
X0108853Y0016575D01*
X0108945Y0016491D01*
X0109034Y0016404D01*
X0109120Y0016314D01*
X0109203Y0016222D01*
X0109283Y0016127D01*
X0109361Y0016029D01*
X0109435Y0015929D01*
X0109506Y0015827D01*
X0109573Y0015723D01*
X0109637Y0015616D01*
X0109698Y0015507D01*
X0109755Y0015397D01*
X0109809Y0015285D01*
X0109859Y0015171D01*
X0109906Y0015056D01*
X0109948Y0014939D01*
X0109987Y0014821D01*
X0110023Y0014701D01*
X0110054Y0014581D01*
X0110081Y0014460D01*
X0110105Y0014338D01*
X0110125Y0014215D01*
X0110141Y0014091D01*
X0110153Y0013968D01*
X0110161Y0013844D01*
X0110165Y0013719D01*
X0110165Y0013595D01*
X0110161Y0013470D01*
X0110153Y0013346D01*
X0110141Y0013223D01*
X0110125Y0013099D01*
X0110105Y0012976D01*
X0110081Y0012854D01*
X0110054Y0012733D01*
X0110023Y0012613D01*
X0109987Y0012493D01*
X0109948Y0012375D01*
X0109906Y0012258D01*
X0109859Y0012143D01*
X0109809Y0012029D01*
X0109755Y0011917D01*
X0109698Y0011807D01*
X0109637Y0011698D01*
X0109573Y0011591D01*
X0109506Y0011487D01*
X0109435Y0011385D01*
X0109361Y0011285D01*
X0109283Y0011187D01*
X0109203Y0011092D01*
X0109120Y0011000D01*
X0109034Y0010910D01*
X0108945Y0010823D01*
X0108853Y0010739D01*
X0108759Y0010658D01*
X0108662Y0010580D01*
X0108562Y0010505D01*
X0108461Y0010434D01*
X0108357Y0010365D01*
X0108251Y0010300D01*
X0108143Y0010239D01*
X0108033Y0010181D01*
X0107921Y0010126D01*
X0107808Y0010075D01*
X0107693Y0010028D01*
X0107576Y0009984D01*
X0107458Y0009944D01*
X0107339Y0009908D01*
X0107219Y0009876D01*
X0107098Y0009847D01*
X0106976Y0009822D01*
X0106854Y0009802D01*
X0106730Y0009785D01*
X0106607Y0009772D01*
X0106483Y0009763D01*
X0106358Y0009758D01*
X0106234Y0009757D01*
X0106110Y0009760D01*
X0105985Y0009767D01*
X0105861Y0009778D01*
X0105738Y0009793D01*
X0105615Y0009812D01*
X0105493Y0009834D01*
X0105371Y0009861D01*
X0105251Y0009891D01*
X0105131Y0009925D01*
X0105013Y0009964D01*
X0104895Y0010005D01*
X0104780Y0010051D01*
X0104665Y0010100D01*
X0104553Y0010153D01*
X0104442Y0010209D01*
X0104333Y0010269D01*
X0104226Y0010333D01*
X0104121Y0010399D01*
X0104018Y0010469D01*
X0103918Y0010543D01*
X0103820Y0010619D01*
X0103724Y0010698D01*
X0103631Y0010781D01*
X0103540Y0010866D01*
X0103453Y0010955D01*
X0103368Y0011046D01*
X0103286Y0011140D01*
X0103208Y0011236D01*
X0103132Y0011335D01*
X0103059Y0011436D01*
X0102990Y0011539D01*
X0102924Y0011645D01*
X0102862Y0011752D01*
X0102803Y0011862D01*
X0102747Y0011973D01*
X0102695Y0012086D01*
X0102647Y0012201D01*
X0102603Y0012317D01*
X0102562Y0012434D01*
X0102525Y0012553D01*
X0102491Y0012673D01*
X0102462Y0012793D01*
X0102436Y0012915D01*
X0102414Y0013038D01*
X0102397Y0013161D01*
X0102383Y0013284D01*
X0102373Y0013408D01*
X0102367Y0013533D01*
X0102365Y0013657D01*
X0102265Y0009657D02*
X0110265Y0017657D01*
X0062247Y0108933D02*
X0062249Y0109057D01*
X0062255Y0109182D01*
X0062265Y0109306D01*
X0062279Y0109429D01*
X0062296Y0109552D01*
X0062318Y0109675D01*
X0062344Y0109797D01*
X0062373Y0109917D01*
X0062407Y0110037D01*
X0062444Y0110156D01*
X0062485Y0110273D01*
X0062529Y0110389D01*
X0062577Y0110504D01*
X0062629Y0110617D01*
X0062685Y0110728D01*
X0062744Y0110838D01*
X0062806Y0110945D01*
X0062872Y0111051D01*
X0062941Y0111154D01*
X0063014Y0111255D01*
X0063090Y0111354D01*
X0063168Y0111450D01*
X0063250Y0111544D01*
X0063335Y0111635D01*
X0063422Y0111724D01*
X0063513Y0111809D01*
X0063606Y0111892D01*
X0063702Y0111971D01*
X0063800Y0112047D01*
X0063900Y0112121D01*
X0064003Y0112191D01*
X0064108Y0112257D01*
X0064215Y0112321D01*
X0064324Y0112381D01*
X0064435Y0112437D01*
X0064547Y0112490D01*
X0064662Y0112539D01*
X0064777Y0112585D01*
X0064895Y0112626D01*
X0065013Y0112665D01*
X0065133Y0112699D01*
X0065253Y0112729D01*
X0065375Y0112756D01*
X0065497Y0112778D01*
X0065620Y0112797D01*
X0065743Y0112812D01*
X0065867Y0112823D01*
X0065992Y0112830D01*
X0066116Y0112833D01*
X0066240Y0112832D01*
X0066365Y0112827D01*
X0066489Y0112818D01*
X0066612Y0112805D01*
X0066736Y0112788D01*
X0066858Y0112768D01*
X0066980Y0112743D01*
X0067101Y0112714D01*
X0067221Y0112682D01*
X0067340Y0112646D01*
X0067458Y0112606D01*
X0067575Y0112562D01*
X0067690Y0112515D01*
X0067803Y0112464D01*
X0067915Y0112409D01*
X0068025Y0112351D01*
X0068133Y0112290D01*
X0068239Y0112225D01*
X0068343Y0112156D01*
X0068444Y0112085D01*
X0068544Y0112010D01*
X0068641Y0111932D01*
X0068735Y0111851D01*
X0068827Y0111767D01*
X0068916Y0111680D01*
X0069002Y0111590D01*
X0069085Y0111498D01*
X0069165Y0111403D01*
X0069243Y0111305D01*
X0069317Y0111205D01*
X0069388Y0111103D01*
X0069455Y0110999D01*
X0069519Y0110892D01*
X0069580Y0110783D01*
X0069637Y0110673D01*
X0069691Y0110561D01*
X0069741Y0110447D01*
X0069788Y0110332D01*
X0069830Y0110215D01*
X0069869Y0110097D01*
X0069905Y0109977D01*
X0069936Y0109857D01*
X0069963Y0109736D01*
X0069987Y0109614D01*
X0070007Y0109491D01*
X0070023Y0109367D01*
X0070035Y0109244D01*
X0070043Y0109120D01*
X0070047Y0108995D01*
X0070047Y0108871D01*
X0070043Y0108746D01*
X0070035Y0108622D01*
X0070023Y0108499D01*
X0070007Y0108375D01*
X0069987Y0108252D01*
X0069963Y0108130D01*
X0069936Y0108009D01*
X0069905Y0107889D01*
X0069869Y0107769D01*
X0069830Y0107651D01*
X0069788Y0107534D01*
X0069741Y0107419D01*
X0069691Y0107305D01*
X0069637Y0107193D01*
X0069580Y0107083D01*
X0069519Y0106974D01*
X0069455Y0106867D01*
X0069388Y0106763D01*
X0069317Y0106661D01*
X0069243Y0106561D01*
X0069165Y0106463D01*
X0069085Y0106368D01*
X0069002Y0106276D01*
X0068916Y0106186D01*
X0068827Y0106099D01*
X0068735Y0106015D01*
X0068641Y0105934D01*
X0068544Y0105856D01*
X0068444Y0105781D01*
X0068343Y0105710D01*
X0068239Y0105641D01*
X0068133Y0105576D01*
X0068025Y0105515D01*
X0067915Y0105457D01*
X0067803Y0105402D01*
X0067690Y0105351D01*
X0067575Y0105304D01*
X0067458Y0105260D01*
X0067340Y0105220D01*
X0067221Y0105184D01*
X0067101Y0105152D01*
X0066980Y0105123D01*
X0066858Y0105098D01*
X0066736Y0105078D01*
X0066612Y0105061D01*
X0066489Y0105048D01*
X0066365Y0105039D01*
X0066240Y0105034D01*
X0066116Y0105033D01*
X0065992Y0105036D01*
X0065867Y0105043D01*
X0065743Y0105054D01*
X0065620Y0105069D01*
X0065497Y0105088D01*
X0065375Y0105110D01*
X0065253Y0105137D01*
X0065133Y0105167D01*
X0065013Y0105201D01*
X0064895Y0105240D01*
X0064777Y0105281D01*
X0064662Y0105327D01*
X0064547Y0105376D01*
X0064435Y0105429D01*
X0064324Y0105485D01*
X0064215Y0105545D01*
X0064108Y0105609D01*
X0064003Y0105675D01*
X0063900Y0105745D01*
X0063800Y0105819D01*
X0063702Y0105895D01*
X0063606Y0105974D01*
X0063513Y0106057D01*
X0063422Y0106142D01*
X0063335Y0106231D01*
X0063250Y0106322D01*
X0063168Y0106416D01*
X0063090Y0106512D01*
X0063014Y0106611D01*
X0062941Y0106712D01*
X0062872Y0106815D01*
X0062806Y0106921D01*
X0062744Y0107028D01*
X0062685Y0107138D01*
X0062629Y0107249D01*
X0062577Y0107362D01*
X0062529Y0107477D01*
X0062485Y0107593D01*
X0062444Y0107710D01*
X0062407Y0107829D01*
X0062373Y0107949D01*
X0062344Y0108069D01*
X0062318Y0108191D01*
X0062296Y0108314D01*
X0062279Y0108437D01*
X0062265Y0108560D01*
X0062255Y0108684D01*
X0062249Y0108809D01*
X0062247Y0108933D01*
X0062147Y0104933D02*
X0070147Y0112933D01*
X0072247Y0108933D02*
X0072249Y0109057D01*
X0072255Y0109182D01*
X0072265Y0109306D01*
X0072279Y0109429D01*
X0072296Y0109552D01*
X0072318Y0109675D01*
X0072344Y0109797D01*
X0072373Y0109917D01*
X0072407Y0110037D01*
X0072444Y0110156D01*
X0072485Y0110273D01*
X0072529Y0110389D01*
X0072577Y0110504D01*
X0072629Y0110617D01*
X0072685Y0110728D01*
X0072744Y0110838D01*
X0072806Y0110945D01*
X0072872Y0111051D01*
X0072941Y0111154D01*
X0073014Y0111255D01*
X0073090Y0111354D01*
X0073168Y0111450D01*
X0073250Y0111544D01*
X0073335Y0111635D01*
X0073422Y0111724D01*
X0073513Y0111809D01*
X0073606Y0111892D01*
X0073702Y0111971D01*
X0073800Y0112047D01*
X0073900Y0112121D01*
X0074003Y0112191D01*
X0074108Y0112257D01*
X0074215Y0112321D01*
X0074324Y0112381D01*
X0074435Y0112437D01*
X0074547Y0112490D01*
X0074662Y0112539D01*
X0074777Y0112585D01*
X0074895Y0112626D01*
X0075013Y0112665D01*
X0075133Y0112699D01*
X0075253Y0112729D01*
X0075375Y0112756D01*
X0075497Y0112778D01*
X0075620Y0112797D01*
X0075743Y0112812D01*
X0075867Y0112823D01*
X0075992Y0112830D01*
X0076116Y0112833D01*
X0076240Y0112832D01*
X0076365Y0112827D01*
X0076489Y0112818D01*
X0076612Y0112805D01*
X0076736Y0112788D01*
X0076858Y0112768D01*
X0076980Y0112743D01*
X0077101Y0112714D01*
X0077221Y0112682D01*
X0077340Y0112646D01*
X0077458Y0112606D01*
X0077575Y0112562D01*
X0077690Y0112515D01*
X0077803Y0112464D01*
X0077915Y0112409D01*
X0078025Y0112351D01*
X0078133Y0112290D01*
X0078239Y0112225D01*
X0078343Y0112156D01*
X0078444Y0112085D01*
X0078544Y0112010D01*
X0078641Y0111932D01*
X0078735Y0111851D01*
X0078827Y0111767D01*
X0078916Y0111680D01*
X0079002Y0111590D01*
X0079085Y0111498D01*
X0079165Y0111403D01*
X0079243Y0111305D01*
X0079317Y0111205D01*
X0079388Y0111103D01*
X0079455Y0110999D01*
X0079519Y0110892D01*
X0079580Y0110783D01*
X0079637Y0110673D01*
X0079691Y0110561D01*
X0079741Y0110447D01*
X0079788Y0110332D01*
X0079830Y0110215D01*
X0079869Y0110097D01*
X0079905Y0109977D01*
X0079936Y0109857D01*
X0079963Y0109736D01*
X0079987Y0109614D01*
X0080007Y0109491D01*
X0080023Y0109367D01*
X0080035Y0109244D01*
X0080043Y0109120D01*
X0080047Y0108995D01*
X0080047Y0108871D01*
X0080043Y0108746D01*
X0080035Y0108622D01*
X0080023Y0108499D01*
X0080007Y0108375D01*
X0079987Y0108252D01*
X0079963Y0108130D01*
X0079936Y0108009D01*
X0079905Y0107889D01*
X0079869Y0107769D01*
X0079830Y0107651D01*
X0079788Y0107534D01*
X0079741Y0107419D01*
X0079691Y0107305D01*
X0079637Y0107193D01*
X0079580Y0107083D01*
X0079519Y0106974D01*
X0079455Y0106867D01*
X0079388Y0106763D01*
X0079317Y0106661D01*
X0079243Y0106561D01*
X0079165Y0106463D01*
X0079085Y0106368D01*
X0079002Y0106276D01*
X0078916Y0106186D01*
X0078827Y0106099D01*
X0078735Y0106015D01*
X0078641Y0105934D01*
X0078544Y0105856D01*
X0078444Y0105781D01*
X0078343Y0105710D01*
X0078239Y0105641D01*
X0078133Y0105576D01*
X0078025Y0105515D01*
X0077915Y0105457D01*
X0077803Y0105402D01*
X0077690Y0105351D01*
X0077575Y0105304D01*
X0077458Y0105260D01*
X0077340Y0105220D01*
X0077221Y0105184D01*
X0077101Y0105152D01*
X0076980Y0105123D01*
X0076858Y0105098D01*
X0076736Y0105078D01*
X0076612Y0105061D01*
X0076489Y0105048D01*
X0076365Y0105039D01*
X0076240Y0105034D01*
X0076116Y0105033D01*
X0075992Y0105036D01*
X0075867Y0105043D01*
X0075743Y0105054D01*
X0075620Y0105069D01*
X0075497Y0105088D01*
X0075375Y0105110D01*
X0075253Y0105137D01*
X0075133Y0105167D01*
X0075013Y0105201D01*
X0074895Y0105240D01*
X0074777Y0105281D01*
X0074662Y0105327D01*
X0074547Y0105376D01*
X0074435Y0105429D01*
X0074324Y0105485D01*
X0074215Y0105545D01*
X0074108Y0105609D01*
X0074003Y0105675D01*
X0073900Y0105745D01*
X0073800Y0105819D01*
X0073702Y0105895D01*
X0073606Y0105974D01*
X0073513Y0106057D01*
X0073422Y0106142D01*
X0073335Y0106231D01*
X0073250Y0106322D01*
X0073168Y0106416D01*
X0073090Y0106512D01*
X0073014Y0106611D01*
X0072941Y0106712D01*
X0072872Y0106815D01*
X0072806Y0106921D01*
X0072744Y0107028D01*
X0072685Y0107138D01*
X0072629Y0107249D01*
X0072577Y0107362D01*
X0072529Y0107477D01*
X0072485Y0107593D01*
X0072444Y0107710D01*
X0072407Y0107829D01*
X0072373Y0107949D01*
X0072344Y0108069D01*
X0072318Y0108191D01*
X0072296Y0108314D01*
X0072279Y0108437D01*
X0072265Y0108560D01*
X0072255Y0108684D01*
X0072249Y0108809D01*
X0072247Y0108933D01*
X0072147Y0104933D02*
X0080147Y0112933D01*
X0082247Y0108933D02*
X0082249Y0109057D01*
X0082255Y0109182D01*
X0082265Y0109306D01*
X0082279Y0109429D01*
X0082296Y0109552D01*
X0082318Y0109675D01*
X0082344Y0109797D01*
X0082373Y0109917D01*
X0082407Y0110037D01*
X0082444Y0110156D01*
X0082485Y0110273D01*
X0082529Y0110389D01*
X0082577Y0110504D01*
X0082629Y0110617D01*
X0082685Y0110728D01*
X0082744Y0110838D01*
X0082806Y0110945D01*
X0082872Y0111051D01*
X0082941Y0111154D01*
X0083014Y0111255D01*
X0083090Y0111354D01*
X0083168Y0111450D01*
X0083250Y0111544D01*
X0083335Y0111635D01*
X0083422Y0111724D01*
X0083513Y0111809D01*
X0083606Y0111892D01*
X0083702Y0111971D01*
X0083800Y0112047D01*
X0083900Y0112121D01*
X0084003Y0112191D01*
X0084108Y0112257D01*
X0084215Y0112321D01*
X0084324Y0112381D01*
X0084435Y0112437D01*
X0084547Y0112490D01*
X0084662Y0112539D01*
X0084777Y0112585D01*
X0084895Y0112626D01*
X0085013Y0112665D01*
X0085133Y0112699D01*
X0085253Y0112729D01*
X0085375Y0112756D01*
X0085497Y0112778D01*
X0085620Y0112797D01*
X0085743Y0112812D01*
X0085867Y0112823D01*
X0085992Y0112830D01*
X0086116Y0112833D01*
X0086240Y0112832D01*
X0086365Y0112827D01*
X0086489Y0112818D01*
X0086612Y0112805D01*
X0086736Y0112788D01*
X0086858Y0112768D01*
X0086980Y0112743D01*
X0087101Y0112714D01*
X0087221Y0112682D01*
X0087340Y0112646D01*
X0087458Y0112606D01*
X0087575Y0112562D01*
X0087690Y0112515D01*
X0087803Y0112464D01*
X0087915Y0112409D01*
X0088025Y0112351D01*
X0088133Y0112290D01*
X0088239Y0112225D01*
X0088343Y0112156D01*
X0088444Y0112085D01*
X0088544Y0112010D01*
X0088641Y0111932D01*
X0088735Y0111851D01*
X0088827Y0111767D01*
X0088916Y0111680D01*
X0089002Y0111590D01*
X0089085Y0111498D01*
X0089165Y0111403D01*
X0089243Y0111305D01*
X0089317Y0111205D01*
X0089388Y0111103D01*
X0089455Y0110999D01*
X0089519Y0110892D01*
X0089580Y0110783D01*
X0089637Y0110673D01*
X0089691Y0110561D01*
X0089741Y0110447D01*
X0089788Y0110332D01*
X0089830Y0110215D01*
X0089869Y0110097D01*
X0089905Y0109977D01*
X0089936Y0109857D01*
X0089963Y0109736D01*
X0089987Y0109614D01*
X0090007Y0109491D01*
X0090023Y0109367D01*
X0090035Y0109244D01*
X0090043Y0109120D01*
X0090047Y0108995D01*
X0090047Y0108871D01*
X0090043Y0108746D01*
X0090035Y0108622D01*
X0090023Y0108499D01*
X0090007Y0108375D01*
X0089987Y0108252D01*
X0089963Y0108130D01*
X0089936Y0108009D01*
X0089905Y0107889D01*
X0089869Y0107769D01*
X0089830Y0107651D01*
X0089788Y0107534D01*
X0089741Y0107419D01*
X0089691Y0107305D01*
X0089637Y0107193D01*
X0089580Y0107083D01*
X0089519Y0106974D01*
X0089455Y0106867D01*
X0089388Y0106763D01*
X0089317Y0106661D01*
X0089243Y0106561D01*
X0089165Y0106463D01*
X0089085Y0106368D01*
X0089002Y0106276D01*
X0088916Y0106186D01*
X0088827Y0106099D01*
X0088735Y0106015D01*
X0088641Y0105934D01*
X0088544Y0105856D01*
X0088444Y0105781D01*
X0088343Y0105710D01*
X0088239Y0105641D01*
X0088133Y0105576D01*
X0088025Y0105515D01*
X0087915Y0105457D01*
X0087803Y0105402D01*
X0087690Y0105351D01*
X0087575Y0105304D01*
X0087458Y0105260D01*
X0087340Y0105220D01*
X0087221Y0105184D01*
X0087101Y0105152D01*
X0086980Y0105123D01*
X0086858Y0105098D01*
X0086736Y0105078D01*
X0086612Y0105061D01*
X0086489Y0105048D01*
X0086365Y0105039D01*
X0086240Y0105034D01*
X0086116Y0105033D01*
X0085992Y0105036D01*
X0085867Y0105043D01*
X0085743Y0105054D01*
X0085620Y0105069D01*
X0085497Y0105088D01*
X0085375Y0105110D01*
X0085253Y0105137D01*
X0085133Y0105167D01*
X0085013Y0105201D01*
X0084895Y0105240D01*
X0084777Y0105281D01*
X0084662Y0105327D01*
X0084547Y0105376D01*
X0084435Y0105429D01*
X0084324Y0105485D01*
X0084215Y0105545D01*
X0084108Y0105609D01*
X0084003Y0105675D01*
X0083900Y0105745D01*
X0083800Y0105819D01*
X0083702Y0105895D01*
X0083606Y0105974D01*
X0083513Y0106057D01*
X0083422Y0106142D01*
X0083335Y0106231D01*
X0083250Y0106322D01*
X0083168Y0106416D01*
X0083090Y0106512D01*
X0083014Y0106611D01*
X0082941Y0106712D01*
X0082872Y0106815D01*
X0082806Y0106921D01*
X0082744Y0107028D01*
X0082685Y0107138D01*
X0082629Y0107249D01*
X0082577Y0107362D01*
X0082529Y0107477D01*
X0082485Y0107593D01*
X0082444Y0107710D01*
X0082407Y0107829D01*
X0082373Y0107949D01*
X0082344Y0108069D01*
X0082318Y0108191D01*
X0082296Y0108314D01*
X0082279Y0108437D01*
X0082265Y0108560D01*
X0082255Y0108684D01*
X0082249Y0108809D01*
X0082247Y0108933D01*
X0082147Y0104933D02*
X0090147Y0112933D01*
X0092247Y0108933D02*
X0092249Y0109057D01*
X0092255Y0109182D01*
X0092265Y0109306D01*
X0092279Y0109429D01*
X0092296Y0109552D01*
X0092318Y0109675D01*
X0092344Y0109797D01*
X0092373Y0109917D01*
X0092407Y0110037D01*
X0092444Y0110156D01*
X0092485Y0110273D01*
X0092529Y0110389D01*
X0092577Y0110504D01*
X0092629Y0110617D01*
X0092685Y0110728D01*
X0092744Y0110838D01*
X0092806Y0110945D01*
X0092872Y0111051D01*
X0092941Y0111154D01*
X0093014Y0111255D01*
X0093090Y0111354D01*
X0093168Y0111450D01*
X0093250Y0111544D01*
X0093335Y0111635D01*
X0093422Y0111724D01*
X0093513Y0111809D01*
X0093606Y0111892D01*
X0093702Y0111971D01*
X0093800Y0112047D01*
X0093900Y0112121D01*
X0094003Y0112191D01*
X0094108Y0112257D01*
X0094215Y0112321D01*
X0094324Y0112381D01*
X0094435Y0112437D01*
X0094547Y0112490D01*
X0094662Y0112539D01*
X0094777Y0112585D01*
X0094895Y0112626D01*
X0095013Y0112665D01*
X0095133Y0112699D01*
X0095253Y0112729D01*
X0095375Y0112756D01*
X0095497Y0112778D01*
X0095620Y0112797D01*
X0095743Y0112812D01*
X0095867Y0112823D01*
X0095992Y0112830D01*
X0096116Y0112833D01*
X0096240Y0112832D01*
X0096365Y0112827D01*
X0096489Y0112818D01*
X0096612Y0112805D01*
X0096736Y0112788D01*
X0096858Y0112768D01*
X0096980Y0112743D01*
X0097101Y0112714D01*
X0097221Y0112682D01*
X0097340Y0112646D01*
X0097458Y0112606D01*
X0097575Y0112562D01*
X0097690Y0112515D01*
X0097803Y0112464D01*
X0097915Y0112409D01*
X0098025Y0112351D01*
X0098133Y0112290D01*
X0098239Y0112225D01*
X0098343Y0112156D01*
X0098444Y0112085D01*
X0098544Y0112010D01*
X0098641Y0111932D01*
X0098735Y0111851D01*
X0098827Y0111767D01*
X0098916Y0111680D01*
X0099002Y0111590D01*
X0099085Y0111498D01*
X0099165Y0111403D01*
X0099243Y0111305D01*
X0099317Y0111205D01*
X0099388Y0111103D01*
X0099455Y0110999D01*
X0099519Y0110892D01*
X0099580Y0110783D01*
X0099637Y0110673D01*
X0099691Y0110561D01*
X0099741Y0110447D01*
X0099788Y0110332D01*
X0099830Y0110215D01*
X0099869Y0110097D01*
X0099905Y0109977D01*
X0099936Y0109857D01*
X0099963Y0109736D01*
X0099987Y0109614D01*
X0100007Y0109491D01*
X0100023Y0109367D01*
X0100035Y0109244D01*
X0100043Y0109120D01*
X0100047Y0108995D01*
X0100047Y0108871D01*
X0100043Y0108746D01*
X0100035Y0108622D01*
X0100023Y0108499D01*
X0100007Y0108375D01*
X0099987Y0108252D01*
X0099963Y0108130D01*
X0099936Y0108009D01*
X0099905Y0107889D01*
X0099869Y0107769D01*
X0099830Y0107651D01*
X0099788Y0107534D01*
X0099741Y0107419D01*
X0099691Y0107305D01*
X0099637Y0107193D01*
X0099580Y0107083D01*
X0099519Y0106974D01*
X0099455Y0106867D01*
X0099388Y0106763D01*
X0099317Y0106661D01*
X0099243Y0106561D01*
X0099165Y0106463D01*
X0099085Y0106368D01*
X0099002Y0106276D01*
X0098916Y0106186D01*
X0098827Y0106099D01*
X0098735Y0106015D01*
X0098641Y0105934D01*
X0098544Y0105856D01*
X0098444Y0105781D01*
X0098343Y0105710D01*
X0098239Y0105641D01*
X0098133Y0105576D01*
X0098025Y0105515D01*
X0097915Y0105457D01*
X0097803Y0105402D01*
X0097690Y0105351D01*
X0097575Y0105304D01*
X0097458Y0105260D01*
X0097340Y0105220D01*
X0097221Y0105184D01*
X0097101Y0105152D01*
X0096980Y0105123D01*
X0096858Y0105098D01*
X0096736Y0105078D01*
X0096612Y0105061D01*
X0096489Y0105048D01*
X0096365Y0105039D01*
X0096240Y0105034D01*
X0096116Y0105033D01*
X0095992Y0105036D01*
X0095867Y0105043D01*
X0095743Y0105054D01*
X0095620Y0105069D01*
X0095497Y0105088D01*
X0095375Y0105110D01*
X0095253Y0105137D01*
X0095133Y0105167D01*
X0095013Y0105201D01*
X0094895Y0105240D01*
X0094777Y0105281D01*
X0094662Y0105327D01*
X0094547Y0105376D01*
X0094435Y0105429D01*
X0094324Y0105485D01*
X0094215Y0105545D01*
X0094108Y0105609D01*
X0094003Y0105675D01*
X0093900Y0105745D01*
X0093800Y0105819D01*
X0093702Y0105895D01*
X0093606Y0105974D01*
X0093513Y0106057D01*
X0093422Y0106142D01*
X0093335Y0106231D01*
X0093250Y0106322D01*
X0093168Y0106416D01*
X0093090Y0106512D01*
X0093014Y0106611D01*
X0092941Y0106712D01*
X0092872Y0106815D01*
X0092806Y0106921D01*
X0092744Y0107028D01*
X0092685Y0107138D01*
X0092629Y0107249D01*
X0092577Y0107362D01*
X0092529Y0107477D01*
X0092485Y0107593D01*
X0092444Y0107710D01*
X0092407Y0107829D01*
X0092373Y0107949D01*
X0092344Y0108069D01*
X0092318Y0108191D01*
X0092296Y0108314D01*
X0092279Y0108437D01*
X0092265Y0108560D01*
X0092255Y0108684D01*
X0092249Y0108809D01*
X0092247Y0108933D01*
X0092147Y0104933D02*
X0100147Y0112933D01*
X0010161Y0105075D02*
X0010163Y0105199D01*
X0010169Y0105324D01*
X0010179Y0105448D01*
X0010193Y0105571D01*
X0010210Y0105694D01*
X0010232Y0105817D01*
X0010258Y0105939D01*
X0010287Y0106059D01*
X0010321Y0106179D01*
X0010358Y0106298D01*
X0010399Y0106415D01*
X0010443Y0106531D01*
X0010491Y0106646D01*
X0010543Y0106759D01*
X0010599Y0106870D01*
X0010658Y0106980D01*
X0010720Y0107087D01*
X0010786Y0107193D01*
X0010855Y0107296D01*
X0010928Y0107397D01*
X0011004Y0107496D01*
X0011082Y0107592D01*
X0011164Y0107686D01*
X0011249Y0107777D01*
X0011336Y0107866D01*
X0011427Y0107951D01*
X0011520Y0108034D01*
X0011616Y0108113D01*
X0011714Y0108189D01*
X0011814Y0108263D01*
X0011917Y0108333D01*
X0012022Y0108399D01*
X0012129Y0108463D01*
X0012238Y0108523D01*
X0012349Y0108579D01*
X0012461Y0108632D01*
X0012576Y0108681D01*
X0012691Y0108727D01*
X0012809Y0108768D01*
X0012927Y0108807D01*
X0013047Y0108841D01*
X0013167Y0108871D01*
X0013289Y0108898D01*
X0013411Y0108920D01*
X0013534Y0108939D01*
X0013657Y0108954D01*
X0013781Y0108965D01*
X0013906Y0108972D01*
X0014030Y0108975D01*
X0014154Y0108974D01*
X0014279Y0108969D01*
X0014403Y0108960D01*
X0014526Y0108947D01*
X0014650Y0108930D01*
X0014772Y0108910D01*
X0014894Y0108885D01*
X0015015Y0108856D01*
X0015135Y0108824D01*
X0015254Y0108788D01*
X0015372Y0108748D01*
X0015489Y0108704D01*
X0015604Y0108657D01*
X0015717Y0108606D01*
X0015829Y0108551D01*
X0015939Y0108493D01*
X0016047Y0108432D01*
X0016153Y0108367D01*
X0016257Y0108298D01*
X0016358Y0108227D01*
X0016458Y0108152D01*
X0016555Y0108074D01*
X0016649Y0107993D01*
X0016741Y0107909D01*
X0016830Y0107822D01*
X0016916Y0107732D01*
X0016999Y0107640D01*
X0017079Y0107545D01*
X0017157Y0107447D01*
X0017231Y0107347D01*
X0017302Y0107245D01*
X0017369Y0107141D01*
X0017433Y0107034D01*
X0017494Y0106925D01*
X0017551Y0106815D01*
X0017605Y0106703D01*
X0017655Y0106589D01*
X0017702Y0106474D01*
X0017744Y0106357D01*
X0017783Y0106239D01*
X0017819Y0106119D01*
X0017850Y0105999D01*
X0017877Y0105878D01*
X0017901Y0105756D01*
X0017921Y0105633D01*
X0017937Y0105509D01*
X0017949Y0105386D01*
X0017957Y0105262D01*
X0017961Y0105137D01*
X0017961Y0105013D01*
X0017957Y0104888D01*
X0017949Y0104764D01*
X0017937Y0104641D01*
X0017921Y0104517D01*
X0017901Y0104394D01*
X0017877Y0104272D01*
X0017850Y0104151D01*
X0017819Y0104031D01*
X0017783Y0103911D01*
X0017744Y0103793D01*
X0017702Y0103676D01*
X0017655Y0103561D01*
X0017605Y0103447D01*
X0017551Y0103335D01*
X0017494Y0103225D01*
X0017433Y0103116D01*
X0017369Y0103009D01*
X0017302Y0102905D01*
X0017231Y0102803D01*
X0017157Y0102703D01*
X0017079Y0102605D01*
X0016999Y0102510D01*
X0016916Y0102418D01*
X0016830Y0102328D01*
X0016741Y0102241D01*
X0016649Y0102157D01*
X0016555Y0102076D01*
X0016458Y0101998D01*
X0016358Y0101923D01*
X0016257Y0101852D01*
X0016153Y0101783D01*
X0016047Y0101718D01*
X0015939Y0101657D01*
X0015829Y0101599D01*
X0015717Y0101544D01*
X0015604Y0101493D01*
X0015489Y0101446D01*
X0015372Y0101402D01*
X0015254Y0101362D01*
X0015135Y0101326D01*
X0015015Y0101294D01*
X0014894Y0101265D01*
X0014772Y0101240D01*
X0014650Y0101220D01*
X0014526Y0101203D01*
X0014403Y0101190D01*
X0014279Y0101181D01*
X0014154Y0101176D01*
X0014030Y0101175D01*
X0013906Y0101178D01*
X0013781Y0101185D01*
X0013657Y0101196D01*
X0013534Y0101211D01*
X0013411Y0101230D01*
X0013289Y0101252D01*
X0013167Y0101279D01*
X0013047Y0101309D01*
X0012927Y0101343D01*
X0012809Y0101382D01*
X0012691Y0101423D01*
X0012576Y0101469D01*
X0012461Y0101518D01*
X0012349Y0101571D01*
X0012238Y0101627D01*
X0012129Y0101687D01*
X0012022Y0101751D01*
X0011917Y0101817D01*
X0011814Y0101887D01*
X0011714Y0101961D01*
X0011616Y0102037D01*
X0011520Y0102116D01*
X0011427Y0102199D01*
X0011336Y0102284D01*
X0011249Y0102373D01*
X0011164Y0102464D01*
X0011082Y0102558D01*
X0011004Y0102654D01*
X0010928Y0102753D01*
X0010855Y0102854D01*
X0010786Y0102957D01*
X0010720Y0103063D01*
X0010658Y0103170D01*
X0010599Y0103280D01*
X0010543Y0103391D01*
X0010491Y0103504D01*
X0010443Y0103619D01*
X0010399Y0103735D01*
X0010358Y0103852D01*
X0010321Y0103971D01*
X0010287Y0104091D01*
X0010258Y0104211D01*
X0010232Y0104333D01*
X0010210Y0104456D01*
X0010193Y0104579D01*
X0010179Y0104702D01*
X0010169Y0104826D01*
X0010163Y0104951D01*
X0010161Y0105075D01*
X0010061Y0101075D02*
X0018061Y0109075D01*
X0010161Y0095075D02*
X0010163Y0095199D01*
X0010169Y0095324D01*
X0010179Y0095448D01*
X0010193Y0095571D01*
X0010210Y0095694D01*
X0010232Y0095817D01*
X0010258Y0095939D01*
X0010287Y0096059D01*
X0010321Y0096179D01*
X0010358Y0096298D01*
X0010399Y0096415D01*
X0010443Y0096531D01*
X0010491Y0096646D01*
X0010543Y0096759D01*
X0010599Y0096870D01*
X0010658Y0096980D01*
X0010720Y0097087D01*
X0010786Y0097193D01*
X0010855Y0097296D01*
X0010928Y0097397D01*
X0011004Y0097496D01*
X0011082Y0097592D01*
X0011164Y0097686D01*
X0011249Y0097777D01*
X0011336Y0097866D01*
X0011427Y0097951D01*
X0011520Y0098034D01*
X0011616Y0098113D01*
X0011714Y0098189D01*
X0011814Y0098263D01*
X0011917Y0098333D01*
X0012022Y0098399D01*
X0012129Y0098463D01*
X0012238Y0098523D01*
X0012349Y0098579D01*
X0012461Y0098632D01*
X0012576Y0098681D01*
X0012691Y0098727D01*
X0012809Y0098768D01*
X0012927Y0098807D01*
X0013047Y0098841D01*
X0013167Y0098871D01*
X0013289Y0098898D01*
X0013411Y0098920D01*
X0013534Y0098939D01*
X0013657Y0098954D01*
X0013781Y0098965D01*
X0013906Y0098972D01*
X0014030Y0098975D01*
X0014154Y0098974D01*
X0014279Y0098969D01*
X0014403Y0098960D01*
X0014526Y0098947D01*
X0014650Y0098930D01*
X0014772Y0098910D01*
X0014894Y0098885D01*
X0015015Y0098856D01*
X0015135Y0098824D01*
X0015254Y0098788D01*
X0015372Y0098748D01*
X0015489Y0098704D01*
X0015604Y0098657D01*
X0015717Y0098606D01*
X0015829Y0098551D01*
X0015939Y0098493D01*
X0016047Y0098432D01*
X0016153Y0098367D01*
X0016257Y0098298D01*
X0016358Y0098227D01*
X0016458Y0098152D01*
X0016555Y0098074D01*
X0016649Y0097993D01*
X0016741Y0097909D01*
X0016830Y0097822D01*
X0016916Y0097732D01*
X0016999Y0097640D01*
X0017079Y0097545D01*
X0017157Y0097447D01*
X0017231Y0097347D01*
X0017302Y0097245D01*
X0017369Y0097141D01*
X0017433Y0097034D01*
X0017494Y0096925D01*
X0017551Y0096815D01*
X0017605Y0096703D01*
X0017655Y0096589D01*
X0017702Y0096474D01*
X0017744Y0096357D01*
X0017783Y0096239D01*
X0017819Y0096119D01*
X0017850Y0095999D01*
X0017877Y0095878D01*
X0017901Y0095756D01*
X0017921Y0095633D01*
X0017937Y0095509D01*
X0017949Y0095386D01*
X0017957Y0095262D01*
X0017961Y0095137D01*
X0017961Y0095013D01*
X0017957Y0094888D01*
X0017949Y0094764D01*
X0017937Y0094641D01*
X0017921Y0094517D01*
X0017901Y0094394D01*
X0017877Y0094272D01*
X0017850Y0094151D01*
X0017819Y0094031D01*
X0017783Y0093911D01*
X0017744Y0093793D01*
X0017702Y0093676D01*
X0017655Y0093561D01*
X0017605Y0093447D01*
X0017551Y0093335D01*
X0017494Y0093225D01*
X0017433Y0093116D01*
X0017369Y0093009D01*
X0017302Y0092905D01*
X0017231Y0092803D01*
X0017157Y0092703D01*
X0017079Y0092605D01*
X0016999Y0092510D01*
X0016916Y0092418D01*
X0016830Y0092328D01*
X0016741Y0092241D01*
X0016649Y0092157D01*
X0016555Y0092076D01*
X0016458Y0091998D01*
X0016358Y0091923D01*
X0016257Y0091852D01*
X0016153Y0091783D01*
X0016047Y0091718D01*
X0015939Y0091657D01*
X0015829Y0091599D01*
X0015717Y0091544D01*
X0015604Y0091493D01*
X0015489Y0091446D01*
X0015372Y0091402D01*
X0015254Y0091362D01*
X0015135Y0091326D01*
X0015015Y0091294D01*
X0014894Y0091265D01*
X0014772Y0091240D01*
X0014650Y0091220D01*
X0014526Y0091203D01*
X0014403Y0091190D01*
X0014279Y0091181D01*
X0014154Y0091176D01*
X0014030Y0091175D01*
X0013906Y0091178D01*
X0013781Y0091185D01*
X0013657Y0091196D01*
X0013534Y0091211D01*
X0013411Y0091230D01*
X0013289Y0091252D01*
X0013167Y0091279D01*
X0013047Y0091309D01*
X0012927Y0091343D01*
X0012809Y0091382D01*
X0012691Y0091423D01*
X0012576Y0091469D01*
X0012461Y0091518D01*
X0012349Y0091571D01*
X0012238Y0091627D01*
X0012129Y0091687D01*
X0012022Y0091751D01*
X0011917Y0091817D01*
X0011814Y0091887D01*
X0011714Y0091961D01*
X0011616Y0092037D01*
X0011520Y0092116D01*
X0011427Y0092199D01*
X0011336Y0092284D01*
X0011249Y0092373D01*
X0011164Y0092464D01*
X0011082Y0092558D01*
X0011004Y0092654D01*
X0010928Y0092753D01*
X0010855Y0092854D01*
X0010786Y0092957D01*
X0010720Y0093063D01*
X0010658Y0093170D01*
X0010599Y0093280D01*
X0010543Y0093391D01*
X0010491Y0093504D01*
X0010443Y0093619D01*
X0010399Y0093735D01*
X0010358Y0093852D01*
X0010321Y0093971D01*
X0010287Y0094091D01*
X0010258Y0094211D01*
X0010232Y0094333D01*
X0010210Y0094456D01*
X0010193Y0094579D01*
X0010179Y0094702D01*
X0010169Y0094826D01*
X0010163Y0094951D01*
X0010161Y0095075D01*
X0010061Y0091075D02*
X0018061Y0099075D01*
X0047523Y0013500D02*
X0047525Y0013624D01*
X0047531Y0013749D01*
X0047541Y0013873D01*
X0047555Y0013996D01*
X0047572Y0014119D01*
X0047594Y0014242D01*
X0047620Y0014364D01*
X0047649Y0014484D01*
X0047683Y0014604D01*
X0047720Y0014723D01*
X0047761Y0014840D01*
X0047805Y0014956D01*
X0047853Y0015071D01*
X0047905Y0015184D01*
X0047961Y0015295D01*
X0048020Y0015405D01*
X0048082Y0015512D01*
X0048148Y0015618D01*
X0048217Y0015721D01*
X0048290Y0015822D01*
X0048366Y0015921D01*
X0048444Y0016017D01*
X0048526Y0016111D01*
X0048611Y0016202D01*
X0048698Y0016291D01*
X0048789Y0016376D01*
X0048882Y0016459D01*
X0048978Y0016538D01*
X0049076Y0016614D01*
X0049176Y0016688D01*
X0049279Y0016758D01*
X0049384Y0016824D01*
X0049491Y0016888D01*
X0049600Y0016948D01*
X0049711Y0017004D01*
X0049823Y0017057D01*
X0049938Y0017106D01*
X0050053Y0017152D01*
X0050171Y0017193D01*
X0050289Y0017232D01*
X0050409Y0017266D01*
X0050529Y0017296D01*
X0050651Y0017323D01*
X0050773Y0017345D01*
X0050896Y0017364D01*
X0051019Y0017379D01*
X0051143Y0017390D01*
X0051268Y0017397D01*
X0051392Y0017400D01*
X0051516Y0017399D01*
X0051641Y0017394D01*
X0051765Y0017385D01*
X0051888Y0017372D01*
X0052012Y0017355D01*
X0052134Y0017335D01*
X0052256Y0017310D01*
X0052377Y0017281D01*
X0052497Y0017249D01*
X0052616Y0017213D01*
X0052734Y0017173D01*
X0052851Y0017129D01*
X0052966Y0017082D01*
X0053079Y0017031D01*
X0053191Y0016976D01*
X0053301Y0016918D01*
X0053409Y0016857D01*
X0053515Y0016792D01*
X0053619Y0016723D01*
X0053720Y0016652D01*
X0053820Y0016577D01*
X0053917Y0016499D01*
X0054011Y0016418D01*
X0054103Y0016334D01*
X0054192Y0016247D01*
X0054278Y0016157D01*
X0054361Y0016065D01*
X0054441Y0015970D01*
X0054519Y0015872D01*
X0054593Y0015772D01*
X0054664Y0015670D01*
X0054731Y0015566D01*
X0054795Y0015459D01*
X0054856Y0015350D01*
X0054913Y0015240D01*
X0054967Y0015128D01*
X0055017Y0015014D01*
X0055064Y0014899D01*
X0055106Y0014782D01*
X0055145Y0014664D01*
X0055181Y0014544D01*
X0055212Y0014424D01*
X0055239Y0014303D01*
X0055263Y0014181D01*
X0055283Y0014058D01*
X0055299Y0013934D01*
X0055311Y0013811D01*
X0055319Y0013687D01*
X0055323Y0013562D01*
X0055323Y0013438D01*
X0055319Y0013313D01*
X0055311Y0013189D01*
X0055299Y0013066D01*
X0055283Y0012942D01*
X0055263Y0012819D01*
X0055239Y0012697D01*
X0055212Y0012576D01*
X0055181Y0012456D01*
X0055145Y0012336D01*
X0055106Y0012218D01*
X0055064Y0012101D01*
X0055017Y0011986D01*
X0054967Y0011872D01*
X0054913Y0011760D01*
X0054856Y0011650D01*
X0054795Y0011541D01*
X0054731Y0011434D01*
X0054664Y0011330D01*
X0054593Y0011228D01*
X0054519Y0011128D01*
X0054441Y0011030D01*
X0054361Y0010935D01*
X0054278Y0010843D01*
X0054192Y0010753D01*
X0054103Y0010666D01*
X0054011Y0010582D01*
X0053917Y0010501D01*
X0053820Y0010423D01*
X0053720Y0010348D01*
X0053619Y0010277D01*
X0053515Y0010208D01*
X0053409Y0010143D01*
X0053301Y0010082D01*
X0053191Y0010024D01*
X0053079Y0009969D01*
X0052966Y0009918D01*
X0052851Y0009871D01*
X0052734Y0009827D01*
X0052616Y0009787D01*
X0052497Y0009751D01*
X0052377Y0009719D01*
X0052256Y0009690D01*
X0052134Y0009665D01*
X0052012Y0009645D01*
X0051888Y0009628D01*
X0051765Y0009615D01*
X0051641Y0009606D01*
X0051516Y0009601D01*
X0051392Y0009600D01*
X0051268Y0009603D01*
X0051143Y0009610D01*
X0051019Y0009621D01*
X0050896Y0009636D01*
X0050773Y0009655D01*
X0050651Y0009677D01*
X0050529Y0009704D01*
X0050409Y0009734D01*
X0050289Y0009768D01*
X0050171Y0009807D01*
X0050053Y0009848D01*
X0049938Y0009894D01*
X0049823Y0009943D01*
X0049711Y0009996D01*
X0049600Y0010052D01*
X0049491Y0010112D01*
X0049384Y0010176D01*
X0049279Y0010242D01*
X0049176Y0010312D01*
X0049076Y0010386D01*
X0048978Y0010462D01*
X0048882Y0010541D01*
X0048789Y0010624D01*
X0048698Y0010709D01*
X0048611Y0010798D01*
X0048526Y0010889D01*
X0048444Y0010983D01*
X0048366Y0011079D01*
X0048290Y0011178D01*
X0048217Y0011279D01*
X0048148Y0011382D01*
X0048082Y0011488D01*
X0048020Y0011595D01*
X0047961Y0011705D01*
X0047905Y0011816D01*
X0047853Y0011929D01*
X0047805Y0012044D01*
X0047761Y0012160D01*
X0047720Y0012277D01*
X0047683Y0012396D01*
X0047649Y0012516D01*
X0047620Y0012636D01*
X0047594Y0012758D01*
X0047572Y0012881D01*
X0047555Y0013004D01*
X0047541Y0013127D01*
X0047531Y0013251D01*
X0047525Y0013376D01*
X0047523Y0013500D01*
X0047423Y0009500D02*
X0055423Y0017500D01*
X0047523Y0033500D02*
X0047525Y0033624D01*
X0047531Y0033749D01*
X0047541Y0033873D01*
X0047555Y0033996D01*
X0047572Y0034119D01*
X0047594Y0034242D01*
X0047620Y0034364D01*
X0047649Y0034484D01*
X0047683Y0034604D01*
X0047720Y0034723D01*
X0047761Y0034840D01*
X0047805Y0034956D01*
X0047853Y0035071D01*
X0047905Y0035184D01*
X0047961Y0035295D01*
X0048020Y0035405D01*
X0048082Y0035512D01*
X0048148Y0035618D01*
X0048217Y0035721D01*
X0048290Y0035822D01*
X0048366Y0035921D01*
X0048444Y0036017D01*
X0048526Y0036111D01*
X0048611Y0036202D01*
X0048698Y0036291D01*
X0048789Y0036376D01*
X0048882Y0036459D01*
X0048978Y0036538D01*
X0049076Y0036614D01*
X0049176Y0036688D01*
X0049279Y0036758D01*
X0049384Y0036824D01*
X0049491Y0036888D01*
X0049600Y0036948D01*
X0049711Y0037004D01*
X0049823Y0037057D01*
X0049938Y0037106D01*
X0050053Y0037152D01*
X0050171Y0037193D01*
X0050289Y0037232D01*
X0050409Y0037266D01*
X0050529Y0037296D01*
X0050651Y0037323D01*
X0050773Y0037345D01*
X0050896Y0037364D01*
X0051019Y0037379D01*
X0051143Y0037390D01*
X0051268Y0037397D01*
X0051392Y0037400D01*
X0051516Y0037399D01*
X0051641Y0037394D01*
X0051765Y0037385D01*
X0051888Y0037372D01*
X0052012Y0037355D01*
X0052134Y0037335D01*
X0052256Y0037310D01*
X0052377Y0037281D01*
X0052497Y0037249D01*
X0052616Y0037213D01*
X0052734Y0037173D01*
X0052851Y0037129D01*
X0052966Y0037082D01*
X0053079Y0037031D01*
X0053191Y0036976D01*
X0053301Y0036918D01*
X0053409Y0036857D01*
X0053515Y0036792D01*
X0053619Y0036723D01*
X0053720Y0036652D01*
X0053820Y0036577D01*
X0053917Y0036499D01*
X0054011Y0036418D01*
X0054103Y0036334D01*
X0054192Y0036247D01*
X0054278Y0036157D01*
X0054361Y0036065D01*
X0054441Y0035970D01*
X0054519Y0035872D01*
X0054593Y0035772D01*
X0054664Y0035670D01*
X0054731Y0035566D01*
X0054795Y0035459D01*
X0054856Y0035350D01*
X0054913Y0035240D01*
X0054967Y0035128D01*
X0055017Y0035014D01*
X0055064Y0034899D01*
X0055106Y0034782D01*
X0055145Y0034664D01*
X0055181Y0034544D01*
X0055212Y0034424D01*
X0055239Y0034303D01*
X0055263Y0034181D01*
X0055283Y0034058D01*
X0055299Y0033934D01*
X0055311Y0033811D01*
X0055319Y0033687D01*
X0055323Y0033562D01*
X0055323Y0033438D01*
X0055319Y0033313D01*
X0055311Y0033189D01*
X0055299Y0033066D01*
X0055283Y0032942D01*
X0055263Y0032819D01*
X0055239Y0032697D01*
X0055212Y0032576D01*
X0055181Y0032456D01*
X0055145Y0032336D01*
X0055106Y0032218D01*
X0055064Y0032101D01*
X0055017Y0031986D01*
X0054967Y0031872D01*
X0054913Y0031760D01*
X0054856Y0031650D01*
X0054795Y0031541D01*
X0054731Y0031434D01*
X0054664Y0031330D01*
X0054593Y0031228D01*
X0054519Y0031128D01*
X0054441Y0031030D01*
X0054361Y0030935D01*
X0054278Y0030843D01*
X0054192Y0030753D01*
X0054103Y0030666D01*
X0054011Y0030582D01*
X0053917Y0030501D01*
X0053820Y0030423D01*
X0053720Y0030348D01*
X0053619Y0030277D01*
X0053515Y0030208D01*
X0053409Y0030143D01*
X0053301Y0030082D01*
X0053191Y0030024D01*
X0053079Y0029969D01*
X0052966Y0029918D01*
X0052851Y0029871D01*
X0052734Y0029827D01*
X0052616Y0029787D01*
X0052497Y0029751D01*
X0052377Y0029719D01*
X0052256Y0029690D01*
X0052134Y0029665D01*
X0052012Y0029645D01*
X0051888Y0029628D01*
X0051765Y0029615D01*
X0051641Y0029606D01*
X0051516Y0029601D01*
X0051392Y0029600D01*
X0051268Y0029603D01*
X0051143Y0029610D01*
X0051019Y0029621D01*
X0050896Y0029636D01*
X0050773Y0029655D01*
X0050651Y0029677D01*
X0050529Y0029704D01*
X0050409Y0029734D01*
X0050289Y0029768D01*
X0050171Y0029807D01*
X0050053Y0029848D01*
X0049938Y0029894D01*
X0049823Y0029943D01*
X0049711Y0029996D01*
X0049600Y0030052D01*
X0049491Y0030112D01*
X0049384Y0030176D01*
X0049279Y0030242D01*
X0049176Y0030312D01*
X0049076Y0030386D01*
X0048978Y0030462D01*
X0048882Y0030541D01*
X0048789Y0030624D01*
X0048698Y0030709D01*
X0048611Y0030798D01*
X0048526Y0030889D01*
X0048444Y0030983D01*
X0048366Y0031079D01*
X0048290Y0031178D01*
X0048217Y0031279D01*
X0048148Y0031382D01*
X0048082Y0031488D01*
X0048020Y0031595D01*
X0047961Y0031705D01*
X0047905Y0031816D01*
X0047853Y0031929D01*
X0047805Y0032044D01*
X0047761Y0032160D01*
X0047720Y0032277D01*
X0047683Y0032396D01*
X0047649Y0032516D01*
X0047620Y0032636D01*
X0047594Y0032758D01*
X0047572Y0032881D01*
X0047555Y0033004D01*
X0047541Y0033127D01*
X0047531Y0033251D01*
X0047525Y0033376D01*
X0047523Y0033500D01*
X0047423Y0029500D02*
X0055423Y0037500D01*
X0147641Y0081846D02*
X0147643Y0081970D01*
X0147649Y0082095D01*
X0147659Y0082219D01*
X0147673Y0082342D01*
X0147690Y0082465D01*
X0147712Y0082588D01*
X0147738Y0082710D01*
X0147767Y0082830D01*
X0147801Y0082950D01*
X0147838Y0083069D01*
X0147879Y0083186D01*
X0147923Y0083302D01*
X0147971Y0083417D01*
X0148023Y0083530D01*
X0148079Y0083641D01*
X0148138Y0083751D01*
X0148200Y0083858D01*
X0148266Y0083964D01*
X0148335Y0084067D01*
X0148408Y0084168D01*
X0148484Y0084267D01*
X0148562Y0084363D01*
X0148644Y0084457D01*
X0148729Y0084548D01*
X0148816Y0084637D01*
X0148907Y0084722D01*
X0149000Y0084805D01*
X0149096Y0084884D01*
X0149194Y0084960D01*
X0149294Y0085034D01*
X0149397Y0085104D01*
X0149502Y0085170D01*
X0149609Y0085234D01*
X0149718Y0085294D01*
X0149829Y0085350D01*
X0149941Y0085403D01*
X0150056Y0085452D01*
X0150171Y0085498D01*
X0150289Y0085539D01*
X0150407Y0085578D01*
X0150527Y0085612D01*
X0150647Y0085642D01*
X0150769Y0085669D01*
X0150891Y0085691D01*
X0151014Y0085710D01*
X0151137Y0085725D01*
X0151261Y0085736D01*
X0151386Y0085743D01*
X0151510Y0085746D01*
X0151634Y0085745D01*
X0151759Y0085740D01*
X0151883Y0085731D01*
X0152006Y0085718D01*
X0152130Y0085701D01*
X0152252Y0085681D01*
X0152374Y0085656D01*
X0152495Y0085627D01*
X0152615Y0085595D01*
X0152734Y0085559D01*
X0152852Y0085519D01*
X0152969Y0085475D01*
X0153084Y0085428D01*
X0153197Y0085377D01*
X0153309Y0085322D01*
X0153419Y0085264D01*
X0153527Y0085203D01*
X0153633Y0085138D01*
X0153737Y0085069D01*
X0153838Y0084998D01*
X0153938Y0084923D01*
X0154035Y0084845D01*
X0154129Y0084764D01*
X0154221Y0084680D01*
X0154310Y0084593D01*
X0154396Y0084503D01*
X0154479Y0084411D01*
X0154559Y0084316D01*
X0154637Y0084218D01*
X0154711Y0084118D01*
X0154782Y0084016D01*
X0154849Y0083912D01*
X0154913Y0083805D01*
X0154974Y0083696D01*
X0155031Y0083586D01*
X0155085Y0083474D01*
X0155135Y0083360D01*
X0155182Y0083245D01*
X0155224Y0083128D01*
X0155263Y0083010D01*
X0155299Y0082890D01*
X0155330Y0082770D01*
X0155357Y0082649D01*
X0155381Y0082527D01*
X0155401Y0082404D01*
X0155417Y0082280D01*
X0155429Y0082157D01*
X0155437Y0082033D01*
X0155441Y0081908D01*
X0155441Y0081784D01*
X0155437Y0081659D01*
X0155429Y0081535D01*
X0155417Y0081412D01*
X0155401Y0081288D01*
X0155381Y0081165D01*
X0155357Y0081043D01*
X0155330Y0080922D01*
X0155299Y0080802D01*
X0155263Y0080682D01*
X0155224Y0080564D01*
X0155182Y0080447D01*
X0155135Y0080332D01*
X0155085Y0080218D01*
X0155031Y0080106D01*
X0154974Y0079996D01*
X0154913Y0079887D01*
X0154849Y0079780D01*
X0154782Y0079676D01*
X0154711Y0079574D01*
X0154637Y0079474D01*
X0154559Y0079376D01*
X0154479Y0079281D01*
X0154396Y0079189D01*
X0154310Y0079099D01*
X0154221Y0079012D01*
X0154129Y0078928D01*
X0154035Y0078847D01*
X0153938Y0078769D01*
X0153838Y0078694D01*
X0153737Y0078623D01*
X0153633Y0078554D01*
X0153527Y0078489D01*
X0153419Y0078428D01*
X0153309Y0078370D01*
X0153197Y0078315D01*
X0153084Y0078264D01*
X0152969Y0078217D01*
X0152852Y0078173D01*
X0152734Y0078133D01*
X0152615Y0078097D01*
X0152495Y0078065D01*
X0152374Y0078036D01*
X0152252Y0078011D01*
X0152130Y0077991D01*
X0152006Y0077974D01*
X0151883Y0077961D01*
X0151759Y0077952D01*
X0151634Y0077947D01*
X0151510Y0077946D01*
X0151386Y0077949D01*
X0151261Y0077956D01*
X0151137Y0077967D01*
X0151014Y0077982D01*
X0150891Y0078001D01*
X0150769Y0078023D01*
X0150647Y0078050D01*
X0150527Y0078080D01*
X0150407Y0078114D01*
X0150289Y0078153D01*
X0150171Y0078194D01*
X0150056Y0078240D01*
X0149941Y0078289D01*
X0149829Y0078342D01*
X0149718Y0078398D01*
X0149609Y0078458D01*
X0149502Y0078522D01*
X0149397Y0078588D01*
X0149294Y0078658D01*
X0149194Y0078732D01*
X0149096Y0078808D01*
X0149000Y0078887D01*
X0148907Y0078970D01*
X0148816Y0079055D01*
X0148729Y0079144D01*
X0148644Y0079235D01*
X0148562Y0079329D01*
X0148484Y0079425D01*
X0148408Y0079524D01*
X0148335Y0079625D01*
X0148266Y0079728D01*
X0148200Y0079834D01*
X0148138Y0079941D01*
X0148079Y0080051D01*
X0148023Y0080162D01*
X0147971Y0080275D01*
X0147923Y0080390D01*
X0147879Y0080506D01*
X0147838Y0080623D01*
X0147801Y0080742D01*
X0147767Y0080862D01*
X0147738Y0080982D01*
X0147712Y0081104D01*
X0147690Y0081227D01*
X0147673Y0081350D01*
X0147659Y0081473D01*
X0147649Y0081597D01*
X0147643Y0081722D01*
X0147641Y0081846D01*
X0147541Y0077846D02*
X0155541Y0085846D01*
X0147641Y0091846D02*
X0147643Y0091970D01*
X0147649Y0092095D01*
X0147659Y0092219D01*
X0147673Y0092342D01*
X0147690Y0092465D01*
X0147712Y0092588D01*
X0147738Y0092710D01*
X0147767Y0092830D01*
X0147801Y0092950D01*
X0147838Y0093069D01*
X0147879Y0093186D01*
X0147923Y0093302D01*
X0147971Y0093417D01*
X0148023Y0093530D01*
X0148079Y0093641D01*
X0148138Y0093751D01*
X0148200Y0093858D01*
X0148266Y0093964D01*
X0148335Y0094067D01*
X0148408Y0094168D01*
X0148484Y0094267D01*
X0148562Y0094363D01*
X0148644Y0094457D01*
X0148729Y0094548D01*
X0148816Y0094637D01*
X0148907Y0094722D01*
X0149000Y0094805D01*
X0149096Y0094884D01*
X0149194Y0094960D01*
X0149294Y0095034D01*
X0149397Y0095104D01*
X0149502Y0095170D01*
X0149609Y0095234D01*
X0149718Y0095294D01*
X0149829Y0095350D01*
X0149941Y0095403D01*
X0150056Y0095452D01*
X0150171Y0095498D01*
X0150289Y0095539D01*
X0150407Y0095578D01*
X0150527Y0095612D01*
X0150647Y0095642D01*
X0150769Y0095669D01*
X0150891Y0095691D01*
X0151014Y0095710D01*
X0151137Y0095725D01*
X0151261Y0095736D01*
X0151386Y0095743D01*
X0151510Y0095746D01*
X0151634Y0095745D01*
X0151759Y0095740D01*
X0151883Y0095731D01*
X0152006Y0095718D01*
X0152130Y0095701D01*
X0152252Y0095681D01*
X0152374Y0095656D01*
X0152495Y0095627D01*
X0152615Y0095595D01*
X0152734Y0095559D01*
X0152852Y0095519D01*
X0152969Y0095475D01*
X0153084Y0095428D01*
X0153197Y0095377D01*
X0153309Y0095322D01*
X0153419Y0095264D01*
X0153527Y0095203D01*
X0153633Y0095138D01*
X0153737Y0095069D01*
X0153838Y0094998D01*
X0153938Y0094923D01*
X0154035Y0094845D01*
X0154129Y0094764D01*
X0154221Y0094680D01*
X0154310Y0094593D01*
X0154396Y0094503D01*
X0154479Y0094411D01*
X0154559Y0094316D01*
X0154637Y0094218D01*
X0154711Y0094118D01*
X0154782Y0094016D01*
X0154849Y0093912D01*
X0154913Y0093805D01*
X0154974Y0093696D01*
X0155031Y0093586D01*
X0155085Y0093474D01*
X0155135Y0093360D01*
X0155182Y0093245D01*
X0155224Y0093128D01*
X0155263Y0093010D01*
X0155299Y0092890D01*
X0155330Y0092770D01*
X0155357Y0092649D01*
X0155381Y0092527D01*
X0155401Y0092404D01*
X0155417Y0092280D01*
X0155429Y0092157D01*
X0155437Y0092033D01*
X0155441Y0091908D01*
X0155441Y0091784D01*
X0155437Y0091659D01*
X0155429Y0091535D01*
X0155417Y0091412D01*
X0155401Y0091288D01*
X0155381Y0091165D01*
X0155357Y0091043D01*
X0155330Y0090922D01*
X0155299Y0090802D01*
X0155263Y0090682D01*
X0155224Y0090564D01*
X0155182Y0090447D01*
X0155135Y0090332D01*
X0155085Y0090218D01*
X0155031Y0090106D01*
X0154974Y0089996D01*
X0154913Y0089887D01*
X0154849Y0089780D01*
X0154782Y0089676D01*
X0154711Y0089574D01*
X0154637Y0089474D01*
X0154559Y0089376D01*
X0154479Y0089281D01*
X0154396Y0089189D01*
X0154310Y0089099D01*
X0154221Y0089012D01*
X0154129Y0088928D01*
X0154035Y0088847D01*
X0153938Y0088769D01*
X0153838Y0088694D01*
X0153737Y0088623D01*
X0153633Y0088554D01*
X0153527Y0088489D01*
X0153419Y0088428D01*
X0153309Y0088370D01*
X0153197Y0088315D01*
X0153084Y0088264D01*
X0152969Y0088217D01*
X0152852Y0088173D01*
X0152734Y0088133D01*
X0152615Y0088097D01*
X0152495Y0088065D01*
X0152374Y0088036D01*
X0152252Y0088011D01*
X0152130Y0087991D01*
X0152006Y0087974D01*
X0151883Y0087961D01*
X0151759Y0087952D01*
X0151634Y0087947D01*
X0151510Y0087946D01*
X0151386Y0087949D01*
X0151261Y0087956D01*
X0151137Y0087967D01*
X0151014Y0087982D01*
X0150891Y0088001D01*
X0150769Y0088023D01*
X0150647Y0088050D01*
X0150527Y0088080D01*
X0150407Y0088114D01*
X0150289Y0088153D01*
X0150171Y0088194D01*
X0150056Y0088240D01*
X0149941Y0088289D01*
X0149829Y0088342D01*
X0149718Y0088398D01*
X0149609Y0088458D01*
X0149502Y0088522D01*
X0149397Y0088588D01*
X0149294Y0088658D01*
X0149194Y0088732D01*
X0149096Y0088808D01*
X0149000Y0088887D01*
X0148907Y0088970D01*
X0148816Y0089055D01*
X0148729Y0089144D01*
X0148644Y0089235D01*
X0148562Y0089329D01*
X0148484Y0089425D01*
X0148408Y0089524D01*
X0148335Y0089625D01*
X0148266Y0089728D01*
X0148200Y0089834D01*
X0148138Y0089941D01*
X0148079Y0090051D01*
X0148023Y0090162D01*
X0147971Y0090275D01*
X0147923Y0090390D01*
X0147879Y0090506D01*
X0147838Y0090623D01*
X0147801Y0090742D01*
X0147767Y0090862D01*
X0147738Y0090982D01*
X0147712Y0091104D01*
X0147690Y0091227D01*
X0147673Y0091350D01*
X0147659Y0091473D01*
X0147649Y0091597D01*
X0147643Y0091722D01*
X0147641Y0091846D01*
X0147541Y0087846D02*
X0155541Y0095846D01*
X0147641Y0101846D02*
X0147643Y0101970D01*
X0147649Y0102095D01*
X0147659Y0102219D01*
X0147673Y0102342D01*
X0147690Y0102465D01*
X0147712Y0102588D01*
X0147738Y0102710D01*
X0147767Y0102830D01*
X0147801Y0102950D01*
X0147838Y0103069D01*
X0147879Y0103186D01*
X0147923Y0103302D01*
X0147971Y0103417D01*
X0148023Y0103530D01*
X0148079Y0103641D01*
X0148138Y0103751D01*
X0148200Y0103858D01*
X0148266Y0103964D01*
X0148335Y0104067D01*
X0148408Y0104168D01*
X0148484Y0104267D01*
X0148562Y0104363D01*
X0148644Y0104457D01*
X0148729Y0104548D01*
X0148816Y0104637D01*
X0148907Y0104722D01*
X0149000Y0104805D01*
X0149096Y0104884D01*
X0149194Y0104960D01*
X0149294Y0105034D01*
X0149397Y0105104D01*
X0149502Y0105170D01*
X0149609Y0105234D01*
X0149718Y0105294D01*
X0149829Y0105350D01*
X0149941Y0105403D01*
X0150056Y0105452D01*
X0150171Y0105498D01*
X0150289Y0105539D01*
X0150407Y0105578D01*
X0150527Y0105612D01*
X0150647Y0105642D01*
X0150769Y0105669D01*
X0150891Y0105691D01*
X0151014Y0105710D01*
X0151137Y0105725D01*
X0151261Y0105736D01*
X0151386Y0105743D01*
X0151510Y0105746D01*
X0151634Y0105745D01*
X0151759Y0105740D01*
X0151883Y0105731D01*
X0152006Y0105718D01*
X0152130Y0105701D01*
X0152252Y0105681D01*
X0152374Y0105656D01*
X0152495Y0105627D01*
X0152615Y0105595D01*
X0152734Y0105559D01*
X0152852Y0105519D01*
X0152969Y0105475D01*
X0153084Y0105428D01*
X0153197Y0105377D01*
X0153309Y0105322D01*
X0153419Y0105264D01*
X0153527Y0105203D01*
X0153633Y0105138D01*
X0153737Y0105069D01*
X0153838Y0104998D01*
X0153938Y0104923D01*
X0154035Y0104845D01*
X0154129Y0104764D01*
X0154221Y0104680D01*
X0154310Y0104593D01*
X0154396Y0104503D01*
X0154479Y0104411D01*
X0154559Y0104316D01*
X0154637Y0104218D01*
X0154711Y0104118D01*
X0154782Y0104016D01*
X0154849Y0103912D01*
X0154913Y0103805D01*
X0154974Y0103696D01*
X0155031Y0103586D01*
X0155085Y0103474D01*
X0155135Y0103360D01*
X0155182Y0103245D01*
X0155224Y0103128D01*
X0155263Y0103010D01*
X0155299Y0102890D01*
X0155330Y0102770D01*
X0155357Y0102649D01*
X0155381Y0102527D01*
X0155401Y0102404D01*
X0155417Y0102280D01*
X0155429Y0102157D01*
X0155437Y0102033D01*
X0155441Y0101908D01*
X0155441Y0101784D01*
X0155437Y0101659D01*
X0155429Y0101535D01*
X0155417Y0101412D01*
X0155401Y0101288D01*
X0155381Y0101165D01*
X0155357Y0101043D01*
X0155330Y0100922D01*
X0155299Y0100802D01*
X0155263Y0100682D01*
X0155224Y0100564D01*
X0155182Y0100447D01*
X0155135Y0100332D01*
X0155085Y0100218D01*
X0155031Y0100106D01*
X0154974Y0099996D01*
X0154913Y0099887D01*
X0154849Y0099780D01*
X0154782Y0099676D01*
X0154711Y0099574D01*
X0154637Y0099474D01*
X0154559Y0099376D01*
X0154479Y0099281D01*
X0154396Y0099189D01*
X0154310Y0099099D01*
X0154221Y0099012D01*
X0154129Y0098928D01*
X0154035Y0098847D01*
X0153938Y0098769D01*
X0153838Y0098694D01*
X0153737Y0098623D01*
X0153633Y0098554D01*
X0153527Y0098489D01*
X0153419Y0098428D01*
X0153309Y0098370D01*
X0153197Y0098315D01*
X0153084Y0098264D01*
X0152969Y0098217D01*
X0152852Y0098173D01*
X0152734Y0098133D01*
X0152615Y0098097D01*
X0152495Y0098065D01*
X0152374Y0098036D01*
X0152252Y0098011D01*
X0152130Y0097991D01*
X0152006Y0097974D01*
X0151883Y0097961D01*
X0151759Y0097952D01*
X0151634Y0097947D01*
X0151510Y0097946D01*
X0151386Y0097949D01*
X0151261Y0097956D01*
X0151137Y0097967D01*
X0151014Y0097982D01*
X0150891Y0098001D01*
X0150769Y0098023D01*
X0150647Y0098050D01*
X0150527Y0098080D01*
X0150407Y0098114D01*
X0150289Y0098153D01*
X0150171Y0098194D01*
X0150056Y0098240D01*
X0149941Y0098289D01*
X0149829Y0098342D01*
X0149718Y0098398D01*
X0149609Y0098458D01*
X0149502Y0098522D01*
X0149397Y0098588D01*
X0149294Y0098658D01*
X0149194Y0098732D01*
X0149096Y0098808D01*
X0149000Y0098887D01*
X0148907Y0098970D01*
X0148816Y0099055D01*
X0148729Y0099144D01*
X0148644Y0099235D01*
X0148562Y0099329D01*
X0148484Y0099425D01*
X0148408Y0099524D01*
X0148335Y0099625D01*
X0148266Y0099728D01*
X0148200Y0099834D01*
X0148138Y0099941D01*
X0148079Y0100051D01*
X0148023Y0100162D01*
X0147971Y0100275D01*
X0147923Y0100390D01*
X0147879Y0100506D01*
X0147838Y0100623D01*
X0147801Y0100742D01*
X0147767Y0100862D01*
X0147738Y0100982D01*
X0147712Y0101104D01*
X0147690Y0101227D01*
X0147673Y0101350D01*
X0147659Y0101473D01*
X0147649Y0101597D01*
X0147643Y0101722D01*
X0147641Y0101846D01*
X0147541Y0097846D02*
X0155541Y0105846D01*
X0147641Y0111846D02*
X0147643Y0111970D01*
X0147649Y0112095D01*
X0147659Y0112219D01*
X0147673Y0112342D01*
X0147690Y0112465D01*
X0147712Y0112588D01*
X0147738Y0112710D01*
X0147767Y0112830D01*
X0147801Y0112950D01*
X0147838Y0113069D01*
X0147879Y0113186D01*
X0147923Y0113302D01*
X0147971Y0113417D01*
X0148023Y0113530D01*
X0148079Y0113641D01*
X0148138Y0113751D01*
X0148200Y0113858D01*
X0148266Y0113964D01*
X0148335Y0114067D01*
X0148408Y0114168D01*
X0148484Y0114267D01*
X0148562Y0114363D01*
X0148644Y0114457D01*
X0148729Y0114548D01*
X0148816Y0114637D01*
X0148907Y0114722D01*
X0149000Y0114805D01*
X0149096Y0114884D01*
X0149194Y0114960D01*
X0149294Y0115034D01*
X0149397Y0115104D01*
X0149502Y0115170D01*
X0149609Y0115234D01*
X0149718Y0115294D01*
X0149829Y0115350D01*
X0149941Y0115403D01*
X0150056Y0115452D01*
X0150171Y0115498D01*
X0150289Y0115539D01*
X0150407Y0115578D01*
X0150527Y0115612D01*
X0150647Y0115642D01*
X0150769Y0115669D01*
X0150891Y0115691D01*
X0151014Y0115710D01*
X0151137Y0115725D01*
X0151261Y0115736D01*
X0151386Y0115743D01*
X0151510Y0115746D01*
X0151634Y0115745D01*
X0151759Y0115740D01*
X0151883Y0115731D01*
X0152006Y0115718D01*
X0152130Y0115701D01*
X0152252Y0115681D01*
X0152374Y0115656D01*
X0152495Y0115627D01*
X0152615Y0115595D01*
X0152734Y0115559D01*
X0152852Y0115519D01*
X0152969Y0115475D01*
X0153084Y0115428D01*
X0153197Y0115377D01*
X0153309Y0115322D01*
X0153419Y0115264D01*
X0153527Y0115203D01*
X0153633Y0115138D01*
X0153737Y0115069D01*
X0153838Y0114998D01*
X0153938Y0114923D01*
X0154035Y0114845D01*
X0154129Y0114764D01*
X0154221Y0114680D01*
X0154310Y0114593D01*
X0154396Y0114503D01*
X0154479Y0114411D01*
X0154559Y0114316D01*
X0154637Y0114218D01*
X0154711Y0114118D01*
X0154782Y0114016D01*
X0154849Y0113912D01*
X0154913Y0113805D01*
X0154974Y0113696D01*
X0155031Y0113586D01*
X0155085Y0113474D01*
X0155135Y0113360D01*
X0155182Y0113245D01*
X0155224Y0113128D01*
X0155263Y0113010D01*
X0155299Y0112890D01*
X0155330Y0112770D01*
X0155357Y0112649D01*
X0155381Y0112527D01*
X0155401Y0112404D01*
X0155417Y0112280D01*
X0155429Y0112157D01*
X0155437Y0112033D01*
X0155441Y0111908D01*
X0155441Y0111784D01*
X0155437Y0111659D01*
X0155429Y0111535D01*
X0155417Y0111412D01*
X0155401Y0111288D01*
X0155381Y0111165D01*
X0155357Y0111043D01*
X0155330Y0110922D01*
X0155299Y0110802D01*
X0155263Y0110682D01*
X0155224Y0110564D01*
X0155182Y0110447D01*
X0155135Y0110332D01*
X0155085Y0110218D01*
X0155031Y0110106D01*
X0154974Y0109996D01*
X0154913Y0109887D01*
X0154849Y0109780D01*
X0154782Y0109676D01*
X0154711Y0109574D01*
X0154637Y0109474D01*
X0154559Y0109376D01*
X0154479Y0109281D01*
X0154396Y0109189D01*
X0154310Y0109099D01*
X0154221Y0109012D01*
X0154129Y0108928D01*
X0154035Y0108847D01*
X0153938Y0108769D01*
X0153838Y0108694D01*
X0153737Y0108623D01*
X0153633Y0108554D01*
X0153527Y0108489D01*
X0153419Y0108428D01*
X0153309Y0108370D01*
X0153197Y0108315D01*
X0153084Y0108264D01*
X0152969Y0108217D01*
X0152852Y0108173D01*
X0152734Y0108133D01*
X0152615Y0108097D01*
X0152495Y0108065D01*
X0152374Y0108036D01*
X0152252Y0108011D01*
X0152130Y0107991D01*
X0152006Y0107974D01*
X0151883Y0107961D01*
X0151759Y0107952D01*
X0151634Y0107947D01*
X0151510Y0107946D01*
X0151386Y0107949D01*
X0151261Y0107956D01*
X0151137Y0107967D01*
X0151014Y0107982D01*
X0150891Y0108001D01*
X0150769Y0108023D01*
X0150647Y0108050D01*
X0150527Y0108080D01*
X0150407Y0108114D01*
X0150289Y0108153D01*
X0150171Y0108194D01*
X0150056Y0108240D01*
X0149941Y0108289D01*
X0149829Y0108342D01*
X0149718Y0108398D01*
X0149609Y0108458D01*
X0149502Y0108522D01*
X0149397Y0108588D01*
X0149294Y0108658D01*
X0149194Y0108732D01*
X0149096Y0108808D01*
X0149000Y0108887D01*
X0148907Y0108970D01*
X0148816Y0109055D01*
X0148729Y0109144D01*
X0148644Y0109235D01*
X0148562Y0109329D01*
X0148484Y0109425D01*
X0148408Y0109524D01*
X0148335Y0109625D01*
X0148266Y0109728D01*
X0148200Y0109834D01*
X0148138Y0109941D01*
X0148079Y0110051D01*
X0148023Y0110162D01*
X0147971Y0110275D01*
X0147923Y0110390D01*
X0147879Y0110506D01*
X0147838Y0110623D01*
X0147801Y0110742D01*
X0147767Y0110862D01*
X0147738Y0110982D01*
X0147712Y0111104D01*
X0147690Y0111227D01*
X0147673Y0111350D01*
X0147659Y0111473D01*
X0147649Y0111597D01*
X0147643Y0111722D01*
X0147641Y0111846D01*
X0147541Y0107846D02*
X0155541Y0115846D01*
X0147641Y0121846D02*
X0147643Y0121970D01*
X0147649Y0122095D01*
X0147659Y0122219D01*
X0147673Y0122342D01*
X0147690Y0122465D01*
X0147712Y0122588D01*
X0147738Y0122710D01*
X0147767Y0122830D01*
X0147801Y0122950D01*
X0147838Y0123069D01*
X0147879Y0123186D01*
X0147923Y0123302D01*
X0147971Y0123417D01*
X0148023Y0123530D01*
X0148079Y0123641D01*
X0148138Y0123751D01*
X0148200Y0123858D01*
X0148266Y0123964D01*
X0148335Y0124067D01*
X0148408Y0124168D01*
X0148484Y0124267D01*
X0148562Y0124363D01*
X0148644Y0124457D01*
X0148729Y0124548D01*
X0148816Y0124637D01*
X0148907Y0124722D01*
X0149000Y0124805D01*
X0149096Y0124884D01*
X0149194Y0124960D01*
X0149294Y0125034D01*
X0149397Y0125104D01*
X0149502Y0125170D01*
X0149609Y0125234D01*
X0149718Y0125294D01*
X0149829Y0125350D01*
X0149941Y0125403D01*
X0150056Y0125452D01*
X0150171Y0125498D01*
X0150289Y0125539D01*
X0150407Y0125578D01*
X0150527Y0125612D01*
X0150647Y0125642D01*
X0150769Y0125669D01*
X0150891Y0125691D01*
X0151014Y0125710D01*
X0151137Y0125725D01*
X0151261Y0125736D01*
X0151386Y0125743D01*
X0151510Y0125746D01*
X0151634Y0125745D01*
X0151759Y0125740D01*
X0151883Y0125731D01*
X0152006Y0125718D01*
X0152130Y0125701D01*
X0152252Y0125681D01*
X0152374Y0125656D01*
X0152495Y0125627D01*
X0152615Y0125595D01*
X0152734Y0125559D01*
X0152852Y0125519D01*
X0152969Y0125475D01*
X0153084Y0125428D01*
X0153197Y0125377D01*
X0153309Y0125322D01*
X0153419Y0125264D01*
X0153527Y0125203D01*
X0153633Y0125138D01*
X0153737Y0125069D01*
X0153838Y0124998D01*
X0153938Y0124923D01*
X0154035Y0124845D01*
X0154129Y0124764D01*
X0154221Y0124680D01*
X0154310Y0124593D01*
X0154396Y0124503D01*
X0154479Y0124411D01*
X0154559Y0124316D01*
X0154637Y0124218D01*
X0154711Y0124118D01*
X0154782Y0124016D01*
X0154849Y0123912D01*
X0154913Y0123805D01*
X0154974Y0123696D01*
X0155031Y0123586D01*
X0155085Y0123474D01*
X0155135Y0123360D01*
X0155182Y0123245D01*
X0155224Y0123128D01*
X0155263Y0123010D01*
X0155299Y0122890D01*
X0155330Y0122770D01*
X0155357Y0122649D01*
X0155381Y0122527D01*
X0155401Y0122404D01*
X0155417Y0122280D01*
X0155429Y0122157D01*
X0155437Y0122033D01*
X0155441Y0121908D01*
X0155441Y0121784D01*
X0155437Y0121659D01*
X0155429Y0121535D01*
X0155417Y0121412D01*
X0155401Y0121288D01*
X0155381Y0121165D01*
X0155357Y0121043D01*
X0155330Y0120922D01*
X0155299Y0120802D01*
X0155263Y0120682D01*
X0155224Y0120564D01*
X0155182Y0120447D01*
X0155135Y0120332D01*
X0155085Y0120218D01*
X0155031Y0120106D01*
X0154974Y0119996D01*
X0154913Y0119887D01*
X0154849Y0119780D01*
X0154782Y0119676D01*
X0154711Y0119574D01*
X0154637Y0119474D01*
X0154559Y0119376D01*
X0154479Y0119281D01*
X0154396Y0119189D01*
X0154310Y0119099D01*
X0154221Y0119012D01*
X0154129Y0118928D01*
X0154035Y0118847D01*
X0153938Y0118769D01*
X0153838Y0118694D01*
X0153737Y0118623D01*
X0153633Y0118554D01*
X0153527Y0118489D01*
X0153419Y0118428D01*
X0153309Y0118370D01*
X0153197Y0118315D01*
X0153084Y0118264D01*
X0152969Y0118217D01*
X0152852Y0118173D01*
X0152734Y0118133D01*
X0152615Y0118097D01*
X0152495Y0118065D01*
X0152374Y0118036D01*
X0152252Y0118011D01*
X0152130Y0117991D01*
X0152006Y0117974D01*
X0151883Y0117961D01*
X0151759Y0117952D01*
X0151634Y0117947D01*
X0151510Y0117946D01*
X0151386Y0117949D01*
X0151261Y0117956D01*
X0151137Y0117967D01*
X0151014Y0117982D01*
X0150891Y0118001D01*
X0150769Y0118023D01*
X0150647Y0118050D01*
X0150527Y0118080D01*
X0150407Y0118114D01*
X0150289Y0118153D01*
X0150171Y0118194D01*
X0150056Y0118240D01*
X0149941Y0118289D01*
X0149829Y0118342D01*
X0149718Y0118398D01*
X0149609Y0118458D01*
X0149502Y0118522D01*
X0149397Y0118588D01*
X0149294Y0118658D01*
X0149194Y0118732D01*
X0149096Y0118808D01*
X0149000Y0118887D01*
X0148907Y0118970D01*
X0148816Y0119055D01*
X0148729Y0119144D01*
X0148644Y0119235D01*
X0148562Y0119329D01*
X0148484Y0119425D01*
X0148408Y0119524D01*
X0148335Y0119625D01*
X0148266Y0119728D01*
X0148200Y0119834D01*
X0148138Y0119941D01*
X0148079Y0120051D01*
X0148023Y0120162D01*
X0147971Y0120275D01*
X0147923Y0120390D01*
X0147879Y0120506D01*
X0147838Y0120623D01*
X0147801Y0120742D01*
X0147767Y0120862D01*
X0147738Y0120982D01*
X0147712Y0121104D01*
X0147690Y0121227D01*
X0147673Y0121350D01*
X0147659Y0121473D01*
X0147649Y0121597D01*
X0147643Y0121722D01*
X0147641Y0121846D01*
X0147541Y0117846D02*
X0155541Y0125846D01*
X0005200Y0032437D02*
X0005202Y0032561D01*
X0005208Y0032686D01*
X0005218Y0032810D01*
X0005232Y0032933D01*
X0005249Y0033056D01*
X0005271Y0033179D01*
X0005297Y0033301D01*
X0005326Y0033421D01*
X0005360Y0033541D01*
X0005397Y0033660D01*
X0005438Y0033777D01*
X0005482Y0033893D01*
X0005530Y0034008D01*
X0005582Y0034121D01*
X0005638Y0034232D01*
X0005697Y0034342D01*
X0005759Y0034449D01*
X0005825Y0034555D01*
X0005894Y0034658D01*
X0005967Y0034759D01*
X0006043Y0034858D01*
X0006121Y0034954D01*
X0006203Y0035048D01*
X0006288Y0035139D01*
X0006375Y0035228D01*
X0006466Y0035313D01*
X0006559Y0035396D01*
X0006655Y0035475D01*
X0006753Y0035551D01*
X0006853Y0035625D01*
X0006956Y0035695D01*
X0007061Y0035761D01*
X0007168Y0035825D01*
X0007277Y0035885D01*
X0007388Y0035941D01*
X0007500Y0035994D01*
X0007615Y0036043D01*
X0007730Y0036089D01*
X0007848Y0036130D01*
X0007966Y0036169D01*
X0008086Y0036203D01*
X0008206Y0036233D01*
X0008328Y0036260D01*
X0008450Y0036282D01*
X0008573Y0036301D01*
X0008696Y0036316D01*
X0008820Y0036327D01*
X0008945Y0036334D01*
X0009069Y0036337D01*
X0009193Y0036336D01*
X0009318Y0036331D01*
X0009442Y0036322D01*
X0009565Y0036309D01*
X0009689Y0036292D01*
X0009811Y0036272D01*
X0009933Y0036247D01*
X0010054Y0036218D01*
X0010174Y0036186D01*
X0010293Y0036150D01*
X0010411Y0036110D01*
X0010528Y0036066D01*
X0010643Y0036019D01*
X0010756Y0035968D01*
X0010868Y0035913D01*
X0010978Y0035855D01*
X0011086Y0035794D01*
X0011192Y0035729D01*
X0011296Y0035660D01*
X0011397Y0035589D01*
X0011497Y0035514D01*
X0011594Y0035436D01*
X0011688Y0035355D01*
X0011780Y0035271D01*
X0011869Y0035184D01*
X0011955Y0035094D01*
X0012038Y0035002D01*
X0012118Y0034907D01*
X0012196Y0034809D01*
X0012270Y0034709D01*
X0012341Y0034607D01*
X0012408Y0034503D01*
X0012472Y0034396D01*
X0012533Y0034287D01*
X0012590Y0034177D01*
X0012644Y0034065D01*
X0012694Y0033951D01*
X0012741Y0033836D01*
X0012783Y0033719D01*
X0012822Y0033601D01*
X0012858Y0033481D01*
X0012889Y0033361D01*
X0012916Y0033240D01*
X0012940Y0033118D01*
X0012960Y0032995D01*
X0012976Y0032871D01*
X0012988Y0032748D01*
X0012996Y0032624D01*
X0013000Y0032499D01*
X0013000Y0032375D01*
X0012996Y0032250D01*
X0012988Y0032126D01*
X0012976Y0032003D01*
X0012960Y0031879D01*
X0012940Y0031756D01*
X0012916Y0031634D01*
X0012889Y0031513D01*
X0012858Y0031393D01*
X0012822Y0031273D01*
X0012783Y0031155D01*
X0012741Y0031038D01*
X0012694Y0030923D01*
X0012644Y0030809D01*
X0012590Y0030697D01*
X0012533Y0030587D01*
X0012472Y0030478D01*
X0012408Y0030371D01*
X0012341Y0030267D01*
X0012270Y0030165D01*
X0012196Y0030065D01*
X0012118Y0029967D01*
X0012038Y0029872D01*
X0011955Y0029780D01*
X0011869Y0029690D01*
X0011780Y0029603D01*
X0011688Y0029519D01*
X0011594Y0029438D01*
X0011497Y0029360D01*
X0011397Y0029285D01*
X0011296Y0029214D01*
X0011192Y0029145D01*
X0011086Y0029080D01*
X0010978Y0029019D01*
X0010868Y0028961D01*
X0010756Y0028906D01*
X0010643Y0028855D01*
X0010528Y0028808D01*
X0010411Y0028764D01*
X0010293Y0028724D01*
X0010174Y0028688D01*
X0010054Y0028656D01*
X0009933Y0028627D01*
X0009811Y0028602D01*
X0009689Y0028582D01*
X0009565Y0028565D01*
X0009442Y0028552D01*
X0009318Y0028543D01*
X0009193Y0028538D01*
X0009069Y0028537D01*
X0008945Y0028540D01*
X0008820Y0028547D01*
X0008696Y0028558D01*
X0008573Y0028573D01*
X0008450Y0028592D01*
X0008328Y0028614D01*
X0008206Y0028641D01*
X0008086Y0028671D01*
X0007966Y0028705D01*
X0007848Y0028744D01*
X0007730Y0028785D01*
X0007615Y0028831D01*
X0007500Y0028880D01*
X0007388Y0028933D01*
X0007277Y0028989D01*
X0007168Y0029049D01*
X0007061Y0029113D01*
X0006956Y0029179D01*
X0006853Y0029249D01*
X0006753Y0029323D01*
X0006655Y0029399D01*
X0006559Y0029478D01*
X0006466Y0029561D01*
X0006375Y0029646D01*
X0006288Y0029735D01*
X0006203Y0029826D01*
X0006121Y0029920D01*
X0006043Y0030016D01*
X0005967Y0030115D01*
X0005894Y0030216D01*
X0005825Y0030319D01*
X0005759Y0030425D01*
X0005697Y0030532D01*
X0005638Y0030642D01*
X0005582Y0030753D01*
X0005530Y0030866D01*
X0005482Y0030981D01*
X0005438Y0031097D01*
X0005397Y0031214D01*
X0005360Y0031333D01*
X0005326Y0031453D01*
X0005297Y0031573D01*
X0005271Y0031695D01*
X0005249Y0031818D01*
X0005232Y0031941D01*
X0005218Y0032064D01*
X0005208Y0032188D01*
X0005202Y0032313D01*
X0005200Y0032437D01*
X0005100Y0028437D02*
X0013100Y0036437D01*
X0005200Y0042437D02*
X0005202Y0042561D01*
X0005208Y0042686D01*
X0005218Y0042810D01*
X0005232Y0042933D01*
X0005249Y0043056D01*
X0005271Y0043179D01*
X0005297Y0043301D01*
X0005326Y0043421D01*
X0005360Y0043541D01*
X0005397Y0043660D01*
X0005438Y0043777D01*
X0005482Y0043893D01*
X0005530Y0044008D01*
X0005582Y0044121D01*
X0005638Y0044232D01*
X0005697Y0044342D01*
X0005759Y0044449D01*
X0005825Y0044555D01*
X0005894Y0044658D01*
X0005967Y0044759D01*
X0006043Y0044858D01*
X0006121Y0044954D01*
X0006203Y0045048D01*
X0006288Y0045139D01*
X0006375Y0045228D01*
X0006466Y0045313D01*
X0006559Y0045396D01*
X0006655Y0045475D01*
X0006753Y0045551D01*
X0006853Y0045625D01*
X0006956Y0045695D01*
X0007061Y0045761D01*
X0007168Y0045825D01*
X0007277Y0045885D01*
X0007388Y0045941D01*
X0007500Y0045994D01*
X0007615Y0046043D01*
X0007730Y0046089D01*
X0007848Y0046130D01*
X0007966Y0046169D01*
X0008086Y0046203D01*
X0008206Y0046233D01*
X0008328Y0046260D01*
X0008450Y0046282D01*
X0008573Y0046301D01*
X0008696Y0046316D01*
X0008820Y0046327D01*
X0008945Y0046334D01*
X0009069Y0046337D01*
X0009193Y0046336D01*
X0009318Y0046331D01*
X0009442Y0046322D01*
X0009565Y0046309D01*
X0009689Y0046292D01*
X0009811Y0046272D01*
X0009933Y0046247D01*
X0010054Y0046218D01*
X0010174Y0046186D01*
X0010293Y0046150D01*
X0010411Y0046110D01*
X0010528Y0046066D01*
X0010643Y0046019D01*
X0010756Y0045968D01*
X0010868Y0045913D01*
X0010978Y0045855D01*
X0011086Y0045794D01*
X0011192Y0045729D01*
X0011296Y0045660D01*
X0011397Y0045589D01*
X0011497Y0045514D01*
X0011594Y0045436D01*
X0011688Y0045355D01*
X0011780Y0045271D01*
X0011869Y0045184D01*
X0011955Y0045094D01*
X0012038Y0045002D01*
X0012118Y0044907D01*
X0012196Y0044809D01*
X0012270Y0044709D01*
X0012341Y0044607D01*
X0012408Y0044503D01*
X0012472Y0044396D01*
X0012533Y0044287D01*
X0012590Y0044177D01*
X0012644Y0044065D01*
X0012694Y0043951D01*
X0012741Y0043836D01*
X0012783Y0043719D01*
X0012822Y0043601D01*
X0012858Y0043481D01*
X0012889Y0043361D01*
X0012916Y0043240D01*
X0012940Y0043118D01*
X0012960Y0042995D01*
X0012976Y0042871D01*
X0012988Y0042748D01*
X0012996Y0042624D01*
X0013000Y0042499D01*
X0013000Y0042375D01*
X0012996Y0042250D01*
X0012988Y0042126D01*
X0012976Y0042003D01*
X0012960Y0041879D01*
X0012940Y0041756D01*
X0012916Y0041634D01*
X0012889Y0041513D01*
X0012858Y0041393D01*
X0012822Y0041273D01*
X0012783Y0041155D01*
X0012741Y0041038D01*
X0012694Y0040923D01*
X0012644Y0040809D01*
X0012590Y0040697D01*
X0012533Y0040587D01*
X0012472Y0040478D01*
X0012408Y0040371D01*
X0012341Y0040267D01*
X0012270Y0040165D01*
X0012196Y0040065D01*
X0012118Y0039967D01*
X0012038Y0039872D01*
X0011955Y0039780D01*
X0011869Y0039690D01*
X0011780Y0039603D01*
X0011688Y0039519D01*
X0011594Y0039438D01*
X0011497Y0039360D01*
X0011397Y0039285D01*
X0011296Y0039214D01*
X0011192Y0039145D01*
X0011086Y0039080D01*
X0010978Y0039019D01*
X0010868Y0038961D01*
X0010756Y0038906D01*
X0010643Y0038855D01*
X0010528Y0038808D01*
X0010411Y0038764D01*
X0010293Y0038724D01*
X0010174Y0038688D01*
X0010054Y0038656D01*
X0009933Y0038627D01*
X0009811Y0038602D01*
X0009689Y0038582D01*
X0009565Y0038565D01*
X0009442Y0038552D01*
X0009318Y0038543D01*
X0009193Y0038538D01*
X0009069Y0038537D01*
X0008945Y0038540D01*
X0008820Y0038547D01*
X0008696Y0038558D01*
X0008573Y0038573D01*
X0008450Y0038592D01*
X0008328Y0038614D01*
X0008206Y0038641D01*
X0008086Y0038671D01*
X0007966Y0038705D01*
X0007848Y0038744D01*
X0007730Y0038785D01*
X0007615Y0038831D01*
X0007500Y0038880D01*
X0007388Y0038933D01*
X0007277Y0038989D01*
X0007168Y0039049D01*
X0007061Y0039113D01*
X0006956Y0039179D01*
X0006853Y0039249D01*
X0006753Y0039323D01*
X0006655Y0039399D01*
X0006559Y0039478D01*
X0006466Y0039561D01*
X0006375Y0039646D01*
X0006288Y0039735D01*
X0006203Y0039826D01*
X0006121Y0039920D01*
X0006043Y0040016D01*
X0005967Y0040115D01*
X0005894Y0040216D01*
X0005825Y0040319D01*
X0005759Y0040425D01*
X0005697Y0040532D01*
X0005638Y0040642D01*
X0005582Y0040753D01*
X0005530Y0040866D01*
X0005482Y0040981D01*
X0005438Y0041097D01*
X0005397Y0041214D01*
X0005360Y0041333D01*
X0005326Y0041453D01*
X0005297Y0041573D01*
X0005271Y0041695D01*
X0005249Y0041818D01*
X0005232Y0041941D01*
X0005218Y0042064D01*
X0005208Y0042188D01*
X0005202Y0042313D01*
X0005200Y0042437D01*
X0005100Y0038437D02*
X0013100Y0046437D01*
X0005200Y0052437D02*
X0005202Y0052561D01*
X0005208Y0052686D01*
X0005218Y0052810D01*
X0005232Y0052933D01*
X0005249Y0053056D01*
X0005271Y0053179D01*
X0005297Y0053301D01*
X0005326Y0053421D01*
X0005360Y0053541D01*
X0005397Y0053660D01*
X0005438Y0053777D01*
X0005482Y0053893D01*
X0005530Y0054008D01*
X0005582Y0054121D01*
X0005638Y0054232D01*
X0005697Y0054342D01*
X0005759Y0054449D01*
X0005825Y0054555D01*
X0005894Y0054658D01*
X0005967Y0054759D01*
X0006043Y0054858D01*
X0006121Y0054954D01*
X0006203Y0055048D01*
X0006288Y0055139D01*
X0006375Y0055228D01*
X0006466Y0055313D01*
X0006559Y0055396D01*
X0006655Y0055475D01*
X0006753Y0055551D01*
X0006853Y0055625D01*
X0006956Y0055695D01*
X0007061Y0055761D01*
X0007168Y0055825D01*
X0007277Y0055885D01*
X0007388Y0055941D01*
X0007500Y0055994D01*
X0007615Y0056043D01*
X0007730Y0056089D01*
X0007848Y0056130D01*
X0007966Y0056169D01*
X0008086Y0056203D01*
X0008206Y0056233D01*
X0008328Y0056260D01*
X0008450Y0056282D01*
X0008573Y0056301D01*
X0008696Y0056316D01*
X0008820Y0056327D01*
X0008945Y0056334D01*
X0009069Y0056337D01*
X0009193Y0056336D01*
X0009318Y0056331D01*
X0009442Y0056322D01*
X0009565Y0056309D01*
X0009689Y0056292D01*
X0009811Y0056272D01*
X0009933Y0056247D01*
X0010054Y0056218D01*
X0010174Y0056186D01*
X0010293Y0056150D01*
X0010411Y0056110D01*
X0010528Y0056066D01*
X0010643Y0056019D01*
X0010756Y0055968D01*
X0010868Y0055913D01*
X0010978Y0055855D01*
X0011086Y0055794D01*
X0011192Y0055729D01*
X0011296Y0055660D01*
X0011397Y0055589D01*
X0011497Y0055514D01*
X0011594Y0055436D01*
X0011688Y0055355D01*
X0011780Y0055271D01*
X0011869Y0055184D01*
X0011955Y0055094D01*
X0012038Y0055002D01*
X0012118Y0054907D01*
X0012196Y0054809D01*
X0012270Y0054709D01*
X0012341Y0054607D01*
X0012408Y0054503D01*
X0012472Y0054396D01*
X0012533Y0054287D01*
X0012590Y0054177D01*
X0012644Y0054065D01*
X0012694Y0053951D01*
X0012741Y0053836D01*
X0012783Y0053719D01*
X0012822Y0053601D01*
X0012858Y0053481D01*
X0012889Y0053361D01*
X0012916Y0053240D01*
X0012940Y0053118D01*
X0012960Y0052995D01*
X0012976Y0052871D01*
X0012988Y0052748D01*
X0012996Y0052624D01*
X0013000Y0052499D01*
X0013000Y0052375D01*
X0012996Y0052250D01*
X0012988Y0052126D01*
X0012976Y0052003D01*
X0012960Y0051879D01*
X0012940Y0051756D01*
X0012916Y0051634D01*
X0012889Y0051513D01*
X0012858Y0051393D01*
X0012822Y0051273D01*
X0012783Y0051155D01*
X0012741Y0051038D01*
X0012694Y0050923D01*
X0012644Y0050809D01*
X0012590Y0050697D01*
X0012533Y0050587D01*
X0012472Y0050478D01*
X0012408Y0050371D01*
X0012341Y0050267D01*
X0012270Y0050165D01*
X0012196Y0050065D01*
X0012118Y0049967D01*
X0012038Y0049872D01*
X0011955Y0049780D01*
X0011869Y0049690D01*
X0011780Y0049603D01*
X0011688Y0049519D01*
X0011594Y0049438D01*
X0011497Y0049360D01*
X0011397Y0049285D01*
X0011296Y0049214D01*
X0011192Y0049145D01*
X0011086Y0049080D01*
X0010978Y0049019D01*
X0010868Y0048961D01*
X0010756Y0048906D01*
X0010643Y0048855D01*
X0010528Y0048808D01*
X0010411Y0048764D01*
X0010293Y0048724D01*
X0010174Y0048688D01*
X0010054Y0048656D01*
X0009933Y0048627D01*
X0009811Y0048602D01*
X0009689Y0048582D01*
X0009565Y0048565D01*
X0009442Y0048552D01*
X0009318Y0048543D01*
X0009193Y0048538D01*
X0009069Y0048537D01*
X0008945Y0048540D01*
X0008820Y0048547D01*
X0008696Y0048558D01*
X0008573Y0048573D01*
X0008450Y0048592D01*
X0008328Y0048614D01*
X0008206Y0048641D01*
X0008086Y0048671D01*
X0007966Y0048705D01*
X0007848Y0048744D01*
X0007730Y0048785D01*
X0007615Y0048831D01*
X0007500Y0048880D01*
X0007388Y0048933D01*
X0007277Y0048989D01*
X0007168Y0049049D01*
X0007061Y0049113D01*
X0006956Y0049179D01*
X0006853Y0049249D01*
X0006753Y0049323D01*
X0006655Y0049399D01*
X0006559Y0049478D01*
X0006466Y0049561D01*
X0006375Y0049646D01*
X0006288Y0049735D01*
X0006203Y0049826D01*
X0006121Y0049920D01*
X0006043Y0050016D01*
X0005967Y0050115D01*
X0005894Y0050216D01*
X0005825Y0050319D01*
X0005759Y0050425D01*
X0005697Y0050532D01*
X0005638Y0050642D01*
X0005582Y0050753D01*
X0005530Y0050866D01*
X0005482Y0050981D01*
X0005438Y0051097D01*
X0005397Y0051214D01*
X0005360Y0051333D01*
X0005326Y0051453D01*
X0005297Y0051573D01*
X0005271Y0051695D01*
X0005249Y0051818D01*
X0005232Y0051941D01*
X0005218Y0052064D01*
X0005208Y0052188D01*
X0005202Y0052313D01*
X0005200Y0052437D01*
X0005100Y0048437D02*
X0013100Y0056437D01*
X0005200Y0062437D02*
X0005202Y0062561D01*
X0005208Y0062686D01*
X0005218Y0062810D01*
X0005232Y0062933D01*
X0005249Y0063056D01*
X0005271Y0063179D01*
X0005297Y0063301D01*
X0005326Y0063421D01*
X0005360Y0063541D01*
X0005397Y0063660D01*
X0005438Y0063777D01*
X0005482Y0063893D01*
X0005530Y0064008D01*
X0005582Y0064121D01*
X0005638Y0064232D01*
X0005697Y0064342D01*
X0005759Y0064449D01*
X0005825Y0064555D01*
X0005894Y0064658D01*
X0005967Y0064759D01*
X0006043Y0064858D01*
X0006121Y0064954D01*
X0006203Y0065048D01*
X0006288Y0065139D01*
X0006375Y0065228D01*
X0006466Y0065313D01*
X0006559Y0065396D01*
X0006655Y0065475D01*
X0006753Y0065551D01*
X0006853Y0065625D01*
X0006956Y0065695D01*
X0007061Y0065761D01*
X0007168Y0065825D01*
X0007277Y0065885D01*
X0007388Y0065941D01*
X0007500Y0065994D01*
X0007615Y0066043D01*
X0007730Y0066089D01*
X0007848Y0066130D01*
X0007966Y0066169D01*
X0008086Y0066203D01*
X0008206Y0066233D01*
X0008328Y0066260D01*
X0008450Y0066282D01*
X0008573Y0066301D01*
X0008696Y0066316D01*
X0008820Y0066327D01*
X0008945Y0066334D01*
X0009069Y0066337D01*
X0009193Y0066336D01*
X0009318Y0066331D01*
X0009442Y0066322D01*
X0009565Y0066309D01*
X0009689Y0066292D01*
X0009811Y0066272D01*
X0009933Y0066247D01*
X0010054Y0066218D01*
X0010174Y0066186D01*
X0010293Y0066150D01*
X0010411Y0066110D01*
X0010528Y0066066D01*
X0010643Y0066019D01*
X0010756Y0065968D01*
X0010868Y0065913D01*
X0010978Y0065855D01*
X0011086Y0065794D01*
X0011192Y0065729D01*
X0011296Y0065660D01*
X0011397Y0065589D01*
X0011497Y0065514D01*
X0011594Y0065436D01*
X0011688Y0065355D01*
X0011780Y0065271D01*
X0011869Y0065184D01*
X0011955Y0065094D01*
X0012038Y0065002D01*
X0012118Y0064907D01*
X0012196Y0064809D01*
X0012270Y0064709D01*
X0012341Y0064607D01*
X0012408Y0064503D01*
X0012472Y0064396D01*
X0012533Y0064287D01*
X0012590Y0064177D01*
X0012644Y0064065D01*
X0012694Y0063951D01*
X0012741Y0063836D01*
X0012783Y0063719D01*
X0012822Y0063601D01*
X0012858Y0063481D01*
X0012889Y0063361D01*
X0012916Y0063240D01*
X0012940Y0063118D01*
X0012960Y0062995D01*
X0012976Y0062871D01*
X0012988Y0062748D01*
X0012996Y0062624D01*
X0013000Y0062499D01*
X0013000Y0062375D01*
X0012996Y0062250D01*
X0012988Y0062126D01*
X0012976Y0062003D01*
X0012960Y0061879D01*
X0012940Y0061756D01*
X0012916Y0061634D01*
X0012889Y0061513D01*
X0012858Y0061393D01*
X0012822Y0061273D01*
X0012783Y0061155D01*
X0012741Y0061038D01*
X0012694Y0060923D01*
X0012644Y0060809D01*
X0012590Y0060697D01*
X0012533Y0060587D01*
X0012472Y0060478D01*
X0012408Y0060371D01*
X0012341Y0060267D01*
X0012270Y0060165D01*
X0012196Y0060065D01*
X0012118Y0059967D01*
X0012038Y0059872D01*
X0011955Y0059780D01*
X0011869Y0059690D01*
X0011780Y0059603D01*
X0011688Y0059519D01*
X0011594Y0059438D01*
X0011497Y0059360D01*
X0011397Y0059285D01*
X0011296Y0059214D01*
X0011192Y0059145D01*
X0011086Y0059080D01*
X0010978Y0059019D01*
X0010868Y0058961D01*
X0010756Y0058906D01*
X0010643Y0058855D01*
X0010528Y0058808D01*
X0010411Y0058764D01*
X0010293Y0058724D01*
X0010174Y0058688D01*
X0010054Y0058656D01*
X0009933Y0058627D01*
X0009811Y0058602D01*
X0009689Y0058582D01*
X0009565Y0058565D01*
X0009442Y0058552D01*
X0009318Y0058543D01*
X0009193Y0058538D01*
X0009069Y0058537D01*
X0008945Y0058540D01*
X0008820Y0058547D01*
X0008696Y0058558D01*
X0008573Y0058573D01*
X0008450Y0058592D01*
X0008328Y0058614D01*
X0008206Y0058641D01*
X0008086Y0058671D01*
X0007966Y0058705D01*
X0007848Y0058744D01*
X0007730Y0058785D01*
X0007615Y0058831D01*
X0007500Y0058880D01*
X0007388Y0058933D01*
X0007277Y0058989D01*
X0007168Y0059049D01*
X0007061Y0059113D01*
X0006956Y0059179D01*
X0006853Y0059249D01*
X0006753Y0059323D01*
X0006655Y0059399D01*
X0006559Y0059478D01*
X0006466Y0059561D01*
X0006375Y0059646D01*
X0006288Y0059735D01*
X0006203Y0059826D01*
X0006121Y0059920D01*
X0006043Y0060016D01*
X0005967Y0060115D01*
X0005894Y0060216D01*
X0005825Y0060319D01*
X0005759Y0060425D01*
X0005697Y0060532D01*
X0005638Y0060642D01*
X0005582Y0060753D01*
X0005530Y0060866D01*
X0005482Y0060981D01*
X0005438Y0061097D01*
X0005397Y0061214D01*
X0005360Y0061333D01*
X0005326Y0061453D01*
X0005297Y0061573D01*
X0005271Y0061695D01*
X0005249Y0061818D01*
X0005232Y0061941D01*
X0005218Y0062064D01*
X0005208Y0062188D01*
X0005202Y0062313D01*
X0005200Y0062437D01*
X0005100Y0058437D02*
X0013100Y0066437D01*
X0005200Y0072437D02*
X0005202Y0072561D01*
X0005208Y0072686D01*
X0005218Y0072810D01*
X0005232Y0072933D01*
X0005249Y0073056D01*
X0005271Y0073179D01*
X0005297Y0073301D01*
X0005326Y0073421D01*
X0005360Y0073541D01*
X0005397Y0073660D01*
X0005438Y0073777D01*
X0005482Y0073893D01*
X0005530Y0074008D01*
X0005582Y0074121D01*
X0005638Y0074232D01*
X0005697Y0074342D01*
X0005759Y0074449D01*
X0005825Y0074555D01*
X0005894Y0074658D01*
X0005967Y0074759D01*
X0006043Y0074858D01*
X0006121Y0074954D01*
X0006203Y0075048D01*
X0006288Y0075139D01*
X0006375Y0075228D01*
X0006466Y0075313D01*
X0006559Y0075396D01*
X0006655Y0075475D01*
X0006753Y0075551D01*
X0006853Y0075625D01*
X0006956Y0075695D01*
X0007061Y0075761D01*
X0007168Y0075825D01*
X0007277Y0075885D01*
X0007388Y0075941D01*
X0007500Y0075994D01*
X0007615Y0076043D01*
X0007730Y0076089D01*
X0007848Y0076130D01*
X0007966Y0076169D01*
X0008086Y0076203D01*
X0008206Y0076233D01*
X0008328Y0076260D01*
X0008450Y0076282D01*
X0008573Y0076301D01*
X0008696Y0076316D01*
X0008820Y0076327D01*
X0008945Y0076334D01*
X0009069Y0076337D01*
X0009193Y0076336D01*
X0009318Y0076331D01*
X0009442Y0076322D01*
X0009565Y0076309D01*
X0009689Y0076292D01*
X0009811Y0076272D01*
X0009933Y0076247D01*
X0010054Y0076218D01*
X0010174Y0076186D01*
X0010293Y0076150D01*
X0010411Y0076110D01*
X0010528Y0076066D01*
X0010643Y0076019D01*
X0010756Y0075968D01*
X0010868Y0075913D01*
X0010978Y0075855D01*
X0011086Y0075794D01*
X0011192Y0075729D01*
X0011296Y0075660D01*
X0011397Y0075589D01*
X0011497Y0075514D01*
X0011594Y0075436D01*
X0011688Y0075355D01*
X0011780Y0075271D01*
X0011869Y0075184D01*
X0011955Y0075094D01*
X0012038Y0075002D01*
X0012118Y0074907D01*
X0012196Y0074809D01*
X0012270Y0074709D01*
X0012341Y0074607D01*
X0012408Y0074503D01*
X0012472Y0074396D01*
X0012533Y0074287D01*
X0012590Y0074177D01*
X0012644Y0074065D01*
X0012694Y0073951D01*
X0012741Y0073836D01*
X0012783Y0073719D01*
X0012822Y0073601D01*
X0012858Y0073481D01*
X0012889Y0073361D01*
X0012916Y0073240D01*
X0012940Y0073118D01*
X0012960Y0072995D01*
X0012976Y0072871D01*
X0012988Y0072748D01*
X0012996Y0072624D01*
X0013000Y0072499D01*
X0013000Y0072375D01*
X0012996Y0072250D01*
X0012988Y0072126D01*
X0012976Y0072003D01*
X0012960Y0071879D01*
X0012940Y0071756D01*
X0012916Y0071634D01*
X0012889Y0071513D01*
X0012858Y0071393D01*
X0012822Y0071273D01*
X0012783Y0071155D01*
X0012741Y0071038D01*
X0012694Y0070923D01*
X0012644Y0070809D01*
X0012590Y0070697D01*
X0012533Y0070587D01*
X0012472Y0070478D01*
X0012408Y0070371D01*
X0012341Y0070267D01*
X0012270Y0070165D01*
X0012196Y0070065D01*
X0012118Y0069967D01*
X0012038Y0069872D01*
X0011955Y0069780D01*
X0011869Y0069690D01*
X0011780Y0069603D01*
X0011688Y0069519D01*
X0011594Y0069438D01*
X0011497Y0069360D01*
X0011397Y0069285D01*
X0011296Y0069214D01*
X0011192Y0069145D01*
X0011086Y0069080D01*
X0010978Y0069019D01*
X0010868Y0068961D01*
X0010756Y0068906D01*
X0010643Y0068855D01*
X0010528Y0068808D01*
X0010411Y0068764D01*
X0010293Y0068724D01*
X0010174Y0068688D01*
X0010054Y0068656D01*
X0009933Y0068627D01*
X0009811Y0068602D01*
X0009689Y0068582D01*
X0009565Y0068565D01*
X0009442Y0068552D01*
X0009318Y0068543D01*
X0009193Y0068538D01*
X0009069Y0068537D01*
X0008945Y0068540D01*
X0008820Y0068547D01*
X0008696Y0068558D01*
X0008573Y0068573D01*
X0008450Y0068592D01*
X0008328Y0068614D01*
X0008206Y0068641D01*
X0008086Y0068671D01*
X0007966Y0068705D01*
X0007848Y0068744D01*
X0007730Y0068785D01*
X0007615Y0068831D01*
X0007500Y0068880D01*
X0007388Y0068933D01*
X0007277Y0068989D01*
X0007168Y0069049D01*
X0007061Y0069113D01*
X0006956Y0069179D01*
X0006853Y0069249D01*
X0006753Y0069323D01*
X0006655Y0069399D01*
X0006559Y0069478D01*
X0006466Y0069561D01*
X0006375Y0069646D01*
X0006288Y0069735D01*
X0006203Y0069826D01*
X0006121Y0069920D01*
X0006043Y0070016D01*
X0005967Y0070115D01*
X0005894Y0070216D01*
X0005825Y0070319D01*
X0005759Y0070425D01*
X0005697Y0070532D01*
X0005638Y0070642D01*
X0005582Y0070753D01*
X0005530Y0070866D01*
X0005482Y0070981D01*
X0005438Y0071097D01*
X0005397Y0071214D01*
X0005360Y0071333D01*
X0005326Y0071453D01*
X0005297Y0071573D01*
X0005271Y0071695D01*
X0005249Y0071818D01*
X0005232Y0071941D01*
X0005218Y0072064D01*
X0005208Y0072188D01*
X0005202Y0072313D01*
X0005200Y0072437D01*
X0005100Y0068437D02*
X0013100Y0076437D01*
X0128801Y0079823D02*
X0136801Y0071823D01*
X0128801Y0071823D02*
X0136801Y0079823D01*
X0067313Y0007453D02*
X0059313Y0015453D01*
X0059313Y0007453D02*
X0067313Y0015453D01*
X0109439Y0075169D02*
X0101439Y0083169D01*
X0101439Y0075169D02*
X0109439Y0083169D01*
X0053139Y0072807D02*
X0045139Y0080807D01*
X0045139Y0072807D02*
X0053139Y0080807D01*
X0045139Y0054232D02*
X0053139Y0046232D01*
X0045139Y0046232D02*
X0053139Y0054232D01*
D12*
X0010360Y0011059D03*
X0010360Y0011059D03*
X0150320Y0011059D03*
X0150320Y0011059D03*
X0151502Y0131531D03*
X0151502Y0131531D03*
D13*
X0145832Y0049504D02*
X0145832Y0054504D01*
X0148332Y0057004D01*
X0153332Y0057004D01*
X0155832Y0054504D01*
X0148332Y0037004D02*
X0145832Y0039504D01*
X0145832Y0044504D01*
X0148332Y0047004D01*
X0153332Y0047004D01*
X0155832Y0044504D01*
X0155832Y0039504D01*
X0153332Y0037004D01*
X0148332Y0047004D02*
X0145832Y0049504D01*
X0153332Y0047004D02*
X0155832Y0049504D01*
X0155832Y0054504D01*
X0145832Y0019504D02*
X0145832Y0024504D01*
X0148332Y0027004D01*
X0153332Y0027004D01*
X0155832Y0024504D01*
X0148332Y0027004D02*
X0145832Y0029504D01*
X0145832Y0034504D01*
X0148332Y0037004D01*
X0153332Y0037004D01*
X0155832Y0034504D01*
X0155832Y0029504D01*
X0153332Y0027004D01*
X0153332Y0017004D02*
X0148332Y0017004D01*
X0145832Y0019504D01*
X0153332Y0017004D02*
X0155832Y0019504D01*
X0155832Y0024504D01*
X0145832Y0059504D02*
X0145832Y0064504D01*
X0148332Y0067004D01*
X0153332Y0067004D01*
X0155832Y0064504D01*
X0148332Y0057004D02*
X0145832Y0059504D01*
X0153332Y0057004D02*
X0155832Y0059504D01*
X0155832Y0064504D01*
X0093765Y0018657D02*
X0098765Y0018657D01*
X0101265Y0016157D01*
X0101265Y0011157D01*
X0098765Y0008657D01*
X0091265Y0011157D02*
X0091265Y0016157D01*
X0093765Y0018657D01*
X0091265Y0011157D02*
X0093765Y0008657D01*
X0098765Y0008657D01*
X0101265Y0016157D02*
X0103765Y0018657D01*
X0108765Y0018657D01*
X0111265Y0016157D01*
X0111265Y0011157D01*
X0108765Y0008657D01*
X0103765Y0008657D01*
X0101265Y0011157D01*
X0081147Y0111433D02*
X0083647Y0113933D01*
X0088647Y0113933D01*
X0091147Y0111433D01*
X0091147Y0106433D01*
X0088647Y0103933D01*
X0083647Y0103933D01*
X0081147Y0106433D01*
X0063647Y0113933D02*
X0068647Y0113933D01*
X0071147Y0111433D01*
X0071147Y0106433D01*
X0068647Y0103933D01*
X0071147Y0111433D02*
X0073647Y0113933D01*
X0078647Y0113933D01*
X0081147Y0111433D01*
X0081147Y0106433D01*
X0078647Y0103933D01*
X0073647Y0103933D01*
X0071147Y0106433D01*
X0061147Y0106433D02*
X0061147Y0111433D01*
X0063647Y0113933D01*
X0061147Y0106433D02*
X0063647Y0103933D01*
X0068647Y0103933D01*
X0093647Y0113933D02*
X0098647Y0113933D01*
X0101147Y0111433D01*
X0101147Y0106433D01*
X0098647Y0103933D01*
X0091147Y0111433D02*
X0093647Y0113933D01*
X0091147Y0106433D02*
X0093647Y0103933D01*
X0098647Y0103933D01*
X0019061Y0107575D02*
X0019061Y0102575D01*
X0016561Y0100075D01*
X0011561Y0100075D01*
X0009061Y0102575D01*
X0011561Y0110075D02*
X0016561Y0110075D01*
X0019061Y0107575D01*
X0011561Y0110075D02*
X0009061Y0107575D01*
X0009061Y0102575D01*
X0016561Y0100075D02*
X0019061Y0097575D01*
X0019061Y0092575D01*
X0016561Y0090075D01*
X0011561Y0090075D01*
X0009061Y0092575D01*
X0009061Y0097575D01*
X0011561Y0100075D01*
X0058923Y0006500D02*
X0058923Y0040500D01*
X0058423Y0041000D01*
X0044423Y0041000D01*
X0043923Y0040500D01*
X0043923Y0006500D01*
X0044423Y0006000D01*
X0058423Y0006000D01*
X0058923Y0006500D01*
X0051423Y0027200D02*
X0051423Y0029500D01*
X0051423Y0019800D02*
X0051423Y0017500D01*
X0077387Y0085272D02*
X0077387Y0088500D01*
X0082387Y0088500D02*
X0082387Y0085272D01*
X0122407Y0045409D02*
X0125635Y0045409D01*
X0125635Y0050409D02*
X0122407Y0050409D01*
X0122801Y0031236D02*
X0126029Y0031236D01*
X0126029Y0036236D02*
X0122801Y0036236D01*
X0123470Y0014504D02*
X0126698Y0014504D01*
X0126698Y0019504D02*
X0123470Y0019504D01*
X0122486Y0059386D02*
X0125714Y0059386D01*
X0125714Y0064386D02*
X0122486Y0064386D01*
X0079218Y0015961D02*
X0075990Y0015961D01*
X0075990Y0010961D02*
X0079218Y0010961D01*
X0127486Y0093835D02*
X0130714Y0093835D01*
X0130714Y0088835D02*
X0127486Y0088835D01*
X0113470Y0093638D02*
X0110242Y0093638D01*
X0110242Y0088638D02*
X0113470Y0088638D01*
X0146541Y0109346D02*
X0146541Y0114346D01*
X0149041Y0116846D01*
X0154041Y0116846D01*
X0156541Y0114346D01*
X0149041Y0096846D02*
X0146541Y0099346D01*
X0146541Y0104346D01*
X0149041Y0106846D01*
X0154041Y0106846D01*
X0156541Y0104346D01*
X0156541Y0099346D01*
X0154041Y0096846D01*
X0149041Y0106846D02*
X0146541Y0109346D01*
X0154041Y0106846D02*
X0156541Y0109346D01*
X0156541Y0114346D01*
X0146541Y0079346D02*
X0146541Y0084346D01*
X0149041Y0086846D01*
X0154041Y0086846D01*
X0156541Y0084346D01*
X0149041Y0086846D02*
X0146541Y0089346D01*
X0146541Y0094346D01*
X0149041Y0096846D01*
X0154041Y0096846D01*
X0156541Y0094346D01*
X0156541Y0089346D01*
X0154041Y0086846D01*
X0154041Y0076846D02*
X0149041Y0076846D01*
X0146541Y0079346D01*
X0154041Y0076846D02*
X0156541Y0079346D01*
X0156541Y0084346D01*
X0146541Y0119346D02*
X0146541Y0124346D01*
X0149041Y0126846D01*
X0154041Y0126846D01*
X0156541Y0124346D01*
X0149041Y0116846D02*
X0146541Y0119346D01*
X0154041Y0116846D02*
X0156541Y0119346D01*
X0156541Y0124346D01*
X0004100Y0059937D02*
X0004100Y0064937D01*
X0006600Y0067437D01*
X0011600Y0067437D01*
X0014100Y0064937D01*
X0006600Y0047437D02*
X0004100Y0049937D01*
X0004100Y0054937D01*
X0006600Y0057437D01*
X0011600Y0057437D01*
X0014100Y0054937D01*
X0014100Y0049937D01*
X0011600Y0047437D01*
X0006600Y0057437D02*
X0004100Y0059937D01*
X0011600Y0057437D02*
X0014100Y0059937D01*
X0014100Y0064937D01*
X0004100Y0029937D02*
X0004100Y0034937D01*
X0006600Y0037437D01*
X0011600Y0037437D01*
X0014100Y0034937D01*
X0006600Y0037437D02*
X0004100Y0039937D01*
X0004100Y0044937D01*
X0006600Y0047437D01*
X0011600Y0047437D01*
X0014100Y0044937D01*
X0014100Y0039937D01*
X0011600Y0037437D01*
X0011600Y0027437D02*
X0006600Y0027437D01*
X0004100Y0029937D01*
X0011600Y0027437D02*
X0014100Y0029937D01*
X0014100Y0034937D01*
X0004100Y0069937D02*
X0004100Y0074937D01*
X0006600Y0077437D01*
X0011600Y0077437D01*
X0014100Y0074937D01*
X0006600Y0067437D02*
X0004100Y0069937D01*
X0011600Y0067437D02*
X0014100Y0069937D01*
X0014100Y0074937D01*
X0095498Y0062339D02*
X0095498Y0034740D01*
X0067899Y0034740D01*
X0067899Y0060941D01*
X0095498Y0062339D02*
X0069297Y0062339D01*
X0067899Y0060941D01*
X0069484Y0059339D02*
X0069486Y0059414D01*
X0069492Y0059488D01*
X0069502Y0059562D01*
X0069515Y0059635D01*
X0069533Y0059708D01*
X0069554Y0059779D01*
X0069579Y0059850D01*
X0069608Y0059919D01*
X0069641Y0059986D01*
X0069677Y0060051D01*
X0069716Y0060115D01*
X0069758Y0060176D01*
X0069804Y0060235D01*
X0069853Y0060292D01*
X0069905Y0060345D01*
X0069959Y0060396D01*
X0070016Y0060445D01*
X0070076Y0060489D01*
X0070138Y0060531D01*
X0070202Y0060570D01*
X0070268Y0060605D01*
X0070335Y0060636D01*
X0070405Y0060664D01*
X0070475Y0060688D01*
X0070547Y0060709D01*
X0070620Y0060725D01*
X0070693Y0060738D01*
X0070768Y0060747D01*
X0070842Y0060752D01*
X0070917Y0060753D01*
X0070991Y0060750D01*
X0071066Y0060743D01*
X0071139Y0060732D01*
X0071213Y0060718D01*
X0071285Y0060699D01*
X0071356Y0060677D01*
X0071426Y0060651D01*
X0071495Y0060621D01*
X0071561Y0060588D01*
X0071626Y0060551D01*
X0071689Y0060511D01*
X0071750Y0060467D01*
X0071808Y0060421D01*
X0071864Y0060371D01*
X0071917Y0060319D01*
X0071968Y0060264D01*
X0072015Y0060206D01*
X0072059Y0060146D01*
X0072100Y0060083D01*
X0072138Y0060019D01*
X0072172Y0059953D01*
X0072203Y0059884D01*
X0072230Y0059815D01*
X0072253Y0059744D01*
X0072272Y0059672D01*
X0072288Y0059599D01*
X0072300Y0059525D01*
X0072308Y0059451D01*
X0072312Y0059376D01*
X0072312Y0059302D01*
X0072308Y0059227D01*
X0072300Y0059153D01*
X0072288Y0059079D01*
X0072272Y0059006D01*
X0072253Y0058934D01*
X0072230Y0058863D01*
X0072203Y0058794D01*
X0072172Y0058725D01*
X0072138Y0058659D01*
X0072100Y0058595D01*
X0072059Y0058532D01*
X0072015Y0058472D01*
X0071968Y0058414D01*
X0071917Y0058359D01*
X0071864Y0058307D01*
X0071808Y0058257D01*
X0071750Y0058211D01*
X0071689Y0058167D01*
X0071626Y0058127D01*
X0071561Y0058090D01*
X0071495Y0058057D01*
X0071426Y0058027D01*
X0071356Y0058001D01*
X0071285Y0057979D01*
X0071213Y0057960D01*
X0071139Y0057946D01*
X0071066Y0057935D01*
X0070991Y0057928D01*
X0070917Y0057925D01*
X0070842Y0057926D01*
X0070768Y0057931D01*
X0070693Y0057940D01*
X0070620Y0057953D01*
X0070547Y0057969D01*
X0070475Y0057990D01*
X0070405Y0058014D01*
X0070335Y0058042D01*
X0070268Y0058073D01*
X0070202Y0058108D01*
X0070138Y0058147D01*
X0070076Y0058189D01*
X0070016Y0058233D01*
X0069959Y0058282D01*
X0069905Y0058333D01*
X0069853Y0058386D01*
X0069804Y0058443D01*
X0069758Y0058502D01*
X0069716Y0058563D01*
X0069677Y0058627D01*
X0069641Y0058692D01*
X0069608Y0058759D01*
X0069579Y0058828D01*
X0069554Y0058899D01*
X0069533Y0058970D01*
X0069515Y0059043D01*
X0069502Y0059116D01*
X0069492Y0059190D01*
X0069486Y0059264D01*
X0069484Y0059339D01*
D14*
X0147832Y0022004D02*
X0153832Y0022004D01*
X0153832Y0032004D02*
X0147832Y0032004D01*
X0147832Y0042004D02*
X0153832Y0042004D01*
X0153832Y0052004D02*
X0147832Y0052004D01*
X0147832Y0062004D02*
X0153832Y0062004D01*
X0096265Y0016657D02*
X0096265Y0010657D01*
X0106265Y0010657D02*
X0106265Y0016657D01*
X0066147Y0105933D02*
X0066147Y0111933D01*
X0076147Y0111933D02*
X0076147Y0105933D01*
X0086147Y0105933D02*
X0086147Y0111933D01*
X0096147Y0111933D02*
X0096147Y0105933D01*
X0017061Y0105075D02*
X0011061Y0105075D01*
X0011061Y0095075D02*
X0017061Y0095075D01*
X0148541Y0081846D02*
X0154541Y0081846D01*
X0154541Y0091846D02*
X0148541Y0091846D01*
X0148541Y0101846D02*
X0154541Y0101846D01*
X0154541Y0111846D02*
X0148541Y0111846D01*
X0148541Y0121846D02*
X0154541Y0121846D01*
X0012100Y0032437D02*
X0006100Y0032437D01*
X0006100Y0042437D02*
X0012100Y0042437D01*
X0012100Y0052437D02*
X0006100Y0052437D01*
X0006100Y0062437D02*
X0012100Y0062437D01*
X0012100Y0072437D02*
X0006100Y0072437D01*
D15*
X0147832Y0022004D02*
X0153832Y0022004D01*
X0147832Y0022004D01*
X0147832Y0032004D02*
X0153832Y0032004D01*
X0147832Y0032004D01*
X0147832Y0042004D02*
X0153832Y0042004D01*
X0147832Y0042004D01*
X0147832Y0052004D02*
X0153832Y0052004D01*
X0147832Y0052004D01*
X0147832Y0062004D02*
X0153832Y0062004D01*
X0147832Y0062004D01*
X0096265Y0016657D02*
X0096265Y0010657D01*
X0096265Y0016657D01*
X0106265Y0016657D02*
X0106265Y0010657D01*
X0106265Y0016657D01*
X0066147Y0111933D02*
X0066147Y0105933D01*
X0066147Y0111933D01*
X0076147Y0111933D02*
X0076147Y0105933D01*
X0076147Y0111933D01*
X0086147Y0111933D02*
X0086147Y0105933D01*
X0086147Y0111933D01*
X0096147Y0111933D02*
X0096147Y0105933D01*
X0096147Y0111933D01*
X0017061Y0105075D02*
X0011061Y0105075D01*
X0017061Y0105075D01*
X0017061Y0095075D02*
X0011061Y0095075D01*
X0017061Y0095075D01*
X0148541Y0081846D02*
X0154541Y0081846D01*
X0148541Y0081846D01*
X0148541Y0091846D02*
X0154541Y0091846D01*
X0148541Y0091846D01*
X0148541Y0101846D02*
X0154541Y0101846D01*
X0148541Y0101846D01*
X0148541Y0111846D02*
X0154541Y0111846D01*
X0148541Y0111846D01*
X0148541Y0121846D02*
X0154541Y0121846D01*
X0148541Y0121846D01*
X0006100Y0032437D02*
X0012100Y0032437D01*
X0006100Y0032437D01*
X0006100Y0042437D02*
X0012100Y0042437D01*
X0006100Y0042437D01*
X0006100Y0052437D02*
X0012100Y0052437D01*
X0006100Y0052437D01*
X0006100Y0062437D02*
X0012100Y0062437D01*
X0006100Y0062437D01*
X0006100Y0072437D02*
X0012100Y0072437D01*
X0006100Y0072437D01*
D16*
X0150832Y0052004D03*
X0150832Y0042004D03*
X0150832Y0032004D03*
X0150832Y0022004D03*
X0150832Y0062004D03*
X0096265Y0013657D03*
X0106265Y0013657D03*
X0086147Y0108933D03*
X0076147Y0108933D03*
X0066147Y0108933D03*
X0096147Y0108933D03*
X0014061Y0105075D03*
X0014061Y0095075D03*
X0151541Y0111846D03*
X0151541Y0101846D03*
X0151541Y0091846D03*
X0151541Y0081846D03*
X0151541Y0121846D03*
X0009100Y0062437D03*
X0009100Y0052437D03*
X0009100Y0042437D03*
X0009100Y0032437D03*
X0009100Y0072437D03*
D17*
X0021017Y0009000D02*
X0040490Y0009000D01*
X0021017Y0016740D02*
X0040490Y0016740D01*
X0040490Y0009000D01*
X0021017Y0009000D02*
X0021017Y0016740D01*
X0021608Y0021008D02*
X0041080Y0021008D01*
X0021608Y0028748D02*
X0041080Y0028748D01*
X0041080Y0021008D01*
X0021608Y0021008D02*
X0021608Y0028748D01*
X0037734Y0093488D02*
X0037734Y0109024D01*
X0029994Y0093488D02*
X0029994Y0109024D01*
X0037734Y0109024D01*
X0037734Y0093488D02*
X0029994Y0093488D01*
X0121372Y0086425D02*
X0136907Y0086425D01*
X0136907Y0078685D02*
X0121372Y0078685D01*
X0121372Y0086425D01*
X0136907Y0086425D02*
X0136907Y0078685D01*
X0076017Y0079118D02*
X0076017Y0094654D01*
X0083757Y0094654D01*
X0083757Y0079118D01*
X0076017Y0079118D01*
X0131789Y0044039D02*
X0116254Y0044039D01*
X0116254Y0051780D01*
X0131789Y0051780D01*
X0131789Y0044039D01*
X0132183Y0029866D02*
X0116647Y0029866D01*
X0116647Y0037606D01*
X0132183Y0037606D01*
X0132183Y0029866D01*
X0132852Y0013134D02*
X0117317Y0013134D01*
X0117317Y0020874D01*
X0132852Y0020874D01*
X0132852Y0013134D01*
X0131868Y0058016D02*
X0116332Y0058016D01*
X0116332Y0065756D01*
X0131868Y0065756D01*
X0131868Y0058016D01*
X0069836Y0017331D02*
X0085372Y0017331D01*
X0085372Y0009591D01*
X0069836Y0009591D01*
X0069836Y0017331D01*
X0121332Y0095205D02*
X0136868Y0095205D01*
X0136868Y0087465D01*
X0121332Y0087465D01*
X0121332Y0095205D01*
X0104088Y0095008D02*
X0119624Y0095008D01*
X0119624Y0087268D01*
X0104088Y0087268D01*
X0104088Y0095008D01*
D18*
X0034553Y0009772D02*
X0026954Y0009772D01*
X0026954Y0015969D02*
X0034553Y0015969D01*
X0035143Y0021780D02*
X0027545Y0021780D01*
X0027545Y0027976D02*
X0035143Y0027976D01*
X0036462Y0099756D02*
X0036462Y0102756D01*
X0031265Y0102657D02*
X0031265Y0099756D01*
X0127639Y0085154D02*
X0130639Y0085154D01*
X0130639Y0079957D02*
X0127738Y0079957D01*
X0068861Y0073976D02*
X0064257Y0073976D01*
X0064257Y0076278D01*
X0065024Y0077045D01*
X0066559Y0077045D01*
X0067326Y0076278D01*
X0067326Y0073976D01*
X0067326Y0075510D02*
X0068861Y0077045D01*
X0068861Y0081649D02*
X0064257Y0078580D01*
X0064257Y0081649D02*
X0068861Y0078580D01*
X0061892Y0075313D02*
X0057288Y0075313D01*
X0057288Y0073779D02*
X0057288Y0076848D01*
X0057288Y0078383D02*
X0061892Y0081452D01*
X0061892Y0078383D02*
X0057288Y0081452D01*
D19*
X0036265Y0012870D03*
X0036265Y0012870D03*
X0025242Y0012870D03*
X0025242Y0012870D03*
X0036856Y0024878D03*
X0036856Y0024878D03*
X0025832Y0024878D03*
X0025832Y0024878D03*
D20*
X0036265Y0012870D03*
X0025242Y0012870D03*
X0036856Y0024878D03*
X0025832Y0024878D03*
D21*
X0035977Y0012874D03*
X0025530Y0012867D03*
X0036568Y0024881D03*
X0026121Y0024874D03*
D22*
X0030754Y0012870D03*
X0031344Y0024878D03*
D23*
X0033864Y0104602D03*
X0033864Y0104602D03*
X0033864Y0097909D03*
X0033864Y0097909D03*
D24*
X0033864Y0104602D03*
X0033864Y0097909D03*
D25*
X0033868Y0104079D03*
X0033868Y0098379D03*
D26*
X0033864Y0101256D03*
D27*
X0125793Y0082555D03*
X0125793Y0082555D03*
X0132486Y0082555D03*
X0132486Y0082555D03*
D28*
X0125793Y0082555D03*
X0132486Y0082555D03*
D29*
X0126316Y0082560D03*
X0132016Y0082560D03*
D30*
X0129139Y0082555D03*
D31*
X0026011Y0096813D02*
X0021507Y0096813D01*
X0021507Y0099065D01*
X0022257Y0099816D01*
X0023759Y0099816D01*
X0024509Y0099065D01*
X0024509Y0096813D01*
X0021507Y0101417D02*
X0026011Y0101417D01*
X0024509Y0102918D01*
X0026011Y0104419D01*
X0021507Y0104419D01*
X0026011Y0106021D02*
X0021507Y0106021D01*
X0021507Y0108273D01*
X0022257Y0109023D01*
X0023759Y0109023D01*
X0024509Y0108273D01*
X0024509Y0106021D01*
X0024509Y0107522D02*
X0026011Y0109023D01*
D32*
X0043923Y0043500D02*
X0058923Y0043500D01*
X0058923Y0003500D02*
X0043923Y0003500D01*
X0041423Y0006000D02*
X0041423Y0041000D01*
X0061423Y0006000D02*
X0061423Y0041000D01*
X0061421Y0041098D01*
X0061415Y0041196D01*
X0061406Y0041294D01*
X0061392Y0041391D01*
X0061375Y0041488D01*
X0061354Y0041584D01*
X0061329Y0041679D01*
X0061301Y0041773D01*
X0061268Y0041865D01*
X0061233Y0041957D01*
X0061193Y0042047D01*
X0061151Y0042135D01*
X0061104Y0042222D01*
X0061055Y0042306D01*
X0061002Y0042389D01*
X0060946Y0042469D01*
X0060886Y0042548D01*
X0060824Y0042624D01*
X0060759Y0042697D01*
X0060691Y0042768D01*
X0060620Y0042836D01*
X0060547Y0042901D01*
X0060471Y0042963D01*
X0060392Y0043023D01*
X0060312Y0043079D01*
X0060229Y0043132D01*
X0060145Y0043181D01*
X0060058Y0043228D01*
X0059970Y0043270D01*
X0059880Y0043310D01*
X0059788Y0043345D01*
X0059696Y0043378D01*
X0059602Y0043406D01*
X0059507Y0043431D01*
X0059411Y0043452D01*
X0059314Y0043469D01*
X0059217Y0043483D01*
X0059119Y0043492D01*
X0059021Y0043498D01*
X0058923Y0043500D01*
X0043923Y0043500D02*
X0043825Y0043498D01*
X0043727Y0043492D01*
X0043629Y0043483D01*
X0043532Y0043469D01*
X0043435Y0043452D01*
X0043339Y0043431D01*
X0043244Y0043406D01*
X0043150Y0043378D01*
X0043058Y0043345D01*
X0042966Y0043310D01*
X0042876Y0043270D01*
X0042788Y0043228D01*
X0042701Y0043181D01*
X0042617Y0043132D01*
X0042534Y0043079D01*
X0042454Y0043023D01*
X0042375Y0042963D01*
X0042299Y0042901D01*
X0042226Y0042836D01*
X0042155Y0042768D01*
X0042087Y0042697D01*
X0042022Y0042624D01*
X0041960Y0042548D01*
X0041900Y0042469D01*
X0041844Y0042389D01*
X0041791Y0042306D01*
X0041742Y0042222D01*
X0041695Y0042135D01*
X0041653Y0042047D01*
X0041613Y0041957D01*
X0041578Y0041865D01*
X0041545Y0041773D01*
X0041517Y0041679D01*
X0041492Y0041584D01*
X0041471Y0041488D01*
X0041454Y0041391D01*
X0041440Y0041294D01*
X0041431Y0041196D01*
X0041425Y0041098D01*
X0041423Y0041000D01*
X0041423Y0006000D02*
X0041425Y0005902D01*
X0041431Y0005804D01*
X0041440Y0005706D01*
X0041454Y0005609D01*
X0041471Y0005512D01*
X0041492Y0005416D01*
X0041517Y0005321D01*
X0041545Y0005227D01*
X0041578Y0005135D01*
X0041613Y0005043D01*
X0041653Y0004953D01*
X0041695Y0004865D01*
X0041742Y0004778D01*
X0041791Y0004694D01*
X0041844Y0004611D01*
X0041900Y0004531D01*
X0041960Y0004452D01*
X0042022Y0004376D01*
X0042087Y0004303D01*
X0042155Y0004232D01*
X0042226Y0004164D01*
X0042299Y0004099D01*
X0042375Y0004037D01*
X0042454Y0003977D01*
X0042534Y0003921D01*
X0042617Y0003868D01*
X0042701Y0003819D01*
X0042788Y0003772D01*
X0042876Y0003730D01*
X0042966Y0003690D01*
X0043058Y0003655D01*
X0043150Y0003622D01*
X0043244Y0003594D01*
X0043339Y0003569D01*
X0043435Y0003548D01*
X0043532Y0003531D01*
X0043629Y0003517D01*
X0043727Y0003508D01*
X0043825Y0003502D01*
X0043923Y0003500D01*
X0058923Y0003500D02*
X0059021Y0003502D01*
X0059119Y0003508D01*
X0059217Y0003517D01*
X0059314Y0003531D01*
X0059411Y0003548D01*
X0059507Y0003569D01*
X0059602Y0003594D01*
X0059696Y0003622D01*
X0059788Y0003655D01*
X0059880Y0003690D01*
X0059970Y0003730D01*
X0060058Y0003772D01*
X0060145Y0003819D01*
X0060229Y0003868D01*
X0060312Y0003921D01*
X0060392Y0003977D01*
X0060471Y0004037D01*
X0060547Y0004099D01*
X0060620Y0004164D01*
X0060691Y0004232D01*
X0060759Y0004303D01*
X0060824Y0004376D01*
X0060886Y0004452D01*
X0060946Y0004531D01*
X0061002Y0004611D01*
X0061055Y0004694D01*
X0061104Y0004778D01*
X0061151Y0004865D01*
X0061193Y0004953D01*
X0061233Y0005043D01*
X0061268Y0005135D01*
X0061301Y0005227D01*
X0061329Y0005321D01*
X0061354Y0005416D01*
X0061375Y0005512D01*
X0061392Y0005609D01*
X0061406Y0005706D01*
X0061415Y0005804D01*
X0061421Y0005902D01*
X0061423Y0006000D01*
X0098598Y0056413D02*
X0103746Y0056413D01*
X0104257Y0056925D01*
X0104257Y0061650D01*
X0116069Y0073461D01*
X0116069Y0090862D01*
X0115793Y0091138D01*
X0124966Y0091138D01*
X0125163Y0091335D01*
X0086423Y0065439D02*
X0086423Y0068618D01*
X0096187Y0078382D01*
X0096187Y0108894D01*
X0096147Y0108933D01*
X0106383Y0108933D01*
X0116462Y0098854D01*
X0137919Y0098854D01*
X0145006Y0091768D01*
X0151462Y0091768D01*
X0151541Y0091846D01*
X0083273Y0065439D02*
X0083273Y0072358D01*
X0086541Y0075626D01*
X0086541Y0108539D01*
X0086147Y0108933D01*
X0086147Y0115193D01*
X0089494Y0118539D01*
X0104257Y0118539D01*
X0119809Y0102988D01*
X0140872Y0102988D01*
X0142053Y0101807D01*
X0151502Y0101807D01*
X0151541Y0101846D01*
X0076974Y0065439D02*
X0076974Y0071413D01*
X0072368Y0076020D01*
X0072368Y0083067D01*
X0072210Y0083224D01*
X0073824Y0065439D02*
X0073824Y0069642D01*
X0073746Y0069720D01*
X0070399Y0069720D01*
X0065084Y0075035D01*
X0065084Y0082870D01*
X0065242Y0083028D01*
X0070675Y0065439D02*
X0025961Y0065439D01*
X0023352Y0062831D01*
X0009494Y0062831D01*
X0009100Y0062437D01*
X0064798Y0059563D02*
X0026777Y0059563D01*
X0019415Y0052201D01*
X0009336Y0052201D01*
X0009100Y0052437D01*
X0064798Y0056413D02*
X0033864Y0056413D01*
X0019612Y0042161D01*
X0009376Y0042161D01*
X0009100Y0042437D01*
X0083273Y0031639D02*
X0083273Y0024327D01*
X0080832Y0021886D01*
X0076502Y0021886D01*
X0073943Y0019327D01*
X0073943Y0013736D01*
X0073667Y0013461D01*
X0086423Y0031639D02*
X0086423Y0026925D01*
X0090084Y0023264D01*
X0127289Y0023264D01*
X0128864Y0021689D01*
X0128864Y0017161D01*
X0129021Y0017004D01*
X0135006Y0017004D01*
X0139887Y0021886D01*
X0150714Y0021886D01*
X0150832Y0022004D01*
X0089572Y0031639D02*
X0089572Y0027909D01*
X0091069Y0026413D01*
X0125320Y0026413D01*
X0128470Y0029563D02*
X0128470Y0033618D01*
X0128352Y0033736D01*
X0128470Y0029563D02*
X0125320Y0026413D01*
X0128352Y0033736D02*
X0135911Y0033736D01*
X0137919Y0031728D01*
X0150557Y0031728D01*
X0150832Y0032004D01*
X0092722Y0031639D02*
X0106334Y0031639D01*
X0115675Y0040980D01*
X0125320Y0040980D01*
X0125714Y0041374D01*
X0126502Y0041374D01*
X0128076Y0042949D01*
X0128076Y0047791D01*
X0127958Y0047909D01*
X0133746Y0047909D01*
X0140281Y0041374D01*
X0150202Y0041374D01*
X0150832Y0042004D01*
X0098598Y0037516D02*
X0100517Y0037516D01*
X0104533Y0037516D01*
X0127683Y0056728D02*
X0127683Y0061531D01*
X0128037Y0061886D01*
X0130596Y0061886D01*
X0140478Y0052004D01*
X0150832Y0052004D01*
X0108076Y0037516D02*
X0100517Y0037516D01*
X0114494Y0043933D02*
X0114494Y0053972D01*
X0114691Y0054169D01*
X0125124Y0054169D01*
X0114494Y0043933D02*
X0108076Y0037516D01*
X0125124Y0054169D02*
X0127683Y0056728D01*
X0037328Y0025350D02*
X0036856Y0024878D01*
X0064798Y0040665D02*
X0058588Y0040665D01*
X0051423Y0033500D01*
X0051423Y0029287D01*
X0047171Y0025035D01*
X0037013Y0025035D01*
X0036856Y0024878D01*
X0036423Y0013028D02*
X0036265Y0012870D01*
X0064798Y0037516D02*
X0064798Y0026876D01*
X0051423Y0013500D01*
X0036895Y0013500D01*
X0036265Y0012870D01*
X0070047Y0103327D02*
X0070747Y0105018D01*
X0070747Y0112848D01*
X0070047Y0114539D01*
X0069075Y0115511D01*
X0072937Y0115511D01*
X0072486Y0115060D01*
X0072042Y0114449D01*
X0071699Y0113776D01*
X0071465Y0113057D01*
X0071347Y0112311D01*
X0071347Y0109133D01*
X0075947Y0109133D01*
X0075947Y0108733D01*
X0071347Y0108733D01*
X0071347Y0105555D01*
X0071465Y0104809D01*
X0071699Y0104091D01*
X0072042Y0103417D01*
X0072486Y0102806D01*
X0073020Y0102272D01*
X0073631Y0101828D01*
X0074305Y0101485D01*
X0075023Y0101251D01*
X0075769Y0101133D01*
X0075947Y0101133D01*
X0075947Y0108733D01*
X0076347Y0108733D01*
X0076347Y0101133D01*
X0076525Y0101133D01*
X0077271Y0101251D01*
X0077990Y0101485D01*
X0078663Y0101828D01*
X0079274Y0102272D01*
X0079808Y0102806D01*
X0080253Y0103417D01*
X0080596Y0104091D01*
X0080829Y0104809D01*
X0080947Y0105555D01*
X0080947Y0108733D01*
X0076347Y0108733D01*
X0076347Y0109133D01*
X0080947Y0109133D01*
X0080947Y0112311D01*
X0080829Y0113057D01*
X0080596Y0113776D01*
X0080253Y0114449D01*
X0079808Y0115060D01*
X0079357Y0115511D01*
X0081787Y0115511D01*
X0083551Y0116242D01*
X0084902Y0117592D01*
X0085632Y0119356D01*
X0085632Y0135196D01*
X0146708Y0135196D01*
X0146431Y0134920D01*
X0145520Y0132721D01*
X0145520Y0130342D01*
X0146431Y0128143D01*
X0147960Y0126614D01*
X0147417Y0126528D01*
X0146698Y0126295D01*
X0146025Y0125952D01*
X0145414Y0125508D01*
X0144880Y0124973D01*
X0144436Y0124362D01*
X0144093Y0123689D01*
X0143859Y0122970D01*
X0143741Y0122224D01*
X0143741Y0122046D01*
X0151341Y0122046D01*
X0151341Y0121646D01*
X0143741Y0121646D01*
X0143741Y0121469D01*
X0143859Y0120722D01*
X0144093Y0120004D01*
X0144436Y0119331D01*
X0144880Y0118719D01*
X0145414Y0118185D01*
X0146025Y0117741D01*
X0146698Y0117398D01*
X0147417Y0117165D01*
X0148163Y0117046D01*
X0151341Y0117046D01*
X0151341Y0121646D01*
X0151741Y0121646D01*
X0151741Y0117046D01*
X0154772Y0117046D01*
X0154772Y0116446D01*
X0147626Y0116446D01*
X0145935Y0115746D01*
X0144641Y0114452D01*
X0143941Y0112761D01*
X0143941Y0110931D01*
X0144641Y0109241D01*
X0145935Y0107947D01*
X0147626Y0107246D01*
X0154772Y0107246D01*
X0154772Y0106446D01*
X0147626Y0106446D01*
X0145935Y0105746D01*
X0144641Y0104452D01*
X0144540Y0104207D01*
X0143047Y0104207D01*
X0142231Y0105023D01*
X0141349Y0105388D01*
X0120803Y0105388D01*
X0105617Y0120574D01*
X0104735Y0120939D01*
X0089016Y0120939D01*
X0088134Y0120574D01*
X0087459Y0119899D01*
X0084113Y0116552D01*
X0083871Y0115969D01*
X0083542Y0115833D01*
X0082248Y0114539D01*
X0081547Y0112848D01*
X0081547Y0105018D01*
X0082248Y0103327D01*
X0083542Y0102033D01*
X0084141Y0101785D01*
X0084141Y0093753D01*
X0083306Y0094588D01*
X0076469Y0094588D01*
X0075775Y0093895D01*
X0068868Y0100802D01*
X0068868Y0102149D01*
X0070047Y0103327D01*
X0038617Y0097430D02*
X0034343Y0097430D01*
X0034343Y0098389D01*
X0038617Y0098389D01*
X0038617Y0100705D01*
X0038494Y0101163D01*
X0038386Y0101350D01*
X0038417Y0101381D01*
X0038417Y0101843D01*
X0039347Y0102229D01*
X0043628Y0106509D01*
X0046339Y0103797D01*
X0046339Y0079072D01*
X0046103Y0078836D01*
X0045558Y0077519D01*
X0045558Y0076095D01*
X0046103Y0074779D01*
X0047111Y0073771D01*
X0048427Y0073226D01*
X0049852Y0073226D01*
X0051168Y0073771D01*
X0052175Y0074779D01*
X0052720Y0076095D01*
X0052720Y0077519D01*
X0052175Y0078836D01*
X0051939Y0079072D01*
X0051939Y0105514D01*
X0051536Y0106487D01*
X0061547Y0106487D01*
X0061547Y0105018D01*
X0062248Y0103327D01*
X0063269Y0102306D01*
X0063269Y0099085D01*
X0063695Y0098056D01*
X0064482Y0097268D01*
X0071926Y0089824D01*
X0069047Y0089824D01*
X0068628Y0089404D01*
X0068404Y0089628D01*
X0062079Y0089628D01*
X0061142Y0088690D01*
X0061142Y0077365D01*
X0062079Y0076428D01*
X0062684Y0076428D01*
X0062684Y0074558D01*
X0063050Y0073676D01*
X0063725Y0073001D01*
X0068049Y0068676D01*
X0067975Y0068602D01*
X0067975Y0067839D01*
X0025483Y0067839D01*
X0024601Y0067474D01*
X0022358Y0065231D01*
X0015812Y0065231D01*
X0014706Y0066337D01*
X0013015Y0067037D01*
X0006892Y0067037D01*
X0006892Y0067637D01*
X0008900Y0067637D01*
X0008900Y0072237D01*
X0009300Y0072237D01*
X0009300Y0067637D01*
X0012478Y0067637D01*
X0013224Y0067755D01*
X0013943Y0067989D01*
X0014616Y0068332D01*
X0015227Y0068776D01*
X0015761Y0069310D01*
X0016205Y0069921D01*
X0016548Y0070594D01*
X0016782Y0071313D01*
X0016900Y0072059D01*
X0016900Y0072237D01*
X0009300Y0072237D01*
X0009300Y0072637D01*
X0016900Y0072637D01*
X0016900Y0072815D01*
X0016782Y0073561D01*
X0016548Y0074280D01*
X0016205Y0074953D01*
X0015761Y0075564D01*
X0015227Y0076098D01*
X0014616Y0076542D01*
X0013943Y0076885D01*
X0013224Y0077119D01*
X0012478Y0077237D01*
X0009300Y0077237D01*
X0009300Y0072637D01*
X0008900Y0072637D01*
X0008900Y0077237D01*
X0006892Y0077237D01*
X0006892Y0092683D01*
X0006955Y0092559D01*
X0007399Y0091948D01*
X0007934Y0091414D01*
X0008545Y0090969D01*
X0009218Y0090626D01*
X0009937Y0090393D01*
X0010683Y0090275D01*
X0013861Y0090275D01*
X0013861Y0094875D01*
X0014261Y0094875D01*
X0014261Y0090275D01*
X0017438Y0090275D01*
X0018185Y0090393D01*
X0018903Y0090626D01*
X0019576Y0090969D01*
X0020188Y0091414D01*
X0020722Y0091948D01*
X0021166Y0092559D01*
X0021509Y0093232D01*
X0021742Y0093951D01*
X0021861Y0094697D01*
X0021861Y0094875D01*
X0014261Y0094875D01*
X0014261Y0095275D01*
X0021861Y0095275D01*
X0021861Y0095453D01*
X0021742Y0096199D01*
X0021509Y0096917D01*
X0021166Y0097591D01*
X0020722Y0098202D01*
X0020188Y0098736D01*
X0019576Y0099180D01*
X0018903Y0099523D01*
X0018185Y0099757D01*
X0017438Y0099875D01*
X0014261Y0099875D01*
X0014261Y0095275D01*
X0013861Y0095275D01*
X0013861Y0099875D01*
X0010683Y0099875D01*
X0009937Y0099757D01*
X0009218Y0099523D01*
X0008545Y0099180D01*
X0007934Y0098736D01*
X0007399Y0098202D01*
X0006955Y0097591D01*
X0006892Y0097466D01*
X0006892Y0103118D01*
X0007161Y0102469D01*
X0008455Y0101175D01*
X0010146Y0100475D01*
X0017976Y0100475D01*
X0019666Y0101175D01*
X0020766Y0102275D01*
X0029311Y0102275D01*
X0029311Y0101381D01*
X0029342Y0101350D01*
X0029234Y0101163D01*
X0029111Y0100705D01*
X0029111Y0098389D01*
X0033384Y0098389D01*
X0033384Y0097430D01*
X0029111Y0097430D01*
X0029111Y0095113D01*
X0029234Y0094656D01*
X0029471Y0094245D01*
X0029806Y0093910D01*
X0030216Y0093673D01*
X0030674Y0093550D01*
X0033384Y0093550D01*
X0033384Y0097430D01*
X0034343Y0097430D01*
X0034343Y0093550D01*
X0037054Y0093550D01*
X0037511Y0093673D01*
X0037922Y0093910D01*
X0038257Y0094245D01*
X0038494Y0094656D01*
X0038617Y0095113D01*
X0038617Y0097430D01*
X0143933Y0019398D02*
X0145227Y0018104D01*
X0146917Y0017404D01*
X0154747Y0017404D01*
X0154772Y0017414D01*
X0154772Y0015066D01*
X0153708Y0016130D01*
X0151510Y0017040D01*
X0149131Y0017040D01*
X0146932Y0016130D01*
X0145250Y0014447D01*
X0144339Y0012249D01*
X0144339Y0009869D01*
X0145250Y0007671D01*
X0145920Y0007001D01*
X0109397Y0007001D01*
X0109927Y0007530D01*
X0110371Y0008142D01*
X0110714Y0008815D01*
X0110947Y0009533D01*
X0111065Y0010280D01*
X0111065Y0013457D01*
X0106465Y0013457D01*
X0106465Y0013857D01*
X0111065Y0013857D01*
X0111065Y0017035D01*
X0110947Y0017781D01*
X0110714Y0018500D01*
X0110371Y0019173D01*
X0109927Y0019784D01*
X0109392Y0020319D01*
X0108781Y0020763D01*
X0108583Y0020864D01*
X0117823Y0020864D01*
X0117382Y0020423D01*
X0117382Y0013585D01*
X0118319Y0012648D01*
X0123975Y0012648D01*
X0124913Y0013585D01*
X0124913Y0020423D01*
X0124471Y0020864D01*
X0125697Y0020864D01*
X0125256Y0020423D01*
X0125256Y0013585D01*
X0126193Y0012648D01*
X0131849Y0012648D01*
X0132787Y0013585D01*
X0132787Y0014604D01*
X0135483Y0014604D01*
X0136365Y0014969D01*
X0140882Y0019486D01*
X0143896Y0019486D01*
X0143933Y0019398D01*
X0103750Y0020763D02*
X0103138Y0020319D01*
X0102604Y0019784D01*
X0102160Y0019173D01*
X0101817Y0018500D01*
X0101584Y0017781D01*
X0101465Y0017035D01*
X0101465Y0013857D01*
X0106065Y0013857D01*
X0106065Y0013457D01*
X0101465Y0013457D01*
X0101465Y0010280D01*
X0101584Y0009533D01*
X0101817Y0008815D01*
X0102160Y0008142D01*
X0102604Y0007530D01*
X0103134Y0007001D01*
X0099114Y0007001D01*
X0100165Y0008052D01*
X0100865Y0009742D01*
X0100865Y0017572D01*
X0100165Y0019263D01*
X0098871Y0020557D01*
X0098131Y0020864D01*
X0103948Y0020864D01*
X0103750Y0020763D01*
X0069098Y0046964D02*
X0064799Y0046964D01*
X0064799Y0046965D01*
X0069098Y0046965D01*
X0069098Y0047432D01*
X0076523Y0047432D01*
X0077340Y0046615D01*
X0069098Y0046615D01*
X0069098Y0046964D01*
X0136802Y0094753D02*
X0135865Y0095691D01*
X0130209Y0095691D01*
X0129272Y0094753D01*
X0129272Y0087916D01*
X0129880Y0087308D01*
X0129690Y0087308D01*
X0129232Y0087185D01*
X0129045Y0087077D01*
X0129015Y0087108D01*
X0128120Y0087108D01*
X0128928Y0087916D01*
X0128928Y0094753D01*
X0127991Y0095691D01*
X0122335Y0095691D01*
X0121398Y0094753D01*
X0121398Y0093538D01*
X0119558Y0093538D01*
X0119558Y0094556D01*
X0118621Y0095494D01*
X0112965Y0095494D01*
X0112028Y0094556D01*
X0112028Y0087719D01*
X0112965Y0086782D01*
X0113669Y0086782D01*
X0113669Y0074455D01*
X0102223Y0063009D01*
X0101869Y0062155D01*
X0101761Y0062263D01*
X0095436Y0062263D01*
X0094498Y0061326D01*
X0094498Y0052043D01*
X0094421Y0051909D01*
X0094298Y0051451D01*
X0094298Y0050114D01*
X0098598Y0050114D01*
X0098598Y0050114D01*
X0094298Y0050114D01*
X0094298Y0048777D01*
X0094421Y0048319D01*
X0094498Y0048185D01*
X0094498Y0043465D01*
X0088409Y0043465D01*
X0085273Y0046602D01*
X0084485Y0047389D01*
X0080056Y0051818D01*
X0079269Y0052606D01*
X0078240Y0053032D01*
X0069098Y0053032D01*
X0069098Y0053264D01*
X0064799Y0053264D01*
X0064799Y0053264D01*
X0069098Y0053264D01*
X0069098Y0054601D01*
X0068976Y0055059D01*
X0068898Y0055192D01*
X0068898Y0061326D01*
X0067961Y0062263D01*
X0061636Y0062263D01*
X0061336Y0061963D01*
X0026300Y0061963D01*
X0025580Y0061665D01*
X0026955Y0063039D01*
X0067975Y0063039D01*
X0067975Y0062277D01*
X0068912Y0061339D01*
X0094485Y0061339D01*
X0095422Y0062277D01*
X0095422Y0068602D01*
X0094485Y0069539D01*
X0090738Y0069539D01*
X0097546Y0076347D01*
X0098221Y0077022D01*
X0098587Y0077904D01*
X0098587Y0101964D01*
X0098753Y0102033D01*
X0100047Y0103327D01*
X0100747Y0105018D01*
X0100747Y0106533D01*
X0105389Y0106533D01*
X0114428Y0097495D01*
X0115103Y0096820D01*
X0115985Y0096454D01*
X0136925Y0096454D01*
X0139244Y0094135D01*
X0136802Y0094135D01*
X0136802Y0094753D01*
X0108202Y0095694D02*
X0108202Y0091421D01*
X0107636Y0091421D01*
X0107636Y0095694D01*
X0105517Y0095694D01*
X0105059Y0095571D01*
X0104648Y0095334D01*
X0104313Y0094999D01*
X0104076Y0094588D01*
X0103954Y0094131D01*
X0103954Y0091420D01*
X0107636Y0091420D01*
X0107636Y0090855D01*
X0103954Y0090855D01*
X0103954Y0088145D01*
X0104076Y0087687D01*
X0104313Y0087277D01*
X0104648Y0086942D01*
X0105059Y0086705D01*
X0105517Y0086582D01*
X0107636Y0086582D01*
X0107636Y0090855D01*
X0108202Y0090855D01*
X0108202Y0086582D01*
X0110321Y0086582D01*
X0110779Y0086705D01*
X0111189Y0086942D01*
X0111525Y0087277D01*
X0111762Y0087687D01*
X0111884Y0088145D01*
X0111884Y0090855D01*
X0108202Y0090855D01*
X0108202Y0091420D01*
X0111884Y0091420D01*
X0111884Y0094131D01*
X0111762Y0094588D01*
X0111525Y0094999D01*
X0111189Y0095334D01*
X0110779Y0095571D01*
X0110321Y0095694D01*
X0108202Y0095694D01*
X0129015Y0078002D02*
X0129045Y0078033D01*
X0129232Y0077925D01*
X0129690Y0077802D01*
X0132006Y0077802D01*
X0132006Y0082076D01*
X0132965Y0082076D01*
X0132965Y0077802D01*
X0135282Y0077802D01*
X0135740Y0077925D01*
X0136150Y0078162D01*
X0136485Y0078497D01*
X0136722Y0078908D01*
X0136845Y0079365D01*
X0136845Y0082076D01*
X0132965Y0082076D01*
X0132965Y0083035D01*
X0136845Y0083035D01*
X0136845Y0085745D01*
X0136722Y0086203D01*
X0136485Y0086613D01*
X0136150Y0086948D01*
X0135950Y0087064D01*
X0136802Y0087916D01*
X0136802Y0088535D01*
X0138662Y0088535D01*
X0138662Y0081171D01*
X0139088Y0080142D01*
X0139482Y0079749D01*
X0139482Y0079749D01*
X0140270Y0078961D01*
X0141299Y0078535D01*
X0144269Y0078535D01*
X0139830Y0074095D01*
X0126200Y0074095D01*
X0126680Y0074576D01*
X0127355Y0075251D01*
X0127720Y0076133D01*
X0127720Y0078002D01*
X0129015Y0078002D01*
X0104130Y0049365D02*
X0102898Y0049365D01*
X0102898Y0050114D01*
X0098599Y0050114D01*
X0098599Y0050114D01*
X0102898Y0050114D01*
X0102898Y0051451D01*
X0102776Y0051909D01*
X0102698Y0052043D01*
X0102698Y0054013D01*
X0104223Y0054013D01*
X0105007Y0054338D01*
X0105007Y0050242D01*
X0104130Y0049365D01*
X0154772Y0077246D02*
X0154772Y0066715D01*
X0154210Y0066804D01*
X0151032Y0066804D01*
X0151032Y0062204D01*
X0150632Y0062204D01*
X0150632Y0066804D01*
X0147455Y0066804D01*
X0146708Y0066686D01*
X0145990Y0066452D01*
X0145317Y0066109D01*
X0144705Y0065665D01*
X0144171Y0065131D01*
X0143727Y0064520D01*
X0143384Y0063846D01*
X0143150Y0063128D01*
X0143032Y0062382D01*
X0143032Y0062204D01*
X0150632Y0062204D01*
X0150632Y0061804D01*
X0143032Y0061804D01*
X0143032Y0061626D01*
X0143150Y0060880D01*
X0143384Y0060161D01*
X0143727Y0059488D01*
X0144171Y0058877D01*
X0144705Y0058343D01*
X0145317Y0057899D01*
X0145990Y0057556D01*
X0146708Y0057322D01*
X0147455Y0057204D01*
X0150632Y0057204D01*
X0150632Y0061804D01*
X0151032Y0061804D01*
X0151032Y0057204D01*
X0154210Y0057204D01*
X0154772Y0057293D01*
X0154772Y0056593D01*
X0154747Y0056604D01*
X0146917Y0056604D01*
X0145227Y0055904D01*
X0143933Y0054610D01*
X0143847Y0054404D01*
X0141472Y0054404D01*
X0131956Y0063920D01*
X0131802Y0063984D01*
X0131802Y0065304D01*
X0130865Y0066242D01*
X0125209Y0066242D01*
X0124272Y0065304D01*
X0124272Y0058467D01*
X0125150Y0057589D01*
X0124130Y0056569D01*
X0118806Y0056569D01*
X0119767Y0057530D01*
X0122991Y0057530D01*
X0123928Y0058467D01*
X0123928Y0065304D01*
X0123412Y0065821D01*
X0126087Y0068495D01*
X0141547Y0068495D01*
X0142576Y0068922D01*
X0150901Y0077246D01*
X0154772Y0077246D01*
X0085306Y0010042D02*
X0085306Y0011061D01*
X0091665Y0011061D01*
X0091665Y0009742D01*
X0092366Y0008052D01*
X0093417Y0007001D01*
X0014760Y0007001D01*
X0015430Y0007671D01*
X0016341Y0009869D01*
X0016341Y0012249D01*
X0015430Y0014447D01*
X0013748Y0016130D01*
X0011550Y0017040D01*
X0009170Y0017040D01*
X0006972Y0016130D01*
X0006892Y0016050D01*
X0006892Y0027837D01*
X0013015Y0027837D01*
X0014706Y0028537D01*
X0016000Y0029831D01*
X0016199Y0030313D01*
X0032884Y0030313D01*
X0033767Y0030678D01*
X0034442Y0031353D01*
X0042486Y0039397D01*
X0042822Y0039536D01*
X0043497Y0040211D01*
X0044700Y0041415D01*
X0055944Y0041415D01*
X0052229Y0037700D01*
X0050587Y0037700D01*
X0049044Y0037061D01*
X0047862Y0035879D01*
X0047223Y0034335D01*
X0047223Y0032665D01*
X0047862Y0031121D01*
X0048862Y0030121D01*
X0046177Y0027435D01*
X0041605Y0027435D01*
X0041605Y0029084D01*
X0040668Y0030021D01*
X0033044Y0030021D01*
X0032106Y0029084D01*
X0032106Y0020672D01*
X0033044Y0019735D01*
X0040668Y0019735D01*
X0041605Y0020672D01*
X0041605Y0022635D01*
X0047648Y0022635D01*
X0048530Y0023001D01*
X0049205Y0023676D01*
X0049205Y0023676D01*
X0053457Y0027928D01*
X0053823Y0028810D01*
X0053823Y0029960D01*
X0054983Y0031121D01*
X0055623Y0032665D01*
X0055623Y0034306D01*
X0059582Y0038265D01*
X0060698Y0038265D01*
X0060698Y0035753D01*
X0061636Y0034816D01*
X0062398Y0034816D01*
X0062398Y0027870D01*
X0052229Y0017700D01*
X0050587Y0017700D01*
X0049044Y0017061D01*
X0047883Y0015900D01*
X0041015Y0015900D01*
X0041015Y0017076D01*
X0040078Y0018013D01*
X0032453Y0018013D01*
X0031516Y0017076D01*
X0031516Y0008664D01*
X0032453Y0007727D01*
X0040078Y0007727D01*
X0041015Y0008664D01*
X0041015Y0011100D01*
X0047883Y0011100D01*
X0049044Y0009939D01*
X0050587Y0009300D01*
X0052258Y0009300D01*
X0053802Y0009939D01*
X0054983Y0011121D01*
X0055623Y0012665D01*
X0055623Y0014306D01*
X0066833Y0025516D01*
X0067198Y0026398D01*
X0067198Y0034816D01*
X0067961Y0034816D01*
X0068898Y0035753D01*
X0068898Y0041015D01*
X0082255Y0041015D01*
X0082740Y0041216D01*
X0085664Y0038292D01*
X0086693Y0037865D01*
X0094498Y0037865D01*
X0094498Y0035753D01*
X0095436Y0034816D01*
X0101761Y0034816D01*
X0102061Y0035116D01*
X0106416Y0035116D01*
X0105340Y0034039D01*
X0095422Y0034039D01*
X0095422Y0034802D01*
X0094485Y0035739D01*
X0068912Y0035739D01*
X0067975Y0034802D01*
X0067975Y0028477D01*
X0068912Y0027539D01*
X0080873Y0027539D01*
X0080873Y0025321D01*
X0079838Y0024286D01*
X0076024Y0024286D01*
X0075142Y0023920D01*
X0072583Y0021361D01*
X0071908Y0020686D01*
X0071543Y0019804D01*
X0071543Y0017817D01*
X0070839Y0017817D01*
X0069902Y0016879D01*
X0069902Y0010042D01*
X0070839Y0009105D01*
X0076495Y0009105D01*
X0077432Y0010042D01*
X0077432Y0016879D01*
X0076495Y0017817D01*
X0076343Y0017817D01*
X0076343Y0018333D01*
X0077496Y0019486D01*
X0081310Y0019486D01*
X0082192Y0019851D01*
X0082867Y0020526D01*
X0085308Y0022967D01*
X0085673Y0023849D01*
X0085673Y0024281D01*
X0088050Y0021904D01*
X0088725Y0021229D01*
X0089607Y0020864D01*
X0094400Y0020864D01*
X0093660Y0020557D01*
X0092366Y0019263D01*
X0091665Y0017572D01*
X0091665Y0015861D01*
X0085306Y0015861D01*
X0085306Y0016879D01*
X0084369Y0017817D01*
X0078713Y0017817D01*
X0077776Y0016879D01*
X0077776Y0010042D01*
X0078713Y0009105D01*
X0084369Y0009105D01*
X0085306Y0010042D01*
X0025057Y0019535D02*
X0025057Y0024103D01*
X0026607Y0024103D01*
X0026607Y0019535D01*
X0029219Y0019535D01*
X0029677Y0019657D01*
X0030087Y0019894D01*
X0030422Y0020229D01*
X0030659Y0020640D01*
X0030782Y0021098D01*
X0030782Y0024103D01*
X0026607Y0024103D01*
X0026607Y0025653D01*
X0030782Y0025653D01*
X0030782Y0028658D01*
X0030659Y0029116D01*
X0030422Y0029526D01*
X0030087Y0029862D01*
X0029677Y0030099D01*
X0029219Y0030221D01*
X0026607Y0030221D01*
X0026607Y0025653D01*
X0025057Y0025653D01*
X0025057Y0030221D01*
X0022446Y0030221D01*
X0021988Y0030099D01*
X0021577Y0029862D01*
X0021242Y0029526D01*
X0021005Y0029116D01*
X0020883Y0028658D01*
X0020883Y0025653D01*
X0025057Y0025653D01*
X0025057Y0024103D01*
X0020883Y0024103D01*
X0020883Y0021098D01*
X0021005Y0020640D01*
X0021242Y0020229D01*
X0021577Y0019894D01*
X0021988Y0019657D01*
X0022446Y0019535D01*
X0025057Y0019535D01*
X0024467Y0007527D02*
X0024467Y0012095D01*
X0026017Y0012095D01*
X0026017Y0007527D01*
X0028628Y0007527D01*
X0029086Y0007649D01*
X0029497Y0007886D01*
X0029832Y0008222D01*
X0030069Y0008632D01*
X0030191Y0009090D01*
X0030191Y0012095D01*
X0026017Y0012095D01*
X0026017Y0013645D01*
X0030191Y0013645D01*
X0030191Y0016650D01*
X0030069Y0017108D01*
X0029832Y0017519D01*
X0029497Y0017854D01*
X0029086Y0018091D01*
X0028628Y0018213D01*
X0026017Y0018213D01*
X0026017Y0013645D01*
X0024467Y0013645D01*
X0024467Y0018213D01*
X0021855Y0018213D01*
X0021397Y0018091D01*
X0020987Y0017854D01*
X0020652Y0017519D01*
X0020415Y0017108D01*
X0020292Y0016650D01*
X0020292Y0013645D01*
X0024467Y0013645D01*
X0024467Y0012095D01*
X0020292Y0012095D01*
X0020292Y0009090D01*
X0020415Y0008632D01*
X0020652Y0008222D01*
X0020987Y0007886D01*
X0021397Y0007649D01*
X0021855Y0007527D01*
X0024467Y0007527D01*
X0051168Y0053268D02*
X0049852Y0053813D01*
X0048427Y0053813D01*
X0047111Y0053268D01*
X0046103Y0052261D01*
X0045558Y0050945D01*
X0045558Y0049520D01*
X0046103Y0048204D01*
X0047111Y0047196D01*
X0048427Y0046651D01*
X0049852Y0046651D01*
X0051168Y0047196D01*
X0051620Y0047648D01*
X0060498Y0047648D01*
X0060498Y0046965D01*
X0064798Y0046965D01*
X0064798Y0046964D01*
X0060498Y0046964D01*
X0060498Y0046215D01*
X0043229Y0046215D01*
X0042347Y0045850D01*
X0040242Y0043745D01*
X0039906Y0043605D01*
X0031413Y0035113D01*
X0015930Y0035113D01*
X0014706Y0036337D01*
X0013015Y0037037D01*
X0006892Y0037037D01*
X0006892Y0037837D01*
X0013015Y0037837D01*
X0014706Y0038537D01*
X0015930Y0039761D01*
X0020089Y0039761D01*
X0020971Y0040127D01*
X0021646Y0040802D01*
X0034858Y0054013D01*
X0060498Y0054013D01*
X0060498Y0053264D01*
X0064798Y0053264D01*
X0064798Y0053264D01*
X0060498Y0053264D01*
X0060498Y0052817D01*
X0051620Y0052817D01*
X0051168Y0053268D01*
X0020436Y0008595D02*
X0015813Y0008595D01*
X0024467Y0008595D02*
X0026017Y0008595D01*
X0030047Y0008595D02*
X0031585Y0008595D01*
X0040946Y0008595D02*
X0092141Y0008595D01*
X0100390Y0008595D02*
X0101929Y0008595D01*
X0110602Y0008595D02*
X0144867Y0008595D01*
X0020292Y0010193D02*
X0016341Y0010193D01*
X0024467Y0010193D02*
X0026017Y0010193D01*
X0030191Y0010193D02*
X0031516Y0010193D01*
X0041015Y0010193D02*
X0048790Y0010193D01*
X0054056Y0010193D02*
X0069902Y0010193D01*
X0077432Y0010193D02*
X0077776Y0010193D01*
X0085306Y0010193D02*
X0091665Y0010193D01*
X0100865Y0010193D02*
X0101479Y0010193D01*
X0111052Y0010193D02*
X0144339Y0010193D01*
X0020292Y0011792D02*
X0016341Y0011792D01*
X0024467Y0011792D02*
X0026017Y0011792D01*
X0030191Y0011792D02*
X0031516Y0011792D01*
X0055261Y0011792D02*
X0069902Y0011792D01*
X0077432Y0011792D02*
X0077776Y0011792D01*
X0100865Y0011792D02*
X0101465Y0011792D01*
X0111065Y0011792D02*
X0144339Y0011792D01*
X0024467Y0013390D02*
X0015868Y0013390D01*
X0026017Y0013390D02*
X0031516Y0013390D01*
X0055623Y0013390D02*
X0069902Y0013390D01*
X0077432Y0013390D02*
X0077776Y0013390D01*
X0100865Y0013390D02*
X0101465Y0013390D01*
X0111065Y0013390D02*
X0117577Y0013390D01*
X0124718Y0013390D02*
X0125451Y0013390D01*
X0132592Y0013390D02*
X0144812Y0013390D01*
X0020292Y0014989D02*
X0014889Y0014989D01*
X0024467Y0014989D02*
X0026017Y0014989D01*
X0030191Y0014989D02*
X0031516Y0014989D01*
X0056306Y0014989D02*
X0069902Y0014989D01*
X0077432Y0014989D02*
X0077776Y0014989D01*
X0100865Y0014989D02*
X0101465Y0014989D01*
X0111065Y0014989D02*
X0117382Y0014989D01*
X0124913Y0014989D02*
X0125256Y0014989D01*
X0136385Y0014989D02*
X0145792Y0014989D01*
X0008077Y0016587D02*
X0006892Y0016587D01*
X0012643Y0016587D02*
X0020292Y0016587D01*
X0024467Y0016587D02*
X0026017Y0016587D01*
X0030191Y0016587D02*
X0031516Y0016587D01*
X0041015Y0016587D02*
X0048571Y0016587D01*
X0057904Y0016587D02*
X0069902Y0016587D01*
X0077432Y0016587D02*
X0077776Y0016587D01*
X0085306Y0016587D02*
X0091665Y0016587D01*
X0100865Y0016587D02*
X0101465Y0016587D01*
X0111065Y0016587D02*
X0117382Y0016587D01*
X0124913Y0016587D02*
X0125256Y0016587D01*
X0137983Y0016587D02*
X0148038Y0016587D01*
X0152603Y0016587D02*
X0154772Y0016587D01*
X0021753Y0018186D02*
X0006892Y0018186D01*
X0024467Y0018186D02*
X0026017Y0018186D01*
X0028731Y0018186D02*
X0052715Y0018186D01*
X0059503Y0018186D02*
X0071543Y0018186D01*
X0076343Y0018186D02*
X0091919Y0018186D01*
X0100611Y0018186D02*
X0101715Y0018186D01*
X0110816Y0018186D02*
X0117382Y0018186D01*
X0124913Y0018186D02*
X0125256Y0018186D01*
X0139582Y0018186D02*
X0145145Y0018186D01*
X0021768Y0019784D02*
X0006892Y0019784D01*
X0025057Y0019784D02*
X0026607Y0019784D01*
X0029897Y0019784D02*
X0032994Y0019784D01*
X0040718Y0019784D02*
X0054313Y0019784D01*
X0061101Y0019784D02*
X0071543Y0019784D01*
X0082031Y0019784D02*
X0092887Y0019784D01*
X0099644Y0019784D02*
X0102604Y0019784D01*
X0109927Y0019784D02*
X0117382Y0019784D01*
X0124913Y0019784D02*
X0125256Y0019784D01*
X0020883Y0021383D02*
X0006892Y0021383D01*
X0025057Y0021383D02*
X0026607Y0021383D01*
X0030782Y0021383D02*
X0032106Y0021383D01*
X0041605Y0021383D02*
X0055912Y0021383D01*
X0062700Y0021383D02*
X0072605Y0021383D01*
X0083723Y0021383D02*
X0088571Y0021383D01*
X0020883Y0022981D02*
X0006892Y0022981D01*
X0025057Y0022981D02*
X0026607Y0022981D01*
X0030782Y0022981D02*
X0032106Y0022981D01*
X0048484Y0022981D02*
X0057510Y0022981D01*
X0064298Y0022981D02*
X0074203Y0022981D01*
X0085314Y0022981D02*
X0086972Y0022981D01*
X0025057Y0024580D02*
X0006892Y0024580D01*
X0026607Y0024580D02*
X0032106Y0024580D01*
X0050109Y0024580D02*
X0059109Y0024580D01*
X0065897Y0024580D02*
X0080132Y0024580D01*
X0020883Y0026178D02*
X0006892Y0026178D01*
X0025057Y0026178D02*
X0026607Y0026178D01*
X0030782Y0026178D02*
X0032106Y0026178D01*
X0051708Y0026178D02*
X0060707Y0026178D01*
X0067107Y0026178D02*
X0080873Y0026178D01*
X0020883Y0027777D02*
X0006892Y0027777D01*
X0025057Y0027777D02*
X0026607Y0027777D01*
X0030782Y0027777D02*
X0032106Y0027777D01*
X0041605Y0027777D02*
X0046518Y0027777D01*
X0053306Y0027777D02*
X0062306Y0027777D01*
X0067198Y0027777D02*
X0068674Y0027777D01*
X0021155Y0029375D02*
X0015544Y0029375D01*
X0025057Y0029375D02*
X0026607Y0029375D01*
X0030509Y0029375D02*
X0032398Y0029375D01*
X0041314Y0029375D02*
X0048117Y0029375D01*
X0053823Y0029375D02*
X0062398Y0029375D01*
X0067198Y0029375D02*
X0067975Y0029375D01*
X0048009Y0030974D02*
X0034063Y0030974D01*
X0054837Y0030974D02*
X0062398Y0030974D01*
X0067198Y0030974D02*
X0067975Y0030974D01*
X0047261Y0032573D02*
X0035661Y0032573D01*
X0055585Y0032573D02*
X0062398Y0032573D01*
X0067198Y0032573D02*
X0067975Y0032573D01*
X0047223Y0034171D02*
X0037260Y0034171D01*
X0055623Y0034171D02*
X0062398Y0034171D01*
X0067198Y0034171D02*
X0067975Y0034171D01*
X0095422Y0034171D02*
X0105471Y0034171D01*
X0032070Y0035770D02*
X0015273Y0035770D01*
X0038858Y0035770D02*
X0047817Y0035770D01*
X0057086Y0035770D02*
X0060698Y0035770D01*
X0068898Y0035770D02*
X0094498Y0035770D01*
X0033668Y0037368D02*
X0006892Y0037368D01*
X0040457Y0037368D02*
X0049786Y0037368D01*
X0058685Y0037368D02*
X0060698Y0037368D01*
X0068898Y0037368D02*
X0094498Y0037368D01*
X0035267Y0038967D02*
X0015135Y0038967D01*
X0042055Y0038967D02*
X0053495Y0038967D01*
X0068898Y0038967D02*
X0084989Y0038967D01*
X0036865Y0040565D02*
X0021410Y0040565D01*
X0043851Y0040565D02*
X0055094Y0040565D01*
X0068898Y0040565D02*
X0083390Y0040565D01*
X0038464Y0042164D02*
X0023008Y0042164D01*
X0024607Y0043762D02*
X0040259Y0043762D01*
X0088113Y0043762D02*
X0094498Y0043762D01*
X0041858Y0045361D02*
X0026205Y0045361D01*
X0086514Y0045361D02*
X0094498Y0045361D01*
X0047684Y0046959D02*
X0027804Y0046959D01*
X0050595Y0046959D02*
X0060498Y0046959D01*
X0069098Y0046959D02*
X0076996Y0046959D01*
X0084916Y0046959D02*
X0094498Y0046959D01*
X0045957Y0048558D02*
X0029402Y0048558D01*
X0083317Y0048558D02*
X0094357Y0048558D01*
X0045558Y0050156D02*
X0031001Y0050156D01*
X0081719Y0050156D02*
X0094298Y0050156D01*
X0102898Y0050156D02*
X0104921Y0050156D01*
X0045894Y0051755D02*
X0032599Y0051755D01*
X0080120Y0051755D02*
X0094380Y0051755D01*
X0102817Y0051755D02*
X0105007Y0051755D01*
X0047316Y0053353D02*
X0034198Y0053353D01*
X0050963Y0053353D02*
X0060498Y0053353D01*
X0069098Y0053353D02*
X0094498Y0053353D01*
X0102698Y0053353D02*
X0105007Y0053353D01*
X0094498Y0054952D02*
X0069004Y0054952D01*
X0140924Y0054952D02*
X0144275Y0054952D01*
X0094498Y0056550D02*
X0068898Y0056550D01*
X0139326Y0056550D02*
X0146788Y0056550D01*
X0094498Y0058149D02*
X0068898Y0058149D01*
X0123610Y0058149D02*
X0124590Y0058149D01*
X0137727Y0058149D02*
X0144972Y0058149D01*
X0150632Y0058149D02*
X0151032Y0058149D01*
X0094498Y0059747D02*
X0068898Y0059747D01*
X0123928Y0059747D02*
X0124272Y0059747D01*
X0136129Y0059747D02*
X0143595Y0059747D01*
X0150632Y0059747D02*
X0151032Y0059747D01*
X0068906Y0061346D02*
X0068878Y0061346D01*
X0094491Y0061346D02*
X0094518Y0061346D01*
X0123928Y0061346D02*
X0124272Y0061346D01*
X0134530Y0061346D02*
X0143077Y0061346D01*
X0150632Y0061346D02*
X0151032Y0061346D01*
X0067975Y0062944D02*
X0026860Y0062944D01*
X0095422Y0062944D02*
X0102196Y0062944D01*
X0123928Y0062944D02*
X0124272Y0062944D01*
X0132932Y0062944D02*
X0143121Y0062944D01*
X0150632Y0062944D02*
X0151032Y0062944D01*
X0103756Y0064543D02*
X0095422Y0064543D01*
X0123928Y0064543D02*
X0124272Y0064543D01*
X0131802Y0064543D02*
X0143744Y0064543D01*
X0150632Y0064543D02*
X0151032Y0064543D01*
X0023268Y0066141D02*
X0014901Y0066141D01*
X0095422Y0066141D02*
X0105355Y0066141D01*
X0123733Y0066141D02*
X0125108Y0066141D01*
X0130966Y0066141D02*
X0145379Y0066141D01*
X0150632Y0066141D02*
X0151032Y0066141D01*
X0009300Y0067740D02*
X0008900Y0067740D01*
X0013126Y0067740D02*
X0025243Y0067740D01*
X0095422Y0067740D02*
X0106954Y0067740D01*
X0125331Y0067740D02*
X0154772Y0067740D01*
X0009300Y0069338D02*
X0008900Y0069338D01*
X0015782Y0069338D02*
X0067387Y0069338D01*
X0094686Y0069338D02*
X0108552Y0069338D01*
X0142993Y0069338D02*
X0154772Y0069338D01*
X0009300Y0070937D02*
X0008900Y0070937D01*
X0016660Y0070937D02*
X0065789Y0070937D01*
X0092136Y0070937D02*
X0110151Y0070937D01*
X0144591Y0070937D02*
X0154772Y0070937D01*
X0064190Y0072535D02*
X0009300Y0072535D01*
X0093734Y0072535D02*
X0111749Y0072535D01*
X0146190Y0072535D02*
X0154772Y0072535D01*
X0009300Y0074134D02*
X0008900Y0074134D01*
X0016596Y0074134D02*
X0046748Y0074134D01*
X0051531Y0074134D02*
X0062860Y0074134D01*
X0095333Y0074134D02*
X0113348Y0074134D01*
X0126238Y0074134D02*
X0139869Y0074134D01*
X0147788Y0074134D02*
X0154772Y0074134D01*
X0009300Y0075732D02*
X0008900Y0075732D01*
X0015593Y0075732D02*
X0045708Y0075732D01*
X0052570Y0075732D02*
X0062684Y0075732D01*
X0096931Y0075732D02*
X0113669Y0075732D01*
X0127555Y0075732D02*
X0141467Y0075732D01*
X0149387Y0075732D02*
X0154772Y0075732D01*
X0045558Y0077331D02*
X0006892Y0077331D01*
X0052720Y0077331D02*
X0061176Y0077331D01*
X0098349Y0077331D02*
X0113669Y0077331D01*
X0127720Y0077331D02*
X0143066Y0077331D01*
X0046197Y0078929D02*
X0006892Y0078929D01*
X0052082Y0078929D02*
X0061142Y0078929D01*
X0098587Y0078929D02*
X0113669Y0078929D01*
X0132006Y0078929D02*
X0132965Y0078929D01*
X0136728Y0078929D02*
X0140346Y0078929D01*
X0046339Y0080528D02*
X0006892Y0080528D01*
X0051939Y0080528D02*
X0061142Y0080528D01*
X0098587Y0080528D02*
X0113669Y0080528D01*
X0132006Y0080528D02*
X0132965Y0080528D01*
X0136845Y0080528D02*
X0138929Y0080528D01*
X0046339Y0082126D02*
X0006892Y0082126D01*
X0051939Y0082126D02*
X0061142Y0082126D01*
X0098587Y0082126D02*
X0113669Y0082126D01*
X0132965Y0082126D02*
X0138662Y0082126D01*
X0046339Y0083725D02*
X0006892Y0083725D01*
X0051939Y0083725D02*
X0061142Y0083725D01*
X0098587Y0083725D02*
X0113669Y0083725D01*
X0136845Y0083725D02*
X0138662Y0083725D01*
X0046339Y0085323D02*
X0006892Y0085323D01*
X0051939Y0085323D02*
X0061142Y0085323D01*
X0098587Y0085323D02*
X0113669Y0085323D01*
X0136845Y0085323D02*
X0138662Y0085323D01*
X0046339Y0086922D02*
X0006892Y0086922D01*
X0051939Y0086922D02*
X0061142Y0086922D01*
X0098587Y0086922D02*
X0104682Y0086922D01*
X0107636Y0086922D02*
X0108202Y0086922D01*
X0111155Y0086922D02*
X0112825Y0086922D01*
X0136176Y0086922D02*
X0138662Y0086922D01*
X0046339Y0088520D02*
X0006892Y0088520D01*
X0051939Y0088520D02*
X0061142Y0088520D01*
X0098587Y0088520D02*
X0103954Y0088520D01*
X0107636Y0088520D02*
X0108202Y0088520D01*
X0111884Y0088520D02*
X0112028Y0088520D01*
X0128928Y0088520D02*
X0129272Y0088520D01*
X0136802Y0088520D02*
X0138662Y0088520D01*
X0046339Y0090119D02*
X0006892Y0090119D01*
X0051939Y0090119D02*
X0071632Y0090119D01*
X0098587Y0090119D02*
X0103954Y0090119D01*
X0107636Y0090119D02*
X0108202Y0090119D01*
X0111884Y0090119D02*
X0112028Y0090119D01*
X0128928Y0090119D02*
X0129272Y0090119D01*
X0007630Y0091717D02*
X0006892Y0091717D01*
X0013861Y0091717D02*
X0014261Y0091717D01*
X0020491Y0091717D02*
X0046339Y0091717D01*
X0051939Y0091717D02*
X0070033Y0091717D01*
X0098587Y0091717D02*
X0103954Y0091717D01*
X0107636Y0091717D02*
X0108202Y0091717D01*
X0111884Y0091717D02*
X0112028Y0091717D01*
X0128928Y0091717D02*
X0129272Y0091717D01*
X0014261Y0093316D02*
X0013861Y0093316D01*
X0021536Y0093316D02*
X0046339Y0093316D01*
X0051939Y0093316D02*
X0068434Y0093316D01*
X0098587Y0093316D02*
X0103954Y0093316D01*
X0107636Y0093316D02*
X0108202Y0093316D01*
X0111884Y0093316D02*
X0112028Y0093316D01*
X0128928Y0093316D02*
X0129272Y0093316D01*
X0029164Y0094914D02*
X0014261Y0094914D01*
X0033384Y0094914D02*
X0034343Y0094914D01*
X0038563Y0094914D02*
X0046339Y0094914D01*
X0051939Y0094914D02*
X0066836Y0094914D01*
X0074756Y0094914D02*
X0084141Y0094914D01*
X0098587Y0094914D02*
X0104264Y0094914D01*
X0107636Y0094914D02*
X0108202Y0094914D01*
X0111573Y0094914D02*
X0112386Y0094914D01*
X0119200Y0094914D02*
X0121559Y0094914D01*
X0128767Y0094914D02*
X0129433Y0094914D01*
X0136641Y0094914D02*
X0138465Y0094914D01*
X0014261Y0096513D02*
X0013861Y0096513D01*
X0021640Y0096513D02*
X0029111Y0096513D01*
X0033384Y0096513D02*
X0034343Y0096513D01*
X0038617Y0096513D02*
X0046339Y0096513D01*
X0051939Y0096513D02*
X0065237Y0096513D01*
X0073157Y0096513D02*
X0084141Y0096513D01*
X0098587Y0096513D02*
X0115843Y0096513D01*
X0007334Y0098111D02*
X0006892Y0098111D01*
X0013861Y0098111D02*
X0014261Y0098111D01*
X0020787Y0098111D02*
X0033384Y0098111D01*
X0034343Y0098111D02*
X0046339Y0098111D01*
X0051939Y0098111D02*
X0063672Y0098111D01*
X0071559Y0098111D02*
X0084141Y0098111D01*
X0098587Y0098111D02*
X0113811Y0098111D01*
X0009793Y0099710D02*
X0006892Y0099710D01*
X0013861Y0099710D02*
X0014261Y0099710D01*
X0018328Y0099710D02*
X0029111Y0099710D01*
X0038617Y0099710D02*
X0046339Y0099710D01*
X0051939Y0099710D02*
X0063269Y0099710D01*
X0069960Y0099710D02*
X0084141Y0099710D01*
X0098587Y0099710D02*
X0112212Y0099710D01*
X0008322Y0101308D02*
X0006892Y0101308D01*
X0019800Y0101308D02*
X0029318Y0101308D01*
X0038410Y0101308D02*
X0046339Y0101308D01*
X0051939Y0101308D02*
X0063269Y0101308D01*
X0068868Y0101308D02*
X0074847Y0101308D01*
X0075947Y0101308D02*
X0076347Y0101308D01*
X0077447Y0101308D02*
X0084141Y0101308D01*
X0098587Y0101308D02*
X0110614Y0101308D01*
X0006980Y0102907D02*
X0006892Y0102907D01*
X0040026Y0102907D02*
X0046339Y0102907D01*
X0051939Y0102907D02*
X0062668Y0102907D01*
X0069627Y0102907D02*
X0072413Y0102907D01*
X0075947Y0102907D02*
X0076347Y0102907D01*
X0079882Y0102907D02*
X0082668Y0102907D01*
X0099627Y0102907D02*
X0109015Y0102907D01*
X0045631Y0104506D02*
X0041624Y0104506D01*
X0051939Y0104506D02*
X0061760Y0104506D01*
X0070535Y0104506D02*
X0071564Y0104506D01*
X0075947Y0104506D02*
X0076347Y0104506D01*
X0080730Y0104506D02*
X0081760Y0104506D01*
X0100535Y0104506D02*
X0107417Y0104506D01*
X0142748Y0104506D02*
X0144695Y0104506D01*
X0044032Y0106104D02*
X0043223Y0106104D01*
X0051695Y0106104D02*
X0061547Y0106104D01*
X0070747Y0106104D02*
X0071347Y0106104D01*
X0075947Y0106104D02*
X0076347Y0106104D01*
X0080947Y0106104D02*
X0081547Y0106104D01*
X0100747Y0106104D02*
X0105818Y0106104D01*
X0120087Y0106104D02*
X0146799Y0106104D01*
X0071347Y0107703D02*
X0070747Y0107703D01*
X0075947Y0107703D02*
X0076347Y0107703D01*
X0080947Y0107703D02*
X0081547Y0107703D01*
X0118488Y0107703D02*
X0146525Y0107703D01*
X0071347Y0109301D02*
X0070747Y0109301D01*
X0080947Y0109301D02*
X0081547Y0109301D01*
X0116890Y0109301D02*
X0144616Y0109301D01*
X0071347Y0110900D02*
X0070747Y0110900D01*
X0080947Y0110900D02*
X0081547Y0110900D01*
X0115291Y0110900D02*
X0143954Y0110900D01*
X0071377Y0112498D02*
X0070747Y0112498D01*
X0080918Y0112498D02*
X0081547Y0112498D01*
X0113693Y0112498D02*
X0143941Y0112498D01*
X0071862Y0114097D02*
X0070230Y0114097D01*
X0080432Y0114097D02*
X0082064Y0114097D01*
X0112094Y0114097D02*
X0144494Y0114097D01*
X0083404Y0115695D02*
X0082231Y0115695D01*
X0110496Y0115695D02*
X0145884Y0115695D01*
X0084854Y0117294D02*
X0084603Y0117294D01*
X0108897Y0117294D02*
X0147020Y0117294D01*
X0151341Y0117294D02*
X0151741Y0117294D01*
X0086452Y0118892D02*
X0085440Y0118892D01*
X0107299Y0118892D02*
X0144754Y0118892D01*
X0151341Y0118892D02*
X0151741Y0118892D01*
X0088051Y0120491D02*
X0085632Y0120491D01*
X0105700Y0120491D02*
X0143934Y0120491D01*
X0151341Y0120491D02*
X0151741Y0120491D01*
X0143741Y0122089D02*
X0085632Y0122089D01*
X0085632Y0123688D02*
X0144092Y0123688D01*
X0145192Y0125286D02*
X0085632Y0125286D01*
X0085632Y0126885D02*
X0147690Y0126885D01*
X0146290Y0128483D02*
X0085632Y0128483D01*
X0085632Y0130082D02*
X0145628Y0130082D01*
X0145520Y0131680D02*
X0085632Y0131680D01*
X0085632Y0133279D02*
X0145751Y0133279D01*
X0146414Y0134877D02*
X0085632Y0134877D01*
X0016900Y0072059D02*
X0016900Y0072237D01*
X0009300Y0072237D01*
X0009300Y0072637D01*
X0016900Y0072637D01*
X0016900Y0072815D01*
X0016782Y0073561D01*
X0016548Y0074280D01*
X0016205Y0074953D01*
X0015761Y0075564D01*
X0015227Y0076098D01*
X0014616Y0076542D01*
X0013943Y0076885D01*
X0013224Y0077119D01*
X0012478Y0077237D01*
X0009300Y0077237D01*
X0009300Y0072637D01*
X0008900Y0072637D01*
X0008900Y0077237D01*
X0006892Y0077237D01*
X0006892Y0092683D01*
X0006955Y0092559D01*
X0007399Y0091948D01*
X0007934Y0091414D01*
X0008545Y0090969D01*
X0009218Y0090626D01*
X0009937Y0090393D01*
X0010683Y0090275D01*
X0013861Y0090275D01*
X0013861Y0094875D01*
X0014261Y0094875D01*
X0014261Y0090275D01*
X0017438Y0090275D01*
X0018185Y0090393D01*
X0018903Y0090626D01*
X0019576Y0090969D01*
X0020188Y0091414D01*
X0020722Y0091948D01*
X0021166Y0092559D01*
X0021509Y0093232D01*
X0021742Y0093951D01*
X0021861Y0094697D01*
X0021861Y0094875D01*
X0014261Y0094875D01*
X0014261Y0095275D01*
X0021861Y0095275D01*
X0021861Y0095453D01*
X0021742Y0096199D01*
X0021509Y0096917D01*
X0021166Y0097591D01*
X0020722Y0098202D01*
X0020188Y0098736D01*
X0019576Y0099180D01*
X0018903Y0099523D01*
X0018185Y0099757D01*
X0017438Y0099875D01*
X0014261Y0099875D01*
X0014261Y0095275D01*
X0013861Y0095275D01*
X0013861Y0099875D01*
X0010683Y0099875D01*
X0009937Y0099757D01*
X0009218Y0099523D01*
X0008545Y0099180D01*
X0007934Y0098736D01*
X0007399Y0098202D01*
X0006955Y0097591D01*
X0006892Y0097467D01*
X0006892Y0103118D01*
X0007161Y0102469D01*
X0008455Y0101175D01*
X0010146Y0100475D01*
X0017976Y0100475D01*
X0019666Y0101175D01*
X0020960Y0102469D01*
X0021661Y0104160D01*
X0021661Y0105990D01*
X0020960Y0107680D01*
X0019666Y0108974D01*
X0017976Y0109675D01*
X0010146Y0109675D01*
X0008455Y0108974D01*
X0007161Y0107680D01*
X0006892Y0107031D01*
X0006892Y0115511D01*
X0063220Y0115511D01*
X0062248Y0114539D01*
X0061547Y0112848D01*
X0061547Y0105018D01*
X0062248Y0103327D01*
X0063542Y0102033D01*
X0065232Y0101333D01*
X0067062Y0101333D01*
X0068753Y0102033D01*
X0070047Y0103327D01*
X0070747Y0105018D01*
X0070747Y0112848D01*
X0070047Y0114539D01*
X0069075Y0115511D01*
X0072937Y0115511D01*
X0072486Y0115060D01*
X0072042Y0114449D01*
X0071699Y0113776D01*
X0071465Y0113057D01*
X0071347Y0112311D01*
X0071347Y0109133D01*
X0075947Y0109133D01*
X0075947Y0108733D01*
X0071347Y0108733D01*
X0071347Y0105555D01*
X0071465Y0104809D01*
X0071699Y0104091D01*
X0072042Y0103417D01*
X0072486Y0102806D01*
X0073020Y0102272D01*
X0073631Y0101828D01*
X0074305Y0101485D01*
X0075023Y0101251D01*
X0075769Y0101133D01*
X0075947Y0101133D01*
X0075947Y0108733D01*
X0076347Y0108733D01*
X0076347Y0101133D01*
X0076525Y0101133D01*
X0077271Y0101251D01*
X0077990Y0101485D01*
X0078663Y0101828D01*
X0079274Y0102272D01*
X0079808Y0102806D01*
X0080253Y0103417D01*
X0080596Y0104091D01*
X0080829Y0104809D01*
X0080947Y0105555D01*
X0080947Y0108733D01*
X0076347Y0108733D01*
X0076347Y0109133D01*
X0080947Y0109133D01*
X0080947Y0112311D01*
X0080829Y0113057D01*
X0080596Y0113776D01*
X0080253Y0114449D01*
X0079808Y0115060D01*
X0079357Y0115511D01*
X0081787Y0115511D01*
X0083551Y0116242D01*
X0084902Y0117592D01*
X0085632Y0119356D01*
X0085632Y0135196D01*
X0146708Y0135196D01*
X0146431Y0134920D01*
X0145520Y0132721D01*
X0145520Y0130342D01*
X0146431Y0128143D01*
X0147960Y0126614D01*
X0147417Y0126528D01*
X0146698Y0126295D01*
X0146025Y0125952D01*
X0145414Y0125508D01*
X0144880Y0124973D01*
X0144436Y0124362D01*
X0144093Y0123689D01*
X0143859Y0122970D01*
X0143741Y0122224D01*
X0143741Y0122046D01*
X0151341Y0122046D01*
X0151341Y0121646D01*
X0143741Y0121646D01*
X0143741Y0121469D01*
X0143859Y0120722D01*
X0144093Y0120004D01*
X0144436Y0119331D01*
X0144880Y0118719D01*
X0145414Y0118185D01*
X0146025Y0117741D01*
X0146698Y0117398D01*
X0147417Y0117165D01*
X0148163Y0117046D01*
X0151341Y0117046D01*
X0151341Y0121646D01*
X0151741Y0121646D01*
X0151741Y0117046D01*
X0154772Y0117046D01*
X0154772Y0116446D01*
X0147626Y0116446D01*
X0145935Y0115746D01*
X0144641Y0114452D01*
X0143941Y0112761D01*
X0143941Y0110931D01*
X0144641Y0109241D01*
X0145935Y0107947D01*
X0147626Y0107246D01*
X0154772Y0107246D01*
X0154772Y0106446D01*
X0147626Y0106446D01*
X0145935Y0105746D01*
X0144641Y0104452D01*
X0143941Y0102761D01*
X0143941Y0100931D01*
X0144641Y0099241D01*
X0145935Y0097947D01*
X0147626Y0097246D01*
X0154772Y0097246D01*
X0154772Y0096446D01*
X0147626Y0096446D01*
X0145935Y0095746D01*
X0144641Y0094452D01*
X0143941Y0092761D01*
X0143941Y0090931D01*
X0144641Y0089241D01*
X0145935Y0087947D01*
X0147626Y0087246D01*
X0154772Y0087246D01*
X0154772Y0086446D01*
X0147626Y0086446D01*
X0145935Y0085746D01*
X0144641Y0084452D01*
X0143941Y0082761D01*
X0143941Y0080931D01*
X0144641Y0079241D01*
X0145935Y0077947D01*
X0147626Y0077246D01*
X0154772Y0077246D01*
X0154772Y0066715D01*
X0154210Y0066804D01*
X0151032Y0066804D01*
X0151032Y0062204D01*
X0150632Y0062204D01*
X0150632Y0066804D01*
X0147455Y0066804D01*
X0146708Y0066686D01*
X0145990Y0066452D01*
X0145317Y0066109D01*
X0144705Y0065665D01*
X0144171Y0065131D01*
X0143727Y0064520D01*
X0143384Y0063846D01*
X0143150Y0063128D01*
X0143032Y0062382D01*
X0143032Y0062204D01*
X0150632Y0062204D01*
X0150632Y0061804D01*
X0143032Y0061804D01*
X0143032Y0061626D01*
X0143150Y0060880D01*
X0143384Y0060161D01*
X0143727Y0059488D01*
X0144171Y0058877D01*
X0144705Y0058343D01*
X0145317Y0057899D01*
X0145990Y0057556D01*
X0146708Y0057322D01*
X0147455Y0057204D01*
X0150632Y0057204D01*
X0150632Y0061804D01*
X0151032Y0061804D01*
X0151032Y0057204D01*
X0154210Y0057204D01*
X0154772Y0057293D01*
X0154772Y0056593D01*
X0154747Y0056604D01*
X0146917Y0056604D01*
X0145227Y0055904D01*
X0143933Y0054610D01*
X0143232Y0052919D01*
X0143232Y0051089D01*
X0143933Y0049398D01*
X0145227Y0048104D01*
X0146917Y0047404D01*
X0154747Y0047404D01*
X0154772Y0047414D01*
X0154772Y0046593D01*
X0154747Y0046604D01*
X0146917Y0046604D01*
X0145227Y0045904D01*
X0143933Y0044610D01*
X0143232Y0042919D01*
X0143232Y0041089D01*
X0143933Y0039398D01*
X0145227Y0038104D01*
X0146917Y0037404D01*
X0154747Y0037404D01*
X0154772Y0037414D01*
X0154772Y0036593D01*
X0154747Y0036604D01*
X0146917Y0036604D01*
X0145227Y0035904D01*
X0143933Y0034610D01*
X0143232Y0032919D01*
X0143232Y0031089D01*
X0143933Y0029398D01*
X0145227Y0028104D01*
X0146917Y0027404D01*
X0154747Y0027404D01*
X0154772Y0027414D01*
X0154772Y0026593D01*
X0154747Y0026604D01*
X0146917Y0026604D01*
X0145227Y0025904D01*
X0143933Y0024610D01*
X0143232Y0022919D01*
X0143232Y0021089D01*
X0143933Y0019398D01*
X0145227Y0018104D01*
X0146917Y0017404D01*
X0154747Y0017404D01*
X0154772Y0017414D01*
X0154772Y0015066D01*
X0153708Y0016130D01*
X0151510Y0017040D01*
X0149131Y0017040D01*
X0146932Y0016130D01*
X0145250Y0014447D01*
X0144339Y0012249D01*
X0144339Y0009869D01*
X0145250Y0007671D01*
X0145920Y0007001D01*
X0109397Y0007001D01*
X0109927Y0007530D01*
X0110371Y0008142D01*
X0110714Y0008815D01*
X0110947Y0009533D01*
X0111065Y0010280D01*
X0111065Y0013457D01*
X0106465Y0013457D01*
X0106465Y0013857D01*
X0111065Y0013857D01*
X0111065Y0017035D01*
X0110947Y0017781D01*
X0110714Y0018500D01*
X0110371Y0019173D01*
X0109927Y0019784D01*
X0109392Y0020319D01*
X0108781Y0020763D01*
X0108108Y0021106D01*
X0107389Y0021339D01*
X0106643Y0021457D01*
X0106465Y0021457D01*
X0106465Y0013858D01*
X0106065Y0013858D01*
X0106065Y0021457D01*
X0105888Y0021457D01*
X0105141Y0021339D01*
X0104423Y0021106D01*
X0103750Y0020763D01*
X0103138Y0020319D01*
X0102604Y0019784D01*
X0102160Y0019173D01*
X0101817Y0018500D01*
X0101584Y0017781D01*
X0101465Y0017035D01*
X0101465Y0013857D01*
X0106065Y0013857D01*
X0106065Y0013457D01*
X0101465Y0013457D01*
X0101465Y0010280D01*
X0101584Y0009533D01*
X0101817Y0008815D01*
X0102160Y0008142D01*
X0102604Y0007530D01*
X0103134Y0007001D01*
X0099114Y0007001D01*
X0100165Y0008052D01*
X0100865Y0009742D01*
X0100865Y0017572D01*
X0100165Y0019263D01*
X0098871Y0020557D01*
X0097180Y0021257D01*
X0095350Y0021257D01*
X0093660Y0020557D01*
X0092366Y0019263D01*
X0091665Y0017572D01*
X0091665Y0009742D01*
X0092366Y0008052D01*
X0093417Y0007001D01*
X0014760Y0007001D01*
X0015430Y0007671D01*
X0016341Y0009869D01*
X0016341Y0012249D01*
X0015430Y0014447D01*
X0013748Y0016130D01*
X0011550Y0017040D01*
X0009170Y0017040D01*
X0006972Y0016130D01*
X0006892Y0016050D01*
X0006892Y0027837D01*
X0013015Y0027837D01*
X0014706Y0028537D01*
X0016000Y0029831D01*
X0016700Y0031522D01*
X0016700Y0033352D01*
X0016000Y0035043D01*
X0014706Y0036337D01*
X0013015Y0037037D01*
X0006892Y0037037D01*
X0006892Y0037837D01*
X0013015Y0037837D01*
X0014706Y0038537D01*
X0016000Y0039831D01*
X0016700Y0041522D01*
X0016700Y0043352D01*
X0016000Y0045043D01*
X0014706Y0046337D01*
X0013015Y0047037D01*
X0006892Y0047037D01*
X0006892Y0047837D01*
X0013015Y0047837D01*
X0014706Y0048537D01*
X0016000Y0049831D01*
X0016700Y0051522D01*
X0016700Y0053352D01*
X0016000Y0055043D01*
X0014706Y0056337D01*
X0013015Y0057037D01*
X0006892Y0057037D01*
X0006892Y0057837D01*
X0013015Y0057837D01*
X0014706Y0058537D01*
X0016000Y0059831D01*
X0016700Y0061522D01*
X0016700Y0063352D01*
X0016000Y0065043D01*
X0014706Y0066337D01*
X0013015Y0067037D01*
X0006892Y0067037D01*
X0006892Y0067637D01*
X0008900Y0067637D01*
X0008900Y0072237D01*
X0009300Y0072237D01*
X0009300Y0067637D01*
X0012478Y0067637D01*
X0013224Y0067755D01*
X0013943Y0067989D01*
X0014616Y0068332D01*
X0015227Y0068776D01*
X0015761Y0069310D01*
X0016205Y0069921D01*
X0016548Y0070594D01*
X0016782Y0071313D01*
X0016900Y0072059D01*
X0052720Y0049520D02*
X0052720Y0050945D01*
X0052175Y0052261D01*
X0051939Y0052497D01*
X0051939Y0074543D01*
X0052175Y0074779D01*
X0052720Y0076095D01*
X0052720Y0077519D01*
X0052175Y0078836D01*
X0051168Y0079843D01*
X0049852Y0080388D01*
X0048427Y0080388D01*
X0047111Y0079843D01*
X0046103Y0078836D01*
X0045558Y0077519D01*
X0045558Y0076095D01*
X0046103Y0074779D01*
X0046339Y0074543D01*
X0046339Y0052497D01*
X0046103Y0052261D01*
X0045558Y0050945D01*
X0045558Y0049520D01*
X0046103Y0048204D01*
X0047111Y0047196D01*
X0048427Y0046651D01*
X0049852Y0046651D01*
X0051168Y0047196D01*
X0052175Y0048204D01*
X0052720Y0049520D01*
X0081547Y0112848D02*
X0081547Y0105018D01*
X0082248Y0103327D01*
X0083542Y0102033D01*
X0085232Y0101333D01*
X0087062Y0101333D01*
X0088753Y0102033D01*
X0090047Y0103327D01*
X0090747Y0105018D01*
X0090747Y0112848D01*
X0090047Y0114539D01*
X0088753Y0115833D01*
X0087062Y0116533D01*
X0085232Y0116533D01*
X0083542Y0115833D01*
X0082248Y0114539D01*
X0081547Y0112848D01*
X0091547Y0112848D02*
X0091547Y0105018D01*
X0092248Y0103327D01*
X0093542Y0102033D01*
X0095232Y0101333D01*
X0097062Y0101333D01*
X0098753Y0102033D01*
X0100047Y0103327D01*
X0100747Y0105018D01*
X0100747Y0112848D01*
X0100047Y0114539D01*
X0098753Y0115833D01*
X0097062Y0116533D01*
X0095232Y0116533D01*
X0093542Y0115833D01*
X0092248Y0114539D01*
X0091547Y0112848D01*
X0055623Y0012665D02*
X0055623Y0014335D01*
X0054983Y0015879D01*
X0053802Y0017061D01*
X0052258Y0017700D01*
X0050587Y0017700D01*
X0049044Y0017061D01*
X0047862Y0015879D01*
X0047223Y0014335D01*
X0047223Y0012665D01*
X0047862Y0011121D01*
X0049044Y0009939D01*
X0050587Y0009300D01*
X0052258Y0009300D01*
X0053802Y0009939D01*
X0054983Y0011121D01*
X0055623Y0012665D01*
X0055623Y0032665D02*
X0055623Y0034335D01*
X0054983Y0035879D01*
X0053802Y0037061D01*
X0052258Y0037700D01*
X0050587Y0037700D01*
X0049044Y0037061D01*
X0047862Y0035879D01*
X0047223Y0034335D01*
X0047223Y0032665D01*
X0047862Y0031121D01*
X0049044Y0029939D01*
X0050587Y0029300D01*
X0052258Y0029300D01*
X0053802Y0029939D01*
X0054983Y0031121D01*
X0055623Y0032665D01*
X0092141Y0008595D02*
X0015813Y0008595D01*
X0100390Y0008595D02*
X0101929Y0008595D01*
X0110602Y0008595D02*
X0144867Y0008595D01*
X0048790Y0010193D02*
X0016341Y0010193D01*
X0054056Y0010193D02*
X0091665Y0010193D01*
X0100865Y0010193D02*
X0101479Y0010193D01*
X0111052Y0010193D02*
X0144339Y0010193D01*
X0047584Y0011792D02*
X0016341Y0011792D01*
X0055261Y0011792D02*
X0091665Y0011792D01*
X0100865Y0011792D02*
X0101465Y0011792D01*
X0111065Y0011792D02*
X0144339Y0011792D01*
X0047223Y0013390D02*
X0015868Y0013390D01*
X0055623Y0013390D02*
X0091665Y0013390D01*
X0100865Y0013390D02*
X0101465Y0013390D01*
X0111065Y0013390D02*
X0144812Y0013390D01*
X0047494Y0014989D02*
X0014889Y0014989D01*
X0055352Y0014989D02*
X0091665Y0014989D01*
X0100865Y0014989D02*
X0101465Y0014989D01*
X0106065Y0014989D02*
X0106465Y0014989D01*
X0111065Y0014989D02*
X0145792Y0014989D01*
X0008077Y0016587D02*
X0006892Y0016587D01*
X0012643Y0016587D02*
X0048571Y0016587D01*
X0054275Y0016587D02*
X0091665Y0016587D01*
X0100865Y0016587D02*
X0101465Y0016587D01*
X0106065Y0016587D02*
X0106465Y0016587D01*
X0111065Y0016587D02*
X0148038Y0016587D01*
X0152603Y0016587D02*
X0154772Y0016587D01*
X0091919Y0018186D02*
X0006892Y0018186D01*
X0100611Y0018186D02*
X0101715Y0018186D01*
X0106065Y0018186D02*
X0106465Y0018186D01*
X0110816Y0018186D02*
X0145145Y0018186D01*
X0092887Y0019784D02*
X0006892Y0019784D01*
X0099644Y0019784D02*
X0102604Y0019784D01*
X0106065Y0019784D02*
X0106465Y0019784D01*
X0109927Y0019784D02*
X0143773Y0019784D01*
X0105417Y0021383D02*
X0006892Y0021383D01*
X0106065Y0021383D02*
X0106465Y0021383D01*
X0107114Y0021383D02*
X0143232Y0021383D01*
X0143258Y0022981D02*
X0006892Y0022981D01*
X0006892Y0024580D02*
X0143920Y0024580D01*
X0145890Y0026178D02*
X0006892Y0026178D01*
X0006892Y0027777D02*
X0146017Y0027777D01*
X0050405Y0029375D02*
X0015544Y0029375D01*
X0052440Y0029375D02*
X0143955Y0029375D01*
X0048009Y0030974D02*
X0016473Y0030974D01*
X0054837Y0030974D02*
X0143280Y0030974D01*
X0047261Y0032573D02*
X0016700Y0032573D01*
X0055585Y0032573D02*
X0143232Y0032573D01*
X0047223Y0034171D02*
X0016361Y0034171D01*
X0055623Y0034171D02*
X0143751Y0034171D01*
X0047817Y0035770D02*
X0015273Y0035770D01*
X0055029Y0035770D02*
X0145092Y0035770D01*
X0049786Y0037368D02*
X0006892Y0037368D01*
X0053060Y0037368D02*
X0154772Y0037368D01*
X0144364Y0038967D02*
X0015135Y0038967D01*
X0016304Y0040565D02*
X0143449Y0040565D01*
X0143232Y0042164D02*
X0016700Y0042164D01*
X0016530Y0043762D02*
X0143582Y0043762D01*
X0144684Y0045361D02*
X0015682Y0045361D01*
X0013203Y0046959D02*
X0047684Y0046959D01*
X0050595Y0046959D02*
X0154772Y0046959D01*
X0045957Y0048558D02*
X0014726Y0048558D01*
X0052322Y0048558D02*
X0144773Y0048558D01*
X0045558Y0050156D02*
X0016134Y0050156D01*
X0052720Y0050156D02*
X0143619Y0050156D01*
X0045894Y0051755D02*
X0016700Y0051755D01*
X0052385Y0051755D02*
X0143232Y0051755D01*
X0046339Y0053353D02*
X0016700Y0053353D01*
X0051939Y0053353D02*
X0143412Y0053353D01*
X0046339Y0054952D02*
X0016037Y0054952D01*
X0051939Y0054952D02*
X0144275Y0054952D01*
X0046339Y0056550D02*
X0014190Y0056550D01*
X0051939Y0056550D02*
X0146788Y0056550D01*
X0046339Y0058149D02*
X0013767Y0058149D01*
X0051939Y0058149D02*
X0144972Y0058149D01*
X0150632Y0058149D02*
X0151032Y0058149D01*
X0046339Y0059747D02*
X0015916Y0059747D01*
X0051939Y0059747D02*
X0143595Y0059747D01*
X0150632Y0059747D02*
X0151032Y0059747D01*
X0046339Y0061346D02*
X0016627Y0061346D01*
X0051939Y0061346D02*
X0143077Y0061346D01*
X0150632Y0061346D02*
X0151032Y0061346D01*
X0046339Y0062944D02*
X0016700Y0062944D01*
X0051939Y0062944D02*
X0143121Y0062944D01*
X0150632Y0062944D02*
X0151032Y0062944D01*
X0046339Y0064543D02*
X0016207Y0064543D01*
X0051939Y0064543D02*
X0143744Y0064543D01*
X0150632Y0064543D02*
X0151032Y0064543D01*
X0046339Y0066141D02*
X0014901Y0066141D01*
X0051939Y0066141D02*
X0145379Y0066141D01*
X0150632Y0066141D02*
X0151032Y0066141D01*
X0009300Y0067740D02*
X0008900Y0067740D01*
X0013126Y0067740D02*
X0046339Y0067740D01*
X0051939Y0067740D02*
X0154772Y0067740D01*
X0009300Y0069338D02*
X0008900Y0069338D01*
X0015782Y0069338D02*
X0046339Y0069338D01*
X0051939Y0069338D02*
X0154772Y0069338D01*
X0009300Y0070937D02*
X0008900Y0070937D01*
X0016660Y0070937D02*
X0046339Y0070937D01*
X0051939Y0070937D02*
X0154772Y0070937D01*
X0046339Y0072535D02*
X0009300Y0072535D01*
X0051939Y0072535D02*
X0154772Y0072535D01*
X0009300Y0074134D02*
X0008900Y0074134D01*
X0016596Y0074134D02*
X0046339Y0074134D01*
X0051939Y0074134D02*
X0154772Y0074134D01*
X0009300Y0075732D02*
X0008900Y0075732D01*
X0015593Y0075732D02*
X0045708Y0075732D01*
X0052570Y0075732D02*
X0154772Y0075732D01*
X0045558Y0077331D02*
X0006892Y0077331D01*
X0052720Y0077331D02*
X0147422Y0077331D01*
X0046197Y0078929D02*
X0006892Y0078929D01*
X0052082Y0078929D02*
X0144953Y0078929D01*
X0144108Y0080528D02*
X0006892Y0080528D01*
X0006892Y0082126D02*
X0143941Y0082126D01*
X0144340Y0083725D02*
X0006892Y0083725D01*
X0006892Y0085323D02*
X0145512Y0085323D01*
X0154772Y0086922D02*
X0006892Y0086922D01*
X0006892Y0088520D02*
X0145362Y0088520D01*
X0144277Y0090119D02*
X0006892Y0090119D01*
X0006892Y0091717D02*
X0007630Y0091717D01*
X0013861Y0091717D02*
X0014261Y0091717D01*
X0020491Y0091717D02*
X0143941Y0091717D01*
X0014261Y0093316D02*
X0013861Y0093316D01*
X0021536Y0093316D02*
X0144171Y0093316D01*
X0145104Y0094914D02*
X0014261Y0094914D01*
X0014261Y0096513D02*
X0013861Y0096513D01*
X0021640Y0096513D02*
X0154772Y0096513D01*
X0007334Y0098111D02*
X0006892Y0098111D01*
X0013861Y0098111D02*
X0014261Y0098111D01*
X0020787Y0098111D02*
X0145771Y0098111D01*
X0009793Y0099710D02*
X0006892Y0099710D01*
X0013861Y0099710D02*
X0014261Y0099710D01*
X0018328Y0099710D02*
X0144447Y0099710D01*
X0008322Y0101308D02*
X0006892Y0101308D01*
X0019800Y0101308D02*
X0074847Y0101308D01*
X0075947Y0101308D02*
X0076347Y0101308D01*
X0077447Y0101308D02*
X0143941Y0101308D01*
X0006980Y0102907D02*
X0006892Y0102907D01*
X0021142Y0102907D02*
X0062668Y0102907D01*
X0069627Y0102907D02*
X0072413Y0102907D01*
X0075947Y0102907D02*
X0076347Y0102907D01*
X0079882Y0102907D02*
X0082668Y0102907D01*
X0089627Y0102907D02*
X0092668Y0102907D01*
X0099627Y0102907D02*
X0144001Y0102907D01*
X0061760Y0104506D02*
X0021661Y0104506D01*
X0070535Y0104506D02*
X0071564Y0104506D01*
X0075947Y0104506D02*
X0076347Y0104506D01*
X0080730Y0104506D02*
X0081760Y0104506D01*
X0090535Y0104506D02*
X0091760Y0104506D01*
X0100535Y0104506D02*
X0144695Y0104506D01*
X0061547Y0106104D02*
X0021613Y0106104D01*
X0070747Y0106104D02*
X0071347Y0106104D01*
X0075947Y0106104D02*
X0076347Y0106104D01*
X0080947Y0106104D02*
X0081547Y0106104D01*
X0090747Y0106104D02*
X0091547Y0106104D01*
X0100747Y0106104D02*
X0146799Y0106104D01*
X0007183Y0107703D02*
X0006892Y0107703D01*
X0020938Y0107703D02*
X0061547Y0107703D01*
X0070747Y0107703D02*
X0071347Y0107703D01*
X0075947Y0107703D02*
X0076347Y0107703D01*
X0080947Y0107703D02*
X0081547Y0107703D01*
X0090747Y0107703D02*
X0091547Y0107703D01*
X0100747Y0107703D02*
X0146525Y0107703D01*
X0009243Y0109301D02*
X0006892Y0109301D01*
X0018878Y0109301D02*
X0061547Y0109301D01*
X0070747Y0109301D02*
X0071347Y0109301D01*
X0080947Y0109301D02*
X0081547Y0109301D01*
X0090747Y0109301D02*
X0091547Y0109301D01*
X0100747Y0109301D02*
X0144616Y0109301D01*
X0061547Y0110900D02*
X0006892Y0110900D01*
X0070747Y0110900D02*
X0071347Y0110900D01*
X0080947Y0110900D02*
X0081547Y0110900D01*
X0090747Y0110900D02*
X0091547Y0110900D01*
X0100747Y0110900D02*
X0143954Y0110900D01*
X0061547Y0112498D02*
X0006892Y0112498D01*
X0070747Y0112498D02*
X0071377Y0112498D01*
X0080918Y0112498D02*
X0081547Y0112498D01*
X0090747Y0112498D02*
X0091547Y0112498D01*
X0100747Y0112498D02*
X0143941Y0112498D01*
X0062064Y0114097D02*
X0006892Y0114097D01*
X0070230Y0114097D02*
X0071862Y0114097D01*
X0080432Y0114097D02*
X0082064Y0114097D01*
X0090230Y0114097D02*
X0092064Y0114097D01*
X0100230Y0114097D02*
X0144494Y0114097D01*
X0083404Y0115695D02*
X0082231Y0115695D01*
X0088891Y0115695D02*
X0093404Y0115695D01*
X0098891Y0115695D02*
X0145884Y0115695D01*
X0147020Y0117294D02*
X0084603Y0117294D01*
X0151341Y0117294D02*
X0151741Y0117294D01*
X0144754Y0118892D02*
X0085440Y0118892D01*
X0151341Y0118892D02*
X0151741Y0118892D01*
X0143934Y0120491D02*
X0085632Y0120491D01*
X0151341Y0120491D02*
X0151741Y0120491D01*
X0143741Y0122089D02*
X0085632Y0122089D01*
X0085632Y0123688D02*
X0144092Y0123688D01*
X0145192Y0125286D02*
X0085632Y0125286D01*
X0085632Y0126885D02*
X0147690Y0126885D01*
X0146290Y0128483D02*
X0085632Y0128483D01*
X0085632Y0130082D02*
X0145628Y0130082D01*
X0145520Y0131680D02*
X0085632Y0131680D01*
X0085632Y0133279D02*
X0145751Y0133279D01*
X0146414Y0134877D02*
X0085632Y0134877D01*
X0033391Y0105075D02*
X0033864Y0104602D01*
X0037761Y0104602D01*
X0042446Y0109287D02*
X0044809Y0109287D01*
X0065793Y0109287D02*
X0066147Y0108933D01*
X0064798Y0043815D02*
X0043706Y0043815D01*
X0041462Y0041571D01*
X0041265Y0041571D01*
X0032407Y0032713D01*
X0009376Y0032713D01*
X0009100Y0032437D01*
X0114691Y0057909D02*
X0116187Y0057909D01*
X0141462Y0089799D02*
X0139927Y0091335D01*
X0141462Y0081728D02*
X0141856Y0081335D01*
X0151029Y0081335D02*
X0151541Y0081846D01*
X0079887Y0090823D02*
X0074887Y0090823D01*
X0066069Y0108854D02*
X0066147Y0108933D01*
X0098480Y0040783D02*
X0098598Y0040665D01*
X0064798Y0050114D02*
X0064680Y0050232D01*
X0080124Y0065439D02*
X0080124Y0082713D01*
X0079887Y0082949D01*
X0098598Y0046965D02*
X0105124Y0046965D01*
X0107407Y0049248D01*
X0107407Y0058697D01*
X0125320Y0076610D01*
X0125320Y0082083D01*
X0125793Y0082555D01*
X0081541Y0013461D02*
X0096069Y0013461D01*
X0096265Y0013657D01*
D33*
X0046423Y0022200D02*
X0056423Y0022200D01*
X0056423Y0024700D01*
X0046423Y0024700D01*
X0046423Y0022200D01*
X0046423Y0027200D02*
X0051423Y0027200D01*
X0051423Y0019800D02*
X0046423Y0019800D01*
X0051423Y0027200D02*
X0056423Y0027200D01*
X0056423Y0019800D02*
X0051423Y0019800D01*
D34*
X0051423Y0013500D03*
X0051423Y0033500D03*
D35*
X0051423Y0013500D03*
X0051423Y0013500D03*
X0051423Y0033500D03*
X0051423Y0033500D03*
D36*
X0051423Y0023500D03*
D37*
X0079887Y0082949D03*
X0079887Y0082949D03*
X0079887Y0090823D03*
X0079887Y0090823D03*
D38*
X0079887Y0082949D03*
X0079887Y0090823D03*
D39*
X0079881Y0089765D03*
X0079881Y0083965D03*
D40*
X0079887Y0086886D03*
D41*
X0127958Y0047909D03*
X0127958Y0047909D03*
X0120084Y0047909D03*
X0120084Y0047909D03*
X0128352Y0033736D03*
X0128352Y0033736D03*
X0120478Y0033736D03*
X0120478Y0033736D03*
X0129021Y0017004D03*
X0129021Y0017004D03*
X0121147Y0017004D03*
X0121147Y0017004D03*
X0128037Y0061886D03*
X0128037Y0061886D03*
X0120163Y0061886D03*
X0120163Y0061886D03*
X0073667Y0013461D03*
X0073667Y0013461D03*
X0081541Y0013461D03*
X0081541Y0013461D03*
X0125163Y0091335D03*
X0125163Y0091335D03*
X0133037Y0091335D03*
X0133037Y0091335D03*
X0107919Y0091138D03*
X0107919Y0091138D03*
X0115793Y0091138D03*
X0115793Y0091138D03*
D42*
X0127958Y0047909D03*
X0120084Y0047909D03*
X0128352Y0033736D03*
X0120478Y0033736D03*
X0129021Y0017004D03*
X0121147Y0017004D03*
X0128037Y0061886D03*
X0120163Y0061886D03*
X0073667Y0013461D03*
X0081541Y0013461D03*
X0125163Y0091335D03*
X0133037Y0091335D03*
X0107919Y0091138D03*
X0115793Y0091138D03*
D43*
X0121142Y0047904D03*
X0126942Y0047904D03*
X0121535Y0033730D03*
X0127335Y0033730D03*
X0122205Y0016998D03*
X0128005Y0016998D03*
X0121220Y0061880D03*
X0127020Y0061880D03*
X0080483Y0013467D03*
X0074683Y0013467D03*
X0131980Y0091341D03*
X0126180Y0091341D03*
X0114735Y0091144D03*
X0108935Y0091144D03*
D44*
X0124021Y0047909D03*
X0124415Y0033736D03*
X0125084Y0017004D03*
X0124100Y0061886D03*
X0077604Y0013461D03*
X0129100Y0091335D03*
X0111856Y0091138D03*
D45*
X0072210Y0083224D03*
X0072210Y0083224D03*
X0065242Y0083028D03*
X0065242Y0083028D03*
D46*
X0072210Y0083224D03*
X0065242Y0083028D03*
D47*
X0064798Y0059563D03*
X0064798Y0059563D03*
X0064798Y0056413D03*
X0064798Y0056413D03*
X0064798Y0053264D03*
X0064798Y0053264D03*
X0064798Y0050114D03*
X0064798Y0050114D03*
X0064798Y0046965D03*
X0064798Y0046965D03*
X0064798Y0043815D03*
X0064798Y0043815D03*
X0064798Y0040665D03*
X0064798Y0040665D03*
X0064798Y0037516D03*
X0064798Y0037516D03*
X0098598Y0037516D03*
X0098598Y0037516D03*
X0098598Y0040665D03*
X0098598Y0040665D03*
X0098598Y0043815D03*
X0098598Y0043815D03*
X0098598Y0046965D03*
X0098598Y0046965D03*
X0098598Y0050114D03*
X0098598Y0050114D03*
X0098598Y0053264D03*
X0098598Y0053264D03*
X0098598Y0056413D03*
X0098598Y0056413D03*
X0098598Y0059563D03*
X0098598Y0059563D03*
D48*
X0064798Y0059563D03*
X0064798Y0056413D03*
X0064798Y0053264D03*
X0064798Y0050114D03*
X0064798Y0046965D03*
X0064798Y0043815D03*
X0064798Y0040665D03*
X0064798Y0037516D03*
X0098598Y0037516D03*
X0098598Y0040665D03*
X0098598Y0043815D03*
X0098598Y0046965D03*
X0098598Y0050114D03*
X0098598Y0053264D03*
X0098598Y0056413D03*
X0098598Y0059563D03*
D49*
X0070675Y0031639D03*
X0070675Y0031639D03*
X0073824Y0031639D03*
X0073824Y0031639D03*
X0076974Y0031639D03*
X0076974Y0031639D03*
X0080124Y0031639D03*
X0080124Y0031639D03*
X0083273Y0031639D03*
X0083273Y0031639D03*
X0086423Y0031639D03*
X0086423Y0031639D03*
X0089572Y0031639D03*
X0089572Y0031639D03*
X0092722Y0031639D03*
X0092722Y0031639D03*
X0092722Y0065439D03*
X0092722Y0065439D03*
X0089572Y0065439D03*
X0089572Y0065439D03*
X0086423Y0065439D03*
X0086423Y0065439D03*
X0083273Y0065439D03*
X0083273Y0065439D03*
X0080124Y0065439D03*
X0080124Y0065439D03*
X0076974Y0065439D03*
X0076974Y0065439D03*
X0073824Y0065439D03*
X0073824Y0065439D03*
X0070675Y0065439D03*
X0070675Y0065439D03*
D50*
X0070675Y0031639D03*
X0073824Y0031639D03*
X0076974Y0031639D03*
X0080124Y0031639D03*
X0083273Y0031639D03*
X0086423Y0031639D03*
X0089572Y0031639D03*
X0092722Y0031639D03*
X0092722Y0065439D03*
X0089572Y0065439D03*
X0086423Y0065439D03*
X0083273Y0065439D03*
X0080124Y0065439D03*
X0076974Y0065439D03*
X0073824Y0065439D03*
X0070675Y0065439D03*
D51*
X0065748Y0059563D03*
X0065748Y0056413D03*
X0065748Y0053264D03*
X0065748Y0050114D03*
X0065748Y0046965D03*
X0065748Y0043815D03*
X0065748Y0040665D03*
X0065748Y0037516D03*
X0097648Y0037516D03*
X0097648Y0040665D03*
X0097648Y0043815D03*
X0097648Y0046965D03*
X0097648Y0050114D03*
X0097648Y0053264D03*
X0097648Y0056413D03*
X0097648Y0059563D03*
D52*
X0070675Y0032589D03*
X0073824Y0032589D03*
X0076974Y0032589D03*
X0080124Y0032589D03*
X0083273Y0032589D03*
X0086423Y0032589D03*
X0089572Y0032589D03*
X0092722Y0032589D03*
X0092722Y0064489D03*
X0089572Y0064489D03*
X0086423Y0064489D03*
X0083273Y0064489D03*
X0080124Y0064489D03*
X0076974Y0064489D03*
X0073824Y0064489D03*
X0070675Y0064489D03*
D53*
X0132801Y0075823D03*
X0063313Y0011453D03*
X0105439Y0079169D03*
X0049139Y0076807D03*
X0049139Y0050232D03*
D54*
X0132801Y0075823D03*
X0132801Y0075823D03*
X0063313Y0011453D03*
X0063313Y0011453D03*
X0105439Y0079169D03*
X0105439Y0079169D03*
X0049139Y0076807D03*
X0049139Y0076807D03*
X0049139Y0050232D03*
X0049139Y0050232D03*
D55*
X0033391Y0105075D02*
X0014061Y0105075D01*
X0037761Y0104602D02*
X0042446Y0109287D01*
X0044809Y0109287D02*
X0065793Y0109287D01*
X0111738Y0045508D02*
X0111738Y0054957D01*
X0114691Y0057909D01*
X0116187Y0057909D02*
X0120163Y0061886D01*
X0111738Y0045508D02*
X0106895Y0040665D01*
X0120163Y0061886D02*
X0120163Y0066531D01*
X0124927Y0071295D01*
X0140990Y0071295D01*
X0151541Y0081846D01*
X0139927Y0091335D02*
X0133037Y0091335D01*
X0141462Y0089799D02*
X0141462Y0081728D01*
X0141856Y0081335D02*
X0151029Y0081335D01*
X0074887Y0090823D02*
X0066069Y0099642D01*
X0066069Y0108854D01*
X0049139Y0050232D02*
X0049139Y0076807D01*
X0049139Y0104957D01*
X0044809Y0109287D01*
X0100517Y0040665D02*
X0087250Y0040665D01*
X0082899Y0045016D01*
X0077683Y0050232D01*
X0064917Y0050232D01*
X0064798Y0050114D01*
X0064798Y0043815D02*
X0081698Y0043815D01*
X0082899Y0045016D01*
D56*
X0098598Y0040665D02*
X0100517Y0040665D01*
X0106895Y0040665D01*
X0064680Y0050232D02*
X0049139Y0050232D01*
M02*
