G75*
%MOIN*%
%OFA0B0*%
%FSLAX25Y25*%
%IPPOS*%
%LPD*%
%AMOC8*
5,1,8,0,0,1.08239X$1,22.5*
%
%ADD10C,0.06000*%
%ADD11C,0.05200*%
%ADD12C,0.01600*%
%ADD13C,0.03962*%
%ADD14C,0.02400*%
D10*
X0006100Y0032437D02*
X0012100Y0032437D01*
X0012100Y0042437D02*
X0006100Y0042437D01*
X0006100Y0052437D02*
X0012100Y0052437D01*
X0012100Y0062437D02*
X0006100Y0062437D01*
X0006100Y0072437D02*
X0012100Y0072437D01*
X0011061Y0095075D02*
X0017061Y0095075D01*
X0017061Y0105075D02*
X0011061Y0105075D01*
X0066147Y0105933D02*
X0066147Y0111933D01*
X0076147Y0111933D02*
X0076147Y0105933D01*
X0086147Y0105933D02*
X0086147Y0111933D01*
X0096147Y0111933D02*
X0096147Y0105933D01*
X0147832Y0062004D02*
X0153832Y0062004D01*
X0153832Y0052004D02*
X0147832Y0052004D01*
X0147832Y0042004D02*
X0153832Y0042004D01*
X0153832Y0032004D02*
X0147832Y0032004D01*
X0147832Y0022004D02*
X0153832Y0022004D01*
X0106265Y0016657D02*
X0106265Y0010657D01*
X0096265Y0010657D02*
X0096265Y0016657D01*
X0148541Y0081846D02*
X0154541Y0081846D01*
X0154541Y0091846D02*
X0148541Y0091846D01*
X0148541Y0101846D02*
X0154541Y0101846D01*
X0154541Y0111846D02*
X0148541Y0111846D01*
X0148541Y0121846D02*
X0154541Y0121846D01*
D11*
X0051423Y0033500D03*
X0051423Y0013500D03*
D12*
X0015430Y0007671D02*
X0014760Y0007001D01*
X0093417Y0007001D01*
X0092366Y0008052D01*
X0091665Y0009742D01*
X0091665Y0017572D01*
X0092366Y0019263D01*
X0093660Y0020557D01*
X0095350Y0021257D01*
X0097180Y0021257D01*
X0098871Y0020557D01*
X0100165Y0019263D01*
X0100865Y0017572D01*
X0100865Y0009742D01*
X0100165Y0008052D01*
X0099114Y0007001D01*
X0103134Y0007001D01*
X0102604Y0007530D01*
X0102160Y0008142D01*
X0101817Y0008815D01*
X0101584Y0009533D01*
X0101465Y0010280D01*
X0101465Y0013457D01*
X0106065Y0013457D01*
X0106065Y0013857D01*
X0101465Y0013857D01*
X0101465Y0017035D01*
X0101584Y0017781D01*
X0101817Y0018500D01*
X0102160Y0019173D01*
X0102604Y0019784D01*
X0099644Y0019784D01*
X0100611Y0018186D02*
X0101715Y0018186D01*
X0101465Y0016587D02*
X0100865Y0016587D01*
X0100865Y0014989D02*
X0101465Y0014989D01*
X0101465Y0013390D02*
X0100865Y0013390D01*
X0100865Y0011792D02*
X0101465Y0011792D01*
X0101479Y0010193D02*
X0100865Y0010193D01*
X0100390Y0008595D02*
X0101929Y0008595D01*
X0106465Y0013457D02*
X0106465Y0013857D01*
X0111065Y0013857D01*
X0111065Y0017035D01*
X0110947Y0017781D01*
X0110714Y0018500D01*
X0110371Y0019173D01*
X0109927Y0019784D01*
X0143773Y0019784D01*
X0143933Y0019398D02*
X0145227Y0018104D01*
X0146917Y0017404D01*
X0154747Y0017404D01*
X0154772Y0017414D01*
X0154772Y0015066D01*
X0153708Y0016130D01*
X0151510Y0017040D01*
X0149131Y0017040D01*
X0146932Y0016130D01*
X0145250Y0014447D01*
X0144339Y0012249D01*
X0144339Y0009869D01*
X0145250Y0007671D01*
X0145920Y0007001D01*
X0109397Y0007001D01*
X0109927Y0007530D01*
X0110371Y0008142D01*
X0110714Y0008815D01*
X0110947Y0009533D01*
X0111065Y0010280D01*
X0111065Y0013457D01*
X0106465Y0013457D01*
X0106465Y0013858D02*
X0106065Y0013858D01*
X0106065Y0021457D01*
X0105888Y0021457D01*
X0105141Y0021339D01*
X0104423Y0021106D01*
X0103750Y0020763D01*
X0103138Y0020319D01*
X0102604Y0019784D01*
X0105417Y0021383D02*
X0006892Y0021383D01*
X0006892Y0022981D02*
X0143258Y0022981D01*
X0143232Y0022919D02*
X0143232Y0021089D01*
X0143933Y0019398D01*
X0145145Y0018186D02*
X0110816Y0018186D01*
X0111065Y0016587D02*
X0148038Y0016587D01*
X0145792Y0014989D02*
X0111065Y0014989D01*
X0111065Y0013390D02*
X0144812Y0013390D01*
X0144339Y0011792D02*
X0111065Y0011792D01*
X0111052Y0010193D02*
X0144339Y0010193D01*
X0144867Y0008595D02*
X0110602Y0008595D01*
X0106465Y0013858D02*
X0106465Y0021457D01*
X0106643Y0021457D01*
X0107389Y0021339D01*
X0108108Y0021106D01*
X0108781Y0020763D01*
X0109392Y0020319D01*
X0109927Y0019784D01*
X0107114Y0021383D02*
X0143232Y0021383D01*
X0143232Y0022919D02*
X0143933Y0024610D01*
X0145227Y0025904D01*
X0146917Y0026604D01*
X0154747Y0026604D01*
X0154772Y0026593D01*
X0154772Y0027414D01*
X0154747Y0027404D01*
X0146917Y0027404D01*
X0145227Y0028104D01*
X0143933Y0029398D01*
X0143232Y0031089D01*
X0143232Y0032919D01*
X0143933Y0034610D01*
X0145227Y0035904D01*
X0146917Y0036604D01*
X0154747Y0036604D01*
X0154772Y0036593D01*
X0154772Y0037414D01*
X0154747Y0037404D01*
X0146917Y0037404D01*
X0145227Y0038104D01*
X0143933Y0039398D01*
X0143232Y0041089D01*
X0143232Y0042919D01*
X0143933Y0044610D01*
X0145227Y0045904D01*
X0146917Y0046604D01*
X0154747Y0046604D01*
X0154772Y0046593D01*
X0154772Y0047414D01*
X0154747Y0047404D01*
X0146917Y0047404D01*
X0145227Y0048104D01*
X0143933Y0049398D01*
X0143232Y0051089D01*
X0143232Y0052919D01*
X0143933Y0054610D01*
X0145227Y0055904D01*
X0146917Y0056604D01*
X0154747Y0056604D01*
X0154772Y0056593D01*
X0154772Y0057293D01*
X0154210Y0057204D01*
X0151032Y0057204D01*
X0151032Y0061804D01*
X0150632Y0061804D01*
X0143032Y0061804D01*
X0143032Y0061626D01*
X0143150Y0060880D01*
X0143384Y0060161D01*
X0143727Y0059488D01*
X0144171Y0058877D01*
X0144705Y0058343D01*
X0145317Y0057899D01*
X0145990Y0057556D01*
X0146708Y0057322D01*
X0147455Y0057204D01*
X0150632Y0057204D01*
X0150632Y0061804D01*
X0150632Y0062204D01*
X0143032Y0062204D01*
X0143032Y0062382D01*
X0143150Y0063128D01*
X0143384Y0063846D01*
X0143727Y0064520D01*
X0144171Y0065131D01*
X0144705Y0065665D01*
X0145317Y0066109D01*
X0145990Y0066452D01*
X0146708Y0066686D01*
X0147455Y0066804D01*
X0150632Y0066804D01*
X0150632Y0062204D01*
X0151032Y0062204D01*
X0151032Y0066804D01*
X0154210Y0066804D01*
X0154772Y0066715D01*
X0154772Y0077246D01*
X0147626Y0077246D01*
X0145935Y0077947D01*
X0144641Y0079241D01*
X0143941Y0080931D01*
X0143941Y0082761D01*
X0144641Y0084452D01*
X0145935Y0085746D01*
X0147626Y0086446D01*
X0154772Y0086446D01*
X0154772Y0087246D01*
X0147626Y0087246D01*
X0145935Y0087947D01*
X0144641Y0089241D01*
X0143941Y0090931D01*
X0143941Y0092761D01*
X0144641Y0094452D01*
X0145935Y0095746D01*
X0147626Y0096446D01*
X0154772Y0096446D01*
X0154772Y0097246D01*
X0147626Y0097246D01*
X0145935Y0097947D01*
X0144641Y0099241D01*
X0143941Y0100931D01*
X0143941Y0102761D01*
X0144641Y0104452D01*
X0145935Y0105746D01*
X0147626Y0106446D01*
X0154772Y0106446D01*
X0154772Y0107246D01*
X0147626Y0107246D01*
X0145935Y0107947D01*
X0144641Y0109241D01*
X0143941Y0110931D01*
X0143941Y0112761D01*
X0144641Y0114452D01*
X0145935Y0115746D01*
X0147626Y0116446D01*
X0154772Y0116446D01*
X0154772Y0117046D01*
X0151741Y0117046D01*
X0151741Y0121646D01*
X0151341Y0121646D01*
X0151341Y0117046D01*
X0148163Y0117046D01*
X0147417Y0117165D01*
X0146698Y0117398D01*
X0146025Y0117741D01*
X0145414Y0118185D01*
X0144880Y0118719D01*
X0144436Y0119331D01*
X0144093Y0120004D01*
X0143859Y0120722D01*
X0143741Y0121469D01*
X0143741Y0121646D01*
X0151341Y0121646D01*
X0151341Y0122046D01*
X0143741Y0122046D01*
X0143741Y0122224D01*
X0143859Y0122970D01*
X0144093Y0123689D01*
X0144436Y0124362D01*
X0144880Y0124973D01*
X0145414Y0125508D01*
X0146025Y0125952D01*
X0146698Y0126295D01*
X0147417Y0126528D01*
X0147960Y0126614D01*
X0146431Y0128143D01*
X0145520Y0130342D01*
X0145520Y0132721D01*
X0146431Y0134920D01*
X0146708Y0135196D01*
X0085632Y0135196D01*
X0085632Y0119356D01*
X0084902Y0117592D01*
X0083551Y0116242D01*
X0081787Y0115511D01*
X0079357Y0115511D01*
X0079808Y0115060D01*
X0080253Y0114449D01*
X0080596Y0113776D01*
X0080829Y0113057D01*
X0080947Y0112311D01*
X0080947Y0109133D01*
X0076347Y0109133D01*
X0076347Y0108733D01*
X0076347Y0101133D01*
X0076525Y0101133D01*
X0077271Y0101251D01*
X0077990Y0101485D01*
X0078663Y0101828D01*
X0079274Y0102272D01*
X0079808Y0102806D01*
X0080253Y0103417D01*
X0080596Y0104091D01*
X0080829Y0104809D01*
X0080947Y0105555D01*
X0080947Y0108733D01*
X0076347Y0108733D01*
X0075947Y0108733D01*
X0071347Y0108733D01*
X0071347Y0105555D01*
X0071465Y0104809D01*
X0071699Y0104091D01*
X0072042Y0103417D01*
X0072486Y0102806D01*
X0073020Y0102272D01*
X0073631Y0101828D01*
X0074305Y0101485D01*
X0075023Y0101251D01*
X0075769Y0101133D01*
X0075947Y0101133D01*
X0075947Y0108733D01*
X0075947Y0109133D01*
X0071347Y0109133D01*
X0071347Y0112311D01*
X0071465Y0113057D01*
X0071699Y0113776D01*
X0072042Y0114449D01*
X0072486Y0115060D01*
X0072937Y0115511D01*
X0069075Y0115511D01*
X0070047Y0114539D01*
X0070747Y0112848D01*
X0070747Y0105018D01*
X0070047Y0103327D01*
X0068753Y0102033D01*
X0067062Y0101333D01*
X0065232Y0101333D01*
X0063542Y0102033D01*
X0062248Y0103327D01*
X0061547Y0105018D01*
X0061547Y0112848D01*
X0062248Y0114539D01*
X0063220Y0115511D01*
X0006892Y0115511D01*
X0006892Y0107031D01*
X0007161Y0107680D01*
X0008455Y0108974D01*
X0010146Y0109675D01*
X0017976Y0109675D01*
X0019666Y0108974D01*
X0020960Y0107680D01*
X0021661Y0105990D01*
X0021661Y0104160D01*
X0020960Y0102469D01*
X0019666Y0101175D01*
X0017976Y0100475D01*
X0010146Y0100475D01*
X0008455Y0101175D01*
X0007161Y0102469D01*
X0006892Y0103118D01*
X0006892Y0097467D01*
X0006955Y0097591D01*
X0007399Y0098202D01*
X0007934Y0098736D01*
X0008545Y0099180D01*
X0009218Y0099523D01*
X0009937Y0099757D01*
X0010683Y0099875D01*
X0013861Y0099875D01*
X0013861Y0095275D01*
X0014261Y0095275D01*
X0021861Y0095275D01*
X0021861Y0095453D01*
X0021742Y0096199D01*
X0021509Y0096917D01*
X0021166Y0097591D01*
X0020722Y0098202D01*
X0020188Y0098736D01*
X0019576Y0099180D01*
X0018903Y0099523D01*
X0018185Y0099757D01*
X0017438Y0099875D01*
X0014261Y0099875D01*
X0014261Y0095275D01*
X0014261Y0094875D01*
X0021861Y0094875D01*
X0021861Y0094697D01*
X0021742Y0093951D01*
X0021509Y0093232D01*
X0021166Y0092559D01*
X0020722Y0091948D01*
X0020188Y0091414D01*
X0019576Y0090969D01*
X0018903Y0090626D01*
X0018185Y0090393D01*
X0017438Y0090275D01*
X0014261Y0090275D01*
X0014261Y0094875D01*
X0013861Y0094875D01*
X0013861Y0090275D01*
X0010683Y0090275D01*
X0009937Y0090393D01*
X0009218Y0090626D01*
X0008545Y0090969D01*
X0007934Y0091414D01*
X0007399Y0091948D01*
X0006955Y0092559D01*
X0006892Y0092683D01*
X0006892Y0077237D01*
X0008900Y0077237D01*
X0008900Y0072637D01*
X0009300Y0072637D01*
X0016900Y0072637D01*
X0016900Y0072815D01*
X0016782Y0073561D01*
X0016548Y0074280D01*
X0016205Y0074953D01*
X0015761Y0075564D01*
X0015227Y0076098D01*
X0014616Y0076542D01*
X0013943Y0076885D01*
X0013224Y0077119D01*
X0012478Y0077237D01*
X0009300Y0077237D01*
X0009300Y0072637D01*
X0009300Y0072237D01*
X0009300Y0067637D01*
X0012478Y0067637D01*
X0013224Y0067755D01*
X0013943Y0067989D01*
X0014616Y0068332D01*
X0015227Y0068776D01*
X0015761Y0069310D01*
X0016205Y0069921D01*
X0016548Y0070594D01*
X0016782Y0071313D01*
X0016900Y0072059D01*
X0016900Y0072237D01*
X0009300Y0072237D01*
X0008900Y0072237D01*
X0008900Y0067637D01*
X0006892Y0067637D01*
X0006892Y0067037D01*
X0013015Y0067037D01*
X0014706Y0066337D01*
X0016000Y0065043D01*
X0016700Y0063352D01*
X0016700Y0061522D01*
X0016000Y0059831D01*
X0014706Y0058537D01*
X0013015Y0057837D01*
X0006892Y0057837D01*
X0006892Y0057037D01*
X0013015Y0057037D01*
X0014706Y0056337D01*
X0016000Y0055043D01*
X0016700Y0053352D01*
X0016700Y0051522D01*
X0016000Y0049831D01*
X0014706Y0048537D01*
X0013015Y0047837D01*
X0006892Y0047837D01*
X0006892Y0047037D01*
X0013015Y0047037D01*
X0014706Y0046337D01*
X0016000Y0045043D01*
X0016700Y0043352D01*
X0016700Y0041522D01*
X0016000Y0039831D01*
X0014706Y0038537D01*
X0013015Y0037837D01*
X0006892Y0037837D01*
X0006892Y0037037D01*
X0013015Y0037037D01*
X0014706Y0036337D01*
X0016000Y0035043D01*
X0016700Y0033352D01*
X0016700Y0031522D01*
X0016000Y0029831D01*
X0014706Y0028537D01*
X0013015Y0027837D01*
X0006892Y0027837D01*
X0006892Y0016050D01*
X0006972Y0016130D01*
X0009170Y0017040D01*
X0011550Y0017040D01*
X0013748Y0016130D01*
X0015430Y0014447D01*
X0016341Y0012249D01*
X0016341Y0009869D01*
X0015430Y0007671D01*
X0015813Y0008595D02*
X0092141Y0008595D01*
X0091665Y0010193D02*
X0054056Y0010193D01*
X0053802Y0009939D02*
X0054983Y0011121D01*
X0055623Y0012665D01*
X0055623Y0014335D01*
X0054983Y0015879D01*
X0053802Y0017061D01*
X0052258Y0017700D01*
X0050587Y0017700D01*
X0049044Y0017061D01*
X0047862Y0015879D01*
X0047223Y0014335D01*
X0047223Y0012665D01*
X0047862Y0011121D01*
X0049044Y0009939D01*
X0050587Y0009300D01*
X0052258Y0009300D01*
X0053802Y0009939D01*
X0055261Y0011792D02*
X0091665Y0011792D01*
X0091665Y0013390D02*
X0055623Y0013390D01*
X0055352Y0014989D02*
X0091665Y0014989D01*
X0091665Y0016587D02*
X0054275Y0016587D01*
X0048571Y0016587D02*
X0012643Y0016587D01*
X0014889Y0014989D02*
X0047494Y0014989D01*
X0047223Y0013390D02*
X0015868Y0013390D01*
X0016341Y0011792D02*
X0047584Y0011792D01*
X0048790Y0010193D02*
X0016341Y0010193D01*
X0008077Y0016587D02*
X0006892Y0016587D01*
X0006892Y0018186D02*
X0091919Y0018186D01*
X0092887Y0019784D02*
X0006892Y0019784D01*
X0006892Y0024580D02*
X0143920Y0024580D01*
X0145890Y0026178D02*
X0006892Y0026178D01*
X0006892Y0027777D02*
X0146017Y0027777D01*
X0143955Y0029375D02*
X0052440Y0029375D01*
X0052258Y0029300D02*
X0053802Y0029939D01*
X0054983Y0031121D01*
X0055623Y0032665D01*
X0055623Y0034335D01*
X0054983Y0035879D01*
X0053802Y0037061D01*
X0052258Y0037700D01*
X0050587Y0037700D01*
X0049044Y0037061D01*
X0047862Y0035879D01*
X0047223Y0034335D01*
X0047223Y0032665D01*
X0047862Y0031121D01*
X0049044Y0029939D01*
X0050587Y0029300D01*
X0052258Y0029300D01*
X0050405Y0029375D02*
X0015544Y0029375D01*
X0016473Y0030974D02*
X0048009Y0030974D01*
X0047261Y0032573D02*
X0016700Y0032573D01*
X0016361Y0034171D02*
X0047223Y0034171D01*
X0047817Y0035770D02*
X0015273Y0035770D01*
X0015135Y0038967D02*
X0144364Y0038967D01*
X0143449Y0040565D02*
X0016304Y0040565D01*
X0016700Y0042164D02*
X0143232Y0042164D01*
X0143582Y0043762D02*
X0016530Y0043762D01*
X0015682Y0045361D02*
X0144684Y0045361D01*
X0144773Y0048558D02*
X0052322Y0048558D01*
X0052175Y0048204D02*
X0052720Y0049520D01*
X0052720Y0050945D01*
X0052175Y0052261D01*
X0051939Y0052497D01*
X0051939Y0074543D01*
X0052175Y0074779D01*
X0052720Y0076095D01*
X0052720Y0077519D01*
X0052175Y0078836D01*
X0051168Y0079843D01*
X0049852Y0080388D01*
X0048427Y0080388D01*
X0047111Y0079843D01*
X0046103Y0078836D01*
X0045558Y0077519D01*
X0045558Y0076095D01*
X0046103Y0074779D01*
X0046339Y0074543D01*
X0046339Y0052497D01*
X0046103Y0052261D01*
X0045558Y0050945D01*
X0045558Y0049520D01*
X0046103Y0048204D01*
X0047111Y0047196D01*
X0048427Y0046651D01*
X0049852Y0046651D01*
X0051168Y0047196D01*
X0052175Y0048204D01*
X0050595Y0046959D02*
X0154772Y0046959D01*
X0146788Y0056550D02*
X0051939Y0056550D01*
X0051939Y0054952D02*
X0144275Y0054952D01*
X0143412Y0053353D02*
X0051939Y0053353D01*
X0052385Y0051755D02*
X0143232Y0051755D01*
X0143619Y0050156D02*
X0052720Y0050156D01*
X0047684Y0046959D02*
X0013203Y0046959D01*
X0014726Y0048558D02*
X0045957Y0048558D01*
X0045558Y0050156D02*
X0016134Y0050156D01*
X0016700Y0051755D02*
X0045894Y0051755D01*
X0046339Y0053353D02*
X0016700Y0053353D01*
X0016037Y0054952D02*
X0046339Y0054952D01*
X0046339Y0056550D02*
X0014190Y0056550D01*
X0013767Y0058149D02*
X0046339Y0058149D01*
X0046339Y0059747D02*
X0015916Y0059747D01*
X0016627Y0061346D02*
X0046339Y0061346D01*
X0046339Y0062944D02*
X0016700Y0062944D01*
X0016207Y0064543D02*
X0046339Y0064543D01*
X0046339Y0066141D02*
X0014901Y0066141D01*
X0013126Y0067740D02*
X0046339Y0067740D01*
X0046339Y0069338D02*
X0015782Y0069338D01*
X0016660Y0070937D02*
X0046339Y0070937D01*
X0046339Y0072535D02*
X0009300Y0072535D01*
X0009300Y0070937D02*
X0008900Y0070937D01*
X0008900Y0069338D02*
X0009300Y0069338D01*
X0009300Y0067740D02*
X0008900Y0067740D01*
X0008900Y0074134D02*
X0009300Y0074134D01*
X0009300Y0075732D02*
X0008900Y0075732D01*
X0006892Y0077331D02*
X0045558Y0077331D01*
X0045708Y0075732D02*
X0015593Y0075732D01*
X0016596Y0074134D02*
X0046339Y0074134D01*
X0046197Y0078929D02*
X0006892Y0078929D01*
X0006892Y0080528D02*
X0144108Y0080528D01*
X0143941Y0082126D02*
X0006892Y0082126D01*
X0006892Y0083725D02*
X0144340Y0083725D01*
X0145512Y0085323D02*
X0006892Y0085323D01*
X0006892Y0086922D02*
X0154772Y0086922D01*
X0145362Y0088520D02*
X0006892Y0088520D01*
X0006892Y0090119D02*
X0144277Y0090119D01*
X0143941Y0091717D02*
X0020491Y0091717D01*
X0021536Y0093316D02*
X0144171Y0093316D01*
X0145104Y0094914D02*
X0014261Y0094914D01*
X0014261Y0093316D02*
X0013861Y0093316D01*
X0013861Y0091717D02*
X0014261Y0091717D01*
X0014261Y0096513D02*
X0013861Y0096513D01*
X0013861Y0098111D02*
X0014261Y0098111D01*
X0014261Y0099710D02*
X0013861Y0099710D01*
X0009793Y0099710D02*
X0006892Y0099710D01*
X0006892Y0101308D02*
X0008322Y0101308D01*
X0006980Y0102907D02*
X0006892Y0102907D01*
X0006892Y0098111D02*
X0007334Y0098111D01*
X0007630Y0091717D02*
X0006892Y0091717D01*
X0018328Y0099710D02*
X0144447Y0099710D01*
X0143941Y0101308D02*
X0077447Y0101308D01*
X0076347Y0101308D02*
X0075947Y0101308D01*
X0074847Y0101308D02*
X0019800Y0101308D01*
X0021142Y0102907D02*
X0062668Y0102907D01*
X0061760Y0104506D02*
X0021661Y0104506D01*
X0021613Y0106104D02*
X0061547Y0106104D01*
X0061547Y0107703D02*
X0020938Y0107703D01*
X0018878Y0109301D02*
X0061547Y0109301D01*
X0061547Y0110900D02*
X0006892Y0110900D01*
X0006892Y0112498D02*
X0061547Y0112498D01*
X0062064Y0114097D02*
X0006892Y0114097D01*
X0006892Y0109301D02*
X0009243Y0109301D01*
X0007183Y0107703D02*
X0006892Y0107703D01*
X0020787Y0098111D02*
X0145771Y0098111D01*
X0144001Y0102907D02*
X0099627Y0102907D01*
X0100047Y0103327D02*
X0100747Y0105018D01*
X0100747Y0112848D01*
X0100047Y0114539D01*
X0098753Y0115833D01*
X0097062Y0116533D01*
X0095232Y0116533D01*
X0093542Y0115833D01*
X0092248Y0114539D01*
X0091547Y0112848D01*
X0091547Y0105018D01*
X0092248Y0103327D01*
X0093542Y0102033D01*
X0095232Y0101333D01*
X0097062Y0101333D01*
X0098753Y0102033D01*
X0100047Y0103327D01*
X0100535Y0104506D02*
X0144695Y0104506D01*
X0146799Y0106104D02*
X0100747Y0106104D01*
X0100747Y0107703D02*
X0146525Y0107703D01*
X0144616Y0109301D02*
X0100747Y0109301D01*
X0100747Y0110900D02*
X0143954Y0110900D01*
X0143941Y0112498D02*
X0100747Y0112498D01*
X0100230Y0114097D02*
X0144494Y0114097D01*
X0145884Y0115695D02*
X0098891Y0115695D01*
X0093404Y0115695D02*
X0088891Y0115695D01*
X0088753Y0115833D02*
X0090047Y0114539D01*
X0090747Y0112848D01*
X0090747Y0105018D01*
X0090047Y0103327D01*
X0088753Y0102033D01*
X0087062Y0101333D01*
X0085232Y0101333D01*
X0083542Y0102033D01*
X0082248Y0103327D01*
X0081547Y0105018D01*
X0081547Y0112848D01*
X0082248Y0114539D01*
X0083542Y0115833D01*
X0085232Y0116533D01*
X0087062Y0116533D01*
X0088753Y0115833D01*
X0090230Y0114097D02*
X0092064Y0114097D01*
X0091547Y0112498D02*
X0090747Y0112498D01*
X0090747Y0110900D02*
X0091547Y0110900D01*
X0091547Y0109301D02*
X0090747Y0109301D01*
X0090747Y0107703D02*
X0091547Y0107703D01*
X0091547Y0106104D02*
X0090747Y0106104D01*
X0090535Y0104506D02*
X0091760Y0104506D01*
X0092668Y0102907D02*
X0089627Y0102907D01*
X0082668Y0102907D02*
X0079882Y0102907D01*
X0080730Y0104506D02*
X0081760Y0104506D01*
X0081547Y0106104D02*
X0080947Y0106104D01*
X0080947Y0107703D02*
X0081547Y0107703D01*
X0081547Y0109301D02*
X0080947Y0109301D01*
X0080947Y0110900D02*
X0081547Y0110900D01*
X0081547Y0112498D02*
X0080918Y0112498D01*
X0080432Y0114097D02*
X0082064Y0114097D01*
X0082231Y0115695D02*
X0083404Y0115695D01*
X0084603Y0117294D02*
X0147020Y0117294D01*
X0144754Y0118892D02*
X0085440Y0118892D01*
X0085632Y0120491D02*
X0143934Y0120491D01*
X0143741Y0122089D02*
X0085632Y0122089D01*
X0085632Y0123688D02*
X0144092Y0123688D01*
X0145192Y0125286D02*
X0085632Y0125286D01*
X0085632Y0126885D02*
X0147690Y0126885D01*
X0146290Y0128483D02*
X0085632Y0128483D01*
X0085632Y0130082D02*
X0145628Y0130082D01*
X0145520Y0131680D02*
X0085632Y0131680D01*
X0085632Y0133279D02*
X0145751Y0133279D01*
X0146414Y0134877D02*
X0085632Y0134877D01*
X0071862Y0114097D02*
X0070230Y0114097D01*
X0070747Y0112498D02*
X0071377Y0112498D01*
X0071347Y0110900D02*
X0070747Y0110900D01*
X0070747Y0109301D02*
X0071347Y0109301D01*
X0071347Y0107703D02*
X0070747Y0107703D01*
X0070747Y0106104D02*
X0071347Y0106104D01*
X0071564Y0104506D02*
X0070535Y0104506D01*
X0069627Y0102907D02*
X0072413Y0102907D01*
X0075947Y0102907D02*
X0076347Y0102907D01*
X0076347Y0104506D02*
X0075947Y0104506D01*
X0075947Y0106104D02*
X0076347Y0106104D01*
X0076347Y0107703D02*
X0075947Y0107703D01*
X0052082Y0078929D02*
X0144953Y0078929D01*
X0147422Y0077331D02*
X0052720Y0077331D01*
X0052570Y0075732D02*
X0154772Y0075732D01*
X0154772Y0074134D02*
X0051939Y0074134D01*
X0051939Y0072535D02*
X0154772Y0072535D01*
X0154772Y0070937D02*
X0051939Y0070937D01*
X0051939Y0069338D02*
X0154772Y0069338D01*
X0154772Y0067740D02*
X0051939Y0067740D01*
X0051939Y0066141D02*
X0145379Y0066141D01*
X0143744Y0064543D02*
X0051939Y0064543D01*
X0051939Y0062944D02*
X0143121Y0062944D01*
X0143077Y0061346D02*
X0051939Y0061346D01*
X0051939Y0059747D02*
X0143595Y0059747D01*
X0144972Y0058149D02*
X0051939Y0058149D01*
X0053060Y0037368D02*
X0154772Y0037368D01*
X0145092Y0035770D02*
X0055029Y0035770D01*
X0055623Y0034171D02*
X0143751Y0034171D01*
X0143232Y0032573D02*
X0055585Y0032573D01*
X0054837Y0030974D02*
X0143280Y0030974D01*
X0152603Y0016587D02*
X0154772Y0016587D01*
X0151032Y0058149D02*
X0150632Y0058149D01*
X0150632Y0059747D02*
X0151032Y0059747D01*
X0151032Y0061346D02*
X0150632Y0061346D01*
X0150632Y0062944D02*
X0151032Y0062944D01*
X0151032Y0064543D02*
X0150632Y0064543D01*
X0150632Y0066141D02*
X0151032Y0066141D01*
X0154772Y0096513D02*
X0021640Y0096513D01*
X0006892Y0037368D02*
X0049786Y0037368D01*
X0106065Y0021383D02*
X0106465Y0021383D01*
X0106465Y0019784D02*
X0106065Y0019784D01*
X0106065Y0018186D02*
X0106465Y0018186D01*
X0106465Y0016587D02*
X0106065Y0016587D01*
X0106065Y0014989D02*
X0106465Y0014989D01*
X0151341Y0117294D02*
X0151741Y0117294D01*
X0151741Y0118892D02*
X0151341Y0118892D01*
X0151341Y0120491D02*
X0151741Y0120491D01*
D13*
X0105439Y0079169D03*
X0132801Y0075823D03*
X0063313Y0011453D03*
X0049139Y0050232D03*
X0049139Y0076807D03*
D14*
X0049139Y0050232D01*
M02*
