G75*
%MOIN*%
%OFA0B0*%
%FSLAX25Y25*%
%IPPOS*%
%LPD*%
%AMOC8*
5,1,8,0,0,1.08239X$1,22.5*
%
%ADD10C,0.03162*%
%ADD11C,0.06800*%
%ADD12R,0.07099X0.07887*%
%ADD13R,0.06706X0.05918*%
%ADD14R,0.05918X0.06706*%
%ADD15C,0.06000*%
%ADD16R,0.06312X0.05131*%
%ADD17R,0.05131X0.06312*%
%ADD18R,0.05800X0.10800*%
%ADD19R,0.05800X0.03000*%
%ADD20R,0.03000X0.05800*%
%ADD21C,0.04762*%
D10*
X0010360Y0011059D03*
X0150320Y0011059D03*
X0151502Y0131531D03*
D11*
X0148541Y0121846D02*
X0154541Y0121846D01*
X0154541Y0111846D02*
X0148541Y0111846D01*
X0148541Y0101846D02*
X0154541Y0101846D01*
X0154541Y0091846D02*
X0148541Y0091846D01*
X0148541Y0081846D02*
X0154541Y0081846D01*
X0153832Y0062004D02*
X0147832Y0062004D01*
X0147832Y0052004D02*
X0153832Y0052004D01*
X0153832Y0042004D02*
X0147832Y0042004D01*
X0147832Y0032004D02*
X0153832Y0032004D01*
X0153832Y0022004D02*
X0147832Y0022004D01*
X0106265Y0016657D02*
X0106265Y0010657D01*
X0096265Y0010657D02*
X0096265Y0016657D01*
X0012100Y0032437D02*
X0006100Y0032437D01*
X0006100Y0042437D02*
X0012100Y0042437D01*
X0012100Y0052437D02*
X0006100Y0052437D01*
X0006100Y0062437D02*
X0012100Y0062437D01*
X0012100Y0072437D02*
X0006100Y0072437D01*
X0011061Y0095075D02*
X0017061Y0095075D01*
X0017061Y0105075D02*
X0011061Y0105075D01*
X0066147Y0105933D02*
X0066147Y0111933D01*
X0076147Y0111933D02*
X0076147Y0105933D01*
X0086147Y0105933D02*
X0086147Y0111933D01*
X0096147Y0111933D02*
X0096147Y0105933D01*
D12*
X0036856Y0024878D03*
X0025832Y0024878D03*
X0025242Y0012870D03*
X0036265Y0012870D03*
D13*
X0033864Y0097909D03*
X0033864Y0104602D03*
D14*
X0125793Y0082555D03*
X0132486Y0082555D03*
D15*
X0051423Y0033500D03*
X0051423Y0013500D03*
D16*
X0079887Y0082949D03*
X0079887Y0090823D03*
D17*
X0107919Y0091138D03*
X0115793Y0091138D03*
X0125163Y0091335D03*
X0133037Y0091335D03*
X0128037Y0061886D03*
X0120163Y0061886D03*
X0120084Y0047909D03*
X0127958Y0047909D03*
X0128352Y0033736D03*
X0120478Y0033736D03*
X0121147Y0017004D03*
X0129021Y0017004D03*
X0081541Y0013461D03*
X0073667Y0013461D03*
D18*
X0072210Y0083224D03*
X0065242Y0083028D03*
D19*
X0064798Y0059563D03*
X0064798Y0056413D03*
X0064798Y0053264D03*
X0064798Y0050114D03*
X0064798Y0046965D03*
X0064798Y0043815D03*
X0064798Y0040665D03*
X0064798Y0037516D03*
X0098598Y0037516D03*
X0098598Y0040665D03*
X0098598Y0043815D03*
X0098598Y0046965D03*
X0098598Y0050114D03*
X0098598Y0053264D03*
X0098598Y0056413D03*
X0098598Y0059563D03*
D20*
X0092722Y0065439D03*
X0089572Y0065439D03*
X0086423Y0065439D03*
X0083273Y0065439D03*
X0080124Y0065439D03*
X0076974Y0065439D03*
X0073824Y0065439D03*
X0070675Y0065439D03*
X0070675Y0031639D03*
X0073824Y0031639D03*
X0076974Y0031639D03*
X0080124Y0031639D03*
X0083273Y0031639D03*
X0086423Y0031639D03*
X0089572Y0031639D03*
X0092722Y0031639D03*
D21*
X0063313Y0011453D03*
X0049139Y0050232D03*
X0049139Y0076807D03*
X0105439Y0079169D03*
X0132801Y0075823D03*
M02*
