G75*
%MOIN*%
%OFA0B0*%
%FSLAX25Y25*%
%IPPOS*%
%LPD*%
%AMOC8*
5,1,8,0,0,1.08239X$1,22.5*
%
%ADD10C,0.00800*%
%ADD11C,0.01000*%
%ADD12C,0.00100*%
%ADD13C,0.00000*%
%ADD14C,0.00600*%
%ADD15C,0.00400*%
D10*
X0158833Y0059000D02*
X0158333Y0133378D01*
X0237089Y0132678D01*
X0237589Y0058300D01*
X0158833Y0059000D01*
X0179867Y0076379D02*
X0185435Y0076379D01*
X0199354Y0090299D01*
X0199354Y0095866D01*
X0194761Y0100460D01*
X0189193Y0106027D01*
X0189193Y0100460D01*
X0194761Y0100460D01*
X0189193Y0106027D02*
X0184600Y0110621D01*
X0179032Y0110621D01*
X0165112Y0096701D01*
X0165112Y0091134D01*
X0179867Y0076379D01*
X0180304Y0089603D02*
X0184162Y0089603D01*
X0184162Y0089602D02*
X0184248Y0089604D01*
X0184334Y0089609D01*
X0184419Y0089619D01*
X0184504Y0089632D01*
X0184588Y0089649D01*
X0184672Y0089669D01*
X0184754Y0089693D01*
X0184835Y0089721D01*
X0184916Y0089752D01*
X0184994Y0089786D01*
X0185071Y0089824D01*
X0185147Y0089866D01*
X0185220Y0089910D01*
X0185291Y0089958D01*
X0185361Y0090009D01*
X0185428Y0090063D01*
X0185492Y0090119D01*
X0185554Y0090179D01*
X0185614Y0090241D01*
X0185670Y0090305D01*
X0185724Y0090372D01*
X0185775Y0090442D01*
X0185823Y0090513D01*
X0185867Y0090587D01*
X0185909Y0090662D01*
X0185947Y0090739D01*
X0185981Y0090817D01*
X0186012Y0090898D01*
X0186040Y0090979D01*
X0186064Y0091061D01*
X0186084Y0091145D01*
X0186101Y0091229D01*
X0186114Y0091314D01*
X0186124Y0091399D01*
X0186129Y0091485D01*
X0186131Y0091571D01*
X0186131Y0095429D01*
X0186129Y0095515D01*
X0186124Y0095601D01*
X0186114Y0095686D01*
X0186101Y0095771D01*
X0186084Y0095855D01*
X0186064Y0095939D01*
X0186040Y0096021D01*
X0186012Y0096102D01*
X0185981Y0096183D01*
X0185947Y0096261D01*
X0185909Y0096338D01*
X0185867Y0096414D01*
X0185823Y0096487D01*
X0185775Y0096558D01*
X0185724Y0096628D01*
X0185670Y0096695D01*
X0185614Y0096759D01*
X0185554Y0096821D01*
X0185492Y0096881D01*
X0185428Y0096937D01*
X0185361Y0096991D01*
X0185291Y0097042D01*
X0185220Y0097090D01*
X0185147Y0097134D01*
X0185071Y0097176D01*
X0184994Y0097214D01*
X0184916Y0097248D01*
X0184835Y0097279D01*
X0184754Y0097307D01*
X0184672Y0097331D01*
X0184588Y0097351D01*
X0184504Y0097368D01*
X0184419Y0097381D01*
X0184334Y0097391D01*
X0184248Y0097396D01*
X0184162Y0097398D01*
X0184162Y0097397D02*
X0180304Y0097397D01*
X0180304Y0097398D02*
X0180218Y0097396D01*
X0180132Y0097391D01*
X0180047Y0097381D01*
X0179962Y0097368D01*
X0179878Y0097351D01*
X0179794Y0097331D01*
X0179712Y0097307D01*
X0179631Y0097279D01*
X0179550Y0097248D01*
X0179472Y0097214D01*
X0179395Y0097176D01*
X0179320Y0097134D01*
X0179246Y0097090D01*
X0179175Y0097042D01*
X0179105Y0096991D01*
X0179038Y0096937D01*
X0178974Y0096881D01*
X0178912Y0096821D01*
X0178852Y0096759D01*
X0178796Y0096695D01*
X0178742Y0096628D01*
X0178691Y0096558D01*
X0178643Y0096487D01*
X0178599Y0096414D01*
X0178557Y0096338D01*
X0178519Y0096261D01*
X0178485Y0096183D01*
X0178454Y0096102D01*
X0178426Y0096021D01*
X0178402Y0095939D01*
X0178382Y0095855D01*
X0178365Y0095771D01*
X0178352Y0095686D01*
X0178342Y0095601D01*
X0178337Y0095515D01*
X0178335Y0095429D01*
X0178336Y0095429D02*
X0178336Y0091571D01*
X0178335Y0091571D02*
X0178337Y0091485D01*
X0178342Y0091399D01*
X0178352Y0091314D01*
X0178365Y0091229D01*
X0178382Y0091145D01*
X0178402Y0091061D01*
X0178426Y0090979D01*
X0178454Y0090898D01*
X0178485Y0090817D01*
X0178519Y0090739D01*
X0178557Y0090662D01*
X0178599Y0090587D01*
X0178643Y0090513D01*
X0178691Y0090442D01*
X0178742Y0090372D01*
X0178796Y0090305D01*
X0178852Y0090241D01*
X0178912Y0090179D01*
X0178974Y0090119D01*
X0179038Y0090063D01*
X0179105Y0090009D01*
X0179175Y0089958D01*
X0179246Y0089910D01*
X0179320Y0089866D01*
X0179395Y0089824D01*
X0179472Y0089786D01*
X0179550Y0089752D01*
X0179631Y0089721D01*
X0179712Y0089693D01*
X0179794Y0089669D01*
X0179878Y0089649D01*
X0179962Y0089632D01*
X0180047Y0089619D01*
X0180132Y0089609D01*
X0180218Y0089604D01*
X0180304Y0089602D01*
X0176327Y0093500D02*
X0176329Y0093653D01*
X0176335Y0093807D01*
X0176345Y0093960D01*
X0176359Y0094112D01*
X0176377Y0094265D01*
X0176399Y0094416D01*
X0176424Y0094567D01*
X0176454Y0094718D01*
X0176488Y0094868D01*
X0176525Y0095016D01*
X0176566Y0095164D01*
X0176611Y0095310D01*
X0176660Y0095456D01*
X0176713Y0095600D01*
X0176769Y0095742D01*
X0176829Y0095883D01*
X0176893Y0096023D01*
X0176960Y0096161D01*
X0177031Y0096297D01*
X0177106Y0096431D01*
X0177183Y0096563D01*
X0177265Y0096693D01*
X0177349Y0096821D01*
X0177437Y0096947D01*
X0177528Y0097070D01*
X0177622Y0097191D01*
X0177720Y0097309D01*
X0177820Y0097425D01*
X0177924Y0097538D01*
X0178030Y0097649D01*
X0178139Y0097757D01*
X0178251Y0097862D01*
X0178365Y0097963D01*
X0178483Y0098062D01*
X0178602Y0098158D01*
X0178724Y0098251D01*
X0178849Y0098340D01*
X0178976Y0098427D01*
X0179105Y0098509D01*
X0179236Y0098589D01*
X0179369Y0098665D01*
X0179504Y0098738D01*
X0179641Y0098807D01*
X0179780Y0098872D01*
X0179920Y0098934D01*
X0180062Y0098992D01*
X0180205Y0099047D01*
X0180350Y0099098D01*
X0180496Y0099145D01*
X0180643Y0099188D01*
X0180791Y0099227D01*
X0180940Y0099263D01*
X0181090Y0099294D01*
X0181241Y0099322D01*
X0181392Y0099346D01*
X0181545Y0099366D01*
X0181697Y0099382D01*
X0181850Y0099394D01*
X0182003Y0099402D01*
X0182156Y0099406D01*
X0182310Y0099406D01*
X0182463Y0099402D01*
X0182616Y0099394D01*
X0182769Y0099382D01*
X0182921Y0099366D01*
X0183074Y0099346D01*
X0183225Y0099322D01*
X0183376Y0099294D01*
X0183526Y0099263D01*
X0183675Y0099227D01*
X0183823Y0099188D01*
X0183970Y0099145D01*
X0184116Y0099098D01*
X0184261Y0099047D01*
X0184404Y0098992D01*
X0184546Y0098934D01*
X0184686Y0098872D01*
X0184825Y0098807D01*
X0184962Y0098738D01*
X0185097Y0098665D01*
X0185230Y0098589D01*
X0185361Y0098509D01*
X0185490Y0098427D01*
X0185617Y0098340D01*
X0185742Y0098251D01*
X0185864Y0098158D01*
X0185983Y0098062D01*
X0186101Y0097963D01*
X0186215Y0097862D01*
X0186327Y0097757D01*
X0186436Y0097649D01*
X0186542Y0097538D01*
X0186646Y0097425D01*
X0186746Y0097309D01*
X0186844Y0097191D01*
X0186938Y0097070D01*
X0187029Y0096947D01*
X0187117Y0096821D01*
X0187201Y0096693D01*
X0187283Y0096563D01*
X0187360Y0096431D01*
X0187435Y0096297D01*
X0187506Y0096161D01*
X0187573Y0096023D01*
X0187637Y0095883D01*
X0187697Y0095742D01*
X0187753Y0095600D01*
X0187806Y0095456D01*
X0187855Y0095310D01*
X0187900Y0095164D01*
X0187941Y0095016D01*
X0187978Y0094868D01*
X0188012Y0094718D01*
X0188042Y0094567D01*
X0188067Y0094416D01*
X0188089Y0094265D01*
X0188107Y0094112D01*
X0188121Y0093960D01*
X0188131Y0093807D01*
X0188137Y0093653D01*
X0188139Y0093500D01*
X0188137Y0093347D01*
X0188131Y0093193D01*
X0188121Y0093040D01*
X0188107Y0092888D01*
X0188089Y0092735D01*
X0188067Y0092584D01*
X0188042Y0092433D01*
X0188012Y0092282D01*
X0187978Y0092132D01*
X0187941Y0091984D01*
X0187900Y0091836D01*
X0187855Y0091690D01*
X0187806Y0091544D01*
X0187753Y0091400D01*
X0187697Y0091258D01*
X0187637Y0091117D01*
X0187573Y0090977D01*
X0187506Y0090839D01*
X0187435Y0090703D01*
X0187360Y0090569D01*
X0187283Y0090437D01*
X0187201Y0090307D01*
X0187117Y0090179D01*
X0187029Y0090053D01*
X0186938Y0089930D01*
X0186844Y0089809D01*
X0186746Y0089691D01*
X0186646Y0089575D01*
X0186542Y0089462D01*
X0186436Y0089351D01*
X0186327Y0089243D01*
X0186215Y0089138D01*
X0186101Y0089037D01*
X0185983Y0088938D01*
X0185864Y0088842D01*
X0185742Y0088749D01*
X0185617Y0088660D01*
X0185490Y0088573D01*
X0185361Y0088491D01*
X0185230Y0088411D01*
X0185097Y0088335D01*
X0184962Y0088262D01*
X0184825Y0088193D01*
X0184686Y0088128D01*
X0184546Y0088066D01*
X0184404Y0088008D01*
X0184261Y0087953D01*
X0184116Y0087902D01*
X0183970Y0087855D01*
X0183823Y0087812D01*
X0183675Y0087773D01*
X0183526Y0087737D01*
X0183376Y0087706D01*
X0183225Y0087678D01*
X0183074Y0087654D01*
X0182921Y0087634D01*
X0182769Y0087618D01*
X0182616Y0087606D01*
X0182463Y0087598D01*
X0182310Y0087594D01*
X0182156Y0087594D01*
X0182003Y0087598D01*
X0181850Y0087606D01*
X0181697Y0087618D01*
X0181545Y0087634D01*
X0181392Y0087654D01*
X0181241Y0087678D01*
X0181090Y0087706D01*
X0180940Y0087737D01*
X0180791Y0087773D01*
X0180643Y0087812D01*
X0180496Y0087855D01*
X0180350Y0087902D01*
X0180205Y0087953D01*
X0180062Y0088008D01*
X0179920Y0088066D01*
X0179780Y0088128D01*
X0179641Y0088193D01*
X0179504Y0088262D01*
X0179369Y0088335D01*
X0179236Y0088411D01*
X0179105Y0088491D01*
X0178976Y0088573D01*
X0178849Y0088660D01*
X0178724Y0088749D01*
X0178602Y0088842D01*
X0178483Y0088938D01*
X0178365Y0089037D01*
X0178251Y0089138D01*
X0178139Y0089243D01*
X0178030Y0089351D01*
X0177924Y0089462D01*
X0177820Y0089575D01*
X0177720Y0089691D01*
X0177622Y0089809D01*
X0177528Y0089930D01*
X0177437Y0090053D01*
X0177349Y0090179D01*
X0177265Y0090307D01*
X0177183Y0090437D01*
X0177106Y0090569D01*
X0177031Y0090703D01*
X0176960Y0090839D01*
X0176893Y0090977D01*
X0176829Y0091117D01*
X0176769Y0091258D01*
X0176713Y0091400D01*
X0176660Y0091544D01*
X0176611Y0091690D01*
X0176566Y0091836D01*
X0176525Y0091984D01*
X0176488Y0092132D01*
X0176454Y0092282D01*
X0176424Y0092433D01*
X0176399Y0092584D01*
X0176377Y0092735D01*
X0176359Y0092888D01*
X0176345Y0093040D01*
X0176335Y0093193D01*
X0176329Y0093347D01*
X0176327Y0093500D01*
X0182233Y0100738D02*
X0182233Y0105749D01*
X0180563Y0104079D01*
X0182233Y0105749D02*
X0183904Y0104079D01*
D11*
X0200213Y0125500D02*
X0201748Y0125500D01*
X0202515Y0126267D01*
X0202515Y0130104D01*
X0204602Y0130104D02*
X0206904Y0130104D01*
X0207672Y0129337D01*
X0207672Y0127802D01*
X0206904Y0127035D01*
X0204602Y0127035D01*
X0204602Y0125500D02*
X0204602Y0130104D01*
X0199446Y0130104D02*
X0199446Y0126267D01*
X0200213Y0125500D01*
X0201959Y0069479D02*
X0201959Y0064875D01*
X0205028Y0064875D01*
X0211959Y0064875D02*
X0211959Y0069479D01*
X0214260Y0069479D01*
X0215028Y0068712D01*
X0215028Y0065643D01*
X0214260Y0064875D01*
X0211959Y0064875D01*
X0221959Y0064875D02*
X0221959Y0069479D01*
X0224260Y0069479D01*
X0225028Y0068712D01*
X0225028Y0067177D01*
X0224260Y0066410D01*
X0221959Y0066410D01*
X0223493Y0066410D02*
X0225028Y0064875D01*
X0231959Y0067177D02*
X0235028Y0067177D01*
X0195028Y0065643D02*
X0194260Y0064875D01*
X0192726Y0064875D01*
X0191959Y0065643D01*
X0191959Y0068712D01*
X0192726Y0069479D01*
X0194260Y0069479D01*
X0195028Y0068712D01*
X0185028Y0069479D02*
X0185028Y0065643D01*
X0184260Y0064875D01*
X0182726Y0064875D01*
X0181959Y0065643D01*
X0181959Y0069479D01*
X0175028Y0067177D02*
X0171959Y0067177D01*
X0173493Y0068711D02*
X0173493Y0065642D01*
D12*
X0187673Y0109289D02*
X0186965Y0109997D01*
X0187319Y0109643D02*
X0188380Y0110704D01*
X0187673Y0110704D01*
X0187515Y0111215D02*
X0187515Y0111569D01*
X0187162Y0111923D01*
X0186808Y0111923D01*
X0186631Y0111746D01*
X0186631Y0111392D01*
X0186985Y0111038D01*
X0186985Y0110685D01*
X0186808Y0110508D01*
X0186454Y0110508D01*
X0186100Y0110862D01*
X0186100Y0111215D01*
D13*
X0186047Y0098789D02*
X0186049Y0098866D01*
X0186055Y0098942D01*
X0186065Y0099018D01*
X0186079Y0099093D01*
X0186096Y0099168D01*
X0186118Y0099241D01*
X0186143Y0099314D01*
X0186173Y0099385D01*
X0186205Y0099454D01*
X0186242Y0099521D01*
X0186281Y0099587D01*
X0186324Y0099650D01*
X0186371Y0099711D01*
X0186420Y0099770D01*
X0186473Y0099826D01*
X0186528Y0099879D01*
X0186586Y0099929D01*
X0186646Y0099976D01*
X0186709Y0100020D01*
X0186774Y0100061D01*
X0186841Y0100098D01*
X0186910Y0100132D01*
X0186980Y0100162D01*
X0187052Y0100188D01*
X0187126Y0100210D01*
X0187200Y0100229D01*
X0187275Y0100244D01*
X0187351Y0100255D01*
X0187427Y0100262D01*
X0187504Y0100265D01*
X0187580Y0100264D01*
X0187657Y0100259D01*
X0187733Y0100250D01*
X0187809Y0100237D01*
X0187883Y0100220D01*
X0187957Y0100200D01*
X0188030Y0100175D01*
X0188101Y0100147D01*
X0188171Y0100115D01*
X0188239Y0100080D01*
X0188305Y0100041D01*
X0188369Y0099999D01*
X0188430Y0099953D01*
X0188490Y0099904D01*
X0188546Y0099853D01*
X0188600Y0099798D01*
X0188651Y0099741D01*
X0188699Y0099681D01*
X0188744Y0099619D01*
X0188785Y0099554D01*
X0188823Y0099488D01*
X0188858Y0099420D01*
X0188888Y0099349D01*
X0188916Y0099278D01*
X0188939Y0099205D01*
X0188959Y0099131D01*
X0188975Y0099056D01*
X0188987Y0098980D01*
X0188995Y0098904D01*
X0188999Y0098827D01*
X0188999Y0098751D01*
X0188995Y0098674D01*
X0188987Y0098598D01*
X0188975Y0098522D01*
X0188959Y0098447D01*
X0188939Y0098373D01*
X0188916Y0098300D01*
X0188888Y0098229D01*
X0188858Y0098158D01*
X0188823Y0098090D01*
X0188785Y0098024D01*
X0188744Y0097959D01*
X0188699Y0097897D01*
X0188651Y0097837D01*
X0188600Y0097780D01*
X0188546Y0097725D01*
X0188490Y0097674D01*
X0188430Y0097625D01*
X0188369Y0097579D01*
X0188305Y0097537D01*
X0188239Y0097498D01*
X0188171Y0097463D01*
X0188101Y0097431D01*
X0188030Y0097403D01*
X0187957Y0097378D01*
X0187883Y0097358D01*
X0187809Y0097341D01*
X0187733Y0097328D01*
X0187657Y0097319D01*
X0187580Y0097314D01*
X0187504Y0097313D01*
X0187427Y0097316D01*
X0187351Y0097323D01*
X0187275Y0097334D01*
X0187200Y0097349D01*
X0187126Y0097368D01*
X0187052Y0097390D01*
X0186980Y0097416D01*
X0186910Y0097446D01*
X0186841Y0097480D01*
X0186774Y0097517D01*
X0186709Y0097558D01*
X0186646Y0097602D01*
X0186586Y0097649D01*
X0186528Y0097699D01*
X0186473Y0097752D01*
X0186420Y0097808D01*
X0186371Y0097867D01*
X0186324Y0097928D01*
X0186281Y0097991D01*
X0186242Y0098057D01*
X0186205Y0098124D01*
X0186173Y0098193D01*
X0186143Y0098264D01*
X0186118Y0098337D01*
X0186096Y0098410D01*
X0186079Y0098485D01*
X0186065Y0098560D01*
X0186055Y0098636D01*
X0186049Y0098712D01*
X0186047Y0098789D01*
X0174877Y0088211D02*
X0174879Y0088302D01*
X0174885Y0088392D01*
X0174895Y0088483D01*
X0174909Y0088572D01*
X0174927Y0088661D01*
X0174948Y0088750D01*
X0174974Y0088837D01*
X0175003Y0088923D01*
X0175037Y0089007D01*
X0175073Y0089090D01*
X0175114Y0089172D01*
X0175158Y0089251D01*
X0175205Y0089329D01*
X0175256Y0089404D01*
X0175310Y0089477D01*
X0175367Y0089547D01*
X0175427Y0089615D01*
X0175490Y0089681D01*
X0175556Y0089743D01*
X0175625Y0089802D01*
X0175696Y0089859D01*
X0175770Y0089912D01*
X0175846Y0089962D01*
X0175924Y0090009D01*
X0176004Y0090052D01*
X0176085Y0090091D01*
X0176169Y0090127D01*
X0176254Y0090159D01*
X0176340Y0090188D01*
X0176427Y0090212D01*
X0176516Y0090233D01*
X0176605Y0090250D01*
X0176695Y0090263D01*
X0176785Y0090272D01*
X0176876Y0090277D01*
X0176967Y0090278D01*
X0177057Y0090275D01*
X0177148Y0090268D01*
X0177238Y0090257D01*
X0177328Y0090242D01*
X0177417Y0090223D01*
X0177505Y0090201D01*
X0177591Y0090174D01*
X0177677Y0090144D01*
X0177761Y0090110D01*
X0177844Y0090072D01*
X0177925Y0090031D01*
X0178004Y0089986D01*
X0178081Y0089937D01*
X0178155Y0089886D01*
X0178228Y0089831D01*
X0178298Y0089773D01*
X0178365Y0089712D01*
X0178429Y0089648D01*
X0178491Y0089582D01*
X0178550Y0089512D01*
X0178605Y0089441D01*
X0178658Y0089366D01*
X0178707Y0089290D01*
X0178753Y0089212D01*
X0178795Y0089131D01*
X0178834Y0089049D01*
X0178869Y0088965D01*
X0178900Y0088880D01*
X0178927Y0088793D01*
X0178951Y0088706D01*
X0178971Y0088617D01*
X0178987Y0088528D01*
X0178999Y0088438D01*
X0179007Y0088347D01*
X0179011Y0088256D01*
X0179011Y0088166D01*
X0179007Y0088075D01*
X0178999Y0087984D01*
X0178987Y0087894D01*
X0178971Y0087805D01*
X0178951Y0087716D01*
X0178927Y0087629D01*
X0178900Y0087542D01*
X0178869Y0087457D01*
X0178834Y0087373D01*
X0178795Y0087291D01*
X0178753Y0087210D01*
X0178707Y0087132D01*
X0178658Y0087056D01*
X0178605Y0086981D01*
X0178550Y0086910D01*
X0178491Y0086840D01*
X0178429Y0086774D01*
X0178365Y0086710D01*
X0178298Y0086649D01*
X0178228Y0086591D01*
X0178155Y0086536D01*
X0178081Y0086485D01*
X0178004Y0086436D01*
X0177925Y0086391D01*
X0177844Y0086350D01*
X0177761Y0086312D01*
X0177677Y0086278D01*
X0177591Y0086248D01*
X0177505Y0086221D01*
X0177417Y0086199D01*
X0177328Y0086180D01*
X0177238Y0086165D01*
X0177148Y0086154D01*
X0177057Y0086147D01*
X0176967Y0086144D01*
X0176876Y0086145D01*
X0176785Y0086150D01*
X0176695Y0086159D01*
X0176605Y0086172D01*
X0176516Y0086189D01*
X0176427Y0086210D01*
X0176340Y0086234D01*
X0176254Y0086263D01*
X0176169Y0086295D01*
X0176085Y0086331D01*
X0176004Y0086370D01*
X0175924Y0086413D01*
X0175846Y0086460D01*
X0175770Y0086510D01*
X0175696Y0086563D01*
X0175625Y0086620D01*
X0175556Y0086679D01*
X0175490Y0086741D01*
X0175427Y0086807D01*
X0175367Y0086875D01*
X0175310Y0086945D01*
X0175256Y0087018D01*
X0175205Y0087093D01*
X0175158Y0087171D01*
X0175114Y0087250D01*
X0175073Y0087332D01*
X0175037Y0087415D01*
X0175003Y0087499D01*
X0174974Y0087585D01*
X0174948Y0087672D01*
X0174927Y0087761D01*
X0174909Y0087850D01*
X0174895Y0087939D01*
X0174885Y0088030D01*
X0174879Y0088120D01*
X0174877Y0088211D01*
D14*
X0180183Y0107163D02*
X0181051Y0107163D01*
X0181484Y0107596D01*
X0181484Y0109765D01*
X0182696Y0109765D02*
X0183997Y0109765D01*
X0184431Y0109331D01*
X0184431Y0108464D01*
X0183997Y0108030D01*
X0182696Y0108030D01*
X0182696Y0107163D02*
X0182696Y0109765D01*
X0179749Y0109765D02*
X0179749Y0107596D01*
X0180183Y0107163D01*
D15*
X0157961Y0062183D02*
X0157961Y0059881D01*
X0162565Y0059881D01*
X0161030Y0059881D02*
X0161030Y0062183D01*
X0160263Y0062950D01*
X0158728Y0062950D01*
X0157961Y0062183D01*
X0159496Y0064485D02*
X0157961Y0066020D01*
X0159496Y0067554D01*
X0162565Y0067554D01*
X0162565Y0069089D02*
X0157961Y0069089D01*
X0157961Y0071391D01*
X0158728Y0072158D01*
X0161798Y0072158D01*
X0162565Y0071391D01*
X0162565Y0069089D01*
X0164313Y0068989D02*
X0164313Y0071291D01*
X0165080Y0072058D01*
X0168149Y0072058D01*
X0168917Y0071291D01*
X0168917Y0068989D01*
X0164313Y0068989D01*
X0165848Y0067454D02*
X0168917Y0067454D01*
X0166615Y0067454D02*
X0166615Y0064385D01*
X0165848Y0064385D02*
X0164313Y0065920D01*
X0165848Y0067454D01*
X0170865Y0065990D02*
X0172399Y0067524D01*
X0175469Y0067524D01*
X0175469Y0069059D02*
X0170865Y0069059D01*
X0170865Y0071361D01*
X0171632Y0072128D01*
X0174701Y0072128D01*
X0175469Y0071361D01*
X0175469Y0069059D01*
X0177520Y0069089D02*
X0177520Y0071391D01*
X0178287Y0072158D01*
X0181357Y0072158D01*
X0182124Y0071391D01*
X0182124Y0069089D01*
X0177520Y0069089D01*
X0179055Y0067554D02*
X0182124Y0067554D01*
X0179822Y0067554D02*
X0179822Y0064485D01*
X0179055Y0064485D02*
X0177520Y0066020D01*
X0179055Y0067554D01*
X0184280Y0066020D02*
X0185814Y0067554D01*
X0188884Y0067554D01*
X0188884Y0069089D02*
X0184280Y0069089D01*
X0184280Y0071391D01*
X0185047Y0072158D01*
X0188116Y0072158D01*
X0188884Y0071391D01*
X0188884Y0069089D01*
X0191150Y0069089D02*
X0191150Y0071391D01*
X0191917Y0072158D01*
X0194986Y0072158D01*
X0195754Y0071391D01*
X0195754Y0069089D01*
X0191150Y0069089D01*
X0192685Y0067554D02*
X0195754Y0067554D01*
X0193452Y0067554D02*
X0193452Y0064485D01*
X0192685Y0064485D02*
X0191150Y0066020D01*
X0192685Y0067554D01*
X0186582Y0067554D02*
X0186582Y0064485D01*
X0185814Y0064485D02*
X0184280Y0066020D01*
X0185814Y0064485D02*
X0188884Y0064485D01*
X0186582Y0062950D02*
X0187349Y0062183D01*
X0187349Y0059881D01*
X0188884Y0059881D02*
X0184280Y0059881D01*
X0184280Y0062183D01*
X0185047Y0062950D01*
X0186582Y0062950D01*
X0191150Y0062183D02*
X0191917Y0062950D01*
X0193452Y0062950D01*
X0194219Y0062183D01*
X0194219Y0059881D01*
X0195754Y0059881D02*
X0191150Y0059881D01*
X0191150Y0062183D01*
X0192685Y0064485D02*
X0195754Y0064485D01*
X0182124Y0064485D02*
X0179055Y0064485D01*
X0179822Y0062950D02*
X0180589Y0062183D01*
X0180589Y0059881D01*
X0182124Y0059881D02*
X0177520Y0059881D01*
X0177520Y0062183D01*
X0178287Y0062950D01*
X0179822Y0062950D01*
X0175469Y0064455D02*
X0172399Y0064455D01*
X0170865Y0065990D01*
X0168917Y0064385D02*
X0165848Y0064385D01*
X0166615Y0062850D02*
X0167382Y0062083D01*
X0167382Y0059781D01*
X0168917Y0059781D02*
X0164313Y0059781D01*
X0164313Y0062083D01*
X0165080Y0062850D01*
X0166615Y0062850D01*
X0170865Y0062153D02*
X0171632Y0062920D01*
X0173167Y0062920D01*
X0173934Y0062153D01*
X0173934Y0059851D01*
X0175469Y0059851D02*
X0170865Y0059851D01*
X0170865Y0062153D01*
X0173167Y0064455D02*
X0173167Y0067524D01*
X0162565Y0064485D02*
X0159496Y0064485D01*
X0160263Y0064485D02*
X0160263Y0067554D01*
X0161798Y0073693D02*
X0162565Y0074460D01*
X0162565Y0075995D01*
X0161798Y0076762D01*
X0161030Y0076762D01*
X0160263Y0075995D01*
X0160263Y0075228D01*
X0160263Y0075995D02*
X0159496Y0076762D01*
X0158728Y0076762D01*
X0157961Y0075995D01*
X0157961Y0074460D01*
X0158728Y0073693D01*
X0164313Y0073593D02*
X0166615Y0073593D01*
X0165848Y0075128D01*
X0165848Y0075895D01*
X0166615Y0076662D01*
X0168149Y0076662D01*
X0168917Y0075895D01*
X0168917Y0074360D01*
X0168149Y0073593D01*
X0170865Y0075198D02*
X0175469Y0075198D01*
X0175469Y0076732D02*
X0175469Y0073663D01*
X0177520Y0074460D02*
X0177520Y0075995D01*
X0178287Y0076762D01*
X0179055Y0076762D01*
X0182124Y0073693D01*
X0182124Y0076762D01*
X0184280Y0076762D02*
X0185047Y0075228D01*
X0186582Y0073693D01*
X0186582Y0075995D01*
X0187349Y0076762D01*
X0188116Y0076762D01*
X0188884Y0075995D01*
X0188884Y0074460D01*
X0188116Y0073693D01*
X0186582Y0073693D01*
X0191150Y0075995D02*
X0193452Y0073693D01*
X0193452Y0076762D01*
X0195754Y0075995D02*
X0191150Y0075995D01*
X0178287Y0073693D02*
X0177520Y0074460D01*
X0172399Y0073663D02*
X0170865Y0075198D01*
X0164313Y0076662D02*
X0164313Y0073593D01*
M02*
