G75*
%MOIN*%
%OFA0B0*%
%FSLAX25Y25*%
%IPPOS*%
%LPD*%
%AMOC8*
5,1,8,0,0,1.08239X$1,22.5*
%
%ADD10C,0.00800*%
%ADD11R,0.08083X0.05131*%
%ADD12R,0.08280X0.08674*%
%ADD13C,0.00000*%
%ADD14C,0.03753*%
%ADD15C,0.04934*%
%ADD16R,0.05800X0.10800*%
D10*
X0158833Y0059000D02*
X0158333Y0133378D01*
X0237089Y0132678D01*
X0237589Y0058300D01*
X0158833Y0059000D01*
D11*
G36*
X0188635Y0075675D02*
X0182921Y0081389D01*
X0186549Y0085017D01*
X0192263Y0079303D01*
X0188635Y0075675D01*
G37*
G36*
X0192533Y0079573D02*
X0186819Y0085287D01*
X0190447Y0088915D01*
X0196161Y0083201D01*
X0192533Y0079573D01*
G37*
G36*
X0196430Y0083470D02*
X0190716Y0089184D01*
X0194344Y0092812D01*
X0200058Y0087098D01*
X0196430Y0083470D01*
G37*
G36*
X0170122Y0094188D02*
X0164408Y0099902D01*
X0168036Y0103530D01*
X0173750Y0097816D01*
X0170122Y0094188D01*
G37*
G36*
X0174020Y0098085D02*
X0168306Y0103799D01*
X0171934Y0107427D01*
X0177648Y0101713D01*
X0174020Y0098085D01*
G37*
G36*
X0177917Y0101983D02*
X0172203Y0107697D01*
X0175831Y0111325D01*
X0181545Y0105611D01*
X0177917Y0101983D01*
G37*
D12*
G36*
X0193592Y0099003D02*
X0187737Y0104858D01*
X0193870Y0110991D01*
X0199725Y0105136D01*
X0193592Y0099003D01*
G37*
G36*
X0170597Y0076009D02*
X0164742Y0081864D01*
X0170875Y0087997D01*
X0176730Y0082142D01*
X0170597Y0076009D01*
G37*
D13*
X0174877Y0088211D02*
X0174879Y0088302D01*
X0174885Y0088392D01*
X0174895Y0088483D01*
X0174909Y0088572D01*
X0174927Y0088661D01*
X0174948Y0088750D01*
X0174974Y0088837D01*
X0175003Y0088923D01*
X0175037Y0089007D01*
X0175073Y0089090D01*
X0175114Y0089172D01*
X0175158Y0089251D01*
X0175205Y0089329D01*
X0175256Y0089404D01*
X0175310Y0089477D01*
X0175367Y0089547D01*
X0175427Y0089615D01*
X0175490Y0089681D01*
X0175556Y0089743D01*
X0175625Y0089802D01*
X0175696Y0089859D01*
X0175770Y0089912D01*
X0175846Y0089962D01*
X0175924Y0090009D01*
X0176004Y0090052D01*
X0176085Y0090091D01*
X0176169Y0090127D01*
X0176254Y0090159D01*
X0176340Y0090188D01*
X0176427Y0090212D01*
X0176516Y0090233D01*
X0176605Y0090250D01*
X0176695Y0090263D01*
X0176785Y0090272D01*
X0176876Y0090277D01*
X0176967Y0090278D01*
X0177057Y0090275D01*
X0177148Y0090268D01*
X0177238Y0090257D01*
X0177328Y0090242D01*
X0177417Y0090223D01*
X0177505Y0090201D01*
X0177591Y0090174D01*
X0177677Y0090144D01*
X0177761Y0090110D01*
X0177844Y0090072D01*
X0177925Y0090031D01*
X0178004Y0089986D01*
X0178081Y0089937D01*
X0178155Y0089886D01*
X0178228Y0089831D01*
X0178298Y0089773D01*
X0178365Y0089712D01*
X0178429Y0089648D01*
X0178491Y0089582D01*
X0178550Y0089512D01*
X0178605Y0089441D01*
X0178658Y0089366D01*
X0178707Y0089290D01*
X0178753Y0089212D01*
X0178795Y0089131D01*
X0178834Y0089049D01*
X0178869Y0088965D01*
X0178900Y0088880D01*
X0178927Y0088793D01*
X0178951Y0088706D01*
X0178971Y0088617D01*
X0178987Y0088528D01*
X0178999Y0088438D01*
X0179007Y0088347D01*
X0179011Y0088256D01*
X0179011Y0088166D01*
X0179007Y0088075D01*
X0178999Y0087984D01*
X0178987Y0087894D01*
X0178971Y0087805D01*
X0178951Y0087716D01*
X0178927Y0087629D01*
X0178900Y0087542D01*
X0178869Y0087457D01*
X0178834Y0087373D01*
X0178795Y0087291D01*
X0178753Y0087210D01*
X0178707Y0087132D01*
X0178658Y0087056D01*
X0178605Y0086981D01*
X0178550Y0086910D01*
X0178491Y0086840D01*
X0178429Y0086774D01*
X0178365Y0086710D01*
X0178298Y0086649D01*
X0178228Y0086591D01*
X0178155Y0086536D01*
X0178081Y0086485D01*
X0178004Y0086436D01*
X0177925Y0086391D01*
X0177844Y0086350D01*
X0177761Y0086312D01*
X0177677Y0086278D01*
X0177591Y0086248D01*
X0177505Y0086221D01*
X0177417Y0086199D01*
X0177328Y0086180D01*
X0177238Y0086165D01*
X0177148Y0086154D01*
X0177057Y0086147D01*
X0176967Y0086144D01*
X0176876Y0086145D01*
X0176785Y0086150D01*
X0176695Y0086159D01*
X0176605Y0086172D01*
X0176516Y0086189D01*
X0176427Y0086210D01*
X0176340Y0086234D01*
X0176254Y0086263D01*
X0176169Y0086295D01*
X0176085Y0086331D01*
X0176004Y0086370D01*
X0175924Y0086413D01*
X0175846Y0086460D01*
X0175770Y0086510D01*
X0175696Y0086563D01*
X0175625Y0086620D01*
X0175556Y0086679D01*
X0175490Y0086741D01*
X0175427Y0086807D01*
X0175367Y0086875D01*
X0175310Y0086945D01*
X0175256Y0087018D01*
X0175205Y0087093D01*
X0175158Y0087171D01*
X0175114Y0087250D01*
X0175073Y0087332D01*
X0175037Y0087415D01*
X0175003Y0087499D01*
X0174974Y0087585D01*
X0174948Y0087672D01*
X0174927Y0087761D01*
X0174909Y0087850D01*
X0174895Y0087939D01*
X0174885Y0088030D01*
X0174879Y0088120D01*
X0174877Y0088211D01*
X0186047Y0098789D02*
X0186049Y0098866D01*
X0186055Y0098942D01*
X0186065Y0099018D01*
X0186079Y0099093D01*
X0186096Y0099168D01*
X0186118Y0099241D01*
X0186143Y0099314D01*
X0186173Y0099385D01*
X0186205Y0099454D01*
X0186242Y0099521D01*
X0186281Y0099587D01*
X0186324Y0099650D01*
X0186371Y0099711D01*
X0186420Y0099770D01*
X0186473Y0099826D01*
X0186528Y0099879D01*
X0186586Y0099929D01*
X0186646Y0099976D01*
X0186709Y0100020D01*
X0186774Y0100061D01*
X0186841Y0100098D01*
X0186910Y0100132D01*
X0186980Y0100162D01*
X0187052Y0100188D01*
X0187126Y0100210D01*
X0187200Y0100229D01*
X0187275Y0100244D01*
X0187351Y0100255D01*
X0187427Y0100262D01*
X0187504Y0100265D01*
X0187580Y0100264D01*
X0187657Y0100259D01*
X0187733Y0100250D01*
X0187809Y0100237D01*
X0187883Y0100220D01*
X0187957Y0100200D01*
X0188030Y0100175D01*
X0188101Y0100147D01*
X0188171Y0100115D01*
X0188239Y0100080D01*
X0188305Y0100041D01*
X0188369Y0099999D01*
X0188430Y0099953D01*
X0188490Y0099904D01*
X0188546Y0099853D01*
X0188600Y0099798D01*
X0188651Y0099741D01*
X0188699Y0099681D01*
X0188744Y0099619D01*
X0188785Y0099554D01*
X0188823Y0099488D01*
X0188858Y0099420D01*
X0188888Y0099349D01*
X0188916Y0099278D01*
X0188939Y0099205D01*
X0188959Y0099131D01*
X0188975Y0099056D01*
X0188987Y0098980D01*
X0188995Y0098904D01*
X0188999Y0098827D01*
X0188999Y0098751D01*
X0188995Y0098674D01*
X0188987Y0098598D01*
X0188975Y0098522D01*
X0188959Y0098447D01*
X0188939Y0098373D01*
X0188916Y0098300D01*
X0188888Y0098229D01*
X0188858Y0098158D01*
X0188823Y0098090D01*
X0188785Y0098024D01*
X0188744Y0097959D01*
X0188699Y0097897D01*
X0188651Y0097837D01*
X0188600Y0097780D01*
X0188546Y0097725D01*
X0188490Y0097674D01*
X0188430Y0097625D01*
X0188369Y0097579D01*
X0188305Y0097537D01*
X0188239Y0097498D01*
X0188171Y0097463D01*
X0188101Y0097431D01*
X0188030Y0097403D01*
X0187957Y0097378D01*
X0187883Y0097358D01*
X0187809Y0097341D01*
X0187733Y0097328D01*
X0187657Y0097319D01*
X0187580Y0097314D01*
X0187504Y0097313D01*
X0187427Y0097316D01*
X0187351Y0097323D01*
X0187275Y0097334D01*
X0187200Y0097349D01*
X0187126Y0097368D01*
X0187052Y0097390D01*
X0186980Y0097416D01*
X0186910Y0097446D01*
X0186841Y0097480D01*
X0186774Y0097517D01*
X0186709Y0097558D01*
X0186646Y0097602D01*
X0186586Y0097649D01*
X0186528Y0097699D01*
X0186473Y0097752D01*
X0186420Y0097808D01*
X0186371Y0097867D01*
X0186324Y0097928D01*
X0186281Y0097991D01*
X0186242Y0098057D01*
X0186205Y0098124D01*
X0186173Y0098193D01*
X0186143Y0098264D01*
X0186118Y0098337D01*
X0186096Y0098410D01*
X0186079Y0098485D01*
X0186065Y0098560D01*
X0186055Y0098636D01*
X0186049Y0098712D01*
X0186047Y0098789D01*
D14*
X0187523Y0098789D03*
D15*
X0176944Y0088211D03*
D16*
X0178818Y0069100D03*
X0172266Y0069030D03*
X0165914Y0069130D03*
X0185473Y0069130D03*
X0192233Y0069130D03*
X0199103Y0069130D03*
M02*
